%TF.GenerationSoftware,KiCad,Pcbnew,(6.0.1)*%
%TF.CreationDate,2022-02-14T12:03:10-05:00*%
%TF.ProjectId,high-voltage-board,68696768-2d76-46f6-9c74-6167652d626f,rev?*%
%TF.SameCoordinates,Original*%
%TF.FileFunction,Soldermask,Bot*%
%TF.FilePolarity,Negative*%
%FSLAX46Y46*%
G04 Gerber Fmt 4.6, Leading zero omitted, Abs format (unit mm)*
G04 Created by KiCad (PCBNEW (6.0.1)) date 2022-02-14 12:03:10*
%MOMM*%
%LPD*%
G01*
G04 APERTURE LIST*
G04 Aperture macros list*
%AMRoundRect*
0 Rectangle with rounded corners*
0 $1 Rounding radius*
0 $2 $3 $4 $5 $6 $7 $8 $9 X,Y pos of 4 corners*
0 Add a 4 corners polygon primitive as box body*
4,1,4,$2,$3,$4,$5,$6,$7,$8,$9,$2,$3,0*
0 Add four circle primitives for the rounded corners*
1,1,$1+$1,$2,$3*
1,1,$1+$1,$4,$5*
1,1,$1+$1,$6,$7*
1,1,$1+$1,$8,$9*
0 Add four rect primitives between the rounded corners*
20,1,$1+$1,$2,$3,$4,$5,0*
20,1,$1+$1,$4,$5,$6,$7,0*
20,1,$1+$1,$6,$7,$8,$9,0*
20,1,$1+$1,$8,$9,$2,$3,0*%
G04 Aperture macros list end*
%ADD10C,3.180000*%
%ADD11RoundRect,0.250000X1.070000X-1.400000X1.070000X1.400000X-1.070000X1.400000X-1.070000X-1.400000X0*%
%ADD12O,2.640000X3.300000*%
%ADD13C,3.200000*%
%ADD14C,0.800000*%
%ADD15C,6.400000*%
%ADD16C,1.699848*%
%ADD17C,1.600000*%
%ADD18RoundRect,0.250000X1.150000X-0.980000X1.150000X0.980000X-1.150000X0.980000X-1.150000X-0.980000X0*%
%ADD19C,2.000000*%
%ADD20RoundRect,0.250000X-0.725000X0.600000X-0.725000X-0.600000X0.725000X-0.600000X0.725000X0.600000X0*%
%ADD21O,1.950000X1.700000*%
%ADD22C,2.400000*%
%ADD23RoundRect,0.250000X-0.750000X0.600000X-0.750000X-0.600000X0.750000X-0.600000X0.750000X0.600000X0*%
%ADD24O,2.000000X1.700000*%
%ADD25C,2.700000*%
%ADD26C,3.000000*%
%ADD27C,2.850000*%
%ADD28R,2.625000X2.625000*%
%ADD29C,2.625000*%
%ADD30O,2.400000X2.400000*%
%ADD31RoundRect,0.250000X-1.070000X1.400000X-1.070000X-1.400000X1.070000X-1.400000X1.070000X1.400000X0*%
%ADD32RoundRect,0.250000X0.725000X-0.600000X0.725000X0.600000X-0.725000X0.600000X-0.725000X-0.600000X0*%
%ADD33R,1.500000X1.780000*%
%ADD34RoundRect,0.237500X-0.237500X0.250000X-0.237500X-0.250000X0.237500X-0.250000X0.237500X0.250000X0*%
%ADD35RoundRect,0.237500X-0.300000X-0.237500X0.300000X-0.237500X0.300000X0.237500X-0.300000X0.237500X0*%
%ADD36RoundRect,0.237500X-0.237500X0.300000X-0.237500X-0.300000X0.237500X-0.300000X0.237500X0.300000X0*%
%ADD37RoundRect,0.237500X0.300000X0.237500X-0.300000X0.237500X-0.300000X-0.237500X0.300000X-0.237500X0*%
%ADD38R,1.200000X0.800000*%
%ADD39RoundRect,0.237500X0.237500X-0.250000X0.237500X0.250000X-0.237500X0.250000X-0.237500X-0.250000X0*%
G04 APERTURE END LIST*
D10*
%TO.C,J5*%
X104215700Y-48060100D03*
D11*
X91495700Y-48060100D03*
D12*
X95635700Y-48060100D03*
X99775700Y-48060100D03*
%TD*%
D13*
%TO.C,H4*%
X53340000Y-139700000D03*
%TD*%
D14*
%TO.C,U7*%
X112522000Y-87731600D03*
X110815751Y-83612351D03*
D15*
X112522000Y-85318600D03*
D14*
X114228249Y-87024849D03*
X110815751Y-87024849D03*
X110109000Y-85318600D03*
X112522000Y-82905600D03*
X114228249Y-83612351D03*
X114935000Y-85318600D03*
D16*
X113538000Y-94335600D03*
X113538000Y-96875600D03*
X113538000Y-99415600D03*
D14*
X112613440Y-111988600D03*
X114980720Y-109529880D03*
X110154720Y-109621320D03*
X112522000Y-107162600D03*
X110893800Y-111314178D03*
X114241640Y-107837022D03*
X110829142Y-107901680D03*
X114306298Y-111249520D03*
D15*
X112567720Y-109575600D03*
D14*
X171521751Y-106963849D03*
X171521751Y-103551351D03*
X175641000Y-105257600D03*
D15*
X173228000Y-105257600D03*
D14*
X173228000Y-102844600D03*
X170815000Y-105257600D03*
X173228000Y-107670600D03*
X174934249Y-106963849D03*
X174934249Y-103551351D03*
X171521751Y-91469849D03*
X174934249Y-88057351D03*
D15*
X173228000Y-89763600D03*
D14*
X174934249Y-91469849D03*
X175641000Y-89763600D03*
X170815000Y-89763600D03*
X173228000Y-92176600D03*
X173228000Y-87350600D03*
X171521751Y-88057351D03*
%TD*%
D17*
%TO.C,J11*%
X77926000Y-138152000D03*
D18*
X74676000Y-136652000D03*
%TD*%
D13*
%TO.C,H2*%
X224790000Y-119380000D03*
%TD*%
D19*
%TO.C,C23*%
X193541700Y-100510100D03*
X201041700Y-100510100D03*
%TD*%
D13*
%TO.C,H3*%
X53848000Y-44450000D03*
%TD*%
D20*
%TO.C,J9*%
X123374000Y-127831600D03*
D21*
X123374000Y-130331600D03*
X123374000Y-132831600D03*
X123374000Y-135331600D03*
X123374000Y-137831600D03*
%TD*%
D19*
%TO.C,C22*%
X188461700Y-77015100D03*
X195961700Y-77015100D03*
%TD*%
D22*
%TO.C,C2*%
X90424000Y-72002000D03*
X90424000Y-87002000D03*
%TD*%
D23*
%TO.C,J7*%
X212150700Y-88900000D03*
D24*
X212150700Y-91400000D03*
%TD*%
D22*
%TO.C,C19*%
X100076000Y-72002000D03*
X100076000Y-87002000D03*
%TD*%
D13*
%TO.C,H1*%
X224790000Y-44196000D03*
%TD*%
D25*
%TO.C,F1*%
X161350700Y-47297100D03*
D26*
X172600700Y-47297100D03*
X150100700Y-47297100D03*
%TD*%
D17*
%TO.C,J3*%
X80018700Y-49559100D03*
D18*
X76768700Y-48059100D03*
%TD*%
D25*
%TO.C,F2*%
X133410700Y-47297100D03*
D26*
X122160700Y-47297100D03*
X144660700Y-47297100D03*
%TD*%
D23*
%TO.C,J12*%
X204487000Y-62250000D03*
D24*
X204487000Y-64750000D03*
%TD*%
D27*
%TO.C,J1*%
X151487200Y-132887600D03*
X192487200Y-132887600D03*
D28*
X157987200Y-128387600D03*
D29*
X161987200Y-128387600D03*
X165987200Y-128387600D03*
X169987200Y-128387600D03*
X173987200Y-128387600D03*
X177987200Y-128387600D03*
X181987200Y-128387600D03*
X185987200Y-128387600D03*
X159987200Y-132387600D03*
X163987200Y-132387600D03*
X167987200Y-132387600D03*
X171987200Y-132387600D03*
X175987200Y-132387600D03*
X179987200Y-132387600D03*
X183987200Y-132387600D03*
X157987200Y-136387600D03*
X161987200Y-136387600D03*
X165987200Y-136387600D03*
X169987200Y-136387600D03*
X173987200Y-136387600D03*
X177987200Y-136387600D03*
X181987200Y-136387600D03*
X185987200Y-136387600D03*
%TD*%
D22*
%TO.C,R9*%
X54356000Y-54864000D03*
D30*
X54356000Y-115824000D03*
%TD*%
D22*
%TO.C,R1*%
X147269200Y-59029600D03*
D30*
X172669200Y-59029600D03*
%TD*%
D17*
%TO.C,J4*%
X101294000Y-129770000D03*
D18*
X98044000Y-128270000D03*
%TD*%
D22*
%TO.C,R10*%
X76708000Y-65278000D03*
D30*
X76708000Y-126238000D03*
%TD*%
D10*
%TO.C,J6*%
X89464000Y-117856000D03*
D31*
X102184000Y-117856000D03*
D12*
X98044000Y-117856000D03*
X93904000Y-117856000D03*
%TD*%
D32*
%TO.C,J2*%
X135125200Y-137911600D03*
D21*
X135125200Y-135411600D03*
X135125200Y-132911600D03*
X135125200Y-130411600D03*
X135125200Y-127911600D03*
%TD*%
D17*
%TO.C,J8*%
X57733000Y-129643000D03*
D18*
X54483000Y-128143000D03*
%TD*%
D33*
%TO.C,U2*%
X135662700Y-89932100D03*
X135662700Y-87392100D03*
X145192700Y-87392100D03*
X145192700Y-89932100D03*
%TD*%
%TO.C,U8*%
X145192700Y-98822100D03*
X145192700Y-101362100D03*
X135662700Y-101362100D03*
X135662700Y-98822100D03*
%TD*%
D34*
%TO.C,R2*%
X151095700Y-87091100D03*
X151095700Y-88916100D03*
%TD*%
%TO.C,R17*%
X134331700Y-112538100D03*
X134331700Y-114363100D03*
%TD*%
%TO.C,R18*%
X149063700Y-96893600D03*
X149063700Y-98718600D03*
%TD*%
D35*
%TO.C,C16*%
X213259500Y-81534000D03*
X214984500Y-81534000D03*
%TD*%
D36*
%TO.C,C17*%
X222453200Y-73457900D03*
X222453200Y-75182900D03*
%TD*%
D37*
%TO.C,C15*%
X219454900Y-81534000D03*
X217729900Y-81534000D03*
%TD*%
D38*
%TO.C,U9*%
X137277700Y-112792100D03*
X137277700Y-110252100D03*
X143577700Y-110252100D03*
X143577700Y-112792100D03*
%TD*%
D39*
%TO.C,R8*%
X129540000Y-70254500D03*
X129540000Y-68429500D03*
%TD*%
D35*
%TO.C,C13*%
X212446700Y-68986400D03*
X214171700Y-68986400D03*
%TD*%
D34*
%TO.C,R19*%
X147539700Y-112745100D03*
X147539700Y-114570100D03*
%TD*%
M02*
