%TF.GenerationSoftware,KiCad,Pcbnew,(6.0.1)*%
%TF.CreationDate,2022-02-14T12:03:10-05:00*%
%TF.ProjectId,high-voltage-board,68696768-2d76-46f6-9c74-6167652d626f,rev?*%
%TF.SameCoordinates,Original*%
%TF.FileFunction,Paste,Top*%
%TF.FilePolarity,Positive*%
%FSLAX46Y46*%
G04 Gerber Fmt 4.6, Leading zero omitted, Abs format (unit mm)*
G04 Created by KiCad (PCBNEW (6.0.1)) date 2022-02-14 12:03:10*
%MOMM*%
%LPD*%
G01*
G04 APERTURE LIST*
G04 Aperture macros list*
%AMRoundRect*
0 Rectangle with rounded corners*
0 $1 Rounding radius*
0 $2 $3 $4 $5 $6 $7 $8 $9 X,Y pos of 4 corners*
0 Add a 4 corners polygon primitive as box body*
4,1,4,$2,$3,$4,$5,$6,$7,$8,$9,$2,$3,0*
0 Add four circle primitives for the rounded corners*
1,1,$1+$1,$2,$3*
1,1,$1+$1,$4,$5*
1,1,$1+$1,$6,$7*
1,1,$1+$1,$8,$9*
0 Add four rect primitives between the rounded corners*
20,1,$1+$1,$2,$3,$4,$5,0*
20,1,$1+$1,$4,$5,$6,$7,0*
20,1,$1+$1,$6,$7,$8,$9,0*
20,1,$1+$1,$8,$9,$2,$3,0*%
G04 Aperture macros list end*
%ADD10R,0.800000X1.900000*%
%ADD11RoundRect,0.237500X-0.287500X-0.237500X0.287500X-0.237500X0.287500X0.237500X-0.287500X0.237500X0*%
%ADD12RoundRect,0.237500X0.237500X-0.250000X0.237500X0.250000X-0.237500X0.250000X-0.237500X-0.250000X0*%
%ADD13R,1.500000X2.000000*%
%ADD14R,3.800000X2.000000*%
%ADD15RoundRect,0.237500X-0.300000X-0.237500X0.300000X-0.237500X0.300000X0.237500X-0.300000X0.237500X0*%
%ADD16R,0.600000X0.900000*%
%ADD17R,0.900000X0.600000*%
%ADD18R,1.050000X0.600000*%
%ADD19RoundRect,0.237500X-0.237500X0.300000X-0.237500X-0.300000X0.237500X-0.300000X0.237500X0.300000X0*%
%ADD20RoundRect,0.237500X0.237500X-0.300000X0.237500X0.300000X-0.237500X0.300000X-0.237500X-0.300000X0*%
%ADD21RoundRect,0.249999X0.450001X1.425001X-0.450001X1.425001X-0.450001X-1.425001X0.450001X-1.425001X0*%
%ADD22R,1.200000X1.200000*%
%ADD23R,1.500000X1.600000*%
%ADD24RoundRect,0.150000X-0.309359X-0.521491X0.521491X0.309359X0.309359X0.521491X-0.521491X-0.309359X0*%
%ADD25RoundRect,0.249999X1.425001X-0.450001X1.425001X0.450001X-1.425001X0.450001X-1.425001X-0.450001X0*%
%ADD26RoundRect,0.237500X0.250000X0.237500X-0.250000X0.237500X-0.250000X-0.237500X0.250000X-0.237500X0*%
%ADD27RoundRect,0.041300X-0.253700X0.943700X-0.253700X-0.943700X0.253700X-0.943700X0.253700X0.943700X0*%
%ADD28RoundRect,0.249999X-0.450001X-1.425001X0.450001X-1.425001X0.450001X1.425001X-0.450001X1.425001X0*%
%ADD29RoundRect,0.237500X-0.237500X0.250000X-0.237500X-0.250000X0.237500X-0.250000X0.237500X0.250000X0*%
%ADD30RoundRect,0.250001X-0.849999X0.462499X-0.849999X-0.462499X0.849999X-0.462499X0.849999X0.462499X0*%
%ADD31R,0.400000X3.200000*%
%ADD32RoundRect,0.250000X-0.285000X0.285000X-0.285000X-0.285000X0.285000X-0.285000X0.285000X0.285000X0*%
%ADD33RoundRect,0.062500X-0.062500X0.337500X-0.062500X-0.337500X0.062500X-0.337500X0.062500X0.337500X0*%
%ADD34RoundRect,0.062500X-0.337500X0.062500X-0.337500X-0.062500X0.337500X-0.062500X0.337500X0.062500X0*%
%ADD35RoundRect,0.237500X-0.250000X-0.237500X0.250000X-0.237500X0.250000X0.237500X-0.250000X0.237500X0*%
%ADD36RoundRect,0.150000X0.825000X0.150000X-0.825000X0.150000X-0.825000X-0.150000X0.825000X-0.150000X0*%
%ADD37R,2.400000X0.740000*%
%ADD38RoundRect,0.250000X-0.450000X0.325000X-0.450000X-0.325000X0.450000X-0.325000X0.450000X0.325000X0*%
G04 APERTURE END LIST*
D10*
%TO.C,Q3*%
X210124000Y-64492000D03*
X212024000Y-64492000D03*
X211074000Y-61492000D03*
%TD*%
D11*
%TO.C,D2*%
X207772000Y-100584000D03*
X209522000Y-100584000D03*
%TD*%
D12*
%TO.C,R3*%
X188528700Y-54178600D03*
X188528700Y-52353600D03*
%TD*%
D13*
%TO.C,U4*%
X208012000Y-109195000D03*
D14*
X210312000Y-102895000D03*
D13*
X210312000Y-109195000D03*
X212612000Y-109195000D03*
%TD*%
D12*
%TO.C,R4*%
X188528700Y-50622600D03*
X188528700Y-48797600D03*
%TD*%
D15*
%TO.C,C10*%
X212497500Y-67310000D03*
X214222500Y-67310000D03*
%TD*%
D16*
%TO.C,Q2*%
X210553700Y-55052100D03*
X208853700Y-53902100D03*
X208853700Y-55052100D03*
D17*
X212403700Y-55782100D03*
X212403700Y-54502100D03*
X212403700Y-53302100D03*
D16*
X209703700Y-52752100D03*
X208853700Y-52752100D03*
D17*
X212403700Y-52022100D03*
D16*
X210553700Y-53902100D03*
X210553700Y-52752100D03*
X209703700Y-55052100D03*
X209703700Y-53902100D03*
D18*
X206683700Y-51992100D03*
X206683700Y-53262100D03*
X206683700Y-54542100D03*
X206683700Y-55812100D03*
%TD*%
D19*
%TO.C,C3*%
X222758000Y-106833500D03*
X222758000Y-108558500D03*
%TD*%
D20*
%TO.C,C1*%
X209677000Y-79602500D03*
X209677000Y-77877500D03*
%TD*%
D15*
%TO.C,C5*%
X191375700Y-56314100D03*
X193100700Y-56314100D03*
%TD*%
D21*
%TO.C,R20*%
X189292700Y-89715100D03*
X183192700Y-89715100D03*
%TD*%
D22*
%TO.C,RV1*%
X135150000Y-63230000D03*
D23*
X131900000Y-62230000D03*
D22*
X135150000Y-61230000D03*
%TD*%
D20*
%TO.C,C7*%
X222758000Y-105002500D03*
X222758000Y-103277500D03*
%TD*%
D24*
%TO.C,D3*%
X215073336Y-114799161D03*
X216416839Y-116142664D03*
X217070913Y-114145087D03*
%TD*%
D25*
%TO.C,R15*%
X109026700Y-60888100D03*
X109026700Y-54788100D03*
%TD*%
D15*
%TO.C,C6*%
X190714200Y-48440100D03*
X192439200Y-48440100D03*
%TD*%
D26*
%TO.C,R13*%
X219606500Y-110490000D03*
X217781500Y-110490000D03*
%TD*%
D15*
%TO.C,C4*%
X194778200Y-48440100D03*
X196503200Y-48440100D03*
%TD*%
D27*
%TO.C,U1*%
X220853000Y-103189000D03*
X219583000Y-103189000D03*
X218313000Y-103189000D03*
X217043000Y-103189000D03*
X217043000Y-108139000D03*
X218313000Y-108139000D03*
X219583000Y-108139000D03*
X220853000Y-108139000D03*
%TD*%
D28*
%TO.C,R6*%
X190177700Y-43995100D03*
X196277700Y-43995100D03*
%TD*%
D29*
%TO.C,R12*%
X211201000Y-73636500D03*
X211201000Y-75461500D03*
%TD*%
D16*
%TO.C,Q1*%
X206591700Y-45646100D03*
D17*
X210141700Y-47526100D03*
D16*
X208291700Y-46796100D03*
X207441700Y-44496100D03*
X207441700Y-45646100D03*
X206591700Y-46796100D03*
X208291700Y-45646100D03*
D17*
X210141700Y-45046100D03*
D16*
X206591700Y-44496100D03*
D17*
X210141700Y-43766100D03*
X210141700Y-46246100D03*
D16*
X208291700Y-44496100D03*
X207441700Y-46796100D03*
D18*
X204421700Y-43736100D03*
X204421700Y-45006100D03*
X204421700Y-46286100D03*
X204421700Y-47556100D03*
%TD*%
D20*
%TO.C,C12*%
X205613000Y-111733500D03*
X205613000Y-110008500D03*
%TD*%
%TO.C,C9*%
X203835000Y-113384500D03*
X203835000Y-111659500D03*
%TD*%
D30*
%TO.C,L1*%
X115630700Y-56675600D03*
X115630700Y-59000600D03*
%TD*%
D31*
%TO.C,Y1*%
X216224000Y-68326000D03*
X217424000Y-68326000D03*
X218624000Y-68326000D03*
%TD*%
D32*
%TO.C,U5*%
X214707700Y-78117600D03*
X218667700Y-76797600D03*
X217347700Y-74157600D03*
X216027700Y-75477600D03*
X218667700Y-74157600D03*
X217347700Y-76797600D03*
X217347700Y-75477600D03*
X216027700Y-74157600D03*
X217347700Y-78117600D03*
X218667700Y-78117600D03*
X214707700Y-75477600D03*
X216027700Y-76797600D03*
X214707700Y-76797600D03*
X218667700Y-75477600D03*
X216027700Y-78117600D03*
X214707700Y-74157600D03*
D33*
X219437700Y-72687600D03*
X218937700Y-72687600D03*
X218437700Y-72687600D03*
X217937700Y-72687600D03*
X217437700Y-72687600D03*
X216937700Y-72687600D03*
X216437700Y-72687600D03*
X215937700Y-72687600D03*
X215437700Y-72687600D03*
X214937700Y-72687600D03*
X214437700Y-72687600D03*
X213937700Y-72687600D03*
D34*
X213237700Y-73387600D03*
X213237700Y-73887600D03*
X213237700Y-74387600D03*
X213237700Y-74887600D03*
X213237700Y-75387600D03*
X213237700Y-75887600D03*
X213237700Y-76387600D03*
X213237700Y-76887600D03*
X213237700Y-77387600D03*
X213237700Y-77887600D03*
X213237700Y-78387600D03*
X213237700Y-78887600D03*
D33*
X213937700Y-79587600D03*
X214437700Y-79587600D03*
X214937700Y-79587600D03*
X215437700Y-79587600D03*
X215937700Y-79587600D03*
X216437700Y-79587600D03*
X216937700Y-79587600D03*
X217437700Y-79587600D03*
X217937700Y-79587600D03*
X218437700Y-79587600D03*
X218937700Y-79587600D03*
X219437700Y-79587600D03*
D34*
X220137700Y-78887600D03*
X220137700Y-78387600D03*
X220137700Y-77887600D03*
X220137700Y-77387600D03*
X220137700Y-76887600D03*
X220137700Y-76387600D03*
X220137700Y-75887600D03*
X220137700Y-75387600D03*
X220137700Y-74887600D03*
X220137700Y-74387600D03*
X220137700Y-73887600D03*
X220137700Y-73387600D03*
%TD*%
D35*
%TO.C,R7*%
X211304500Y-100584000D03*
X213129500Y-100584000D03*
%TD*%
D36*
%TO.C,U3*%
X196083700Y-54155100D03*
X196083700Y-52885100D03*
X196083700Y-51615100D03*
X196083700Y-50345100D03*
X191133700Y-50345100D03*
X191133700Y-51615100D03*
X191133700Y-52885100D03*
X191133700Y-54155100D03*
%TD*%
D37*
%TO.C,J10*%
X224200000Y-94742000D03*
X220300000Y-94742000D03*
X224200000Y-93472000D03*
X220300000Y-93472000D03*
X224200000Y-92202000D03*
X220300000Y-92202000D03*
X224200000Y-90932000D03*
X220300000Y-90932000D03*
X224200000Y-89662000D03*
X220300000Y-89662000D03*
X224200000Y-88392000D03*
X220300000Y-88392000D03*
X224200000Y-87122000D03*
X220300000Y-87122000D03*
%TD*%
D38*
%TO.C,L2*%
X183642000Y-95994000D03*
X183642000Y-98044000D03*
%TD*%
D26*
%TO.C,R5*%
X200236200Y-51615100D03*
X198411200Y-51615100D03*
%TD*%
%TO.C,R11*%
X225091000Y-84328000D03*
X223266000Y-84328000D03*
%TD*%
M02*
