%TF.GenerationSoftware,KiCad,Pcbnew,(6.0.1)*%
%TF.CreationDate,2022-02-14T12:03:10-05:00*%
%TF.ProjectId,high-voltage-board,68696768-2d76-46f6-9c74-6167652d626f,rev?*%
%TF.SameCoordinates,Original*%
%TF.FileFunction,Legend,Bot*%
%TF.FilePolarity,Positive*%
%FSLAX46Y46*%
G04 Gerber Fmt 4.6, Leading zero omitted, Abs format (unit mm)*
G04 Created by KiCad (PCBNEW (6.0.1)) date 2022-02-14 12:03:10*
%MOMM*%
%LPD*%
G01*
G04 APERTURE LIST*
%ADD10C,0.150000*%
%ADD11C,0.300000*%
%ADD12C,0.120000*%
G04 APERTURE END LIST*
D10*
X113538000Y-124079000D02*
X141097000Y-120142000D01*
X180975000Y-62865000D02*
X180975000Y-38912800D01*
X140589000Y-75819000D02*
X180975000Y-62865000D01*
X113538000Y-139065000D02*
X113538000Y-124079000D01*
X184661000Y-53949428D02*
X184794333Y-54178000D01*
X184794333Y-54520857D01*
X184661000Y-54863714D01*
X184394333Y-55092285D01*
X184127666Y-55206571D01*
X183594333Y-55320857D01*
X183194333Y-55320857D01*
X182661000Y-55206571D01*
X182394333Y-55092285D01*
X182127666Y-54863714D01*
X181994333Y-54520857D01*
X181994333Y-54292285D01*
X182127666Y-53949428D01*
X182261000Y-53835142D01*
X183194333Y-53835142D01*
X183194333Y-54292285D01*
X181994333Y-51663714D02*
X181994333Y-52806571D01*
X184794333Y-52806571D01*
X184794333Y-51206571D02*
X181994333Y-50406571D01*
X184794333Y-49606571D01*
X116970000Y-129006428D02*
X117103333Y-129235000D01*
X117103333Y-129577857D01*
X116970000Y-129920714D01*
X116703333Y-130149285D01*
X116436666Y-130263571D01*
X115903333Y-130377857D01*
X115503333Y-130377857D01*
X114970000Y-130263571D01*
X114703333Y-130149285D01*
X114436666Y-129920714D01*
X114303333Y-129577857D01*
X114303333Y-129349285D01*
X114436666Y-129006428D01*
X114570000Y-128892142D01*
X115503333Y-128892142D01*
X115503333Y-129349285D01*
X114303333Y-126720714D02*
X114303333Y-127863571D01*
X117103333Y-127863571D01*
X117103333Y-126263571D02*
X114303333Y-125463571D01*
X117103333Y-124663571D01*
X177060863Y-49476505D02*
X177060863Y-50847933D01*
X179860863Y-50162219D02*
X177060863Y-50162219D01*
X179727530Y-51533648D02*
X179860863Y-51876505D01*
X179860863Y-52447933D01*
X179727530Y-52676505D01*
X179594197Y-52790790D01*
X179327530Y-52905076D01*
X179060863Y-52905076D01*
X178794197Y-52790790D01*
X178660863Y-52676505D01*
X178527530Y-52447933D01*
X178394197Y-51990790D01*
X178260863Y-51762219D01*
X178127530Y-51647933D01*
X177860863Y-51533648D01*
X177594197Y-51533648D01*
X177327530Y-51647933D01*
X177194197Y-51762219D01*
X177060863Y-51990790D01*
X177060863Y-52562219D01*
X177194197Y-52905076D01*
X177060863Y-53590790D02*
X179860863Y-54390790D01*
X177060863Y-55190790D01*
D11*
X86770241Y-60177238D02*
X86770241Y-57977238D01*
X86770241Y-59024857D02*
X85513099Y-59024857D01*
X85513099Y-60177238D02*
X85513099Y-57977238D01*
X84465480Y-60177238D02*
X84465480Y-57977238D01*
X82265480Y-58082000D02*
X82475003Y-57977238D01*
X82789289Y-57977238D01*
X83103575Y-58082000D01*
X83313099Y-58291523D01*
X83417860Y-58501047D01*
X83522622Y-58920095D01*
X83522622Y-59234380D01*
X83417860Y-59653428D01*
X83313099Y-59862952D01*
X83103575Y-60072476D01*
X82789289Y-60177238D01*
X82579765Y-60177238D01*
X82265480Y-60072476D01*
X82160718Y-59967714D01*
X82160718Y-59234380D01*
X82579765Y-59234380D01*
X81217860Y-60177238D02*
X81217860Y-57977238D01*
X81217860Y-59024857D02*
X79960718Y-59024857D01*
X79960718Y-60177238D02*
X79960718Y-57977238D01*
X77551194Y-57977238D02*
X76817860Y-60177238D01*
X76084527Y-57977238D01*
X74932146Y-57977238D02*
X74513099Y-57977238D01*
X74303575Y-58082000D01*
X74094051Y-58291523D01*
X73989289Y-58710571D01*
X73989289Y-59443904D01*
X74094051Y-59862952D01*
X74303575Y-60072476D01*
X74513099Y-60177238D01*
X74932146Y-60177238D01*
X75141670Y-60072476D01*
X75351194Y-59862952D01*
X75455956Y-59443904D01*
X75455956Y-58710571D01*
X75351194Y-58291523D01*
X75141670Y-58082000D01*
X74932146Y-57977238D01*
X71998813Y-60177238D02*
X73046432Y-60177238D01*
X73046432Y-57977238D01*
X71579765Y-57977238D02*
X70322622Y-57977238D01*
X70951194Y-60177238D02*
X70951194Y-57977238D01*
X69694051Y-59548666D02*
X68646432Y-59548666D01*
X69903575Y-60177238D02*
X69170241Y-57977238D01*
X68436908Y-60177238D01*
X66551194Y-58082000D02*
X66760718Y-57977238D01*
X67075003Y-57977238D01*
X67389289Y-58082000D01*
X67598813Y-58291523D01*
X67703575Y-58501047D01*
X67808337Y-58920095D01*
X67808337Y-59234380D01*
X67703575Y-59653428D01*
X67598813Y-59862952D01*
X67389289Y-60072476D01*
X67075003Y-60177238D01*
X66865480Y-60177238D01*
X66551194Y-60072476D01*
X66446432Y-59967714D01*
X66446432Y-59234380D01*
X66865480Y-59234380D01*
X65503575Y-59024857D02*
X64770241Y-59024857D01*
X64455956Y-60177238D02*
X65503575Y-60177238D01*
X65503575Y-57977238D01*
X64455956Y-57977238D01*
D10*
X109591666Y-124777857D02*
X109591666Y-126149285D01*
X112391666Y-125463571D02*
X109591666Y-125463571D01*
X112258333Y-126835000D02*
X112391666Y-127177857D01*
X112391666Y-127749285D01*
X112258333Y-127977857D01*
X112125000Y-128092142D01*
X111858333Y-128206428D01*
X111591666Y-128206428D01*
X111325000Y-128092142D01*
X111191666Y-127977857D01*
X111058333Y-127749285D01*
X110925000Y-127292142D01*
X110791666Y-127063571D01*
X110658333Y-126949285D01*
X110391666Y-126835000D01*
X110125000Y-126835000D01*
X109858333Y-126949285D01*
X109725000Y-127063571D01*
X109591666Y-127292142D01*
X109591666Y-127863571D01*
X109725000Y-128206428D01*
X109591666Y-128892142D02*
X112391666Y-129692142D01*
X109591666Y-130492142D01*
X185418264Y-62415665D02*
X185808640Y-62832963D01*
X185613452Y-62624314D02*
X186343724Y-61941157D01*
X186304462Y-62108301D01*
X186299975Y-62242913D01*
X186330262Y-62344994D01*
X185725629Y-61280435D02*
X185660566Y-61210886D01*
X185560729Y-61173867D01*
X185493423Y-61171624D01*
X185391342Y-61201912D01*
X185219711Y-61297262D01*
X185045837Y-61459918D01*
X184939269Y-61624818D01*
X184902251Y-61724656D01*
X184900007Y-61791962D01*
X184930295Y-61894043D01*
X184995358Y-61963592D01*
X185095195Y-62000611D01*
X185162501Y-62002854D01*
X185264582Y-61972567D01*
X185436213Y-61877216D01*
X185610087Y-61714560D01*
X185716655Y-61549660D01*
X185753673Y-61449822D01*
X185755917Y-61382516D01*
X185725629Y-61280435D01*
X184544407Y-61342133D02*
X184477101Y-61339889D01*
X184474857Y-61407195D01*
X184542163Y-61409439D01*
X184544407Y-61342133D01*
X184474857Y-61407195D01*
X184944878Y-60445839D02*
X184489440Y-59958992D01*
X184051950Y-60955122D01*
X183818622Y-59869250D02*
X183918460Y-59906269D01*
X183985766Y-59908512D01*
X184087847Y-59878224D01*
X184122622Y-59845693D01*
X184159640Y-59745856D01*
X184161884Y-59678550D01*
X184131596Y-59576469D01*
X184001471Y-59437369D01*
X183901633Y-59400351D01*
X183834327Y-59398107D01*
X183732246Y-59428395D01*
X183697471Y-59460927D01*
X183660453Y-59560764D01*
X183658209Y-59628070D01*
X183688497Y-59730151D01*
X183818622Y-59869250D01*
X183848910Y-59971331D01*
X183846667Y-60038637D01*
X183809648Y-60138475D01*
X183670549Y-60268600D01*
X183568468Y-60298888D01*
X183501162Y-60296644D01*
X183401324Y-60259626D01*
X183271199Y-60120527D01*
X183240911Y-60018446D01*
X183243155Y-59951139D01*
X183280173Y-59851302D01*
X183419273Y-59721177D01*
X183521354Y-59690889D01*
X183588660Y-59693133D01*
X183688497Y-59730151D01*
X183541545Y-59085134D02*
X183543789Y-59017828D01*
X183513501Y-58915747D01*
X183350845Y-58741873D01*
X183251007Y-58704854D01*
X183183701Y-58702611D01*
X183081620Y-58732899D01*
X183012071Y-58797961D01*
X182940277Y-58930330D01*
X182913355Y-59738003D01*
X182490448Y-59285931D01*
X182993001Y-58359350D02*
X182570094Y-57907277D01*
X182519614Y-58410951D01*
X182422020Y-58306627D01*
X182322183Y-58269608D01*
X182254877Y-58267365D01*
X182152796Y-58297652D01*
X181978922Y-58460309D01*
X181941903Y-58560146D01*
X181939660Y-58627452D01*
X181969947Y-58729533D01*
X182165135Y-58938182D01*
X182264973Y-58975201D01*
X182332279Y-58977444D01*
X181026540Y-57721063D02*
X181513388Y-57265625D01*
X181443838Y-57330688D02*
X181446082Y-57263382D01*
X181415794Y-57161301D01*
X181318200Y-57056976D01*
X181218362Y-57019958D01*
X181116282Y-57050246D01*
X180733758Y-57408090D01*
X181116282Y-57050246D02*
X181153300Y-56950408D01*
X181123012Y-56848327D01*
X181025418Y-56744003D01*
X180925581Y-56706984D01*
X180823500Y-56737272D01*
X180440977Y-57095116D01*
X180115664Y-56747368D02*
X180602511Y-56291930D01*
X180532962Y-56356993D02*
X180535205Y-56289686D01*
X180504918Y-56187606D01*
X180407324Y-56083281D01*
X180307486Y-56046263D01*
X180205405Y-56076550D01*
X179822882Y-56434395D01*
X180205405Y-56076550D02*
X180242424Y-55976713D01*
X180212136Y-55874632D01*
X180114542Y-55770308D01*
X180014705Y-55733289D01*
X179912624Y-55763577D01*
X179530101Y-56121421D01*
X174609136Y-59602421D02*
X178888900Y-55598771D01*
X181975136Y-67476421D02*
X186254900Y-63472771D01*
X178460654Y-55999389D02*
X185826654Y-63873389D01*
X178460654Y-55999389D02*
X185826654Y-63873389D01*
X178460654Y-55999389D02*
X178801987Y-57222660D01*
X178460654Y-55999389D02*
X179658479Y-56421425D01*
X185826654Y-63873389D02*
X185485321Y-62650118D01*
X185826654Y-63873389D02*
X184628829Y-63451353D01*
X144462047Y-71708380D02*
X144938238Y-71708380D01*
X144985857Y-72184571D01*
X144938238Y-72136952D01*
X144843000Y-72089333D01*
X144604904Y-72089333D01*
X144509666Y-72136952D01*
X144462047Y-72184571D01*
X144414428Y-72279809D01*
X144414428Y-72517904D01*
X144462047Y-72613142D01*
X144509666Y-72660761D01*
X144604904Y-72708380D01*
X144843000Y-72708380D01*
X144938238Y-72660761D01*
X144985857Y-72613142D01*
X143985857Y-72613142D02*
X143938238Y-72660761D01*
X143985857Y-72708380D01*
X144033476Y-72660761D01*
X143985857Y-72613142D01*
X143985857Y-72708380D01*
X143366809Y-72136952D02*
X143462047Y-72089333D01*
X143509666Y-72041714D01*
X143557285Y-71946476D01*
X143557285Y-71898857D01*
X143509666Y-71803619D01*
X143462047Y-71756000D01*
X143366809Y-71708380D01*
X143176333Y-71708380D01*
X143081095Y-71756000D01*
X143033476Y-71803619D01*
X142985857Y-71898857D01*
X142985857Y-71946476D01*
X143033476Y-72041714D01*
X143081095Y-72089333D01*
X143176333Y-72136952D01*
X143366809Y-72136952D01*
X143462047Y-72184571D01*
X143509666Y-72232190D01*
X143557285Y-72327428D01*
X143557285Y-72517904D01*
X143509666Y-72613142D01*
X143462047Y-72660761D01*
X143366809Y-72708380D01*
X143176333Y-72708380D01*
X143081095Y-72660761D01*
X143033476Y-72613142D01*
X142985857Y-72517904D01*
X142985857Y-72327428D01*
X143033476Y-72232190D01*
X143081095Y-72184571D01*
X143176333Y-72136952D01*
X142128714Y-72041714D02*
X142128714Y-72708380D01*
X142366809Y-71660761D02*
X142604904Y-72375047D01*
X141985857Y-72375047D01*
X141652523Y-71803619D02*
X141604904Y-71756000D01*
X141509666Y-71708380D01*
X141271571Y-71708380D01*
X141176333Y-71756000D01*
X141128714Y-71803619D01*
X141081095Y-71898857D01*
X141081095Y-71994095D01*
X141128714Y-72136952D01*
X141700142Y-72708380D01*
X141081095Y-72708380D01*
X140462047Y-71708380D02*
X140366809Y-71708380D01*
X140271571Y-71756000D01*
X140223952Y-71803619D01*
X140176333Y-71898857D01*
X140128714Y-72089333D01*
X140128714Y-72327428D01*
X140176333Y-72517904D01*
X140223952Y-72613142D01*
X140271571Y-72660761D01*
X140366809Y-72708380D01*
X140462047Y-72708380D01*
X140557285Y-72660761D01*
X140604904Y-72613142D01*
X140652523Y-72517904D01*
X140700142Y-72327428D01*
X140700142Y-72089333D01*
X140652523Y-71898857D01*
X140604904Y-71803619D01*
X140557285Y-71756000D01*
X140462047Y-71708380D01*
X138938238Y-72708380D02*
X138938238Y-72041714D01*
X138938238Y-72136952D02*
X138890619Y-72089333D01*
X138795380Y-72041714D01*
X138652523Y-72041714D01*
X138557285Y-72089333D01*
X138509666Y-72184571D01*
X138509666Y-72708380D01*
X138509666Y-72184571D02*
X138462047Y-72089333D01*
X138366809Y-72041714D01*
X138223952Y-72041714D01*
X138128714Y-72089333D01*
X138081095Y-72184571D01*
X138081095Y-72708380D01*
X137604904Y-72708380D02*
X137604904Y-72041714D01*
X137604904Y-72136952D02*
X137557285Y-72089333D01*
X137462047Y-72041714D01*
X137319190Y-72041714D01*
X137223952Y-72089333D01*
X137176333Y-72184571D01*
X137176333Y-72708380D01*
X137176333Y-72184571D02*
X137128714Y-72089333D01*
X137033476Y-72041714D01*
X136890619Y-72041714D01*
X136795380Y-72089333D01*
X136747761Y-72184571D01*
X136747761Y-72708380D01*
X137922000Y-77732000D02*
X137922000Y-72819580D01*
X143764000Y-77732000D02*
X143764000Y-72819580D01*
X137922000Y-73406000D02*
X143764000Y-73406000D01*
X137922000Y-73406000D02*
X143764000Y-73406000D01*
X137922000Y-73406000D02*
X139048504Y-73992421D01*
X137922000Y-73406000D02*
X139048504Y-72819579D01*
X143764000Y-73406000D02*
X142637496Y-72819579D01*
X143764000Y-73406000D02*
X142637496Y-73992421D01*
%TO.C,U2*%
X147065904Y-84288380D02*
X147065904Y-85097904D01*
X147018285Y-85193142D01*
X146970666Y-85240761D01*
X146875428Y-85288380D01*
X146684952Y-85288380D01*
X146589714Y-85240761D01*
X146542095Y-85193142D01*
X146494476Y-85097904D01*
X146494476Y-84288380D01*
X146065904Y-84383619D02*
X146018285Y-84336000D01*
X145923047Y-84288380D01*
X145684952Y-84288380D01*
X145589714Y-84336000D01*
X145542095Y-84383619D01*
X145494476Y-84478857D01*
X145494476Y-84574095D01*
X145542095Y-84716952D01*
X146113523Y-85288380D01*
X145494476Y-85288380D01*
%TO.C,U8*%
X146303904Y-95464380D02*
X146303904Y-96273904D01*
X146256285Y-96369142D01*
X146208666Y-96416761D01*
X146113428Y-96464380D01*
X145922952Y-96464380D01*
X145827714Y-96416761D01*
X145780095Y-96369142D01*
X145732476Y-96273904D01*
X145732476Y-95464380D01*
X145113428Y-95892952D02*
X145208666Y-95845333D01*
X145256285Y-95797714D01*
X145303904Y-95702476D01*
X145303904Y-95654857D01*
X145256285Y-95559619D01*
X145208666Y-95512000D01*
X145113428Y-95464380D01*
X144922952Y-95464380D01*
X144827714Y-95512000D01*
X144780095Y-95559619D01*
X144732476Y-95654857D01*
X144732476Y-95702476D01*
X144780095Y-95797714D01*
X144827714Y-95845333D01*
X144922952Y-95892952D01*
X145113428Y-95892952D01*
X145208666Y-95940571D01*
X145256285Y-95988190D01*
X145303904Y-96083428D01*
X145303904Y-96273904D01*
X145256285Y-96369142D01*
X145208666Y-96416761D01*
X145113428Y-96464380D01*
X144922952Y-96464380D01*
X144827714Y-96416761D01*
X144780095Y-96369142D01*
X144732476Y-96273904D01*
X144732476Y-96083428D01*
X144780095Y-95988190D01*
X144827714Y-95940571D01*
X144922952Y-95892952D01*
%TO.C,R2*%
X150058380Y-87717333D02*
X149582190Y-87384000D01*
X150058380Y-87145904D02*
X149058380Y-87145904D01*
X149058380Y-87526857D01*
X149106000Y-87622095D01*
X149153619Y-87669714D01*
X149248857Y-87717333D01*
X149391714Y-87717333D01*
X149486952Y-87669714D01*
X149534571Y-87622095D01*
X149582190Y-87526857D01*
X149582190Y-87145904D01*
X149153619Y-88098285D02*
X149106000Y-88145904D01*
X149058380Y-88241142D01*
X149058380Y-88479238D01*
X149106000Y-88574476D01*
X149153619Y-88622095D01*
X149248857Y-88669714D01*
X149344095Y-88669714D01*
X149486952Y-88622095D01*
X150058380Y-88050666D01*
X150058380Y-88669714D01*
%TO.C,R17*%
X133040380Y-113062466D02*
X132564190Y-112729133D01*
X133040380Y-112491038D02*
X132040380Y-112491038D01*
X132040380Y-112871990D01*
X132088000Y-112967228D01*
X132135619Y-113014847D01*
X132230857Y-113062466D01*
X132373714Y-113062466D01*
X132468952Y-113014847D01*
X132516571Y-112967228D01*
X132564190Y-112871990D01*
X132564190Y-112491038D01*
X133040380Y-114014847D02*
X133040380Y-113443419D01*
X133040380Y-113729133D02*
X132040380Y-113729133D01*
X132183238Y-113633895D01*
X132278476Y-113538657D01*
X132326095Y-113443419D01*
X132040380Y-114348181D02*
X132040380Y-115014847D01*
X133040380Y-114586276D01*
%TO.C,R18*%
X148086080Y-97163242D02*
X147609890Y-96829909D01*
X148086080Y-96591814D02*
X147086080Y-96591814D01*
X147086080Y-96972766D01*
X147133700Y-97068004D01*
X147181319Y-97115623D01*
X147276557Y-97163242D01*
X147419414Y-97163242D01*
X147514652Y-97115623D01*
X147562271Y-97068004D01*
X147609890Y-96972766D01*
X147609890Y-96591814D01*
X148086080Y-98115623D02*
X148086080Y-97544195D01*
X148086080Y-97829909D02*
X147086080Y-97829909D01*
X147228938Y-97734671D01*
X147324176Y-97639433D01*
X147371795Y-97544195D01*
X147514652Y-98687052D02*
X147467033Y-98591814D01*
X147419414Y-98544195D01*
X147324176Y-98496576D01*
X147276557Y-98496576D01*
X147181319Y-98544195D01*
X147133700Y-98591814D01*
X147086080Y-98687052D01*
X147086080Y-98877528D01*
X147133700Y-98972766D01*
X147181319Y-99020385D01*
X147276557Y-99068004D01*
X147324176Y-99068004D01*
X147419414Y-99020385D01*
X147467033Y-98972766D01*
X147514652Y-98877528D01*
X147514652Y-98687052D01*
X147562271Y-98591814D01*
X147609890Y-98544195D01*
X147705128Y-98496576D01*
X147895604Y-98496576D01*
X147990842Y-98544195D01*
X148038461Y-98591814D01*
X148086080Y-98687052D01*
X148086080Y-98877528D01*
X148038461Y-98972766D01*
X147990842Y-99020385D01*
X147895604Y-99068004D01*
X147705128Y-99068004D01*
X147609890Y-99020385D01*
X147562271Y-98972766D01*
X147514652Y-98877528D01*
%TO.C,C16*%
X215241142Y-78478142D02*
X215288761Y-78430523D01*
X215336380Y-78287666D01*
X215336380Y-78192428D01*
X215288761Y-78049571D01*
X215193523Y-77954333D01*
X215098285Y-77906714D01*
X214907809Y-77859095D01*
X214764952Y-77859095D01*
X214574476Y-77906714D01*
X214479238Y-77954333D01*
X214384000Y-78049571D01*
X214336380Y-78192428D01*
X214336380Y-78287666D01*
X214384000Y-78430523D01*
X214431619Y-78478142D01*
X215336380Y-79430523D02*
X215336380Y-78859095D01*
X215336380Y-79144809D02*
X214336380Y-79144809D01*
X214479238Y-79049571D01*
X214574476Y-78954333D01*
X214622095Y-78859095D01*
X214336380Y-80287666D02*
X214336380Y-80097190D01*
X214384000Y-80001952D01*
X214431619Y-79954333D01*
X214574476Y-79859095D01*
X214764952Y-79811476D01*
X215145904Y-79811476D01*
X215241142Y-79859095D01*
X215288761Y-79906714D01*
X215336380Y-80001952D01*
X215336380Y-80192428D01*
X215288761Y-80287666D01*
X215241142Y-80335285D01*
X215145904Y-80382904D01*
X214907809Y-80382904D01*
X214812571Y-80335285D01*
X214764952Y-80287666D01*
X214717333Y-80192428D01*
X214717333Y-80001952D01*
X214764952Y-79906714D01*
X214812571Y-79859095D01*
X214907809Y-79811476D01*
%TO.C,C17*%
X222861142Y-70223142D02*
X222908761Y-70175523D01*
X222956380Y-70032666D01*
X222956380Y-69937428D01*
X222908761Y-69794571D01*
X222813523Y-69699333D01*
X222718285Y-69651714D01*
X222527809Y-69604095D01*
X222384952Y-69604095D01*
X222194476Y-69651714D01*
X222099238Y-69699333D01*
X222004000Y-69794571D01*
X221956380Y-69937428D01*
X221956380Y-70032666D01*
X222004000Y-70175523D01*
X222051619Y-70223142D01*
X222956380Y-71175523D02*
X222956380Y-70604095D01*
X222956380Y-70889809D02*
X221956380Y-70889809D01*
X222099238Y-70794571D01*
X222194476Y-70699333D01*
X222242095Y-70604095D01*
X221956380Y-71508857D02*
X221956380Y-72175523D01*
X222956380Y-71746952D01*
%TO.C,C15*%
X217838257Y-79986142D02*
X217885876Y-80033761D01*
X218028733Y-80081380D01*
X218123971Y-80081380D01*
X218266828Y-80033761D01*
X218362066Y-79938523D01*
X218409685Y-79843285D01*
X218457304Y-79652809D01*
X218457304Y-79509952D01*
X218409685Y-79319476D01*
X218362066Y-79224238D01*
X218266828Y-79129000D01*
X218123971Y-79081380D01*
X218028733Y-79081380D01*
X217885876Y-79129000D01*
X217838257Y-79176619D01*
X216885876Y-80081380D02*
X217457304Y-80081380D01*
X217171590Y-80081380D02*
X217171590Y-79081380D01*
X217266828Y-79224238D01*
X217362066Y-79319476D01*
X217457304Y-79367095D01*
X215981114Y-79081380D02*
X216457304Y-79081380D01*
X216504923Y-79557571D01*
X216457304Y-79509952D01*
X216362066Y-79462333D01*
X216123971Y-79462333D01*
X216028733Y-79509952D01*
X215981114Y-79557571D01*
X215933495Y-79652809D01*
X215933495Y-79890904D01*
X215981114Y-79986142D01*
X216028733Y-80033761D01*
X216123971Y-80081380D01*
X216362066Y-80081380D01*
X216457304Y-80033761D01*
X216504923Y-79986142D01*
%TO.C,U9*%
X145541904Y-107910380D02*
X145541904Y-108719904D01*
X145494285Y-108815142D01*
X145446666Y-108862761D01*
X145351428Y-108910380D01*
X145160952Y-108910380D01*
X145065714Y-108862761D01*
X145018095Y-108815142D01*
X144970476Y-108719904D01*
X144970476Y-107910380D01*
X144446666Y-108910380D02*
X144256190Y-108910380D01*
X144160952Y-108862761D01*
X144113333Y-108815142D01*
X144018095Y-108672285D01*
X143970476Y-108481809D01*
X143970476Y-108100857D01*
X144018095Y-108005619D01*
X144065714Y-107958000D01*
X144160952Y-107910380D01*
X144351428Y-107910380D01*
X144446666Y-107958000D01*
X144494285Y-108005619D01*
X144541904Y-108100857D01*
X144541904Y-108338952D01*
X144494285Y-108434190D01*
X144446666Y-108481809D01*
X144351428Y-108529428D01*
X144160952Y-108529428D01*
X144065714Y-108481809D01*
X144018095Y-108434190D01*
X143970476Y-108338952D01*
%TO.C,R8*%
X131422380Y-69175333D02*
X130946190Y-68842000D01*
X131422380Y-68603904D02*
X130422380Y-68603904D01*
X130422380Y-68984857D01*
X130470000Y-69080095D01*
X130517619Y-69127714D01*
X130612857Y-69175333D01*
X130755714Y-69175333D01*
X130850952Y-69127714D01*
X130898571Y-69080095D01*
X130946190Y-68984857D01*
X130946190Y-68603904D01*
X130850952Y-69746761D02*
X130803333Y-69651523D01*
X130755714Y-69603904D01*
X130660476Y-69556285D01*
X130612857Y-69556285D01*
X130517619Y-69603904D01*
X130470000Y-69651523D01*
X130422380Y-69746761D01*
X130422380Y-69937238D01*
X130470000Y-70032476D01*
X130517619Y-70080095D01*
X130612857Y-70127714D01*
X130660476Y-70127714D01*
X130755714Y-70080095D01*
X130803333Y-70032476D01*
X130850952Y-69937238D01*
X130850952Y-69746761D01*
X130898571Y-69651523D01*
X130946190Y-69603904D01*
X131041428Y-69556285D01*
X131231904Y-69556285D01*
X131327142Y-69603904D01*
X131374761Y-69651523D01*
X131422380Y-69746761D01*
X131422380Y-69937238D01*
X131374761Y-70032476D01*
X131327142Y-70080095D01*
X131231904Y-70127714D01*
X131041428Y-70127714D01*
X130946190Y-70080095D01*
X130898571Y-70032476D01*
X130850952Y-69937238D01*
%TO.C,C13*%
X210462357Y-69396642D02*
X210509976Y-69444261D01*
X210652833Y-69491880D01*
X210748071Y-69491880D01*
X210890928Y-69444261D01*
X210986166Y-69349023D01*
X211033785Y-69253785D01*
X211081404Y-69063309D01*
X211081404Y-68920452D01*
X211033785Y-68729976D01*
X210986166Y-68634738D01*
X210890928Y-68539500D01*
X210748071Y-68491880D01*
X210652833Y-68491880D01*
X210509976Y-68539500D01*
X210462357Y-68587119D01*
X209509976Y-69491880D02*
X210081404Y-69491880D01*
X209795690Y-69491880D02*
X209795690Y-68491880D01*
X209890928Y-68634738D01*
X209986166Y-68729976D01*
X210081404Y-68777595D01*
X209176642Y-68491880D02*
X208557595Y-68491880D01*
X208890928Y-68872833D01*
X208748071Y-68872833D01*
X208652833Y-68920452D01*
X208605214Y-68968071D01*
X208557595Y-69063309D01*
X208557595Y-69301404D01*
X208605214Y-69396642D01*
X208652833Y-69444261D01*
X208748071Y-69491880D01*
X209033785Y-69491880D01*
X209129023Y-69444261D01*
X209176642Y-69396642D01*
%TO.C,R19*%
X146562080Y-113014742D02*
X146085890Y-112681409D01*
X146562080Y-112443314D02*
X145562080Y-112443314D01*
X145562080Y-112824266D01*
X145609700Y-112919504D01*
X145657319Y-112967123D01*
X145752557Y-113014742D01*
X145895414Y-113014742D01*
X145990652Y-112967123D01*
X146038271Y-112919504D01*
X146085890Y-112824266D01*
X146085890Y-112443314D01*
X146562080Y-113967123D02*
X146562080Y-113395695D01*
X146562080Y-113681409D02*
X145562080Y-113681409D01*
X145704938Y-113586171D01*
X145800176Y-113490933D01*
X145847795Y-113395695D01*
X146562080Y-114443314D02*
X146562080Y-114633790D01*
X146514461Y-114729028D01*
X146466842Y-114776647D01*
X146323985Y-114871885D01*
X146133509Y-114919504D01*
X145752557Y-114919504D01*
X145657319Y-114871885D01*
X145609700Y-114824266D01*
X145562080Y-114729028D01*
X145562080Y-114538552D01*
X145609700Y-114443314D01*
X145657319Y-114395695D01*
X145752557Y-114348076D01*
X145990652Y-114348076D01*
X146085890Y-114395695D01*
X146133509Y-114443314D01*
X146181128Y-114538552D01*
X146181128Y-114729028D01*
X146133509Y-114824266D01*
X146085890Y-114871885D01*
X145990652Y-114919504D01*
D12*
%TO.C,U2*%
X137192700Y-86062100D02*
X143662700Y-86062100D01*
X137192700Y-91262100D02*
X137192700Y-86062100D01*
X143662700Y-86062100D02*
X143662700Y-91262100D01*
X139427700Y-91262100D02*
X137192700Y-91262100D01*
X143662700Y-91262100D02*
X141427700Y-91262100D01*
X141427700Y-91262100D02*
G75*
G03*
X139427700Y-91262100I-1000000J0D01*
G01*
%TO.C,U8*%
X137192700Y-102692100D02*
X137192700Y-97492100D01*
X141427700Y-97492100D02*
X143662700Y-97492100D01*
X143662700Y-97492100D02*
X143662700Y-102692100D01*
X143662700Y-102692100D02*
X137192700Y-102692100D01*
X137192700Y-97492100D02*
X139427700Y-97492100D01*
X139427700Y-97492100D02*
G75*
G03*
X141427700Y-97492100I1000000J0D01*
G01*
%TO.C,R2*%
X150573200Y-87748876D02*
X150573200Y-88258324D01*
X151618200Y-87748876D02*
X151618200Y-88258324D01*
%TO.C,R17*%
X133809200Y-113195876D02*
X133809200Y-113705324D01*
X134854200Y-113195876D02*
X134854200Y-113705324D01*
%TO.C,R18*%
X148541200Y-97551376D02*
X148541200Y-98060824D01*
X149586200Y-97551376D02*
X149586200Y-98060824D01*
%TO.C,C16*%
X213975733Y-81024000D02*
X214268267Y-81024000D01*
X213975733Y-82044000D02*
X214268267Y-82044000D01*
%TO.C,C17*%
X221943200Y-74174133D02*
X221943200Y-74466667D01*
X222963200Y-74174133D02*
X222963200Y-74466667D01*
%TO.C,C15*%
X218738667Y-82044000D02*
X218446133Y-82044000D01*
X218738667Y-81024000D02*
X218446133Y-81024000D01*
%TO.C,U9*%
X137427700Y-113442100D02*
X142427700Y-113442100D01*
X141927700Y-109602100D02*
X138927700Y-109602100D01*
%TO.C,R8*%
X129017500Y-69596724D02*
X129017500Y-69087276D01*
X130062500Y-69596724D02*
X130062500Y-69087276D01*
%TO.C,C13*%
X213162933Y-69496400D02*
X213455467Y-69496400D01*
X213162933Y-68476400D02*
X213455467Y-68476400D01*
%TO.C,R19*%
X148062200Y-113402876D02*
X148062200Y-113912324D01*
X147017200Y-113402876D02*
X147017200Y-113912324D01*
%TD*%
M02*
