%TF.GenerationSoftware,KiCad,Pcbnew,(6.0.1)*%
%TF.CreationDate,2022-02-14T12:00:35-05:00*%
%TF.ProjectId,interface-board,696e7465-7266-4616-9365-2d626f617264,rev?*%
%TF.SameCoordinates,Original*%
%TF.FileFunction,Soldermask,Bot*%
%TF.FilePolarity,Negative*%
%FSLAX46Y46*%
G04 Gerber Fmt 4.6, Leading zero omitted, Abs format (unit mm)*
G04 Created by KiCad (PCBNEW (6.0.1)) date 2022-02-14 12:00:35*
%MOMM*%
%LPD*%
G01*
G04 APERTURE LIST*
G04 Aperture macros list*
%AMRoundRect*
0 Rectangle with rounded corners*
0 $1 Rounding radius*
0 $2 $3 $4 $5 $6 $7 $8 $9 X,Y pos of 4 corners*
0 Add a 4 corners polygon primitive as box body*
4,1,4,$2,$3,$4,$5,$6,$7,$8,$9,$2,$3,0*
0 Add four circle primitives for the rounded corners*
1,1,$1+$1,$2,$3*
1,1,$1+$1,$4,$5*
1,1,$1+$1,$6,$7*
1,1,$1+$1,$8,$9*
0 Add four rect primitives between the rounded corners*
20,1,$1+$1,$2,$3,$4,$5,0*
20,1,$1+$1,$4,$5,$6,$7,0*
20,1,$1+$1,$6,$7,$8,$9,0*
20,1,$1+$1,$8,$9,$2,$3,0*%
G04 Aperture macros list end*
%ADD10RoundRect,0.250000X-0.725000X0.600000X-0.725000X-0.600000X0.725000X-0.600000X0.725000X0.600000X0*%
%ADD11O,1.950000X1.700000*%
%ADD12C,3.200000*%
%ADD13C,2.000000*%
%ADD14R,2.625000X2.625000*%
%ADD15C,2.625000*%
%ADD16RoundRect,0.250000X0.725000X-0.600000X0.725000X0.600000X-0.725000X0.600000X-0.725000X-0.600000X0*%
%ADD17RoundRect,0.250000X0.750000X-0.600000X0.750000X0.600000X-0.750000X0.600000X-0.750000X-0.600000X0*%
%ADD18O,2.000000X1.700000*%
%ADD19RoundRect,0.237500X-0.287500X-0.237500X0.287500X-0.237500X0.287500X0.237500X-0.287500X0.237500X0*%
%ADD20R,2.850000X2.850000*%
%ADD21C,2.850000*%
G04 APERTURE END LIST*
D10*
%TO.C,RV1*%
X43180000Y-131485000D03*
D11*
X43180000Y-133985000D03*
X43180000Y-136485000D03*
%TD*%
D10*
%TO.C,RV2*%
X43180000Y-109895000D03*
D11*
X43180000Y-112395000D03*
X43180000Y-114895000D03*
%TD*%
D12*
%TO.C,H2*%
X40640000Y-93472000D03*
%TD*%
D13*
%TO.C,J1*%
X61040000Y-112390000D03*
X59540000Y-130490000D03*
X97940000Y-130490000D03*
X96440000Y-112390000D03*
D14*
X70740000Y-119190000D03*
D15*
X74740000Y-119190000D03*
X78740000Y-119190000D03*
X82740000Y-119190000D03*
X86740000Y-119190000D03*
X72740000Y-123190000D03*
X76740000Y-123190000D03*
X80740000Y-123190000D03*
X84740000Y-123190000D03*
X70740000Y-127190000D03*
X74740000Y-127190000D03*
X78740000Y-127190000D03*
X82740000Y-127190000D03*
X86740000Y-127190000D03*
%TD*%
D16*
%TO.C,J2*%
X113085000Y-136445000D03*
D11*
X113085000Y-133945000D03*
X113085000Y-131445000D03*
X113085000Y-128945000D03*
X113085000Y-126445000D03*
%TD*%
D16*
%TO.C,SW3*%
X113085000Y-97095000D03*
D11*
X113085000Y-94595000D03*
X113085000Y-92095000D03*
X113085000Y-89595000D03*
%TD*%
D17*
%TO.C,SW4*%
X113085000Y-112375000D03*
D18*
X113085000Y-109875000D03*
%TD*%
D12*
%TO.C,H1*%
X91948000Y-82296000D03*
%TD*%
D19*
%TO.C,D1*%
X100725000Y-73660000D03*
X102475000Y-73660000D03*
%TD*%
%TO.C,D2*%
X119475000Y-73660000D03*
X121225000Y-73660000D03*
%TD*%
D20*
%TO.C,SW1*%
X80010000Y-97410000D03*
D21*
X80010000Y-92710000D03*
X80010000Y-88010000D03*
%TD*%
D20*
%TO.C,SW2*%
X54610000Y-97410000D03*
D21*
X54610000Y-92710000D03*
X54610000Y-88010000D03*
%TD*%
M02*
