%TF.GenerationSoftware,KiCad,Pcbnew,(6.0.1)*%
%TF.CreationDate,2022-02-14T12:00:35-05:00*%
%TF.ProjectId,interface-board,696e7465-7266-4616-9365-2d626f617264,rev?*%
%TF.SameCoordinates,Original*%
%TF.FileFunction,Copper,L2,Bot*%
%TF.FilePolarity,Positive*%
%FSLAX46Y46*%
G04 Gerber Fmt 4.6, Leading zero omitted, Abs format (unit mm)*
G04 Created by KiCad (PCBNEW (6.0.1)) date 2022-02-14 12:00:35*
%MOMM*%
%LPD*%
G01*
G04 APERTURE LIST*
G04 Aperture macros list*
%AMRoundRect*
0 Rectangle with rounded corners*
0 $1 Rounding radius*
0 $2 $3 $4 $5 $6 $7 $8 $9 X,Y pos of 4 corners*
0 Add a 4 corners polygon primitive as box body*
4,1,4,$2,$3,$4,$5,$6,$7,$8,$9,$2,$3,0*
0 Add four circle primitives for the rounded corners*
1,1,$1+$1,$2,$3*
1,1,$1+$1,$4,$5*
1,1,$1+$1,$6,$7*
1,1,$1+$1,$8,$9*
0 Add four rect primitives between the rounded corners*
20,1,$1+$1,$2,$3,$4,$5,0*
20,1,$1+$1,$4,$5,$6,$7,0*
20,1,$1+$1,$6,$7,$8,$9,0*
20,1,$1+$1,$8,$9,$2,$3,0*%
G04 Aperture macros list end*
%ADD10C,0.300000*%
%TA.AperFunction,NonConductor*%
%ADD11C,0.300000*%
%TD*%
%TA.AperFunction,ComponentPad*%
%ADD12RoundRect,0.250000X-0.725000X0.600000X-0.725000X-0.600000X0.725000X-0.600000X0.725000X0.600000X0*%
%TD*%
%TA.AperFunction,ComponentPad*%
%ADD13O,1.950000X1.700000*%
%TD*%
%TA.AperFunction,ComponentPad*%
%ADD14R,2.625000X2.625000*%
%TD*%
%TA.AperFunction,ComponentPad*%
%ADD15C,2.625000*%
%TD*%
%TA.AperFunction,ComponentPad*%
%ADD16RoundRect,0.250000X0.725000X-0.600000X0.725000X0.600000X-0.725000X0.600000X-0.725000X-0.600000X0*%
%TD*%
%TA.AperFunction,ComponentPad*%
%ADD17RoundRect,0.250000X0.750000X-0.600000X0.750000X0.600000X-0.750000X0.600000X-0.750000X-0.600000X0*%
%TD*%
%TA.AperFunction,ComponentPad*%
%ADD18O,2.000000X1.700000*%
%TD*%
%TA.AperFunction,SMDPad,CuDef*%
%ADD19RoundRect,0.237500X-0.287500X-0.237500X0.287500X-0.237500X0.287500X0.237500X-0.287500X0.237500X0*%
%TD*%
%TA.AperFunction,ComponentPad*%
%ADD20R,2.850000X2.850000*%
%TD*%
%TA.AperFunction,ComponentPad*%
%ADD21C,2.850000*%
%TD*%
%TA.AperFunction,ViaPad*%
%ADD22C,0.800000*%
%TD*%
%TA.AperFunction,Conductor*%
%ADD23C,0.300000*%
%TD*%
G04 APERTURE END LIST*
D10*
D11*
X105787714Y-71464214D02*
X105716285Y-71535642D01*
X105502000Y-71607071D01*
X105359142Y-71607071D01*
X105144857Y-71535642D01*
X105002000Y-71392785D01*
X104930571Y-71249928D01*
X104859142Y-70964214D01*
X104859142Y-70749928D01*
X104930571Y-70464214D01*
X105002000Y-70321357D01*
X105144857Y-70178500D01*
X105359142Y-70107071D01*
X105502000Y-70107071D01*
X105716285Y-70178500D01*
X105787714Y-70249928D01*
X106644857Y-71607071D02*
X106502000Y-71535642D01*
X106430571Y-71464214D01*
X106359142Y-71321357D01*
X106359142Y-70892785D01*
X106430571Y-70749928D01*
X106502000Y-70678500D01*
X106644857Y-70607071D01*
X106859142Y-70607071D01*
X107002000Y-70678500D01*
X107073428Y-70749928D01*
X107144857Y-70892785D01*
X107144857Y-71321357D01*
X107073428Y-71464214D01*
X107002000Y-71535642D01*
X106859142Y-71607071D01*
X106644857Y-71607071D01*
X108002000Y-71607071D02*
X107859142Y-71535642D01*
X107787714Y-71392785D01*
X107787714Y-70107071D01*
X108573428Y-71607071D02*
X108573428Y-70607071D01*
X108573428Y-70107071D02*
X108502000Y-70178500D01*
X108573428Y-70249928D01*
X108644857Y-70178500D01*
X108573428Y-70107071D01*
X108573428Y-70249928D01*
X109287714Y-70607071D02*
X109287714Y-71607071D01*
X109287714Y-70749928D02*
X109359142Y-70678500D01*
X109502000Y-70607071D01*
X109716285Y-70607071D01*
X109859142Y-70678500D01*
X109930571Y-70821357D01*
X109930571Y-71607071D01*
X112573428Y-70178500D02*
X112430571Y-70107071D01*
X112216285Y-70107071D01*
X112002000Y-70178500D01*
X111859142Y-70321357D01*
X111787714Y-70464214D01*
X111716285Y-70749928D01*
X111716285Y-70964214D01*
X111787714Y-71249928D01*
X111859142Y-71392785D01*
X112002000Y-71535642D01*
X112216285Y-71607071D01*
X112359142Y-71607071D01*
X112573428Y-71535642D01*
X112644857Y-71464214D01*
X112644857Y-70964214D01*
X112359142Y-70964214D01*
X113287714Y-71607071D02*
X113287714Y-70607071D01*
X113287714Y-70892785D02*
X113359142Y-70749928D01*
X113430571Y-70678500D01*
X113573428Y-70607071D01*
X113716285Y-70607071D01*
X114859142Y-70607071D02*
X114859142Y-71607071D01*
X114216285Y-70607071D02*
X114216285Y-71392785D01*
X114287714Y-71535642D01*
X114430571Y-71607071D01*
X114644857Y-71607071D01*
X114787714Y-71535642D01*
X114859142Y-71464214D01*
X115573428Y-70607071D02*
X115573428Y-71607071D01*
X115573428Y-70749928D02*
X115644857Y-70678500D01*
X115787714Y-70607071D01*
X116002000Y-70607071D01*
X116144857Y-70678500D01*
X116216285Y-70821357D01*
X116216285Y-71607071D01*
X117573428Y-71607071D02*
X117573428Y-70107071D01*
X117573428Y-71535642D02*
X117430571Y-71607071D01*
X117144857Y-71607071D01*
X117002000Y-71535642D01*
X116930571Y-71464214D01*
X116859142Y-71321357D01*
X116859142Y-70892785D01*
X116930571Y-70749928D01*
X117002000Y-70678500D01*
X117144857Y-70607071D01*
X117430571Y-70607071D01*
X117573428Y-70678500D01*
X109894857Y-74022071D02*
X109037714Y-74022071D01*
X109466285Y-74022071D02*
X109466285Y-72522071D01*
X109323428Y-72736357D01*
X109180571Y-72879214D01*
X109037714Y-72950642D01*
X110537714Y-73879214D02*
X110609142Y-73950642D01*
X110537714Y-74022071D01*
X110466285Y-73950642D01*
X110537714Y-73879214D01*
X110537714Y-74022071D01*
X111109142Y-72522071D02*
X112037714Y-72522071D01*
X111537714Y-73093500D01*
X111752000Y-73093500D01*
X111894857Y-73164928D01*
X111966285Y-73236357D01*
X112037714Y-73379214D01*
X112037714Y-73736357D01*
X111966285Y-73879214D01*
X111894857Y-73950642D01*
X111752000Y-74022071D01*
X111323428Y-74022071D01*
X111180571Y-73950642D01*
X111109142Y-73879214D01*
X113466285Y-74022071D02*
X112609142Y-74022071D01*
X113037714Y-74022071D02*
X113037714Y-72522071D01*
X112894857Y-72736357D01*
X112752000Y-72879214D01*
X112609142Y-72950642D01*
D12*
%TO.P,RV1,1,1*%
%TO.N,+5V*%
X43180000Y-131485000D03*
D13*
%TO.P,RV1,2,2*%
%TO.N,/POT_REGEN*%
X43180000Y-133985000D03*
%TO.P,RV1,3,3*%
%TO.N,GND*%
X43180000Y-136485000D03*
%TD*%
D12*
%TO.P,RV2,1,1*%
%TO.N,+5V*%
X43180000Y-109895000D03*
D13*
%TO.P,RV2,2,2*%
%TO.N,/POT_BRAKE*%
X43180000Y-112395000D03*
%TO.P,RV2,3,3*%
%TO.N,GND*%
X43180000Y-114895000D03*
%TD*%
D14*
%TO.P,J1,1,Pin_1*%
%TO.N,+5V*%
X70740000Y-119190000D03*
D15*
%TO.P,J1,2,Pin_2*%
%TO.N,/START_BTN*%
X74740000Y-119190000D03*
%TO.P,J1,3,Pin_3*%
%TO.N,/RTD_LED*%
X78740000Y-119190000D03*
%TO.P,J1,4,Pin_4*%
%TO.N,/IMD_LED*%
X82740000Y-119190000D03*
%TO.P,J1,5,Pin_5*%
%TO.N,/AMS_LED*%
X86740000Y-119190000D03*
%TO.P,J1,6,Pin_6*%
%TO.N,/POT_REGEN*%
X72740000Y-123190000D03*
%TO.P,J1,7,Pin_7*%
%TO.N,/POT_BRAKE*%
X76740000Y-123190000D03*
%TO.P,J1,8,Pin_8*%
%TO.N,/LCD_BTN*%
X80740000Y-123190000D03*
%TO.P,J1,9,Pin_9*%
%TO.N,/LCD_SCL*%
X84740000Y-123190000D03*
%TO.P,J1,10,Pin_10*%
%TO.N,/LCD_SDA*%
X70740000Y-127190000D03*
%TO.P,J1,11,Pin_11*%
%TO.N,/SW_COOLING*%
X74740000Y-127190000D03*
%TO.P,J1,12,Pin_12*%
%TO.N,/SW_DIRECTION*%
X78740000Y-127190000D03*
%TO.P,J1,13,Pin_13*%
%TO.N,unconnected-(J1-Pad13)*%
X82740000Y-127190000D03*
%TO.P,J1,14,Pin_14*%
%TO.N,GND*%
X86740000Y-127190000D03*
%TD*%
D16*
%TO.P,J2,1,Pin_1*%
%TO.N,+5V*%
X113085000Y-136445000D03*
D13*
%TO.P,J2,2,Pin_2*%
%TO.N,/LCD_SCL*%
X113085000Y-133945000D03*
%TO.P,J2,3,Pin_3*%
%TO.N,/LCD_SDA*%
X113085000Y-131445000D03*
%TO.P,J2,4,Pin_4*%
%TO.N,/LCD_BTN*%
X113085000Y-128945000D03*
%TO.P,J2,5,Pin_5*%
%TO.N,GND*%
X113085000Y-126445000D03*
%TD*%
D16*
%TO.P,SW3,1,1*%
%TO.N,/START_BTN*%
X113085000Y-97095000D03*
D13*
%TO.P,SW3,2,2*%
%TO.N,GND*%
X113085000Y-94595000D03*
%TO.P,SW3,3,K*%
%TO.N,/RTD_LED*%
X113085000Y-92095000D03*
%TO.P,SW3,4,A*%
%TO.N,GND*%
X113085000Y-89595000D03*
%TD*%
D17*
%TO.P,SW4,1,1*%
%TO.N,/LCD_BTN*%
X113085000Y-112375000D03*
D18*
%TO.P,SW4,2,2*%
%TO.N,GND*%
X113085000Y-109875000D03*
%TD*%
D19*
%TO.P,D1,1,K*%
%TO.N,/IMD_LED*%
X100725000Y-73660000D03*
%TO.P,D1,2,A*%
%TO.N,GND*%
X102475000Y-73660000D03*
%TD*%
%TO.P,D2,1,K*%
%TO.N,/AMS_LED*%
X119475000Y-73660000D03*
%TO.P,D2,2,A*%
%TO.N,GND*%
X121225000Y-73660000D03*
%TD*%
D20*
%TO.P,SW1,1,A*%
%TO.N,/SW_DIRECTION*%
X80010000Y-97410000D03*
D21*
%TO.P,SW1,2,B*%
%TO.N,GND*%
X80010000Y-92710000D03*
%TO.P,SW1,3*%
%TO.N,N/C*%
X80010000Y-88010000D03*
%TD*%
D20*
%TO.P,SW2,1,A*%
%TO.N,/SW_COOLING*%
X54610000Y-97410000D03*
D21*
%TO.P,SW2,2,B*%
%TO.N,GND*%
X54610000Y-92710000D03*
%TO.P,SW2,3*%
%TO.N,N/C*%
X54610000Y-88010000D03*
%TD*%
D22*
%TO.N,GND*%
X107696000Y-77724000D03*
X67056000Y-94488000D03*
X91440000Y-94488000D03*
X120396000Y-80772000D03*
X41148000Y-122936000D03*
X41148000Y-102616000D03*
%TD*%
D23*
%TO.N,/IMD_LED*%
X100725000Y-73660000D02*
X100725000Y-101205000D01*
X100725000Y-101205000D02*
X82740000Y-119190000D01*
%TO.N,/AMS_LED*%
X101224520Y-91345480D02*
X101224520Y-104705480D01*
X119475000Y-73660000D02*
X118910000Y-73660000D01*
X118910000Y-73660000D02*
X101224520Y-91345480D01*
X101224520Y-104705480D02*
X86740000Y-119190000D01*
%TO.N,/POT_REGEN*%
X43180000Y-133985000D02*
X53975000Y-123190000D01*
X53975000Y-123190000D02*
X72740000Y-123190000D01*
%TO.N,/POT_BRAKE*%
X43815000Y-112395000D02*
X52947989Y-121527989D01*
X52947989Y-121527989D02*
X75077989Y-121527989D01*
X43180000Y-112395000D02*
X43815000Y-112395000D01*
X75077989Y-121527989D02*
X76740000Y-123190000D01*
%TO.N,/LCD_BTN*%
X83077989Y-120852011D02*
X80740000Y-123190000D01*
X113085000Y-112375000D02*
X104607989Y-120852011D01*
X81955000Y-128945000D02*
X80740000Y-127730000D01*
X113085000Y-128945000D02*
X81955000Y-128945000D01*
X80740000Y-127730000D02*
X80740000Y-123190000D01*
X104607989Y-120852011D02*
X83077989Y-120852011D01*
%TO.N,/LCD_SDA*%
X75439521Y-131889521D02*
X70740000Y-127190000D01*
X113085000Y-131445000D02*
X112640479Y-131889521D01*
X112640479Y-131889521D02*
X75439521Y-131889521D01*
%TD*%
%TA.AperFunction,Conductor*%
%TO.N,GND*%
G36*
X126434121Y-66568002D02*
G01*
X126480614Y-66621658D01*
X126492000Y-66674000D01*
X126492000Y-141606000D01*
X126471998Y-141674121D01*
X126418342Y-141720614D01*
X126366000Y-141732000D01*
X31114000Y-141732000D01*
X31045879Y-141711998D01*
X30999386Y-141658342D01*
X30988000Y-141606000D01*
X30988000Y-136753580D01*
X41723752Y-136753580D01*
X41748477Y-136871421D01*
X41751537Y-136881617D01*
X41832263Y-137086029D01*
X41836994Y-137095561D01*
X41951016Y-137283462D01*
X41957280Y-137292052D01*
X42101327Y-137458052D01*
X42108958Y-137465472D01*
X42278911Y-137604826D01*
X42287678Y-137610850D01*
X42478682Y-137719576D01*
X42488346Y-137724041D01*
X42694941Y-137799031D01*
X42705208Y-137801802D01*
X42908174Y-137838504D01*
X42921414Y-137837085D01*
X42926000Y-137822450D01*
X42926000Y-137818849D01*
X43434000Y-137818849D01*
X43438310Y-137833527D01*
X43450193Y-137835590D01*
X43529325Y-137828876D01*
X43539797Y-137827086D01*
X43752535Y-137771870D01*
X43762575Y-137768335D01*
X43962970Y-137678063D01*
X43972256Y-137672894D01*
X44154575Y-137550150D01*
X44162870Y-137543481D01*
X44321900Y-137391772D01*
X44328941Y-137383814D01*
X44460141Y-137207475D01*
X44465745Y-137198438D01*
X44565357Y-137002516D01*
X44569357Y-136992665D01*
X44634534Y-136782760D01*
X44636817Y-136772376D01*
X44638861Y-136756957D01*
X44636665Y-136742793D01*
X44623478Y-136739000D01*
X43452115Y-136739000D01*
X43436876Y-136743475D01*
X43435671Y-136744865D01*
X43434000Y-136752548D01*
X43434000Y-137818849D01*
X42926000Y-137818849D01*
X42926000Y-136757115D01*
X42921525Y-136741876D01*
X42920135Y-136740671D01*
X42912452Y-136739000D01*
X41738808Y-136739000D01*
X41725277Y-136742973D01*
X41723752Y-136753580D01*
X30988000Y-136753580D01*
X30988000Y-133985000D01*
X41699341Y-133985000D01*
X41719937Y-134220408D01*
X41781097Y-134448663D01*
X41783419Y-134453643D01*
X41783420Y-134453645D01*
X41864416Y-134627339D01*
X41880965Y-134662829D01*
X42016505Y-134856401D01*
X42183599Y-135023495D01*
X42332567Y-135127803D01*
X42376895Y-135183259D01*
X42384204Y-135253878D01*
X42352174Y-135317238D01*
X42330663Y-135335535D01*
X42205425Y-135419850D01*
X42197130Y-135426519D01*
X42038100Y-135578228D01*
X42031059Y-135586186D01*
X41899859Y-135762525D01*
X41894255Y-135771562D01*
X41794643Y-135967484D01*
X41790643Y-135977335D01*
X41725466Y-136187240D01*
X41723183Y-136197624D01*
X41721139Y-136213043D01*
X41723335Y-136227207D01*
X41736522Y-136231000D01*
X44621192Y-136231000D01*
X44634723Y-136227027D01*
X44636248Y-136216420D01*
X44611523Y-136098579D01*
X44608463Y-136088383D01*
X44527737Y-135883971D01*
X44523006Y-135874439D01*
X44408984Y-135686538D01*
X44402720Y-135677948D01*
X44258673Y-135511948D01*
X44251042Y-135504528D01*
X44081089Y-135365174D01*
X44072322Y-135359149D01*
X44038367Y-135339821D01*
X43989061Y-135288739D01*
X43975199Y-135219108D01*
X44001182Y-135153037D01*
X44028427Y-135127107D01*
X44176401Y-135023495D01*
X44343495Y-134856401D01*
X44346655Y-134851889D01*
X44475878Y-134667339D01*
X44475881Y-134667334D01*
X44479035Y-134662830D01*
X44481358Y-134657848D01*
X44481361Y-134657843D01*
X44576580Y-134453645D01*
X44576581Y-134453644D01*
X44578903Y-134448663D01*
X44640063Y-134220408D01*
X44660659Y-133985000D01*
X44640063Y-133749592D01*
X44594499Y-133579541D01*
X44596189Y-133508564D01*
X44627111Y-133457835D01*
X47489918Y-130595028D01*
X58038025Y-130595028D01*
X58075347Y-130838930D01*
X58152003Y-131073460D01*
X58265935Y-131292321D01*
X58269038Y-131296454D01*
X58269040Y-131296457D01*
X58380569Y-131445000D01*
X58414083Y-131489636D01*
X58592468Y-131660104D01*
X58596740Y-131663018D01*
X58596741Y-131663019D01*
X58625893Y-131682905D01*
X58796300Y-131799149D01*
X58908202Y-131851092D01*
X59015409Y-131900856D01*
X59015413Y-131900857D01*
X59020104Y-131903035D01*
X59257871Y-131968974D01*
X59263008Y-131969523D01*
X59455957Y-131990144D01*
X59455965Y-131990144D01*
X59459292Y-131990500D01*
X59602554Y-131990500D01*
X59605127Y-131990288D01*
X59605138Y-131990288D01*
X59780760Y-131975849D01*
X59780766Y-131975848D01*
X59785911Y-131975425D01*
X60025217Y-131915316D01*
X60251493Y-131816928D01*
X60458661Y-131682905D01*
X60480516Y-131663019D01*
X60516536Y-131630243D01*
X60641158Y-131516846D01*
X60644357Y-131512795D01*
X60644361Y-131512791D01*
X60790881Y-131327264D01*
X60790884Y-131327259D01*
X60794082Y-131323210D01*
X60796577Y-131318691D01*
X60910830Y-131111722D01*
X60910832Y-131111718D01*
X60913327Y-131107198D01*
X60925275Y-131073460D01*
X60993965Y-130879485D01*
X60993966Y-130879481D01*
X60995691Y-130874610D01*
X61014829Y-130767170D01*
X61038055Y-130636783D01*
X61038056Y-130636777D01*
X61038961Y-130631694D01*
X61039931Y-130552324D01*
X61041912Y-130390142D01*
X61041912Y-130390140D01*
X61041975Y-130384972D01*
X61004653Y-130141070D01*
X60927997Y-129906540D01*
X60814065Y-129687679D01*
X60765375Y-129622829D01*
X60669022Y-129494499D01*
X60669020Y-129494496D01*
X60665917Y-129490364D01*
X60487532Y-129319896D01*
X60459212Y-129300577D01*
X60287979Y-129183770D01*
X60287980Y-129183770D01*
X60283700Y-129180851D01*
X60171798Y-129128908D01*
X60064591Y-129079144D01*
X60064587Y-129079143D01*
X60059896Y-129076965D01*
X59822129Y-129011026D01*
X59784233Y-129006976D01*
X59624043Y-128989856D01*
X59624035Y-128989856D01*
X59620708Y-128989500D01*
X59477446Y-128989500D01*
X59474873Y-128989712D01*
X59474862Y-128989712D01*
X59299240Y-129004151D01*
X59299234Y-129004152D01*
X59294089Y-129004575D01*
X59054783Y-129064684D01*
X58828507Y-129163072D01*
X58621339Y-129297095D01*
X58617514Y-129300575D01*
X58617512Y-129300577D01*
X58596281Y-129319896D01*
X58438842Y-129463154D01*
X58435643Y-129467205D01*
X58435639Y-129467209D01*
X58289119Y-129652736D01*
X58289116Y-129652741D01*
X58285918Y-129656790D01*
X58283425Y-129661306D01*
X58283423Y-129661309D01*
X58195657Y-129820298D01*
X58166673Y-129872802D01*
X58164949Y-129877671D01*
X58164947Y-129877675D01*
X58089126Y-130091787D01*
X58084309Y-130105390D01*
X58083402Y-130110483D01*
X58083401Y-130110486D01*
X58049962Y-130298213D01*
X58041039Y-130348306D01*
X58038025Y-130595028D01*
X47489918Y-130595028D01*
X50942538Y-127142408D01*
X68922539Y-127142408D01*
X68935468Y-127411569D01*
X68988039Y-127675862D01*
X69079098Y-127929481D01*
X69081314Y-127933605D01*
X69170903Y-128100338D01*
X69206644Y-128166856D01*
X69209439Y-128170599D01*
X69209441Y-128170602D01*
X69365083Y-128379032D01*
X69365088Y-128379038D01*
X69367875Y-128382770D01*
X69371184Y-128386050D01*
X69371189Y-128386056D01*
X69475811Y-128489769D01*
X69559249Y-128572482D01*
X69563011Y-128575240D01*
X69563014Y-128575243D01*
X69772795Y-128729061D01*
X69776562Y-128731823D01*
X69780693Y-128733997D01*
X69780694Y-128733997D01*
X70010906Y-128855117D01*
X70010912Y-128855119D01*
X70015041Y-128857292D01*
X70019448Y-128858831D01*
X70019455Y-128858834D01*
X70265029Y-128944592D01*
X70269445Y-128946134D01*
X70274038Y-128947006D01*
X70529598Y-128995526D01*
X70529601Y-128995526D01*
X70534187Y-128996397D01*
X70662102Y-129001423D01*
X70798782Y-129006793D01*
X70798787Y-129006793D01*
X70803450Y-129006976D01*
X70908001Y-128995526D01*
X71066666Y-128978150D01*
X71066672Y-128978149D01*
X71071319Y-128977640D01*
X71331910Y-128909032D01*
X71336288Y-128907151D01*
X71398373Y-128880478D01*
X71468858Y-128871966D01*
X71537205Y-128907151D01*
X74922273Y-132292219D01*
X74930114Y-132300836D01*
X74934319Y-132307461D01*
X74940098Y-132312888D01*
X74940099Y-132312889D01*
X74985337Y-132355370D01*
X74988179Y-132358125D01*
X75008486Y-132378432D01*
X75011617Y-132380861D01*
X75011623Y-132380866D01*
X75011898Y-132381079D01*
X75020911Y-132388776D01*
X75054128Y-132419969D01*
X75061075Y-132423788D01*
X75072587Y-132430117D01*
X75089111Y-132440971D01*
X75105757Y-132453883D01*
X75140202Y-132468789D01*
X75147562Y-132471974D01*
X75158221Y-132477196D01*
X75191207Y-132495330D01*
X75191211Y-132495331D01*
X75198153Y-132499148D01*
X75205826Y-132501118D01*
X75205828Y-132501119D01*
X75218557Y-132504387D01*
X75237261Y-132510791D01*
X75249314Y-132516007D01*
X75249323Y-132516010D01*
X75256594Y-132519156D01*
X75264422Y-132520396D01*
X75264423Y-132520396D01*
X75301588Y-132526282D01*
X75313214Y-132528690D01*
X75349667Y-132538050D01*
X75349668Y-132538050D01*
X75357344Y-132540021D01*
X75378411Y-132540021D01*
X75398123Y-132541572D01*
X75418926Y-132544867D01*
X75426818Y-132544121D01*
X75464277Y-132540580D01*
X75476135Y-132540021D01*
X112129600Y-132540021D01*
X112201868Y-132562806D01*
X112243259Y-132591789D01*
X112287586Y-132647243D01*
X112294895Y-132717862D01*
X112262865Y-132781223D01*
X112243258Y-132798212D01*
X112088599Y-132906505D01*
X111921505Y-133073599D01*
X111918348Y-133078107D01*
X111918346Y-133078110D01*
X111890338Y-133118110D01*
X111785965Y-133267170D01*
X111783642Y-133272152D01*
X111783639Y-133272157D01*
X111764987Y-133312157D01*
X111686097Y-133481337D01*
X111684675Y-133486645D01*
X111684674Y-133486647D01*
X111626361Y-133704277D01*
X111624937Y-133709592D01*
X111604341Y-133945000D01*
X111624937Y-134180408D01*
X111686097Y-134408663D01*
X111688419Y-134413643D01*
X111688420Y-134413645D01*
X111707073Y-134453645D01*
X111785965Y-134622829D01*
X111921505Y-134816401D01*
X112067266Y-134962162D01*
X112101292Y-135024474D01*
X112096227Y-135095289D01*
X112053680Y-135152125D01*
X112039428Y-135160674D01*
X112039471Y-135160744D01*
X111890655Y-135252834D01*
X111767016Y-135376689D01*
X111675186Y-135525666D01*
X111672881Y-135532614D01*
X111672881Y-135532615D01*
X111657752Y-135578228D01*
X111620090Y-135691772D01*
X111609500Y-135795134D01*
X111609500Y-137094866D01*
X111609837Y-137098112D01*
X111609837Y-137098116D01*
X111619515Y-137191383D01*
X111620359Y-137199519D01*
X111675744Y-137365529D01*
X111767834Y-137514345D01*
X111891689Y-137637984D01*
X112040666Y-137729814D01*
X112047614Y-137732119D01*
X112047615Y-137732119D01*
X112200241Y-137782744D01*
X112200243Y-137782745D01*
X112206772Y-137784910D01*
X112310134Y-137795500D01*
X113859866Y-137795500D01*
X113863112Y-137795163D01*
X113863116Y-137795163D01*
X113957661Y-137785353D01*
X113957665Y-137785352D01*
X113964519Y-137784641D01*
X113971055Y-137782460D01*
X113971057Y-137782460D01*
X114123581Y-137731574D01*
X114130529Y-137729256D01*
X114279345Y-137637166D01*
X114402984Y-137513311D01*
X114494814Y-137364334D01*
X114497119Y-137357385D01*
X114547744Y-137204759D01*
X114547745Y-137204757D01*
X114549910Y-137198228D01*
X114560500Y-137094866D01*
X114560500Y-135795134D01*
X114558054Y-135771562D01*
X114550353Y-135697339D01*
X114550352Y-135697335D01*
X114549641Y-135690481D01*
X114494256Y-135524471D01*
X114402166Y-135375655D01*
X114278311Y-135252016D01*
X114129334Y-135160186D01*
X114130493Y-135158305D01*
X114085314Y-135118532D01*
X114065846Y-135050257D01*
X114086381Y-134982295D01*
X114102747Y-134962149D01*
X114248495Y-134816401D01*
X114251655Y-134811889D01*
X114380878Y-134627339D01*
X114380881Y-134627334D01*
X114384035Y-134622830D01*
X114386358Y-134617848D01*
X114386361Y-134617843D01*
X114481580Y-134413645D01*
X114481581Y-134413644D01*
X114483903Y-134408663D01*
X114545063Y-134180408D01*
X114565659Y-133945000D01*
X114545063Y-133709592D01*
X114543639Y-133704277D01*
X114485326Y-133486647D01*
X114485325Y-133486645D01*
X114483903Y-133481337D01*
X114472944Y-133457835D01*
X114386358Y-133272152D01*
X114386356Y-133272149D01*
X114384035Y-133267171D01*
X114248495Y-133073599D01*
X114081401Y-132906505D01*
X113926743Y-132798212D01*
X113882414Y-132742756D01*
X113875105Y-132672137D01*
X113907135Y-132608776D01*
X113926743Y-132591787D01*
X114081401Y-132483495D01*
X114248495Y-132316401D01*
X114265428Y-132292219D01*
X114380878Y-132127339D01*
X114380879Y-132127337D01*
X114384035Y-132122830D01*
X114386358Y-132117848D01*
X114386361Y-132117843D01*
X114481580Y-131913645D01*
X114481581Y-131913644D01*
X114483903Y-131908663D01*
X114545063Y-131680408D01*
X114565659Y-131445000D01*
X114545063Y-131209592D01*
X114543060Y-131202116D01*
X114485326Y-130986647D01*
X114485325Y-130986645D01*
X114483903Y-130981337D01*
X114481580Y-130976355D01*
X114386358Y-130772152D01*
X114386356Y-130772149D01*
X114384035Y-130767171D01*
X114248495Y-130573599D01*
X114081401Y-130406505D01*
X113926743Y-130298212D01*
X113882414Y-130242756D01*
X113875105Y-130172137D01*
X113907135Y-130108776D01*
X113926743Y-130091787D01*
X114076889Y-129986654D01*
X114081401Y-129983495D01*
X114248495Y-129816401D01*
X114251655Y-129811889D01*
X114380878Y-129627339D01*
X114380879Y-129627337D01*
X114384035Y-129622830D01*
X114386358Y-129617848D01*
X114386361Y-129617843D01*
X114481580Y-129413645D01*
X114481581Y-129413644D01*
X114483903Y-129408663D01*
X114497886Y-129356479D01*
X114543639Y-129185723D01*
X114543639Y-129185722D01*
X114545063Y-129180408D01*
X114565659Y-128945000D01*
X114545063Y-128709592D01*
X114507444Y-128569194D01*
X114485326Y-128486647D01*
X114485325Y-128486645D01*
X114483903Y-128481337D01*
X114481580Y-128476355D01*
X114386358Y-128272152D01*
X114386356Y-128272149D01*
X114384035Y-128267171D01*
X114248495Y-128073599D01*
X114081401Y-127906505D01*
X113932433Y-127802197D01*
X113888105Y-127746741D01*
X113880796Y-127676122D01*
X113912826Y-127612762D01*
X113934337Y-127594465D01*
X114059575Y-127510150D01*
X114067870Y-127503481D01*
X114226900Y-127351772D01*
X114233941Y-127343814D01*
X114365141Y-127167475D01*
X114370745Y-127158438D01*
X114470357Y-126962516D01*
X114474357Y-126952665D01*
X114539534Y-126742760D01*
X114541817Y-126732376D01*
X114543861Y-126716957D01*
X114541665Y-126702793D01*
X114528478Y-126699000D01*
X111643808Y-126699000D01*
X111630277Y-126702973D01*
X111628752Y-126713580D01*
X111653477Y-126831421D01*
X111656537Y-126841617D01*
X111737263Y-127046029D01*
X111741994Y-127055561D01*
X111856016Y-127243462D01*
X111862280Y-127252052D01*
X112006327Y-127418052D01*
X112013958Y-127425472D01*
X112183911Y-127564826D01*
X112192678Y-127570851D01*
X112226633Y-127590179D01*
X112275939Y-127641261D01*
X112289801Y-127710892D01*
X112263818Y-127776963D01*
X112236573Y-127802893D01*
X112088599Y-127906505D01*
X111921505Y-128073599D01*
X111918348Y-128078107D01*
X111918346Y-128078110D01*
X111856206Y-128166856D01*
X111824832Y-128211663D01*
X111804450Y-128240771D01*
X111748993Y-128285099D01*
X111701237Y-128294500D01*
X88425108Y-128294500D01*
X88356987Y-128274498D01*
X88310494Y-128220842D01*
X88300390Y-128150568D01*
X88319137Y-128100338D01*
X88341841Y-128065040D01*
X88346292Y-128056842D01*
X88453585Y-127818662D01*
X88456780Y-127809885D01*
X88527686Y-127558466D01*
X88529544Y-127549336D01*
X88562705Y-127288675D01*
X88563186Y-127282388D01*
X88565522Y-127193160D01*
X88565371Y-127186851D01*
X88545898Y-126924810D01*
X88544521Y-126915604D01*
X88486866Y-126660802D01*
X88484142Y-126651891D01*
X88389457Y-126408410D01*
X88385446Y-126400001D01*
X88255819Y-126173201D01*
X88255712Y-126173043D01*
X111626139Y-126173043D01*
X111628335Y-126187207D01*
X111641522Y-126191000D01*
X112812885Y-126191000D01*
X112828124Y-126186525D01*
X112829329Y-126185135D01*
X112831000Y-126177452D01*
X112831000Y-126172885D01*
X113339000Y-126172885D01*
X113343475Y-126188124D01*
X113344865Y-126189329D01*
X113352548Y-126191000D01*
X114526192Y-126191000D01*
X114539723Y-126187027D01*
X114541248Y-126176420D01*
X114516523Y-126058579D01*
X114513463Y-126048383D01*
X114432737Y-125843971D01*
X114428006Y-125834439D01*
X114313984Y-125646538D01*
X114307720Y-125637948D01*
X114163673Y-125471948D01*
X114156042Y-125464528D01*
X113986089Y-125325174D01*
X113977322Y-125319150D01*
X113786318Y-125210424D01*
X113776654Y-125205959D01*
X113570059Y-125130969D01*
X113559792Y-125128198D01*
X113356826Y-125091496D01*
X113343586Y-125092915D01*
X113339000Y-125107550D01*
X113339000Y-126172885D01*
X112831000Y-126172885D01*
X112831000Y-125111151D01*
X112826690Y-125096473D01*
X112814807Y-125094410D01*
X112735675Y-125101124D01*
X112725203Y-125102914D01*
X112512465Y-125158130D01*
X112502425Y-125161665D01*
X112302030Y-125251937D01*
X112292744Y-125257106D01*
X112110425Y-125379850D01*
X112102130Y-125386519D01*
X111943100Y-125538228D01*
X111936059Y-125546186D01*
X111804859Y-125722525D01*
X111799255Y-125731562D01*
X111699643Y-125927484D01*
X111695643Y-125937335D01*
X111630466Y-126147240D01*
X111628183Y-126157624D01*
X111626139Y-126173043D01*
X88255712Y-126173043D01*
X88250595Y-126165456D01*
X88205898Y-126108758D01*
X88193971Y-126100286D01*
X88182438Y-126106772D01*
X86829095Y-127460115D01*
X86766783Y-127494141D01*
X86695968Y-127489076D01*
X86650905Y-127460115D01*
X85296939Y-126106149D01*
X85283631Y-126098882D01*
X85273593Y-126106003D01*
X85256737Y-126126270D01*
X85251323Y-126133861D01*
X85115800Y-126357195D01*
X85111563Y-126365511D01*
X85010543Y-126606418D01*
X85007587Y-126615252D01*
X84943281Y-126868456D01*
X84941662Y-126877639D01*
X84915490Y-127137556D01*
X84915245Y-127146883D01*
X84927779Y-127407813D01*
X84928916Y-127417073D01*
X84979880Y-127673292D01*
X84982369Y-127682267D01*
X85070646Y-127928136D01*
X85074443Y-127936664D01*
X85166968Y-128108862D01*
X85181591Y-128178336D01*
X85156333Y-128244688D01*
X85099211Y-128286850D01*
X85055976Y-128294500D01*
X84416190Y-128294500D01*
X84348069Y-128274498D01*
X84301576Y-128220842D01*
X84291472Y-128150568D01*
X84310219Y-128100337D01*
X84335235Y-128061445D01*
X84337763Y-128057515D01*
X84448440Y-127811821D01*
X84521585Y-127552468D01*
X84555592Y-127285151D01*
X84558084Y-127190000D01*
X84554547Y-127142408D01*
X84538460Y-126925922D01*
X84538459Y-126925918D01*
X84538114Y-126921270D01*
X84528242Y-126877639D01*
X84479673Y-126663001D01*
X84478642Y-126658444D01*
X84380976Y-126407295D01*
X84247260Y-126173340D01*
X84080432Y-125961720D01*
X83884157Y-125777083D01*
X83821564Y-125733661D01*
X85648074Y-125733661D01*
X85652647Y-125743437D01*
X86727188Y-126817978D01*
X86741132Y-126825592D01*
X86742965Y-126825461D01*
X86749580Y-126821210D01*
X87823332Y-125747458D01*
X87829716Y-125735768D01*
X87820305Y-125723658D01*
X87670401Y-125619666D01*
X87662374Y-125614938D01*
X87428072Y-125499394D01*
X87419439Y-125495906D01*
X87170630Y-125416262D01*
X87161569Y-125414086D01*
X86903723Y-125372093D01*
X86894436Y-125371281D01*
X86633226Y-125367861D01*
X86623915Y-125368431D01*
X86365075Y-125403657D01*
X86355939Y-125405599D01*
X86105153Y-125478697D01*
X86096410Y-125481966D01*
X85859175Y-125591333D01*
X85851020Y-125595853D01*
X85657212Y-125722919D01*
X85648074Y-125733661D01*
X83821564Y-125733661D01*
X83748402Y-125682907D01*
X83666585Y-125626148D01*
X83666580Y-125626145D01*
X83662747Y-125623486D01*
X83655001Y-125619666D01*
X83425254Y-125506367D01*
X83425251Y-125506366D01*
X83421066Y-125504302D01*
X83405734Y-125499394D01*
X83296812Y-125464528D01*
X83164423Y-125422150D01*
X83159816Y-125421400D01*
X83159813Y-125421399D01*
X82903067Y-125379585D01*
X82903068Y-125379585D01*
X82898456Y-125378834D01*
X82767704Y-125377122D01*
X82633686Y-125375368D01*
X82633683Y-125375368D01*
X82629009Y-125375307D01*
X82361999Y-125411645D01*
X82357509Y-125412954D01*
X82357503Y-125412955D01*
X82247334Y-125445067D01*
X82103294Y-125487051D01*
X82099047Y-125489009D01*
X82099044Y-125489010D01*
X82061394Y-125506367D01*
X81858575Y-125599868D01*
X81808421Y-125632751D01*
X81637134Y-125745051D01*
X81637129Y-125745055D01*
X81633221Y-125747617D01*
X81629729Y-125750734D01*
X81600401Y-125776910D01*
X81536260Y-125807348D01*
X81465845Y-125798276D01*
X81411513Y-125752576D01*
X81390500Y-125682907D01*
X81390500Y-124966863D01*
X81410502Y-124898742D01*
X81466761Y-124851095D01*
X81579498Y-124802660D01*
X81698433Y-124729061D01*
X81804670Y-124663320D01*
X81804674Y-124663317D01*
X81808643Y-124660861D01*
X82014312Y-124486749D01*
X82191986Y-124284150D01*
X82337763Y-124057515D01*
X82448440Y-123811821D01*
X82521585Y-123552468D01*
X82555592Y-123285151D01*
X82558084Y-123190000D01*
X82554547Y-123142408D01*
X82538460Y-122925922D01*
X82538459Y-122925918D01*
X82538114Y-122921270D01*
X82500700Y-122755923D01*
X82490769Y-122712037D01*
X82478642Y-122658444D01*
X82428042Y-122528326D01*
X82421994Y-122457589D01*
X82456380Y-122393565D01*
X83310529Y-121539416D01*
X83372841Y-121505390D01*
X83399624Y-121502511D01*
X83585084Y-121502511D01*
X83653205Y-121522513D01*
X83699698Y-121576169D01*
X83709802Y-121646443D01*
X83680308Y-121711023D01*
X83654170Y-121733882D01*
X83633221Y-121747617D01*
X83432180Y-121927053D01*
X83259870Y-122134233D01*
X83120075Y-122364607D01*
X83118266Y-122368921D01*
X83118264Y-122368925D01*
X83026291Y-122588256D01*
X83015868Y-122613113D01*
X82949537Y-122874293D01*
X82922539Y-123142408D01*
X82935468Y-123411569D01*
X82988039Y-123675862D01*
X83079098Y-123929481D01*
X83081314Y-123933605D01*
X83145604Y-124053254D01*
X83206644Y-124166856D01*
X83209439Y-124170599D01*
X83209441Y-124170602D01*
X83365083Y-124379032D01*
X83365088Y-124379038D01*
X83367875Y-124382770D01*
X83371184Y-124386050D01*
X83371189Y-124386056D01*
X83475811Y-124489769D01*
X83559249Y-124572482D01*
X83563011Y-124575240D01*
X83563014Y-124575243D01*
X83675666Y-124657843D01*
X83776562Y-124731823D01*
X83780693Y-124733997D01*
X83780694Y-124733997D01*
X84010906Y-124855117D01*
X84010912Y-124855119D01*
X84015041Y-124857292D01*
X84019448Y-124858831D01*
X84019455Y-124858834D01*
X84265029Y-124944592D01*
X84269445Y-124946134D01*
X84274038Y-124947006D01*
X84529598Y-124995526D01*
X84529601Y-124995526D01*
X84534187Y-124996397D01*
X84662102Y-125001423D01*
X84798782Y-125006793D01*
X84798787Y-125006793D01*
X84803450Y-125006976D01*
X84908001Y-124995526D01*
X85066666Y-124978150D01*
X85066672Y-124978149D01*
X85071319Y-124977640D01*
X85196844Y-124944592D01*
X85327387Y-124910223D01*
X85327389Y-124910222D01*
X85331910Y-124909032D01*
X85391817Y-124883294D01*
X85575204Y-124804505D01*
X85575206Y-124804504D01*
X85579498Y-124802660D01*
X85698433Y-124729061D01*
X85804670Y-124663320D01*
X85804674Y-124663317D01*
X85808643Y-124660861D01*
X86014312Y-124486749D01*
X86191986Y-124284150D01*
X86337763Y-124057515D01*
X86448440Y-123811821D01*
X86521585Y-123552468D01*
X86555592Y-123285151D01*
X86558084Y-123190000D01*
X86554547Y-123142408D01*
X86538460Y-122925922D01*
X86538459Y-122925918D01*
X86538114Y-122921270D01*
X86500700Y-122755923D01*
X86490769Y-122712037D01*
X86478642Y-122658444D01*
X86472330Y-122642212D01*
X86382669Y-122411648D01*
X86382668Y-122411646D01*
X86380976Y-122407295D01*
X86372895Y-122393155D01*
X86292302Y-122252147D01*
X86247260Y-122173340D01*
X86080432Y-121961720D01*
X85884157Y-121777083D01*
X85819226Y-121732039D01*
X85774655Y-121676776D01*
X85767038Y-121606189D01*
X85798792Y-121542689D01*
X85859836Y-121506437D01*
X85891045Y-121502511D01*
X104526989Y-121502511D01*
X104538629Y-121503060D01*
X104546285Y-121504771D01*
X104554208Y-121504522D01*
X104616219Y-121502573D01*
X104620177Y-121502511D01*
X104648914Y-121502511D01*
X104653185Y-121501972D01*
X104665013Y-121501040D01*
X104710558Y-121499608D01*
X104718172Y-121497396D01*
X104718177Y-121497395D01*
X104730781Y-121493733D01*
X104750145Y-121489722D01*
X104771047Y-121487082D01*
X104778418Y-121484163D01*
X104778420Y-121484163D01*
X104799617Y-121475770D01*
X104813412Y-121470308D01*
X104824620Y-121466470D01*
X104868387Y-121453755D01*
X104886525Y-121443029D01*
X104904270Y-121434335D01*
X104923860Y-121426579D01*
X104960727Y-121399793D01*
X104970635Y-121393286D01*
X105003031Y-121374128D01*
X105003036Y-121374124D01*
X105009854Y-121370092D01*
X105024747Y-121355199D01*
X105039781Y-121342358D01*
X105050412Y-121334634D01*
X105056826Y-121329974D01*
X105085869Y-121294867D01*
X105093858Y-121286088D01*
X112617541Y-113762405D01*
X112679853Y-113728379D01*
X112706636Y-113725500D01*
X113884866Y-113725500D01*
X113888112Y-113725163D01*
X113888116Y-113725163D01*
X113982661Y-113715353D01*
X113982665Y-113715352D01*
X113989519Y-113714641D01*
X113996055Y-113712460D01*
X113996057Y-113712460D01*
X114148581Y-113661574D01*
X114155529Y-113659256D01*
X114304345Y-113567166D01*
X114427984Y-113443311D01*
X114432088Y-113436654D01*
X114463618Y-113385501D01*
X114519814Y-113294334D01*
X114574910Y-113128228D01*
X114585500Y-113024866D01*
X114585500Y-111725134D01*
X114584674Y-111717170D01*
X114575353Y-111627339D01*
X114575352Y-111627335D01*
X114574641Y-111620481D01*
X114565229Y-111592268D01*
X114521574Y-111461419D01*
X114519256Y-111454471D01*
X114427166Y-111305655D01*
X114303311Y-111182016D01*
X114297079Y-111178175D01*
X114297077Y-111178173D01*
X114156236Y-111091358D01*
X114108742Y-111038586D01*
X114097318Y-110968515D01*
X114125592Y-110903391D01*
X114135379Y-110892929D01*
X114251900Y-110781772D01*
X114258941Y-110773814D01*
X114390141Y-110597475D01*
X114395745Y-110588438D01*
X114495357Y-110392516D01*
X114499357Y-110382665D01*
X114564534Y-110172760D01*
X114566817Y-110162376D01*
X114568861Y-110146957D01*
X114566665Y-110132793D01*
X114553478Y-110129000D01*
X111618808Y-110129000D01*
X111605277Y-110132973D01*
X111603752Y-110143580D01*
X111628477Y-110261421D01*
X111631537Y-110271617D01*
X111712263Y-110476029D01*
X111716994Y-110485561D01*
X111831016Y-110673462D01*
X111837280Y-110682052D01*
X111981327Y-110848052D01*
X111988957Y-110855472D01*
X112027109Y-110886754D01*
X112067103Y-110945413D01*
X112069035Y-111016384D01*
X112032291Y-111077132D01*
X112013522Y-111091331D01*
X111865655Y-111182834D01*
X111742016Y-111306689D01*
X111650186Y-111455666D01*
X111647881Y-111462614D01*
X111647881Y-111462615D01*
X111617989Y-111552736D01*
X111595090Y-111621772D01*
X111584500Y-111725134D01*
X111584500Y-112903364D01*
X111564498Y-112971485D01*
X111547595Y-112992459D01*
X104375448Y-120164606D01*
X104313136Y-120198632D01*
X104286353Y-120201511D01*
X88467851Y-120201511D01*
X88399730Y-120181509D01*
X88353237Y-120127853D01*
X88343133Y-120057579D01*
X88352969Y-120023761D01*
X88446515Y-119816095D01*
X88446517Y-119816089D01*
X88448440Y-119811821D01*
X88521585Y-119552468D01*
X88555592Y-119285151D01*
X88558084Y-119190000D01*
X88554547Y-119142408D01*
X88538460Y-118925922D01*
X88538459Y-118925918D01*
X88538114Y-118921270D01*
X88478642Y-118658444D01*
X88428043Y-118528327D01*
X88421996Y-118457588D01*
X88456381Y-118393565D01*
X94731162Y-112118784D01*
X94793474Y-112084758D01*
X94864289Y-112089823D01*
X94921125Y-112132370D01*
X94945936Y-112198890D01*
X94944305Y-112229969D01*
X94941039Y-112248306D01*
X94938025Y-112495028D01*
X94975347Y-112738930D01*
X95052003Y-112973460D01*
X95165935Y-113192321D01*
X95169038Y-113196454D01*
X95169040Y-113196457D01*
X95224480Y-113270296D01*
X95314083Y-113389636D01*
X95492468Y-113560104D01*
X95496740Y-113563018D01*
X95496741Y-113563019D01*
X95525893Y-113582905D01*
X95696300Y-113699149D01*
X95808202Y-113751092D01*
X95915409Y-113800856D01*
X95915413Y-113800857D01*
X95920104Y-113803035D01*
X96157871Y-113868974D01*
X96163008Y-113869523D01*
X96355957Y-113890144D01*
X96355965Y-113890144D01*
X96359292Y-113890500D01*
X96502554Y-113890500D01*
X96505127Y-113890288D01*
X96505138Y-113890288D01*
X96680760Y-113875849D01*
X96680766Y-113875848D01*
X96685911Y-113875425D01*
X96925217Y-113815316D01*
X97151493Y-113716928D01*
X97358661Y-113582905D01*
X97371723Y-113571020D01*
X97512073Y-113443311D01*
X97541158Y-113416846D01*
X97544357Y-113412795D01*
X97544361Y-113412791D01*
X97690881Y-113227264D01*
X97690884Y-113227259D01*
X97694082Y-113223210D01*
X97696577Y-113218691D01*
X97810830Y-113011722D01*
X97810832Y-113011718D01*
X97813327Y-113007198D01*
X97818547Y-112992459D01*
X97893965Y-112779485D01*
X97893966Y-112779481D01*
X97895691Y-112774610D01*
X97920431Y-112635723D01*
X97938055Y-112536783D01*
X97938056Y-112536777D01*
X97938961Y-112531694D01*
X97941229Y-112346019D01*
X97941912Y-112290142D01*
X97941912Y-112290140D01*
X97941975Y-112284972D01*
X97904653Y-112041070D01*
X97827997Y-111806540D01*
X97714065Y-111587679D01*
X97669341Y-111528111D01*
X97569022Y-111394499D01*
X97569020Y-111394496D01*
X97565917Y-111390364D01*
X97460623Y-111289743D01*
X97391269Y-111223467D01*
X97391268Y-111223466D01*
X97387532Y-111219896D01*
X97359212Y-111200577D01*
X97199103Y-111091358D01*
X97183700Y-111080851D01*
X97044817Y-111016384D01*
X96964591Y-110979144D01*
X96964587Y-110979143D01*
X96959896Y-110976965D01*
X96722129Y-110911026D01*
X96716992Y-110910477D01*
X96524043Y-110889856D01*
X96524035Y-110889856D01*
X96520708Y-110889500D01*
X96377446Y-110889500D01*
X96374871Y-110889712D01*
X96374864Y-110889712D01*
X96311996Y-110894881D01*
X96265317Y-110898719D01*
X96195787Y-110884366D01*
X96145054Y-110834701D01*
X96129226Y-110765491D01*
X96153328Y-110698711D01*
X96165898Y-110684048D01*
X97246903Y-109603043D01*
X111601139Y-109603043D01*
X111603335Y-109617207D01*
X111616522Y-109621000D01*
X112812885Y-109621000D01*
X112828124Y-109616525D01*
X112829329Y-109615135D01*
X112831000Y-109607452D01*
X112831000Y-109602885D01*
X113339000Y-109602885D01*
X113343475Y-109618124D01*
X113344865Y-109619329D01*
X113352548Y-109621000D01*
X114551192Y-109621000D01*
X114564723Y-109617027D01*
X114566248Y-109606420D01*
X114541523Y-109488579D01*
X114538463Y-109478383D01*
X114457737Y-109273971D01*
X114453006Y-109264439D01*
X114338984Y-109076538D01*
X114332720Y-109067948D01*
X114188673Y-108901948D01*
X114181042Y-108894528D01*
X114011089Y-108755174D01*
X114002322Y-108749150D01*
X113811318Y-108640424D01*
X113801654Y-108635959D01*
X113595059Y-108560969D01*
X113584792Y-108558198D01*
X113367345Y-108518877D01*
X113359116Y-108517944D01*
X113354624Y-108517732D01*
X113341876Y-108521475D01*
X113340671Y-108522865D01*
X113339000Y-108530548D01*
X113339000Y-109602885D01*
X112831000Y-109602885D01*
X112831000Y-108539030D01*
X112826690Y-108524352D01*
X112814807Y-108522289D01*
X112710675Y-108531124D01*
X112700203Y-108532914D01*
X112487465Y-108588130D01*
X112477425Y-108591665D01*
X112277030Y-108681937D01*
X112267744Y-108687106D01*
X112085425Y-108809850D01*
X112077130Y-108816519D01*
X111918100Y-108968228D01*
X111911059Y-108976186D01*
X111779859Y-109152525D01*
X111774255Y-109161562D01*
X111674643Y-109357484D01*
X111670643Y-109367335D01*
X111605466Y-109577240D01*
X111603183Y-109587624D01*
X111601139Y-109603043D01*
X97246903Y-109603043D01*
X101627218Y-105222728D01*
X101635835Y-105214887D01*
X101642460Y-105210682D01*
X101690370Y-105159663D01*
X101693124Y-105156822D01*
X101713432Y-105136514D01*
X101716074Y-105133108D01*
X101723786Y-105124078D01*
X101749543Y-105096650D01*
X101754968Y-105090873D01*
X101765119Y-105072410D01*
X101775971Y-105055889D01*
X101784023Y-105045509D01*
X101784024Y-105045507D01*
X101788883Y-105039243D01*
X101806975Y-104997434D01*
X101812197Y-104986774D01*
X101830329Y-104953793D01*
X101830329Y-104953792D01*
X101834147Y-104946848D01*
X101839386Y-104926442D01*
X101845790Y-104907739D01*
X101851008Y-104895680D01*
X101854156Y-104888406D01*
X101855396Y-104880580D01*
X101855397Y-104880575D01*
X101861285Y-104843404D01*
X101863691Y-104831784D01*
X101873048Y-104795338D01*
X101873048Y-104795337D01*
X101875020Y-104787657D01*
X101875020Y-104766596D01*
X101876571Y-104746885D01*
X101878627Y-104733904D01*
X101879867Y-104726075D01*
X101875579Y-104680712D01*
X101875020Y-104668855D01*
X101875020Y-97744866D01*
X111609500Y-97744866D01*
X111609837Y-97748112D01*
X111609837Y-97748116D01*
X111619515Y-97841383D01*
X111620359Y-97849519D01*
X111675744Y-98015529D01*
X111767834Y-98164345D01*
X111891689Y-98287984D01*
X112040666Y-98379814D01*
X112047614Y-98382119D01*
X112047615Y-98382119D01*
X112200241Y-98432744D01*
X112200243Y-98432745D01*
X112206772Y-98434910D01*
X112310134Y-98445500D01*
X113859866Y-98445500D01*
X113863112Y-98445163D01*
X113863116Y-98445163D01*
X113957661Y-98435353D01*
X113957665Y-98435352D01*
X113964519Y-98434641D01*
X113971055Y-98432460D01*
X113971057Y-98432460D01*
X114123581Y-98381574D01*
X114130529Y-98379256D01*
X114279345Y-98287166D01*
X114402984Y-98163311D01*
X114494814Y-98014334D01*
X114549910Y-97848228D01*
X114560500Y-97744866D01*
X114560500Y-96445134D01*
X114560163Y-96441884D01*
X114550353Y-96347339D01*
X114550352Y-96347335D01*
X114549641Y-96340481D01*
X114494256Y-96174471D01*
X114402166Y-96025655D01*
X114278311Y-95902016D01*
X114272079Y-95898175D01*
X114272077Y-95898173D01*
X114131236Y-95811358D01*
X114083742Y-95758586D01*
X114072318Y-95688515D01*
X114100592Y-95623391D01*
X114110379Y-95612929D01*
X114226900Y-95501772D01*
X114233941Y-95493814D01*
X114365141Y-95317475D01*
X114370745Y-95308438D01*
X114470357Y-95112516D01*
X114474357Y-95102665D01*
X114539534Y-94892760D01*
X114541817Y-94882376D01*
X114543861Y-94866957D01*
X114541665Y-94852793D01*
X114528478Y-94849000D01*
X111643808Y-94849000D01*
X111630277Y-94852973D01*
X111628752Y-94863580D01*
X111653477Y-94981421D01*
X111656537Y-94991617D01*
X111737263Y-95196029D01*
X111741994Y-95205561D01*
X111856016Y-95393462D01*
X111862280Y-95402052D01*
X112006327Y-95568052D01*
X112013957Y-95575472D01*
X112052109Y-95606754D01*
X112092103Y-95665413D01*
X112094035Y-95736384D01*
X112057291Y-95797132D01*
X112038522Y-95811331D01*
X111890655Y-95902834D01*
X111767016Y-96026689D01*
X111675186Y-96175666D01*
X111620090Y-96341772D01*
X111609500Y-96445134D01*
X111609500Y-97744866D01*
X101875020Y-97744866D01*
X101875020Y-92095000D01*
X111604341Y-92095000D01*
X111624937Y-92330408D01*
X111626361Y-92335722D01*
X111626361Y-92335723D01*
X111652315Y-92432584D01*
X111686097Y-92558663D01*
X111688419Y-92563643D01*
X111688420Y-92563645D01*
X111781356Y-92762944D01*
X111785965Y-92772829D01*
X111921505Y-92966401D01*
X112088599Y-93133495D01*
X112237567Y-93237803D01*
X112281895Y-93293259D01*
X112289204Y-93363878D01*
X112257174Y-93427238D01*
X112235663Y-93445535D01*
X112110425Y-93529850D01*
X112102130Y-93536519D01*
X111943100Y-93688228D01*
X111936059Y-93696186D01*
X111804859Y-93872525D01*
X111799255Y-93881562D01*
X111699643Y-94077484D01*
X111695643Y-94087335D01*
X111630466Y-94297240D01*
X111628183Y-94307624D01*
X111626139Y-94323043D01*
X111628335Y-94337207D01*
X111641522Y-94341000D01*
X114526192Y-94341000D01*
X114539723Y-94337027D01*
X114541248Y-94326420D01*
X114516523Y-94208579D01*
X114513463Y-94198383D01*
X114432737Y-93993971D01*
X114428006Y-93984439D01*
X114313984Y-93796538D01*
X114307720Y-93787948D01*
X114163673Y-93621948D01*
X114156042Y-93614528D01*
X113986089Y-93475174D01*
X113977322Y-93469149D01*
X113943367Y-93449821D01*
X113894061Y-93398739D01*
X113880199Y-93329108D01*
X113906182Y-93263037D01*
X113933427Y-93237107D01*
X114081401Y-93133495D01*
X114248495Y-92966401D01*
X114251655Y-92961889D01*
X114380878Y-92777339D01*
X114380881Y-92777334D01*
X114384035Y-92772830D01*
X114386358Y-92767848D01*
X114386361Y-92767843D01*
X114481580Y-92563645D01*
X114481581Y-92563644D01*
X114483903Y-92558663D01*
X114517686Y-92432584D01*
X114543639Y-92335723D01*
X114543639Y-92335722D01*
X114545063Y-92330408D01*
X114565659Y-92095000D01*
X114545063Y-91859592D01*
X114538686Y-91835791D01*
X114485326Y-91636647D01*
X114485325Y-91636645D01*
X114483903Y-91631337D01*
X114477318Y-91617215D01*
X114386358Y-91422152D01*
X114386356Y-91422149D01*
X114384035Y-91417171D01*
X114248495Y-91223599D01*
X114081401Y-91056505D01*
X113932433Y-90952197D01*
X113888105Y-90896741D01*
X113880796Y-90826122D01*
X113912826Y-90762762D01*
X113934337Y-90744465D01*
X114059575Y-90660150D01*
X114067870Y-90653481D01*
X114226900Y-90501772D01*
X114233941Y-90493814D01*
X114365141Y-90317475D01*
X114370745Y-90308438D01*
X114470357Y-90112516D01*
X114474357Y-90102665D01*
X114539534Y-89892760D01*
X114541817Y-89882376D01*
X114543861Y-89866957D01*
X114541665Y-89852793D01*
X114528478Y-89849000D01*
X111643808Y-89849000D01*
X111630277Y-89852973D01*
X111628752Y-89863580D01*
X111653477Y-89981421D01*
X111656537Y-89991617D01*
X111737263Y-90196029D01*
X111741994Y-90205561D01*
X111856016Y-90393462D01*
X111862280Y-90402052D01*
X112006327Y-90568052D01*
X112013958Y-90575472D01*
X112183911Y-90714826D01*
X112192678Y-90720851D01*
X112226633Y-90740179D01*
X112275939Y-90791261D01*
X112289801Y-90860892D01*
X112263818Y-90926963D01*
X112236573Y-90952893D01*
X112088599Y-91056505D01*
X111921505Y-91223599D01*
X111918348Y-91228107D01*
X111918346Y-91228110D01*
X111805800Y-91388842D01*
X111785965Y-91417170D01*
X111783642Y-91422152D01*
X111783639Y-91422157D01*
X111692682Y-91617215D01*
X111686097Y-91631337D01*
X111684675Y-91636645D01*
X111684674Y-91636647D01*
X111631314Y-91835791D01*
X111624937Y-91859592D01*
X111604341Y-92095000D01*
X101875020Y-92095000D01*
X101875020Y-91667116D01*
X101895022Y-91598995D01*
X101911925Y-91578021D01*
X104166903Y-89323043D01*
X111626139Y-89323043D01*
X111628335Y-89337207D01*
X111641522Y-89341000D01*
X112812885Y-89341000D01*
X112828124Y-89336525D01*
X112829329Y-89335135D01*
X112831000Y-89327452D01*
X112831000Y-89322885D01*
X113339000Y-89322885D01*
X113343475Y-89338124D01*
X113344865Y-89339329D01*
X113352548Y-89341000D01*
X114526192Y-89341000D01*
X114539723Y-89337027D01*
X114541248Y-89326420D01*
X114516523Y-89208579D01*
X114513463Y-89198383D01*
X114432737Y-88993971D01*
X114428006Y-88984439D01*
X114313984Y-88796538D01*
X114307720Y-88787948D01*
X114163673Y-88621948D01*
X114156042Y-88614528D01*
X113986089Y-88475174D01*
X113977322Y-88469150D01*
X113786318Y-88360424D01*
X113776654Y-88355959D01*
X113570059Y-88280969D01*
X113559792Y-88278198D01*
X113356826Y-88241496D01*
X113343586Y-88242915D01*
X113339000Y-88257550D01*
X113339000Y-89322885D01*
X112831000Y-89322885D01*
X112831000Y-88261151D01*
X112826690Y-88246473D01*
X112814807Y-88244410D01*
X112735675Y-88251124D01*
X112725203Y-88252914D01*
X112512465Y-88308130D01*
X112502425Y-88311665D01*
X112302030Y-88401937D01*
X112292744Y-88407106D01*
X112110425Y-88529850D01*
X112102130Y-88536519D01*
X111943100Y-88688228D01*
X111936059Y-88696186D01*
X111804859Y-88872525D01*
X111799255Y-88881562D01*
X111699643Y-89077484D01*
X111695643Y-89087335D01*
X111630466Y-89297240D01*
X111628183Y-89307624D01*
X111626139Y-89323043D01*
X104166903Y-89323043D01*
X117802041Y-75687905D01*
X117864353Y-75653879D01*
X117891136Y-75651000D01*
X118730572Y-75651000D01*
X118730572Y-74811564D01*
X118750574Y-74743443D01*
X118767477Y-74722469D01*
X118852719Y-74637227D01*
X118915031Y-74603201D01*
X118981480Y-74606729D01*
X119036824Y-74625086D01*
X119043657Y-74625786D01*
X119043661Y-74625787D01*
X119097931Y-74631347D01*
X119138465Y-74635500D01*
X119472404Y-74635500D01*
X119811534Y-74635499D01*
X119814778Y-74635162D01*
X119814786Y-74635162D01*
X119869818Y-74629452D01*
X119914445Y-74624822D01*
X120077690Y-74570359D01*
X120224028Y-74479803D01*
X120255569Y-74448207D01*
X120317852Y-74414128D01*
X120388672Y-74419131D01*
X120433760Y-74448052D01*
X120467129Y-74481363D01*
X120478540Y-74490375D01*
X120614063Y-74573912D01*
X120627241Y-74580056D01*
X120778766Y-74630315D01*
X120792132Y-74633181D01*
X120884770Y-74642672D01*
X120891185Y-74643000D01*
X120952885Y-74643000D01*
X120968124Y-74638525D01*
X120969329Y-74637135D01*
X120971000Y-74629452D01*
X120971000Y-74624885D01*
X121479000Y-74624885D01*
X121483475Y-74640124D01*
X121484865Y-74641329D01*
X121492548Y-74643000D01*
X121558766Y-74643000D01*
X121565282Y-74642663D01*
X121659132Y-74632925D01*
X121672528Y-74630032D01*
X121823953Y-74579512D01*
X121837115Y-74573347D01*
X121972492Y-74489574D01*
X121983890Y-74480540D01*
X122096363Y-74367871D01*
X122105375Y-74356460D01*
X122188912Y-74220937D01*
X122195056Y-74207759D01*
X122245315Y-74056234D01*
X122248181Y-74042868D01*
X122257672Y-73950230D01*
X122258000Y-73943815D01*
X122258000Y-73932115D01*
X122253525Y-73916876D01*
X122252135Y-73915671D01*
X122244452Y-73914000D01*
X121497115Y-73914000D01*
X121481876Y-73918475D01*
X121480671Y-73919865D01*
X121479000Y-73927548D01*
X121479000Y-74624885D01*
X120971000Y-74624885D01*
X120971000Y-73387885D01*
X121479000Y-73387885D01*
X121483475Y-73403124D01*
X121484865Y-73404329D01*
X121492548Y-73406000D01*
X122239885Y-73406000D01*
X122255124Y-73401525D01*
X122256329Y-73400135D01*
X122258000Y-73392452D01*
X122258000Y-73376234D01*
X122257663Y-73369718D01*
X122247925Y-73275868D01*
X122245032Y-73262472D01*
X122194512Y-73111047D01*
X122188347Y-73097885D01*
X122104574Y-72962508D01*
X122095540Y-72951110D01*
X121982871Y-72838637D01*
X121971460Y-72829625D01*
X121835937Y-72746088D01*
X121822759Y-72739944D01*
X121671234Y-72689685D01*
X121657868Y-72686819D01*
X121565230Y-72677328D01*
X121558815Y-72677000D01*
X121497115Y-72677000D01*
X121481876Y-72681475D01*
X121480671Y-72682865D01*
X121479000Y-72690548D01*
X121479000Y-73387885D01*
X120971000Y-73387885D01*
X120971000Y-72695115D01*
X120966525Y-72679876D01*
X120965135Y-72678671D01*
X120957452Y-72677000D01*
X120891234Y-72677000D01*
X120884718Y-72677337D01*
X120790868Y-72687075D01*
X120777472Y-72689968D01*
X120626047Y-72740488D01*
X120612885Y-72746653D01*
X120477508Y-72830426D01*
X120466110Y-72839460D01*
X120433824Y-72871802D01*
X120371541Y-72905881D01*
X120300721Y-72900878D01*
X120255633Y-72871957D01*
X120228192Y-72844563D01*
X120228187Y-72844559D01*
X120223011Y-72839392D01*
X120208466Y-72830426D01*
X120183333Y-72814934D01*
X120076516Y-72749092D01*
X120067460Y-72746088D01*
X119979542Y-72716927D01*
X119913176Y-72694914D01*
X119906343Y-72694214D01*
X119906339Y-72694213D01*
X119852069Y-72688653D01*
X119811535Y-72684500D01*
X119477596Y-72684500D01*
X119138466Y-72684501D01*
X119135222Y-72684838D01*
X119135214Y-72684838D01*
X119089858Y-72689544D01*
X119035555Y-72695178D01*
X118901376Y-72739944D01*
X118896448Y-72741588D01*
X118825499Y-72744172D01*
X118764415Y-72707989D01*
X118732590Y-72644525D01*
X118730572Y-72622064D01*
X118730572Y-68621000D01*
X103773429Y-68621000D01*
X103773429Y-75651000D01*
X115694864Y-75651000D01*
X115762985Y-75671002D01*
X115809478Y-75724658D01*
X115819582Y-75794932D01*
X115790088Y-75859512D01*
X115783959Y-75866095D01*
X101590595Y-90059459D01*
X101528283Y-90093485D01*
X101457468Y-90088420D01*
X101400632Y-90045873D01*
X101375821Y-89979353D01*
X101375500Y-89970364D01*
X101375500Y-74610976D01*
X101395502Y-74542855D01*
X101435196Y-74503833D01*
X101474028Y-74479803D01*
X101505569Y-74448207D01*
X101567852Y-74414128D01*
X101638672Y-74419131D01*
X101683760Y-74448052D01*
X101717129Y-74481363D01*
X101728540Y-74490375D01*
X101864063Y-74573912D01*
X101877241Y-74580056D01*
X102028766Y-74630315D01*
X102042132Y-74633181D01*
X102134770Y-74642672D01*
X102141185Y-74643000D01*
X102202885Y-74643000D01*
X102218124Y-74638525D01*
X102219329Y-74637135D01*
X102221000Y-74629452D01*
X102221000Y-74624885D01*
X102729000Y-74624885D01*
X102733475Y-74640124D01*
X102734865Y-74641329D01*
X102742548Y-74643000D01*
X102808766Y-74643000D01*
X102815282Y-74642663D01*
X102909132Y-74632925D01*
X102922528Y-74630032D01*
X103073953Y-74579512D01*
X103087115Y-74573347D01*
X103222492Y-74489574D01*
X103233890Y-74480540D01*
X103346363Y-74367871D01*
X103355375Y-74356460D01*
X103438912Y-74220937D01*
X103445056Y-74207759D01*
X103495315Y-74056234D01*
X103498181Y-74042868D01*
X103507672Y-73950230D01*
X103508000Y-73943815D01*
X103508000Y-73932115D01*
X103503525Y-73916876D01*
X103502135Y-73915671D01*
X103494452Y-73914000D01*
X102747115Y-73914000D01*
X102731876Y-73918475D01*
X102730671Y-73919865D01*
X102729000Y-73927548D01*
X102729000Y-74624885D01*
X102221000Y-74624885D01*
X102221000Y-73387885D01*
X102729000Y-73387885D01*
X102733475Y-73403124D01*
X102734865Y-73404329D01*
X102742548Y-73406000D01*
X103489885Y-73406000D01*
X103505124Y-73401525D01*
X103506329Y-73400135D01*
X103508000Y-73392452D01*
X103508000Y-73376234D01*
X103507663Y-73369718D01*
X103497925Y-73275868D01*
X103495032Y-73262472D01*
X103444512Y-73111047D01*
X103438347Y-73097885D01*
X103354574Y-72962508D01*
X103345540Y-72951110D01*
X103232871Y-72838637D01*
X103221460Y-72829625D01*
X103085937Y-72746088D01*
X103072759Y-72739944D01*
X102921234Y-72689685D01*
X102907868Y-72686819D01*
X102815230Y-72677328D01*
X102808815Y-72677000D01*
X102747115Y-72677000D01*
X102731876Y-72681475D01*
X102730671Y-72682865D01*
X102729000Y-72690548D01*
X102729000Y-73387885D01*
X102221000Y-73387885D01*
X102221000Y-72695115D01*
X102216525Y-72679876D01*
X102215135Y-72678671D01*
X102207452Y-72677000D01*
X102141234Y-72677000D01*
X102134718Y-72677337D01*
X102040868Y-72687075D01*
X102027472Y-72689968D01*
X101876047Y-72740488D01*
X101862885Y-72746653D01*
X101727508Y-72830426D01*
X101716110Y-72839460D01*
X101683824Y-72871802D01*
X101621541Y-72905881D01*
X101550721Y-72900878D01*
X101505633Y-72871957D01*
X101478192Y-72844563D01*
X101478187Y-72844559D01*
X101473011Y-72839392D01*
X101458466Y-72830426D01*
X101433333Y-72814934D01*
X101326516Y-72749092D01*
X101317460Y-72746088D01*
X101229542Y-72716927D01*
X101163176Y-72694914D01*
X101156343Y-72694214D01*
X101156339Y-72694213D01*
X101102069Y-72688653D01*
X101061535Y-72684500D01*
X100727596Y-72684500D01*
X100388466Y-72684501D01*
X100385222Y-72684838D01*
X100385214Y-72684838D01*
X100339858Y-72689544D01*
X100285555Y-72695178D01*
X100122310Y-72749641D01*
X99975972Y-72840197D01*
X99854392Y-72961989D01*
X99764092Y-73108484D01*
X99709914Y-73271824D01*
X99699500Y-73373465D01*
X99699501Y-73946534D01*
X99710178Y-74049445D01*
X99764641Y-74212690D01*
X99855197Y-74359028D01*
X99976989Y-74480608D01*
X100014617Y-74503802D01*
X100062109Y-74556573D01*
X100074500Y-74611061D01*
X100074500Y-100883364D01*
X100054498Y-100951485D01*
X100037595Y-100972459D01*
X83539548Y-117470506D01*
X83477236Y-117504532D01*
X83412041Y-117501413D01*
X83164423Y-117422150D01*
X83159816Y-117421400D01*
X83159813Y-117421399D01*
X82903067Y-117379585D01*
X82903068Y-117379585D01*
X82898456Y-117378834D01*
X82767704Y-117377122D01*
X82633686Y-117375368D01*
X82633683Y-117375368D01*
X82629009Y-117375307D01*
X82361999Y-117411645D01*
X82357509Y-117412954D01*
X82357503Y-117412955D01*
X82266927Y-117439356D01*
X82103294Y-117487051D01*
X82099047Y-117489009D01*
X82099044Y-117489010D01*
X82061394Y-117506367D01*
X81858575Y-117599868D01*
X81808421Y-117632751D01*
X81637134Y-117745051D01*
X81637129Y-117745055D01*
X81633221Y-117747617D01*
X81432180Y-117927053D01*
X81259870Y-118134233D01*
X81120075Y-118364607D01*
X81118266Y-118368921D01*
X81118264Y-118368925D01*
X81081085Y-118457588D01*
X81015868Y-118613113D01*
X80949537Y-118874293D01*
X80922539Y-119142408D01*
X80935468Y-119411569D01*
X80988039Y-119675862D01*
X81079098Y-119929481D01*
X81081314Y-119933605D01*
X81145604Y-120053254D01*
X81206644Y-120166856D01*
X81209439Y-120170599D01*
X81209441Y-120170602D01*
X81365083Y-120379032D01*
X81365088Y-120379038D01*
X81367875Y-120382770D01*
X81371184Y-120386050D01*
X81371189Y-120386056D01*
X81555932Y-120569194D01*
X81559249Y-120572482D01*
X81563011Y-120575240D01*
X81563014Y-120575243D01*
X81664802Y-120649877D01*
X81776562Y-120731823D01*
X81780694Y-120733997D01*
X81780704Y-120734003D01*
X81953898Y-120825125D01*
X82004871Y-120874544D01*
X82021034Y-120943676D01*
X81997255Y-121010573D01*
X81984326Y-121025728D01*
X81539548Y-121470506D01*
X81477236Y-121504532D01*
X81412041Y-121501413D01*
X81164423Y-121422150D01*
X81159816Y-121421400D01*
X81159813Y-121421399D01*
X80903067Y-121379585D01*
X80903068Y-121379585D01*
X80898456Y-121378834D01*
X80767704Y-121377122D01*
X80633686Y-121375368D01*
X80633683Y-121375368D01*
X80629009Y-121375307D01*
X80361999Y-121411645D01*
X80357509Y-121412954D01*
X80357503Y-121412955D01*
X80271634Y-121437984D01*
X80103294Y-121487051D01*
X80099047Y-121489009D01*
X80099044Y-121489010D01*
X80026371Y-121522513D01*
X79858575Y-121599868D01*
X79808421Y-121632751D01*
X79637134Y-121745051D01*
X79637133Y-121745052D01*
X79633221Y-121747617D01*
X79432180Y-121927053D01*
X79259870Y-122134233D01*
X79120075Y-122364607D01*
X79118266Y-122368921D01*
X79118264Y-122368925D01*
X79026291Y-122588256D01*
X79015868Y-122613113D01*
X78949537Y-122874293D01*
X78922539Y-123142408D01*
X78935468Y-123411569D01*
X78988039Y-123675862D01*
X79079098Y-123929481D01*
X79081314Y-123933605D01*
X79145604Y-124053254D01*
X79206644Y-124166856D01*
X79209439Y-124170599D01*
X79209441Y-124170602D01*
X79365083Y-124379032D01*
X79365088Y-124379038D01*
X79367875Y-124382770D01*
X79371184Y-124386050D01*
X79371189Y-124386056D01*
X79475811Y-124489769D01*
X79559249Y-124572482D01*
X79563011Y-124575240D01*
X79563014Y-124575243D01*
X79675666Y-124657843D01*
X79776562Y-124731823D01*
X79780693Y-124733997D01*
X79780694Y-124733997D01*
X80010908Y-124855118D01*
X80010913Y-124855120D01*
X80014572Y-124857045D01*
X80014573Y-124857046D01*
X80015041Y-124857292D01*
X80014988Y-124857392D01*
X80068233Y-124901850D01*
X80089500Y-124971899D01*
X80089500Y-125679648D01*
X80069498Y-125747769D01*
X80015842Y-125794262D01*
X79945568Y-125804366D01*
X79885077Y-125777948D01*
X79884157Y-125777083D01*
X79880320Y-125774421D01*
X79880316Y-125774418D01*
X79666585Y-125626148D01*
X79666580Y-125626145D01*
X79662747Y-125623486D01*
X79655001Y-125619666D01*
X79425254Y-125506367D01*
X79425251Y-125506366D01*
X79421066Y-125504302D01*
X79405734Y-125499394D01*
X79296812Y-125464528D01*
X79164423Y-125422150D01*
X79159816Y-125421400D01*
X79159813Y-125421399D01*
X78903067Y-125379585D01*
X78903068Y-125379585D01*
X78898456Y-125378834D01*
X78767704Y-125377122D01*
X78633686Y-125375368D01*
X78633683Y-125375368D01*
X78629009Y-125375307D01*
X78361999Y-125411645D01*
X78357509Y-125412954D01*
X78357503Y-125412955D01*
X78247334Y-125445067D01*
X78103294Y-125487051D01*
X78099047Y-125489009D01*
X78099044Y-125489010D01*
X78061394Y-125506367D01*
X77858575Y-125599868D01*
X77808421Y-125632751D01*
X77637134Y-125745051D01*
X77637129Y-125745055D01*
X77633221Y-125747617D01*
X77432180Y-125927053D01*
X77259870Y-126134233D01*
X77120075Y-126364607D01*
X77015868Y-126613113D01*
X76949537Y-126874293D01*
X76922539Y-127142408D01*
X76935468Y-127411569D01*
X76988039Y-127675862D01*
X77079098Y-127929481D01*
X77081314Y-127933605D01*
X77170903Y-128100338D01*
X77206644Y-128166856D01*
X77209439Y-128170599D01*
X77209441Y-128170602D01*
X77365083Y-128379032D01*
X77365088Y-128379038D01*
X77367875Y-128382770D01*
X77371184Y-128386050D01*
X77371189Y-128386056D01*
X77475811Y-128489769D01*
X77559249Y-128572482D01*
X77563011Y-128575240D01*
X77563014Y-128575243D01*
X77772795Y-128729061D01*
X77776562Y-128731823D01*
X77780693Y-128733997D01*
X77780694Y-128733997D01*
X78010906Y-128855117D01*
X78010912Y-128855119D01*
X78015041Y-128857292D01*
X78019448Y-128858831D01*
X78019455Y-128858834D01*
X78265029Y-128944592D01*
X78269445Y-128946134D01*
X78274038Y-128947006D01*
X78529598Y-128995526D01*
X78529601Y-128995526D01*
X78534187Y-128996397D01*
X78662102Y-129001423D01*
X78798782Y-129006793D01*
X78798787Y-129006793D01*
X78803450Y-129006976D01*
X78908001Y-128995526D01*
X79066666Y-128978150D01*
X79066672Y-128978149D01*
X79071319Y-128977640D01*
X79190987Y-128946134D01*
X79327387Y-128910223D01*
X79327389Y-128910222D01*
X79331910Y-128909032D01*
X79336288Y-128907151D01*
X79575204Y-128804505D01*
X79575206Y-128804504D01*
X79579498Y-128802660D01*
X79721039Y-128715072D01*
X79804670Y-128663320D01*
X79804674Y-128663317D01*
X79808643Y-128660861D01*
X80014312Y-128486749D01*
X80188424Y-128288212D01*
X80248375Y-128250185D01*
X80319371Y-128250607D01*
X80372249Y-128282195D01*
X81437752Y-129347698D01*
X81445593Y-129356315D01*
X81449798Y-129362940D01*
X81455577Y-129368367D01*
X81455578Y-129368368D01*
X81500816Y-129410849D01*
X81503658Y-129413604D01*
X81523965Y-129433911D01*
X81527096Y-129436340D01*
X81527102Y-129436345D01*
X81527377Y-129436558D01*
X81536390Y-129444255D01*
X81569607Y-129475448D01*
X81576554Y-129479267D01*
X81588066Y-129485596D01*
X81604590Y-129496450D01*
X81621236Y-129509362D01*
X81655681Y-129524268D01*
X81663041Y-129527453D01*
X81673700Y-129532675D01*
X81706686Y-129550809D01*
X81706690Y-129550810D01*
X81713632Y-129554627D01*
X81721305Y-129556597D01*
X81721307Y-129556598D01*
X81734036Y-129559866D01*
X81752740Y-129566270D01*
X81764795Y-129571487D01*
X81764805Y-129571490D01*
X81772073Y-129574635D01*
X81779896Y-129575874D01*
X81779906Y-129575877D01*
X81817067Y-129581763D01*
X81828688Y-129584169D01*
X81865142Y-129593528D01*
X81872823Y-129595500D01*
X81893889Y-129595500D01*
X81913601Y-129597051D01*
X81934404Y-129600346D01*
X81979758Y-129596059D01*
X81991613Y-129595500D01*
X96506272Y-129595500D01*
X96574393Y-129615502D01*
X96620886Y-129669158D01*
X96630990Y-129739432D01*
X96616580Y-129782394D01*
X96569175Y-129868268D01*
X96569171Y-129868277D01*
X96566673Y-129872802D01*
X96564949Y-129877671D01*
X96564947Y-129877675D01*
X96489126Y-130091787D01*
X96484309Y-130105390D01*
X96483402Y-130110483D01*
X96483401Y-130110486D01*
X96449962Y-130298213D01*
X96441039Y-130348306D01*
X96438025Y-130595028D01*
X96475347Y-130838930D01*
X96521893Y-130981337D01*
X96552003Y-131073460D01*
X96549692Y-131074215D01*
X96556532Y-131134710D01*
X96525103Y-131198371D01*
X96464245Y-131234934D01*
X96432413Y-131239021D01*
X75761157Y-131239021D01*
X75693036Y-131219019D01*
X75672062Y-131202116D01*
X72458197Y-127988251D01*
X72424171Y-127925939D01*
X72429236Y-127855124D01*
X72432403Y-127847421D01*
X72448440Y-127811821D01*
X72521585Y-127552468D01*
X72555592Y-127285151D01*
X72558084Y-127190000D01*
X72554547Y-127142408D01*
X72922539Y-127142408D01*
X72935468Y-127411569D01*
X72988039Y-127675862D01*
X73079098Y-127929481D01*
X73081314Y-127933605D01*
X73170903Y-128100338D01*
X73206644Y-128166856D01*
X73209439Y-128170599D01*
X73209441Y-128170602D01*
X73365083Y-128379032D01*
X73365088Y-128379038D01*
X73367875Y-128382770D01*
X73371184Y-128386050D01*
X73371189Y-128386056D01*
X73475811Y-128489769D01*
X73559249Y-128572482D01*
X73563011Y-128575240D01*
X73563014Y-128575243D01*
X73772795Y-128729061D01*
X73776562Y-128731823D01*
X73780693Y-128733997D01*
X73780694Y-128733997D01*
X74010906Y-128855117D01*
X74010912Y-128855119D01*
X74015041Y-128857292D01*
X74019448Y-128858831D01*
X74019455Y-128858834D01*
X74265029Y-128944592D01*
X74269445Y-128946134D01*
X74274038Y-128947006D01*
X74529598Y-128995526D01*
X74529601Y-128995526D01*
X74534187Y-128996397D01*
X74662102Y-129001423D01*
X74798782Y-129006793D01*
X74798787Y-129006793D01*
X74803450Y-129006976D01*
X74908001Y-128995526D01*
X75066666Y-128978150D01*
X75066672Y-128978149D01*
X75071319Y-128977640D01*
X75190987Y-128946134D01*
X75327387Y-128910223D01*
X75327389Y-128910222D01*
X75331910Y-128909032D01*
X75336288Y-128907151D01*
X75575204Y-128804505D01*
X75575206Y-128804504D01*
X75579498Y-128802660D01*
X75721039Y-128715072D01*
X75804670Y-128663320D01*
X75804674Y-128663317D01*
X75808643Y-128660861D01*
X76014312Y-128486749D01*
X76191986Y-128284150D01*
X76198195Y-128274498D01*
X76335235Y-128061445D01*
X76337763Y-128057515D01*
X76448440Y-127811821D01*
X76521585Y-127552468D01*
X76555592Y-127285151D01*
X76558084Y-127190000D01*
X76554547Y-127142408D01*
X76538460Y-126925922D01*
X76538459Y-126925918D01*
X76538114Y-126921270D01*
X76528242Y-126877639D01*
X76479673Y-126663001D01*
X76478642Y-126658444D01*
X76380976Y-126407295D01*
X76247260Y-126173340D01*
X76080432Y-125961720D01*
X75884157Y-125777083D01*
X75748402Y-125682907D01*
X75666585Y-125626148D01*
X75666580Y-125626145D01*
X75662747Y-125623486D01*
X75655001Y-125619666D01*
X75425254Y-125506367D01*
X75425251Y-125506366D01*
X75421066Y-125504302D01*
X75405734Y-125499394D01*
X75296812Y-125464528D01*
X75164423Y-125422150D01*
X75159816Y-125421400D01*
X75159813Y-125421399D01*
X74903067Y-125379585D01*
X74903068Y-125379585D01*
X74898456Y-125378834D01*
X74767704Y-125377122D01*
X74633686Y-125375368D01*
X74633683Y-125375368D01*
X74629009Y-125375307D01*
X74361999Y-125411645D01*
X74357509Y-125412954D01*
X74357503Y-125412955D01*
X74247334Y-125445067D01*
X74103294Y-125487051D01*
X74099047Y-125489009D01*
X74099044Y-125489010D01*
X74061394Y-125506367D01*
X73858575Y-125599868D01*
X73808421Y-125632751D01*
X73637134Y-125745051D01*
X73637129Y-125745055D01*
X73633221Y-125747617D01*
X73432180Y-125927053D01*
X73259870Y-126134233D01*
X73120075Y-126364607D01*
X73015868Y-126613113D01*
X72949537Y-126874293D01*
X72922539Y-127142408D01*
X72554547Y-127142408D01*
X72538460Y-126925922D01*
X72538459Y-126925918D01*
X72538114Y-126921270D01*
X72528242Y-126877639D01*
X72479673Y-126663001D01*
X72478642Y-126658444D01*
X72380976Y-126407295D01*
X72247260Y-126173340D01*
X72080432Y-125961720D01*
X71884157Y-125777083D01*
X71748402Y-125682907D01*
X71666585Y-125626148D01*
X71666580Y-125626145D01*
X71662747Y-125623486D01*
X71655001Y-125619666D01*
X71425254Y-125506367D01*
X71425251Y-125506366D01*
X71421066Y-125504302D01*
X71405734Y-125499394D01*
X71296812Y-125464528D01*
X71164423Y-125422150D01*
X71159816Y-125421400D01*
X71159813Y-125421399D01*
X70903067Y-125379585D01*
X70903068Y-125379585D01*
X70898456Y-125378834D01*
X70767704Y-125377122D01*
X70633686Y-125375368D01*
X70633683Y-125375368D01*
X70629009Y-125375307D01*
X70361999Y-125411645D01*
X70357509Y-125412954D01*
X70357503Y-125412955D01*
X70247334Y-125445067D01*
X70103294Y-125487051D01*
X70099047Y-125489009D01*
X70099044Y-125489010D01*
X70061394Y-125506367D01*
X69858575Y-125599868D01*
X69808421Y-125632751D01*
X69637134Y-125745051D01*
X69637129Y-125745055D01*
X69633221Y-125747617D01*
X69432180Y-125927053D01*
X69259870Y-126134233D01*
X69120075Y-126364607D01*
X69015868Y-126613113D01*
X68949537Y-126874293D01*
X68922539Y-127142408D01*
X50942538Y-127142408D01*
X54207541Y-123877405D01*
X54269853Y-123843379D01*
X54296636Y-123840500D01*
X70958514Y-123840500D01*
X71026635Y-123860502D01*
X71073128Y-123914158D01*
X71077101Y-123923920D01*
X71079098Y-123929481D01*
X71081314Y-123933605D01*
X71145604Y-124053254D01*
X71206644Y-124166856D01*
X71209439Y-124170599D01*
X71209441Y-124170602D01*
X71365083Y-124379032D01*
X71365088Y-124379038D01*
X71367875Y-124382770D01*
X71371184Y-124386050D01*
X71371189Y-124386056D01*
X71475811Y-124489769D01*
X71559249Y-124572482D01*
X71563011Y-124575240D01*
X71563014Y-124575243D01*
X71675666Y-124657843D01*
X71776562Y-124731823D01*
X71780693Y-124733997D01*
X71780694Y-124733997D01*
X72010906Y-124855117D01*
X72010912Y-124855119D01*
X72015041Y-124857292D01*
X72019448Y-124858831D01*
X72019455Y-124858834D01*
X72265029Y-124944592D01*
X72269445Y-124946134D01*
X72274038Y-124947006D01*
X72529598Y-124995526D01*
X72529601Y-124995526D01*
X72534187Y-124996397D01*
X72662102Y-125001423D01*
X72798782Y-125006793D01*
X72798787Y-125006793D01*
X72803450Y-125006976D01*
X72908001Y-124995526D01*
X73066666Y-124978150D01*
X73066672Y-124978149D01*
X73071319Y-124977640D01*
X73196844Y-124944592D01*
X73327387Y-124910223D01*
X73327389Y-124910222D01*
X73331910Y-124909032D01*
X73391817Y-124883294D01*
X73575204Y-124804505D01*
X73575206Y-124804504D01*
X73579498Y-124802660D01*
X73698433Y-124729061D01*
X73804670Y-124663320D01*
X73804674Y-124663317D01*
X73808643Y-124660861D01*
X74014312Y-124486749D01*
X74191986Y-124284150D01*
X74337763Y-124057515D01*
X74448440Y-123811821D01*
X74521585Y-123552468D01*
X74555592Y-123285151D01*
X74558084Y-123190000D01*
X74554547Y-123142408D01*
X74538460Y-122925922D01*
X74538459Y-122925918D01*
X74538114Y-122921270D01*
X74500700Y-122755923D01*
X74490769Y-122712037D01*
X74478642Y-122658444D01*
X74472330Y-122642212D01*
X74382669Y-122411648D01*
X74382668Y-122411646D01*
X74380976Y-122407295D01*
X74357951Y-122367010D01*
X74341515Y-122297945D01*
X74365028Y-122230955D01*
X74421026Y-122187312D01*
X74467345Y-122178489D01*
X74756353Y-122178489D01*
X74824474Y-122198491D01*
X74845448Y-122215394D01*
X75023209Y-122393155D01*
X75057235Y-122455467D01*
X75050311Y-122530975D01*
X75046971Y-122538941D01*
X75015868Y-122613113D01*
X74949537Y-122874293D01*
X74922539Y-123142408D01*
X74935468Y-123411569D01*
X74988039Y-123675862D01*
X75079098Y-123929481D01*
X75081314Y-123933605D01*
X75145604Y-124053254D01*
X75206644Y-124166856D01*
X75209439Y-124170599D01*
X75209441Y-124170602D01*
X75365083Y-124379032D01*
X75365088Y-124379038D01*
X75367875Y-124382770D01*
X75371184Y-124386050D01*
X75371189Y-124386056D01*
X75475811Y-124489769D01*
X75559249Y-124572482D01*
X75563011Y-124575240D01*
X75563014Y-124575243D01*
X75675666Y-124657843D01*
X75776562Y-124731823D01*
X75780693Y-124733997D01*
X75780694Y-124733997D01*
X76010906Y-124855117D01*
X76010912Y-124855119D01*
X76015041Y-124857292D01*
X76019448Y-124858831D01*
X76019455Y-124858834D01*
X76265029Y-124944592D01*
X76269445Y-124946134D01*
X76274038Y-124947006D01*
X76529598Y-124995526D01*
X76529601Y-124995526D01*
X76534187Y-124996397D01*
X76662102Y-125001423D01*
X76798782Y-125006793D01*
X76798787Y-125006793D01*
X76803450Y-125006976D01*
X76908001Y-124995526D01*
X77066666Y-124978150D01*
X77066672Y-124978149D01*
X77071319Y-124977640D01*
X77196844Y-124944592D01*
X77327387Y-124910223D01*
X77327389Y-124910222D01*
X77331910Y-124909032D01*
X77391817Y-124883294D01*
X77575204Y-124804505D01*
X77575206Y-124804504D01*
X77579498Y-124802660D01*
X77698433Y-124729061D01*
X77804670Y-124663320D01*
X77804674Y-124663317D01*
X77808643Y-124660861D01*
X78014312Y-124486749D01*
X78191986Y-124284150D01*
X78337763Y-124057515D01*
X78448440Y-123811821D01*
X78521585Y-123552468D01*
X78555592Y-123285151D01*
X78558084Y-123190000D01*
X78554547Y-123142408D01*
X78538460Y-122925922D01*
X78538459Y-122925918D01*
X78538114Y-122921270D01*
X78500700Y-122755923D01*
X78490769Y-122712037D01*
X78478642Y-122658444D01*
X78472330Y-122642212D01*
X78382669Y-122411648D01*
X78382668Y-122411646D01*
X78380976Y-122407295D01*
X78372895Y-122393155D01*
X78292302Y-122252147D01*
X78247260Y-122173340D01*
X78080432Y-121961720D01*
X77884157Y-121777083D01*
X77695840Y-121646443D01*
X77666585Y-121626148D01*
X77666580Y-121626145D01*
X77662747Y-121623486D01*
X77658556Y-121621419D01*
X77425254Y-121506367D01*
X77425251Y-121506366D01*
X77421066Y-121504302D01*
X77413788Y-121501972D01*
X77263157Y-121453755D01*
X77164423Y-121422150D01*
X77159816Y-121421400D01*
X77159813Y-121421399D01*
X76903067Y-121379585D01*
X76903068Y-121379585D01*
X76898456Y-121378834D01*
X76767704Y-121377122D01*
X76633686Y-121375368D01*
X76633683Y-121375368D01*
X76629009Y-121375307D01*
X76361999Y-121411645D01*
X76357509Y-121412954D01*
X76357503Y-121412955D01*
X76209948Y-121455964D01*
X76103294Y-121487051D01*
X76099044Y-121489010D01*
X76099034Y-121489014D01*
X76082908Y-121496448D01*
X76012671Y-121506803D01*
X75947985Y-121477540D01*
X75941063Y-121471117D01*
X75595237Y-121125291D01*
X75587396Y-121116674D01*
X75583191Y-121110049D01*
X75532172Y-121062139D01*
X75529331Y-121059385D01*
X75509024Y-121039078D01*
X75505890Y-121036647D01*
X75502923Y-121034031D01*
X75503749Y-121033094D01*
X75465286Y-120979849D01*
X75461427Y-120908957D01*
X75496507Y-120847233D01*
X75534337Y-120822063D01*
X75575200Y-120804507D01*
X75575205Y-120804505D01*
X75579498Y-120802660D01*
X75735234Y-120706288D01*
X75804670Y-120663320D01*
X75804674Y-120663317D01*
X75808643Y-120660861D01*
X76014312Y-120486749D01*
X76191986Y-120284150D01*
X76245142Y-120201511D01*
X76335235Y-120061445D01*
X76337763Y-120057515D01*
X76448440Y-119811821D01*
X76521585Y-119552468D01*
X76555592Y-119285151D01*
X76558084Y-119190000D01*
X76554547Y-119142408D01*
X76922539Y-119142408D01*
X76935468Y-119411569D01*
X76988039Y-119675862D01*
X77079098Y-119929481D01*
X77081314Y-119933605D01*
X77145604Y-120053254D01*
X77206644Y-120166856D01*
X77209439Y-120170599D01*
X77209441Y-120170602D01*
X77365083Y-120379032D01*
X77365088Y-120379038D01*
X77367875Y-120382770D01*
X77371184Y-120386050D01*
X77371189Y-120386056D01*
X77555932Y-120569194D01*
X77559249Y-120572482D01*
X77563011Y-120575240D01*
X77563014Y-120575243D01*
X77664802Y-120649877D01*
X77776562Y-120731823D01*
X77780693Y-120733997D01*
X77780694Y-120733997D01*
X78010906Y-120855117D01*
X78010912Y-120855119D01*
X78015041Y-120857292D01*
X78019448Y-120858831D01*
X78019455Y-120858834D01*
X78262406Y-120943676D01*
X78269445Y-120946134D01*
X78274038Y-120947006D01*
X78529598Y-120995526D01*
X78529601Y-120995526D01*
X78534187Y-120996397D01*
X78662102Y-121001423D01*
X78798782Y-121006793D01*
X78798787Y-121006793D01*
X78803450Y-121006976D01*
X78908001Y-120995526D01*
X79066666Y-120978150D01*
X79066672Y-120978149D01*
X79071319Y-120977640D01*
X79196844Y-120944592D01*
X79327387Y-120910223D01*
X79327389Y-120910222D01*
X79331910Y-120909032D01*
X79369370Y-120892938D01*
X79575204Y-120804505D01*
X79575206Y-120804504D01*
X79579498Y-120802660D01*
X79735234Y-120706288D01*
X79804670Y-120663320D01*
X79804674Y-120663317D01*
X79808643Y-120660861D01*
X80014312Y-120486749D01*
X80191986Y-120284150D01*
X80245142Y-120201511D01*
X80335235Y-120061445D01*
X80337763Y-120057515D01*
X80448440Y-119811821D01*
X80521585Y-119552468D01*
X80555592Y-119285151D01*
X80558084Y-119190000D01*
X80554547Y-119142408D01*
X80538460Y-118925922D01*
X80538459Y-118925918D01*
X80538114Y-118921270D01*
X80478642Y-118658444D01*
X80400534Y-118457588D01*
X80382669Y-118411648D01*
X80382668Y-118411646D01*
X80380976Y-118407295D01*
X80247260Y-118173340D01*
X80080432Y-117961720D01*
X79884157Y-117777083D01*
X79690992Y-117643080D01*
X79666585Y-117626148D01*
X79666580Y-117626145D01*
X79662747Y-117623486D01*
X79620052Y-117602431D01*
X79425254Y-117506367D01*
X79425251Y-117506366D01*
X79421066Y-117504302D01*
X79164423Y-117422150D01*
X79159816Y-117421400D01*
X79159813Y-117421399D01*
X78903067Y-117379585D01*
X78903068Y-117379585D01*
X78898456Y-117378834D01*
X78767704Y-117377122D01*
X78633686Y-117375368D01*
X78633683Y-117375368D01*
X78629009Y-117375307D01*
X78361999Y-117411645D01*
X78357509Y-117412954D01*
X78357503Y-117412955D01*
X78266927Y-117439356D01*
X78103294Y-117487051D01*
X78099047Y-117489009D01*
X78099044Y-117489010D01*
X78061394Y-117506367D01*
X77858575Y-117599868D01*
X77808421Y-117632751D01*
X77637134Y-117745051D01*
X77637129Y-117745055D01*
X77633221Y-117747617D01*
X77432180Y-117927053D01*
X77259870Y-118134233D01*
X77120075Y-118364607D01*
X77118266Y-118368921D01*
X77118264Y-118368925D01*
X77081085Y-118457588D01*
X77015868Y-118613113D01*
X76949537Y-118874293D01*
X76922539Y-119142408D01*
X76554547Y-119142408D01*
X76538460Y-118925922D01*
X76538459Y-118925918D01*
X76538114Y-118921270D01*
X76478642Y-118658444D01*
X76400534Y-118457588D01*
X76382669Y-118411648D01*
X76382668Y-118411646D01*
X76380976Y-118407295D01*
X76247260Y-118173340D01*
X76080432Y-117961720D01*
X75884157Y-117777083D01*
X75690992Y-117643080D01*
X75666585Y-117626148D01*
X75666580Y-117626145D01*
X75662747Y-117623486D01*
X75620052Y-117602431D01*
X75425254Y-117506367D01*
X75425251Y-117506366D01*
X75421066Y-117504302D01*
X75164423Y-117422150D01*
X75159816Y-117421400D01*
X75159813Y-117421399D01*
X74903067Y-117379585D01*
X74903068Y-117379585D01*
X74898456Y-117378834D01*
X74767704Y-117377122D01*
X74633686Y-117375368D01*
X74633683Y-117375368D01*
X74629009Y-117375307D01*
X74361999Y-117411645D01*
X74357509Y-117412954D01*
X74357503Y-117412955D01*
X74266927Y-117439356D01*
X74103294Y-117487051D01*
X74099047Y-117489009D01*
X74099044Y-117489010D01*
X74061394Y-117506367D01*
X73858575Y-117599868D01*
X73808421Y-117632751D01*
X73637134Y-117745051D01*
X73637129Y-117745055D01*
X73633221Y-117747617D01*
X73432180Y-117927053D01*
X73259870Y-118134233D01*
X73120075Y-118364607D01*
X73118266Y-118368921D01*
X73118264Y-118368925D01*
X73081085Y-118457588D01*
X73015868Y-118613113D01*
X72949537Y-118874293D01*
X72922539Y-119142408D01*
X72935468Y-119411569D01*
X72988039Y-119675862D01*
X73079098Y-119929481D01*
X73081314Y-119933605D01*
X73145604Y-120053254D01*
X73206644Y-120166856D01*
X73209439Y-120170599D01*
X73209441Y-120170602D01*
X73365083Y-120379032D01*
X73365088Y-120379038D01*
X73367875Y-120382770D01*
X73371184Y-120386050D01*
X73371189Y-120386056D01*
X73555932Y-120569194D01*
X73559249Y-120572482D01*
X73563011Y-120575240D01*
X73563014Y-120575243D01*
X73664802Y-120649877D01*
X73707910Y-120706288D01*
X73713677Y-120777050D01*
X73680271Y-120839697D01*
X73618300Y-120874338D01*
X73590297Y-120877489D01*
X72628277Y-120877489D01*
X72560156Y-120857487D01*
X72513663Y-120803831D01*
X72503559Y-120733557D01*
X72510295Y-120707260D01*
X72510660Y-120706288D01*
X72546351Y-120611080D01*
X72553000Y-120549877D01*
X72552999Y-117830124D01*
X72546351Y-117768920D01*
X72496026Y-117634676D01*
X72490646Y-117627497D01*
X72490644Y-117627494D01*
X72415428Y-117527135D01*
X72410046Y-117519954D01*
X72366144Y-117487051D01*
X72302506Y-117439356D01*
X72302503Y-117439354D01*
X72295324Y-117433974D01*
X72205939Y-117400466D01*
X72168475Y-117386421D01*
X72168473Y-117386421D01*
X72161080Y-117383649D01*
X72153230Y-117382796D01*
X72153229Y-117382796D01*
X72103274Y-117377369D01*
X72103273Y-117377369D01*
X72099877Y-117377000D01*
X70740199Y-117377000D01*
X69380124Y-117377001D01*
X69376730Y-117377370D01*
X69376724Y-117377370D01*
X69326778Y-117382795D01*
X69326774Y-117382796D01*
X69318920Y-117383649D01*
X69184676Y-117433974D01*
X69177497Y-117439354D01*
X69177494Y-117439356D01*
X69113856Y-117487051D01*
X69069954Y-117519954D01*
X69064572Y-117527135D01*
X68989356Y-117627494D01*
X68989354Y-117627497D01*
X68983974Y-117634676D01*
X68980824Y-117643080D01*
X68940467Y-117750734D01*
X68933649Y-117768920D01*
X68927000Y-117830123D01*
X68927001Y-120549876D01*
X68933649Y-120611080D01*
X68969705Y-120707260D01*
X68974888Y-120778067D01*
X68940967Y-120840436D01*
X68878711Y-120874565D01*
X68851723Y-120877489D01*
X53269625Y-120877489D01*
X53201504Y-120857487D01*
X53180530Y-120840584D01*
X44834974Y-112495028D01*
X59538025Y-112495028D01*
X59575347Y-112738930D01*
X59652003Y-112973460D01*
X59765935Y-113192321D01*
X59769038Y-113196454D01*
X59769040Y-113196457D01*
X59824480Y-113270296D01*
X59914083Y-113389636D01*
X60092468Y-113560104D01*
X60096740Y-113563018D01*
X60096741Y-113563019D01*
X60125893Y-113582905D01*
X60296300Y-113699149D01*
X60408202Y-113751092D01*
X60515409Y-113800856D01*
X60515413Y-113800857D01*
X60520104Y-113803035D01*
X60757871Y-113868974D01*
X60763008Y-113869523D01*
X60955957Y-113890144D01*
X60955965Y-113890144D01*
X60959292Y-113890500D01*
X61102554Y-113890500D01*
X61105127Y-113890288D01*
X61105138Y-113890288D01*
X61280760Y-113875849D01*
X61280766Y-113875848D01*
X61285911Y-113875425D01*
X61525217Y-113815316D01*
X61751493Y-113716928D01*
X61958661Y-113582905D01*
X61971723Y-113571020D01*
X62112073Y-113443311D01*
X62141158Y-113416846D01*
X62144357Y-113412795D01*
X62144361Y-113412791D01*
X62290881Y-113227264D01*
X62290884Y-113227259D01*
X62294082Y-113223210D01*
X62296577Y-113218691D01*
X62410830Y-113011722D01*
X62410832Y-113011718D01*
X62413327Y-113007198D01*
X62418547Y-112992459D01*
X62493965Y-112779485D01*
X62493966Y-112779481D01*
X62495691Y-112774610D01*
X62520431Y-112635723D01*
X62538055Y-112536783D01*
X62538056Y-112536777D01*
X62538961Y-112531694D01*
X62541229Y-112346019D01*
X62541912Y-112290142D01*
X62541912Y-112290140D01*
X62541975Y-112284972D01*
X62504653Y-112041070D01*
X62427997Y-111806540D01*
X62314065Y-111587679D01*
X62269341Y-111528111D01*
X62169022Y-111394499D01*
X62169020Y-111394496D01*
X62165917Y-111390364D01*
X62060623Y-111289743D01*
X61991269Y-111223467D01*
X61991268Y-111223466D01*
X61987532Y-111219896D01*
X61959212Y-111200577D01*
X61799103Y-111091358D01*
X61783700Y-111080851D01*
X61644817Y-111016384D01*
X61564591Y-110979144D01*
X61564587Y-110979143D01*
X61559896Y-110976965D01*
X61322129Y-110911026D01*
X61316992Y-110910477D01*
X61124043Y-110889856D01*
X61124035Y-110889856D01*
X61120708Y-110889500D01*
X60977446Y-110889500D01*
X60974873Y-110889712D01*
X60974862Y-110889712D01*
X60799240Y-110904151D01*
X60799234Y-110904152D01*
X60794089Y-110904575D01*
X60554783Y-110964684D01*
X60328507Y-111063072D01*
X60121339Y-111197095D01*
X60117514Y-111200575D01*
X60117512Y-111200577D01*
X60096281Y-111219896D01*
X59938842Y-111363154D01*
X59935643Y-111367205D01*
X59935639Y-111367209D01*
X59789119Y-111552736D01*
X59789116Y-111552741D01*
X59785918Y-111556790D01*
X59783425Y-111561306D01*
X59783423Y-111561309D01*
X59691211Y-111728352D01*
X59666673Y-111772802D01*
X59664949Y-111777671D01*
X59664947Y-111777675D01*
X59608652Y-111936647D01*
X59584309Y-112005390D01*
X59541039Y-112248306D01*
X59538025Y-112495028D01*
X44834974Y-112495028D01*
X44685965Y-112346019D01*
X44651939Y-112283707D01*
X44649539Y-112267905D01*
X44640543Y-112165073D01*
X44640542Y-112165068D01*
X44640063Y-112159592D01*
X44578903Y-111931337D01*
X44507249Y-111777675D01*
X44481358Y-111722152D01*
X44481356Y-111722149D01*
X44479035Y-111717171D01*
X44343495Y-111523599D01*
X44197734Y-111377838D01*
X44163708Y-111315526D01*
X44168773Y-111244711D01*
X44211320Y-111187875D01*
X44225572Y-111179326D01*
X44225529Y-111179256D01*
X44368117Y-111091020D01*
X44374345Y-111087166D01*
X44497984Y-110963311D01*
X44509017Y-110945413D01*
X44569030Y-110848052D01*
X44589814Y-110814334D01*
X44644910Y-110648228D01*
X44655500Y-110544866D01*
X44655500Y-109245134D01*
X44655163Y-109241884D01*
X44645353Y-109147339D01*
X44645352Y-109147335D01*
X44644641Y-109140481D01*
X44589256Y-108974471D01*
X44497166Y-108825655D01*
X44373311Y-108702016D01*
X44224334Y-108610186D01*
X44157839Y-108588130D01*
X44064759Y-108557256D01*
X44064757Y-108557255D01*
X44058228Y-108555090D01*
X43954866Y-108544500D01*
X42405134Y-108544500D01*
X42401888Y-108544837D01*
X42401884Y-108544837D01*
X42307339Y-108554647D01*
X42307335Y-108554648D01*
X42300481Y-108555359D01*
X42293945Y-108557540D01*
X42293943Y-108557540D01*
X42202254Y-108588130D01*
X42134471Y-108610744D01*
X41985655Y-108702834D01*
X41862016Y-108826689D01*
X41770186Y-108975666D01*
X41767881Y-108982614D01*
X41767881Y-108982615D01*
X41736728Y-109076538D01*
X41715090Y-109141772D01*
X41704500Y-109245134D01*
X41704500Y-110544866D01*
X41704837Y-110548112D01*
X41704837Y-110548116D01*
X41714515Y-110641383D01*
X41715359Y-110649519D01*
X41717540Y-110656055D01*
X41717540Y-110656057D01*
X41754050Y-110765491D01*
X41770744Y-110815529D01*
X41862834Y-110964345D01*
X41986689Y-111087984D01*
X41992919Y-111091824D01*
X41992920Y-111091825D01*
X42135666Y-111179814D01*
X42134507Y-111181695D01*
X42179686Y-111221468D01*
X42199154Y-111289743D01*
X42178619Y-111357705D01*
X42162253Y-111377851D01*
X42016505Y-111523599D01*
X42013348Y-111528107D01*
X42013346Y-111528110D01*
X41884122Y-111712661D01*
X41880965Y-111717170D01*
X41878642Y-111722152D01*
X41878639Y-111722157D01*
X41783420Y-111926355D01*
X41781097Y-111931337D01*
X41719937Y-112159592D01*
X41699341Y-112395000D01*
X41719937Y-112630408D01*
X41721361Y-112635722D01*
X41721361Y-112635723D01*
X41759882Y-112779485D01*
X41781097Y-112858663D01*
X41783419Y-112863643D01*
X41783420Y-112863645D01*
X41850361Y-113007198D01*
X41880965Y-113072829D01*
X42016505Y-113266401D01*
X42183599Y-113433495D01*
X42332567Y-113537803D01*
X42376895Y-113593259D01*
X42384204Y-113663878D01*
X42352174Y-113727238D01*
X42330663Y-113745535D01*
X42205425Y-113829850D01*
X42197130Y-113836519D01*
X42038100Y-113988228D01*
X42031059Y-113996186D01*
X41899859Y-114172525D01*
X41894255Y-114181562D01*
X41794643Y-114377484D01*
X41790643Y-114387335D01*
X41725466Y-114597240D01*
X41723183Y-114607624D01*
X41721139Y-114623043D01*
X41723335Y-114637207D01*
X41736522Y-114641000D01*
X44621192Y-114641000D01*
X44634723Y-114637027D01*
X44636248Y-114626420D01*
X44611523Y-114508579D01*
X44608464Y-114498387D01*
X44576932Y-114418542D01*
X44570514Y-114347836D01*
X44603341Y-114284884D01*
X44664992Y-114249674D01*
X44735891Y-114253384D01*
X44783219Y-114283165D01*
X52430741Y-121930687D01*
X52438582Y-121939304D01*
X52442787Y-121945929D01*
X52448566Y-121951356D01*
X52448567Y-121951357D01*
X52493805Y-121993838D01*
X52496647Y-121996593D01*
X52516954Y-122016900D01*
X52520085Y-122019329D01*
X52520091Y-122019334D01*
X52520366Y-122019547D01*
X52529379Y-122027244D01*
X52562596Y-122058437D01*
X52569543Y-122062256D01*
X52581055Y-122068585D01*
X52597579Y-122079439D01*
X52614225Y-122092351D01*
X52621499Y-122095499D01*
X52621501Y-122095500D01*
X52656036Y-122110445D01*
X52666696Y-122115667D01*
X52699677Y-122133799D01*
X52699680Y-122133800D01*
X52706621Y-122137616D01*
X52714294Y-122139586D01*
X52714299Y-122139588D01*
X52727022Y-122142854D01*
X52745734Y-122149261D01*
X52757784Y-122154476D01*
X52757791Y-122154478D01*
X52765063Y-122157625D01*
X52772894Y-122158865D01*
X52772896Y-122158866D01*
X52810065Y-122164754D01*
X52821685Y-122167160D01*
X52858131Y-122176517D01*
X52865812Y-122178489D01*
X52886873Y-122178489D01*
X52906585Y-122180040D01*
X52927394Y-122183336D01*
X52935285Y-122182590D01*
X52972754Y-122179048D01*
X52984612Y-122178489D01*
X71009682Y-122178489D01*
X71077803Y-122198491D01*
X71124296Y-122252147D01*
X71134400Y-122322421D01*
X71122066Y-122361327D01*
X71120075Y-122364607D01*
X71118268Y-122368916D01*
X71118266Y-122368920D01*
X71079140Y-122462226D01*
X71034351Y-122517312D01*
X70962943Y-122539500D01*
X54055999Y-122539500D01*
X54044359Y-122538951D01*
X54036703Y-122537240D01*
X54028780Y-122537489D01*
X53966769Y-122539438D01*
X53962811Y-122539500D01*
X53934075Y-122539500D01*
X53930140Y-122539997D01*
X53929807Y-122540039D01*
X53917972Y-122540971D01*
X53872430Y-122542403D01*
X53864813Y-122544616D01*
X53852208Y-122548278D01*
X53832844Y-122552289D01*
X53830665Y-122552564D01*
X53819806Y-122553935D01*
X53819801Y-122553936D01*
X53811942Y-122554929D01*
X53769574Y-122571703D01*
X53758361Y-122575542D01*
X53722211Y-122586045D01*
X53714601Y-122588256D01*
X53696466Y-122598981D01*
X53678712Y-122607678D01*
X53675882Y-122608799D01*
X53666498Y-122612514D01*
X53666496Y-122612515D01*
X53659129Y-122615432D01*
X53630633Y-122636135D01*
X53622269Y-122642212D01*
X53612352Y-122648726D01*
X53573135Y-122671919D01*
X53558242Y-122686812D01*
X53543208Y-122699653D01*
X53526163Y-122712037D01*
X53521110Y-122718145D01*
X53497121Y-122747143D01*
X53489131Y-122755923D01*
X44870595Y-131374459D01*
X44808283Y-131408485D01*
X44737468Y-131403420D01*
X44680632Y-131360873D01*
X44655821Y-131294353D01*
X44655500Y-131285364D01*
X44655500Y-130835134D01*
X44655163Y-130831884D01*
X44645353Y-130737339D01*
X44645352Y-130737335D01*
X44644641Y-130730481D01*
X44589256Y-130564471D01*
X44497166Y-130415655D01*
X44484836Y-130403346D01*
X44378491Y-130297187D01*
X44373311Y-130292016D01*
X44224334Y-130200186D01*
X44139771Y-130172137D01*
X44064759Y-130147256D01*
X44064757Y-130147255D01*
X44058228Y-130145090D01*
X43954866Y-130134500D01*
X42405134Y-130134500D01*
X42401888Y-130134837D01*
X42401884Y-130134837D01*
X42307339Y-130144647D01*
X42307335Y-130144648D01*
X42300481Y-130145359D01*
X42293945Y-130147540D01*
X42293943Y-130147540D01*
X42220217Y-130172137D01*
X42134471Y-130200744D01*
X41985655Y-130292834D01*
X41862016Y-130416689D01*
X41770186Y-130565666D01*
X41767881Y-130572614D01*
X41767881Y-130572615D01*
X41749998Y-130626531D01*
X41715090Y-130731772D01*
X41704500Y-130835134D01*
X41704500Y-132134866D01*
X41715359Y-132239519D01*
X41717540Y-132246055D01*
X41717540Y-132246057D01*
X41738026Y-132307461D01*
X41770744Y-132405529D01*
X41862834Y-132554345D01*
X41986689Y-132677984D01*
X41992919Y-132681824D01*
X41992920Y-132681825D01*
X42135666Y-132769814D01*
X42134507Y-132771695D01*
X42179686Y-132811468D01*
X42199154Y-132879743D01*
X42178619Y-132947705D01*
X42162253Y-132967851D01*
X42016505Y-133113599D01*
X42013348Y-133118107D01*
X42013346Y-133118110D01*
X41905485Y-133272152D01*
X41880965Y-133307170D01*
X41878642Y-133312152D01*
X41878639Y-133312157D01*
X41783420Y-133516355D01*
X41781097Y-133521337D01*
X41719937Y-133749592D01*
X41699341Y-133985000D01*
X30988000Y-133985000D01*
X30988000Y-115163580D01*
X41723752Y-115163580D01*
X41748477Y-115281421D01*
X41751537Y-115291617D01*
X41832263Y-115496029D01*
X41836994Y-115505561D01*
X41951016Y-115693462D01*
X41957280Y-115702052D01*
X42101327Y-115868052D01*
X42108958Y-115875472D01*
X42278911Y-116014826D01*
X42287678Y-116020850D01*
X42478682Y-116129576D01*
X42488346Y-116134041D01*
X42694941Y-116209031D01*
X42705208Y-116211802D01*
X42908174Y-116248504D01*
X42921414Y-116247085D01*
X42926000Y-116232450D01*
X42926000Y-116228849D01*
X43434000Y-116228849D01*
X43438310Y-116243527D01*
X43450193Y-116245590D01*
X43529325Y-116238876D01*
X43539797Y-116237086D01*
X43752535Y-116181870D01*
X43762575Y-116178335D01*
X43962970Y-116088063D01*
X43972256Y-116082894D01*
X44154575Y-115960150D01*
X44162870Y-115953481D01*
X44321900Y-115801772D01*
X44328941Y-115793814D01*
X44460141Y-115617475D01*
X44465745Y-115608438D01*
X44565357Y-115412516D01*
X44569357Y-115402665D01*
X44634534Y-115192760D01*
X44636817Y-115182376D01*
X44638861Y-115166957D01*
X44636665Y-115152793D01*
X44623478Y-115149000D01*
X43452115Y-115149000D01*
X43436876Y-115153475D01*
X43435671Y-115154865D01*
X43434000Y-115162548D01*
X43434000Y-116228849D01*
X42926000Y-116228849D01*
X42926000Y-115167115D01*
X42921525Y-115151876D01*
X42920135Y-115150671D01*
X42912452Y-115149000D01*
X41738808Y-115149000D01*
X41725277Y-115152973D01*
X41723752Y-115163580D01*
X30988000Y-115163580D01*
X30988000Y-95937623D01*
X52684500Y-95937623D01*
X52684501Y-98882376D01*
X52691149Y-98943580D01*
X52741474Y-99077824D01*
X52746854Y-99085003D01*
X52746856Y-99085006D01*
X52822072Y-99185365D01*
X52827454Y-99192546D01*
X52834635Y-99197928D01*
X52934994Y-99273144D01*
X52934997Y-99273146D01*
X52942176Y-99278526D01*
X53031561Y-99312034D01*
X53069025Y-99326079D01*
X53069027Y-99326079D01*
X53076420Y-99328851D01*
X53084270Y-99329704D01*
X53084271Y-99329704D01*
X53134217Y-99335130D01*
X53137623Y-99335500D01*
X54609784Y-99335500D01*
X56082376Y-99335499D01*
X56085770Y-99335130D01*
X56085776Y-99335130D01*
X56135722Y-99329705D01*
X56135726Y-99329704D01*
X56143580Y-99328851D01*
X56277824Y-99278526D01*
X56285003Y-99273146D01*
X56285006Y-99273144D01*
X56385365Y-99197928D01*
X56392546Y-99192546D01*
X56397928Y-99185365D01*
X56473144Y-99085006D01*
X56473146Y-99085003D01*
X56478526Y-99077824D01*
X56528851Y-98943580D01*
X56535500Y-98882377D01*
X56535499Y-95937624D01*
X56535499Y-95937623D01*
X78084500Y-95937623D01*
X78084501Y-98882376D01*
X78091149Y-98943580D01*
X78141474Y-99077824D01*
X78146854Y-99085003D01*
X78146856Y-99085006D01*
X78222072Y-99185365D01*
X78227454Y-99192546D01*
X78234635Y-99197928D01*
X78334994Y-99273144D01*
X78334997Y-99273146D01*
X78342176Y-99278526D01*
X78431561Y-99312034D01*
X78469025Y-99326079D01*
X78469027Y-99326079D01*
X78476420Y-99328851D01*
X78484270Y-99329704D01*
X78484271Y-99329704D01*
X78534217Y-99335130D01*
X78537623Y-99335500D01*
X80009784Y-99335500D01*
X81482376Y-99335499D01*
X81485770Y-99335130D01*
X81485776Y-99335130D01*
X81535722Y-99329705D01*
X81535726Y-99329704D01*
X81543580Y-99328851D01*
X81677824Y-99278526D01*
X81685003Y-99273146D01*
X81685006Y-99273144D01*
X81785365Y-99197928D01*
X81792546Y-99192546D01*
X81797928Y-99185365D01*
X81873144Y-99085006D01*
X81873146Y-99085003D01*
X81878526Y-99077824D01*
X81928851Y-98943580D01*
X81935500Y-98882377D01*
X81935499Y-95937624D01*
X81932193Y-95907187D01*
X81929705Y-95884278D01*
X81929704Y-95884274D01*
X81928851Y-95876420D01*
X81878526Y-95742176D01*
X81873146Y-95734997D01*
X81873144Y-95734994D01*
X81797928Y-95634635D01*
X81792546Y-95627454D01*
X81785365Y-95622072D01*
X81685006Y-95546856D01*
X81685003Y-95546854D01*
X81677824Y-95541474D01*
X81588439Y-95507966D01*
X81550975Y-95493921D01*
X81550973Y-95493921D01*
X81543580Y-95491149D01*
X81535730Y-95490296D01*
X81535729Y-95490296D01*
X81485774Y-95484869D01*
X81485773Y-95484869D01*
X81482377Y-95484500D01*
X80010216Y-95484500D01*
X78537624Y-95484501D01*
X78534230Y-95484870D01*
X78534224Y-95484870D01*
X78484278Y-95490295D01*
X78484274Y-95490296D01*
X78476420Y-95491149D01*
X78342176Y-95541474D01*
X78334997Y-95546854D01*
X78334994Y-95546856D01*
X78234635Y-95622072D01*
X78227454Y-95627454D01*
X78222072Y-95634635D01*
X78146856Y-95734994D01*
X78146854Y-95734997D01*
X78141474Y-95742176D01*
X78091149Y-95876420D01*
X78090296Y-95884270D01*
X78090296Y-95884271D01*
X78087716Y-95908016D01*
X78084500Y-95937623D01*
X56535499Y-95937623D01*
X56532193Y-95907187D01*
X56529705Y-95884278D01*
X56529704Y-95884274D01*
X56528851Y-95876420D01*
X56478526Y-95742176D01*
X56473146Y-95734997D01*
X56473144Y-95734994D01*
X56397928Y-95634635D01*
X56392546Y-95627454D01*
X56385365Y-95622072D01*
X56285006Y-95546856D01*
X56285003Y-95546854D01*
X56277824Y-95541474D01*
X56188439Y-95507966D01*
X56150975Y-95493921D01*
X56150973Y-95493921D01*
X56143580Y-95491149D01*
X56135730Y-95490296D01*
X56135729Y-95490296D01*
X56085774Y-95484869D01*
X56085773Y-95484869D01*
X56082377Y-95484500D01*
X54610216Y-95484500D01*
X53137624Y-95484501D01*
X53134230Y-95484870D01*
X53134224Y-95484870D01*
X53084278Y-95490295D01*
X53084274Y-95490296D01*
X53076420Y-95491149D01*
X52942176Y-95541474D01*
X52934997Y-95546854D01*
X52934994Y-95546856D01*
X52834635Y-95622072D01*
X52827454Y-95627454D01*
X52822072Y-95634635D01*
X52746856Y-95734994D01*
X52746854Y-95734997D01*
X52741474Y-95742176D01*
X52691149Y-95876420D01*
X52690296Y-95884270D01*
X52690296Y-95884271D01*
X52687716Y-95908016D01*
X52684500Y-95937623D01*
X30988000Y-95937623D01*
X30988000Y-93604200D01*
X38538747Y-93604200D01*
X38539306Y-93608444D01*
X38539306Y-93608448D01*
X38549809Y-93688228D01*
X38576129Y-93888149D01*
X38651702Y-94164398D01*
X38653386Y-94168346D01*
X38750184Y-94395284D01*
X38764068Y-94427835D01*
X38911146Y-94673585D01*
X39090215Y-94897100D01*
X39297962Y-95094245D01*
X39530543Y-95261371D01*
X39783653Y-95395386D01*
X39807870Y-95404248D01*
X40043008Y-95490296D01*
X40052610Y-95493810D01*
X40332436Y-95554822D01*
X40371901Y-95557928D01*
X40554597Y-95572307D01*
X40554604Y-95572307D01*
X40557053Y-95572500D01*
X40711992Y-95572500D01*
X40714128Y-95572354D01*
X40714139Y-95572354D01*
X40921460Y-95558220D01*
X40921466Y-95558219D01*
X40925737Y-95557928D01*
X40929932Y-95557059D01*
X40929934Y-95557059D01*
X41065962Y-95528889D01*
X41206186Y-95499850D01*
X41476158Y-95404248D01*
X41730658Y-95272891D01*
X41734159Y-95270430D01*
X41734163Y-95270428D01*
X41961471Y-95110673D01*
X41961477Y-95110668D01*
X41964976Y-95108209D01*
X42174776Y-94913251D01*
X42185575Y-94900058D01*
X42353461Y-94694941D01*
X42356177Y-94691623D01*
X42505820Y-94447427D01*
X42512802Y-94431522D01*
X42594427Y-94245577D01*
X53439590Y-94245577D01*
X53446980Y-94255879D01*
X53492217Y-94292707D01*
X53499492Y-94297821D01*
X53726379Y-94434418D01*
X53734303Y-94438454D01*
X53978165Y-94541718D01*
X53986570Y-94544596D01*
X54242565Y-94612471D01*
X54251286Y-94614135D01*
X54514295Y-94645264D01*
X54523160Y-94645682D01*
X54787917Y-94639442D01*
X54796777Y-94638605D01*
X55058001Y-94595126D01*
X55066658Y-94593047D01*
X55319157Y-94513192D01*
X55327419Y-94509921D01*
X55566149Y-94395284D01*
X55573874Y-94390878D01*
X55773293Y-94257631D01*
X55781581Y-94247713D01*
X55780488Y-94245577D01*
X78839590Y-94245577D01*
X78846980Y-94255879D01*
X78892217Y-94292707D01*
X78899492Y-94297821D01*
X79126379Y-94434418D01*
X79134303Y-94438454D01*
X79378165Y-94541718D01*
X79386570Y-94544596D01*
X79642565Y-94612471D01*
X79651286Y-94614135D01*
X79914295Y-94645264D01*
X79923160Y-94645682D01*
X80187917Y-94639442D01*
X80196777Y-94638605D01*
X80458001Y-94595126D01*
X80466658Y-94593047D01*
X80719157Y-94513192D01*
X80727419Y-94509921D01*
X80966149Y-94395284D01*
X80973874Y-94390878D01*
X81173293Y-94257631D01*
X81181581Y-94247713D01*
X81174324Y-94233534D01*
X80022812Y-93082022D01*
X80008868Y-93074408D01*
X80007035Y-93074539D01*
X80000420Y-93078790D01*
X78846756Y-94232454D01*
X78839590Y-94245577D01*
X55780488Y-94245577D01*
X55774324Y-94233534D01*
X54622812Y-93082022D01*
X54608868Y-93074408D01*
X54607035Y-93074539D01*
X54600420Y-93078790D01*
X53446756Y-94232454D01*
X53439590Y-94245577D01*
X42594427Y-94245577D01*
X42619214Y-94189110D01*
X42619215Y-94189106D01*
X42620938Y-94185182D01*
X42699400Y-93909739D01*
X42739754Y-93626196D01*
X42740781Y-93430063D01*
X42741231Y-93344086D01*
X42741231Y-93344080D01*
X42741253Y-93339800D01*
X42739846Y-93329108D01*
X42710642Y-93107282D01*
X42703871Y-93055851D01*
X42628298Y-92779602D01*
X42574545Y-92653580D01*
X52673193Y-92653580D01*
X52683590Y-92918209D01*
X52684565Y-92927038D01*
X52732146Y-93187565D01*
X52734355Y-93196169D01*
X52818168Y-93447388D01*
X52821572Y-93455606D01*
X52939946Y-93692511D01*
X52944464Y-93700150D01*
X53063380Y-93872208D01*
X53073700Y-93880560D01*
X53087354Y-93873436D01*
X54237978Y-92722812D01*
X54244356Y-92711132D01*
X54974408Y-92711132D01*
X54974539Y-92712965D01*
X54978790Y-92719580D01*
X56133262Y-93874052D01*
X56146662Y-93881369D01*
X56156566Y-93874382D01*
X56174963Y-93852496D01*
X56180181Y-93845313D01*
X56320325Y-93620600D01*
X56324488Y-93612736D01*
X56431564Y-93370535D01*
X56434580Y-93362158D01*
X56506462Y-93107282D01*
X56508266Y-93098574D01*
X56543687Y-92834866D01*
X56544215Y-92828473D01*
X56547837Y-92713222D01*
X56547710Y-92706779D01*
X56543943Y-92653580D01*
X78073193Y-92653580D01*
X78083590Y-92918209D01*
X78084565Y-92927038D01*
X78132146Y-93187565D01*
X78134355Y-93196169D01*
X78218168Y-93447388D01*
X78221572Y-93455606D01*
X78339946Y-93692511D01*
X78344464Y-93700150D01*
X78463380Y-93872208D01*
X78473700Y-93880560D01*
X78487354Y-93873436D01*
X79637978Y-92722812D01*
X79644356Y-92711132D01*
X80374408Y-92711132D01*
X80374539Y-92712965D01*
X80378790Y-92719580D01*
X81533262Y-93874052D01*
X81546662Y-93881369D01*
X81556566Y-93874382D01*
X81574963Y-93852496D01*
X81580181Y-93845313D01*
X81720325Y-93620600D01*
X81724488Y-93612736D01*
X81831564Y-93370535D01*
X81834580Y-93362158D01*
X81906462Y-93107282D01*
X81908266Y-93098574D01*
X81943687Y-92834866D01*
X81944215Y-92828473D01*
X81947837Y-92713222D01*
X81947710Y-92706779D01*
X81928919Y-92441394D01*
X81927666Y-92432584D01*
X81871926Y-92173680D01*
X81869450Y-92165159D01*
X81777784Y-91916688D01*
X81774129Y-91908593D01*
X81648371Y-91675523D01*
X81643609Y-91668018D01*
X81555635Y-91548910D01*
X81544510Y-91540470D01*
X81531914Y-91547296D01*
X80382022Y-92697188D01*
X80374408Y-92711132D01*
X79644356Y-92711132D01*
X79645592Y-92708868D01*
X79645461Y-92707035D01*
X79641210Y-92700420D01*
X78488016Y-91547226D01*
X78475176Y-91540215D01*
X78464484Y-91548012D01*
X78409929Y-91617215D01*
X78404931Y-91624571D01*
X78271912Y-91853578D01*
X78268008Y-91861548D01*
X78168584Y-92107013D01*
X78165837Y-92115469D01*
X78101993Y-92372487D01*
X78100465Y-92381245D01*
X78073472Y-92644696D01*
X78073193Y-92653580D01*
X56543943Y-92653580D01*
X56528919Y-92441394D01*
X56527666Y-92432584D01*
X56471926Y-92173680D01*
X56469450Y-92165159D01*
X56377784Y-91916688D01*
X56374129Y-91908593D01*
X56248371Y-91675523D01*
X56243609Y-91668018D01*
X56155635Y-91548910D01*
X56144510Y-91540470D01*
X56131914Y-91547296D01*
X54982022Y-92697188D01*
X54974408Y-92711132D01*
X54244356Y-92711132D01*
X54245592Y-92708868D01*
X54245461Y-92707035D01*
X54241210Y-92700420D01*
X53088016Y-91547226D01*
X53075176Y-91540215D01*
X53064484Y-91548012D01*
X53009929Y-91617215D01*
X53004931Y-91624571D01*
X52871912Y-91853578D01*
X52868008Y-91861548D01*
X52768584Y-92107013D01*
X52765837Y-92115469D01*
X52701993Y-92372487D01*
X52700465Y-92381245D01*
X52673472Y-92644696D01*
X52673193Y-92653580D01*
X42574545Y-92653580D01*
X42517618Y-92520117D01*
X42517616Y-92520113D01*
X42515932Y-92516165D01*
X42368854Y-92270415D01*
X42189785Y-92046900D01*
X41992404Y-91859592D01*
X41985147Y-91852705D01*
X41985144Y-91852703D01*
X41982038Y-91849755D01*
X41749457Y-91682629D01*
X41496347Y-91548614D01*
X41227390Y-91450190D01*
X40947564Y-91389178D01*
X40904389Y-91385780D01*
X40725403Y-91371693D01*
X40725396Y-91371693D01*
X40722947Y-91371500D01*
X40568008Y-91371500D01*
X40565872Y-91371646D01*
X40565861Y-91371646D01*
X40358540Y-91385780D01*
X40358534Y-91385781D01*
X40354263Y-91386072D01*
X40350068Y-91386941D01*
X40350066Y-91386941D01*
X40225869Y-91412661D01*
X40073814Y-91444150D01*
X39803842Y-91539752D01*
X39549342Y-91671109D01*
X39545841Y-91673570D01*
X39545837Y-91673572D01*
X39318529Y-91833327D01*
X39318523Y-91833332D01*
X39315024Y-91835791D01*
X39105224Y-92030749D01*
X39102510Y-92034065D01*
X39102507Y-92034068D01*
X39089256Y-92050258D01*
X38923823Y-92252377D01*
X38774180Y-92496573D01*
X38772453Y-92500507D01*
X38772452Y-92500509D01*
X38674868Y-92722812D01*
X38659062Y-92758818D01*
X38580600Y-93034261D01*
X38540246Y-93317804D01*
X38538747Y-93604200D01*
X30988000Y-93604200D01*
X30988000Y-91174766D01*
X53440123Y-91174766D01*
X53447103Y-91187893D01*
X54597188Y-92337978D01*
X54611132Y-92345592D01*
X54612965Y-92345461D01*
X54619580Y-92341210D01*
X55772641Y-91188149D01*
X55779495Y-91175597D01*
X55778879Y-91174766D01*
X78840123Y-91174766D01*
X78847103Y-91187893D01*
X79997188Y-92337978D01*
X80011132Y-92345592D01*
X80012965Y-92345461D01*
X80019580Y-92341210D01*
X81172641Y-91188149D01*
X81179495Y-91175597D01*
X81171288Y-91164526D01*
X81077512Y-91092959D01*
X81070083Y-91088079D01*
X80839020Y-90958677D01*
X80830986Y-90954896D01*
X80583975Y-90859335D01*
X80575503Y-90856728D01*
X80317499Y-90796927D01*
X80308721Y-90795537D01*
X80044872Y-90772685D01*
X80036001Y-90772545D01*
X79771553Y-90787099D01*
X79762748Y-90788211D01*
X79502989Y-90839881D01*
X79494437Y-90842221D01*
X79244559Y-90929970D01*
X79236393Y-90933504D01*
X79001381Y-91055584D01*
X78993809Y-91060223D01*
X78848525Y-91164045D01*
X78840123Y-91174766D01*
X55778879Y-91174766D01*
X55771288Y-91164526D01*
X55677512Y-91092959D01*
X55670083Y-91088079D01*
X55439020Y-90958677D01*
X55430986Y-90954896D01*
X55183975Y-90859335D01*
X55175503Y-90856728D01*
X54917499Y-90796927D01*
X54908721Y-90795537D01*
X54644872Y-90772685D01*
X54636001Y-90772545D01*
X54371553Y-90787099D01*
X54362748Y-90788211D01*
X54102989Y-90839881D01*
X54094437Y-90842221D01*
X53844559Y-90929970D01*
X53836393Y-90933504D01*
X53601381Y-91055584D01*
X53593809Y-91060223D01*
X53448525Y-91164045D01*
X53440123Y-91174766D01*
X30988000Y-91174766D01*
X30988000Y-87949364D01*
X52680535Y-87949364D01*
X52680710Y-87953816D01*
X52687805Y-88134391D01*
X52691240Y-88221833D01*
X52740230Y-88490075D01*
X52826526Y-88748739D01*
X52828519Y-88752727D01*
X52944299Y-88984439D01*
X52948408Y-88992663D01*
X52950937Y-88996322D01*
X53097637Y-89208579D01*
X53103443Y-89216980D01*
X53288538Y-89417214D01*
X53291992Y-89420026D01*
X53496538Y-89586553D01*
X53496543Y-89586556D01*
X53500000Y-89589371D01*
X53733609Y-89730015D01*
X53737704Y-89731749D01*
X53737706Y-89731750D01*
X53980603Y-89834604D01*
X53980610Y-89834606D01*
X53984704Y-89836340D01*
X54046757Y-89852793D01*
X54243979Y-89905086D01*
X54243983Y-89905087D01*
X54248276Y-89906225D01*
X54252685Y-89906747D01*
X54252691Y-89906748D01*
X54430392Y-89927780D01*
X54519065Y-89938275D01*
X54791668Y-89931851D01*
X54875248Y-89917939D01*
X55056257Y-89887811D01*
X55056261Y-89887810D01*
X55060647Y-89887080D01*
X55064888Y-89885739D01*
X55064891Y-89885738D01*
X55316388Y-89806200D01*
X55316390Y-89806199D01*
X55320634Y-89804857D01*
X55324645Y-89802931D01*
X55324650Y-89802929D01*
X55562423Y-89688752D01*
X55562424Y-89688751D01*
X55566442Y-89686822D01*
X55716505Y-89586553D01*
X55789459Y-89537807D01*
X55789463Y-89537804D01*
X55793167Y-89535329D01*
X55796484Y-89532358D01*
X55796488Y-89532355D01*
X55992966Y-89356375D01*
X55992967Y-89356374D01*
X55996284Y-89353403D01*
X56171741Y-89144671D01*
X56316037Y-88913300D01*
X56426293Y-88663906D01*
X56500309Y-88401464D01*
X56536609Y-88131212D01*
X56540418Y-88010000D01*
X56536125Y-87949364D01*
X78080535Y-87949364D01*
X78080710Y-87953816D01*
X78087805Y-88134391D01*
X78091240Y-88221833D01*
X78140230Y-88490075D01*
X78226526Y-88748739D01*
X78228519Y-88752727D01*
X78344299Y-88984439D01*
X78348408Y-88992663D01*
X78350937Y-88996322D01*
X78497637Y-89208579D01*
X78503443Y-89216980D01*
X78688538Y-89417214D01*
X78691992Y-89420026D01*
X78896538Y-89586553D01*
X78896543Y-89586556D01*
X78900000Y-89589371D01*
X79133609Y-89730015D01*
X79137704Y-89731749D01*
X79137706Y-89731750D01*
X79380603Y-89834604D01*
X79380610Y-89834606D01*
X79384704Y-89836340D01*
X79446757Y-89852793D01*
X79643979Y-89905086D01*
X79643983Y-89905087D01*
X79648276Y-89906225D01*
X79652685Y-89906747D01*
X79652691Y-89906748D01*
X79830392Y-89927780D01*
X79919065Y-89938275D01*
X80191668Y-89931851D01*
X80275248Y-89917939D01*
X80456257Y-89887811D01*
X80456261Y-89887810D01*
X80460647Y-89887080D01*
X80464888Y-89885739D01*
X80464891Y-89885738D01*
X80716388Y-89806200D01*
X80716390Y-89806199D01*
X80720634Y-89804857D01*
X80724645Y-89802931D01*
X80724650Y-89802929D01*
X80962423Y-89688752D01*
X80962424Y-89688751D01*
X80966442Y-89686822D01*
X81116505Y-89586553D01*
X81189459Y-89537807D01*
X81189463Y-89537804D01*
X81193167Y-89535329D01*
X81196484Y-89532358D01*
X81196488Y-89532355D01*
X81392966Y-89356375D01*
X81392967Y-89356374D01*
X81396284Y-89353403D01*
X81571741Y-89144671D01*
X81716037Y-88913300D01*
X81826293Y-88663906D01*
X81900309Y-88401464D01*
X81936609Y-88131212D01*
X81940418Y-88010000D01*
X81921159Y-87738002D01*
X81907333Y-87673780D01*
X81864704Y-87475778D01*
X81864704Y-87475776D01*
X81863768Y-87471431D01*
X81769389Y-87215605D01*
X81639906Y-86975630D01*
X81477901Y-86756294D01*
X81286608Y-86561972D01*
X81231611Y-86519999D01*
X81073385Y-86399244D01*
X81073381Y-86399241D01*
X81069844Y-86396542D01*
X81008157Y-86361996D01*
X80835822Y-86265484D01*
X80835817Y-86265481D01*
X80831932Y-86263306D01*
X80827774Y-86261698D01*
X80827769Y-86261695D01*
X80581776Y-86166527D01*
X80581770Y-86166525D01*
X80577621Y-86164920D01*
X80573289Y-86163916D01*
X80573286Y-86163915D01*
X80464057Y-86138597D01*
X80311984Y-86103349D01*
X80040322Y-86079820D01*
X80035887Y-86080064D01*
X80035883Y-86080064D01*
X79772497Y-86094559D01*
X79772490Y-86094560D01*
X79768054Y-86094804D01*
X79500615Y-86148001D01*
X79243339Y-86238350D01*
X79001359Y-86364048D01*
X78997744Y-86366631D01*
X78997738Y-86366635D01*
X78783126Y-86519999D01*
X78783122Y-86520002D01*
X78779505Y-86522587D01*
X78582203Y-86710805D01*
X78413389Y-86924944D01*
X78383948Y-86975630D01*
X78278669Y-87156880D01*
X78278666Y-87156886D01*
X78276431Y-87160734D01*
X78174063Y-87413468D01*
X78108327Y-87678105D01*
X78080535Y-87949364D01*
X56536125Y-87949364D01*
X56521159Y-87738002D01*
X56507333Y-87673780D01*
X56464704Y-87475778D01*
X56464704Y-87475776D01*
X56463768Y-87471431D01*
X56369389Y-87215605D01*
X56239906Y-86975630D01*
X56077901Y-86756294D01*
X55886608Y-86561972D01*
X55831611Y-86519999D01*
X55673385Y-86399244D01*
X55673381Y-86399241D01*
X55669844Y-86396542D01*
X55608157Y-86361996D01*
X55435822Y-86265484D01*
X55435817Y-86265481D01*
X55431932Y-86263306D01*
X55427774Y-86261698D01*
X55427769Y-86261695D01*
X55181776Y-86166527D01*
X55181770Y-86166525D01*
X55177621Y-86164920D01*
X55173289Y-86163916D01*
X55173286Y-86163915D01*
X55064057Y-86138597D01*
X54911984Y-86103349D01*
X54640322Y-86079820D01*
X54635887Y-86080064D01*
X54635883Y-86080064D01*
X54372497Y-86094559D01*
X54372490Y-86094560D01*
X54368054Y-86094804D01*
X54100615Y-86148001D01*
X53843339Y-86238350D01*
X53601359Y-86364048D01*
X53597744Y-86366631D01*
X53597738Y-86366635D01*
X53383126Y-86519999D01*
X53383122Y-86520002D01*
X53379505Y-86522587D01*
X53182203Y-86710805D01*
X53013389Y-86924944D01*
X52983948Y-86975630D01*
X52878669Y-87156880D01*
X52878666Y-87156886D01*
X52876431Y-87160734D01*
X52774063Y-87413468D01*
X52708327Y-87678105D01*
X52680535Y-87949364D01*
X30988000Y-87949364D01*
X30988000Y-82428200D01*
X89846747Y-82428200D01*
X89847306Y-82432444D01*
X89847306Y-82432448D01*
X89863699Y-82556969D01*
X89884129Y-82712149D01*
X89959702Y-82988398D01*
X90072068Y-83251835D01*
X90219146Y-83497585D01*
X90398215Y-83721100D01*
X90605962Y-83918245D01*
X90838543Y-84085371D01*
X91091653Y-84219386D01*
X91360610Y-84317810D01*
X91640436Y-84378822D01*
X91679901Y-84381928D01*
X91862597Y-84396307D01*
X91862604Y-84396307D01*
X91865053Y-84396500D01*
X92019992Y-84396500D01*
X92022128Y-84396354D01*
X92022139Y-84396354D01*
X92229460Y-84382220D01*
X92229466Y-84382219D01*
X92233737Y-84381928D01*
X92237932Y-84381059D01*
X92237934Y-84381059D01*
X92373962Y-84352889D01*
X92514186Y-84323850D01*
X92784158Y-84228248D01*
X93038658Y-84096891D01*
X93042159Y-84094430D01*
X93042163Y-84094428D01*
X93269471Y-83934673D01*
X93269477Y-83934668D01*
X93272976Y-83932209D01*
X93482776Y-83737251D01*
X93493575Y-83724058D01*
X93661461Y-83518941D01*
X93664177Y-83515623D01*
X93813820Y-83271427D01*
X93820802Y-83255522D01*
X93927214Y-83013110D01*
X93927215Y-83013106D01*
X93928938Y-83009182D01*
X94007400Y-82733739D01*
X94047754Y-82450196D01*
X94049253Y-82163800D01*
X94045798Y-82137552D01*
X94032301Y-82035031D01*
X94011871Y-81879851D01*
X93936298Y-81603602D01*
X93823932Y-81340165D01*
X93676854Y-81094415D01*
X93655786Y-81068117D01*
X93517345Y-80895315D01*
X93497785Y-80870900D01*
X93290038Y-80673755D01*
X93057457Y-80506629D01*
X92804347Y-80372614D01*
X92535390Y-80274190D01*
X92255564Y-80213178D01*
X92212389Y-80209780D01*
X92033403Y-80195693D01*
X92033396Y-80195693D01*
X92030947Y-80195500D01*
X91876008Y-80195500D01*
X91873872Y-80195646D01*
X91873861Y-80195646D01*
X91666540Y-80209780D01*
X91666534Y-80209781D01*
X91662263Y-80210072D01*
X91658068Y-80210941D01*
X91658066Y-80210941D01*
X91522039Y-80239111D01*
X91381814Y-80268150D01*
X91111842Y-80363752D01*
X90857342Y-80495109D01*
X90853841Y-80497570D01*
X90853837Y-80497572D01*
X90626529Y-80657327D01*
X90626523Y-80657332D01*
X90623024Y-80659791D01*
X90544181Y-80733057D01*
X90430267Y-80838912D01*
X90413224Y-80854749D01*
X90410510Y-80858065D01*
X90410507Y-80858068D01*
X90336954Y-80947932D01*
X90231823Y-81076377D01*
X90082180Y-81320573D01*
X90080453Y-81324507D01*
X90080452Y-81324509D01*
X90073580Y-81340165D01*
X89967062Y-81582818D01*
X89888600Y-81858261D01*
X89848246Y-82141804D01*
X89846747Y-82428200D01*
X30988000Y-82428200D01*
X30988000Y-81914000D01*
X31008002Y-81845879D01*
X31061658Y-81799386D01*
X31114000Y-81788000D01*
X72644000Y-81788000D01*
X94997105Y-68639115D01*
X98522427Y-66565396D01*
X98586312Y-66548000D01*
X126366000Y-66548000D01*
X126434121Y-66568002D01*
G37*
%TD.AperFunction*%
%TD*%
%TA.AperFunction,NonConductor*%
G36*
X100492052Y-102462060D02*
G01*
X100548888Y-102504607D01*
X100573699Y-102571127D01*
X100574020Y-102580116D01*
X100574020Y-104383844D01*
X100554018Y-104451965D01*
X100537115Y-104472939D01*
X87539548Y-117470506D01*
X87477236Y-117504532D01*
X87412041Y-117501413D01*
X87164423Y-117422150D01*
X87159816Y-117421400D01*
X87159813Y-117421399D01*
X86903067Y-117379585D01*
X86903068Y-117379585D01*
X86898456Y-117378834D01*
X86767704Y-117377122D01*
X86633686Y-117375368D01*
X86633683Y-117375368D01*
X86629009Y-117375307D01*
X86361999Y-117411645D01*
X86357509Y-117412954D01*
X86357503Y-117412955D01*
X86266927Y-117439356D01*
X86103294Y-117487051D01*
X86099047Y-117489009D01*
X86099044Y-117489010D01*
X86061394Y-117506367D01*
X85858575Y-117599868D01*
X85808421Y-117632751D01*
X85637134Y-117745051D01*
X85637129Y-117745055D01*
X85633221Y-117747617D01*
X85432180Y-117927053D01*
X85259870Y-118134233D01*
X85120075Y-118364607D01*
X85118266Y-118368921D01*
X85118264Y-118368925D01*
X85081085Y-118457588D01*
X85015868Y-118613113D01*
X84949537Y-118874293D01*
X84922539Y-119142408D01*
X84935468Y-119411569D01*
X84988039Y-119675862D01*
X85079098Y-119929481D01*
X85081314Y-119933605D01*
X85125518Y-120015873D01*
X85140141Y-120085347D01*
X85114883Y-120151699D01*
X85057761Y-120193861D01*
X85014526Y-120201511D01*
X84467851Y-120201511D01*
X84399730Y-120181509D01*
X84353237Y-120127853D01*
X84343133Y-120057579D01*
X84352969Y-120023761D01*
X84446515Y-119816095D01*
X84446517Y-119816089D01*
X84448440Y-119811821D01*
X84521585Y-119552468D01*
X84555592Y-119285151D01*
X84558084Y-119190000D01*
X84554547Y-119142408D01*
X84538460Y-118925922D01*
X84538459Y-118925918D01*
X84538114Y-118921270D01*
X84478642Y-118658444D01*
X84428043Y-118528327D01*
X84421996Y-118457588D01*
X84456381Y-118393565D01*
X100358925Y-102491021D01*
X100421237Y-102456995D01*
X100492052Y-102462060D01*
G37*
%TD.AperFunction*%
%TA.AperFunction,NonConductor*%
G36*
X111769359Y-129615502D02*
G01*
X111804451Y-129649230D01*
X111921505Y-129816401D01*
X112088599Y-129983495D01*
X112093111Y-129986654D01*
X112243257Y-130091787D01*
X112287586Y-130147244D01*
X112294895Y-130217863D01*
X112262865Y-130281224D01*
X112243258Y-130298212D01*
X112088599Y-130406505D01*
X111921505Y-130573599D01*
X111918348Y-130578107D01*
X111918346Y-130578110D01*
X111880826Y-130631694D01*
X111785965Y-130767170D01*
X111783642Y-130772152D01*
X111783639Y-130772157D01*
X111688420Y-130976355D01*
X111686097Y-130981337D01*
X111684675Y-130986645D01*
X111684674Y-130986647D01*
X111642075Y-131145632D01*
X111605124Y-131206255D01*
X111541263Y-131237276D01*
X111520368Y-131239021D01*
X99444932Y-131239021D01*
X99376811Y-131219019D01*
X99330318Y-131165363D01*
X99320214Y-131095089D01*
X99326159Y-131070961D01*
X99393965Y-130879485D01*
X99393966Y-130879481D01*
X99395691Y-130874610D01*
X99414829Y-130767170D01*
X99438055Y-130636783D01*
X99438056Y-130636777D01*
X99438961Y-130631694D01*
X99439931Y-130552324D01*
X99441912Y-130390142D01*
X99441912Y-130390140D01*
X99441975Y-130384972D01*
X99404653Y-130141070D01*
X99327997Y-129906540D01*
X99278726Y-129811890D01*
X99261958Y-129779680D01*
X99248245Y-129710020D01*
X99274370Y-129644005D01*
X99332039Y-129602594D01*
X99373721Y-129595500D01*
X111701238Y-129595500D01*
X111769359Y-129615502D01*
G37*
%TD.AperFunction*%
M02*
