%TF.GenerationSoftware,KiCad,Pcbnew,(6.0.1-0)*%
%TF.CreationDate,2022-04-07T08:57:16-04:00*%
%TF.ProjectId,interface-board,696e7465-7266-4616-9365-2d626f617264,rev?*%
%TF.SameCoordinates,Original*%
%TF.FileFunction,Copper,L2,Bot*%
%TF.FilePolarity,Positive*%
%FSLAX46Y46*%
G04 Gerber Fmt 4.6, Leading zero omitted, Abs format (unit mm)*
G04 Created by KiCad (PCBNEW (6.0.1-0)) date 2022-04-07 08:57:16*
%MOMM*%
%LPD*%
G01*
G04 APERTURE LIST*
G04 Aperture macros list*
%AMRoundRect*
0 Rectangle with rounded corners*
0 $1 Rounding radius*
0 $2 $3 $4 $5 $6 $7 $8 $9 X,Y pos of 4 corners*
0 Add a 4 corners polygon primitive as box body*
4,1,4,$2,$3,$4,$5,$6,$7,$8,$9,$2,$3,0*
0 Add four circle primitives for the rounded corners*
1,1,$1+$1,$2,$3*
1,1,$1+$1,$4,$5*
1,1,$1+$1,$6,$7*
1,1,$1+$1,$8,$9*
0 Add four rect primitives between the rounded corners*
20,1,$1+$1,$2,$3,$4,$5,0*
20,1,$1+$1,$4,$5,$6,$7,0*
20,1,$1+$1,$6,$7,$8,$9,0*
20,1,$1+$1,$8,$9,$2,$3,0*%
G04 Aperture macros list end*
%TA.AperFunction,ComponentPad*%
%ADD10C,3.000000*%
%TD*%
%TA.AperFunction,ComponentPad*%
%ADD11RoundRect,0.250000X-0.600000X-0.750000X0.600000X-0.750000X0.600000X0.750000X-0.600000X0.750000X0*%
%TD*%
%TA.AperFunction,ComponentPad*%
%ADD12O,1.700000X2.000000*%
%TD*%
%TA.AperFunction,ComponentPad*%
%ADD13C,1.300000*%
%TD*%
%TA.AperFunction,ComponentPad*%
%ADD14C,1.000000*%
%TD*%
%TA.AperFunction,ComponentPad*%
%ADD15RoundRect,0.250000X-0.600000X-0.725000X0.600000X-0.725000X0.600000X0.725000X-0.600000X0.725000X0*%
%TD*%
%TA.AperFunction,ComponentPad*%
%ADD16O,1.700000X1.950000*%
%TD*%
%TA.AperFunction,ComponentPad*%
%ADD17C,2.000000*%
%TD*%
%TA.AperFunction,ComponentPad*%
%ADD18R,2.850000X2.850000*%
%TD*%
%TA.AperFunction,ComponentPad*%
%ADD19C,2.850000*%
%TD*%
%TA.AperFunction,ViaPad*%
%ADD20C,0.800000*%
%TD*%
%TA.AperFunction,Conductor*%
%ADD21C,0.500000*%
%TD*%
G04 APERTURE END LIST*
D10*
%TO.P,RV1,*%
%TO.N,*%
X138125000Y-59500000D03*
X126875000Y-59500000D03*
%TD*%
D11*
%TO.P,J3,1,Pin_1*%
%TO.N,/START_BTN*%
X138000000Y-76800000D03*
D12*
%TO.P,J3,2,Pin_2*%
%TO.N,/RTD_LED*%
X140500000Y-76800000D03*
%TD*%
D13*
%TO.P,SW3,*%
%TO.N,*%
X163900000Y-49650000D03*
X151200000Y-49600000D03*
X163900000Y-62350000D03*
X151200000Y-62350000D03*
D14*
%TO.P,SW3,1,1*%
%TO.N,/START_BTN*%
X153850000Y-51500000D03*
%TO.P,SW3,2,2*%
%TO.N,GND*%
X161100000Y-51500000D03*
%TO.P,SW3,3,K*%
%TO.N,/RTD_LED*%
X156200000Y-56000000D03*
%TO.P,SW3,4,A*%
%TO.N,GND*%
X158800000Y-56000000D03*
%TD*%
D15*
%TO.P,J1,1,Pin_1*%
%TO.N,GND*%
X105000000Y-76550000D03*
D16*
%TO.P,J1,2,Pin_2*%
%TO.N,/AMS_LED*%
X107500000Y-76550000D03*
%TO.P,J1,3,Pin_3*%
%TO.N,+5V*%
X110000000Y-76550000D03*
%TO.P,J1,4,Pin_4*%
%TO.N,/POT_BRAKE*%
X112500000Y-76550000D03*
%TO.P,J1,5,Pin_5*%
%TO.N,/POT_REGEN*%
X115000000Y-76550000D03*
%TD*%
D17*
%TO.P,SW4,1,1*%
%TO.N,/LCD_BTN*%
X85450000Y-54450000D03*
X78950000Y-54450000D03*
%TO.P,SW4,2,2*%
%TO.N,GND*%
X78950000Y-49950000D03*
X85450000Y-49950000D03*
%TD*%
D15*
%TO.P,J2,1,Pin_1*%
%TO.N,/LCD_BTN*%
X80750000Y-76550000D03*
D16*
%TO.P,J2,2,Pin_2*%
%TO.N,/SW_DIRECTION*%
X83250000Y-76550000D03*
%TO.P,J2,3,Pin_3*%
%TO.N,/SW_COOLING*%
X85750000Y-76550000D03*
%TO.P,J2,4,Pin_4*%
%TO.N,/IMD_LED*%
X88250000Y-76550000D03*
%TD*%
D18*
%TO.P,SW1,1,A*%
%TO.N,/SW_DIRECTION*%
X101300000Y-52000000D03*
D19*
%TO.P,SW1,2,B*%
%TO.N,GND*%
X96600000Y-52000000D03*
%TO.P,SW1,3*%
%TO.N,N/C*%
X91900000Y-52000000D03*
%TD*%
D10*
%TO.P,RV2,*%
%TO.N,*%
X118625000Y-59500000D03*
X107375000Y-59500000D03*
%TD*%
D18*
%TO.P,SW2,1,A*%
%TO.N,/SW_COOLING*%
X101700000Y-67000000D03*
D19*
%TO.P,SW2,2,B*%
%TO.N,GND*%
X97000000Y-67000000D03*
%TO.P,SW2,3*%
%TO.N,N/C*%
X92300000Y-67000000D03*
%TD*%
D20*
%TO.N,GND*%
X119000000Y-67750000D03*
X126750000Y-68000000D03*
X107250000Y-67750000D03*
X122750000Y-67750000D03*
%TO.N,+5V*%
X110000000Y-72250000D03*
X115250000Y-72250000D03*
%TD*%
D21*
%TO.N,+5V*%
X110000000Y-72250000D02*
X115250000Y-72250000D01*
%TO.N,/SW_COOLING*%
X87174520Y-75125480D02*
X85750000Y-76550000D01*
X101700000Y-67000000D02*
X93574520Y-75125480D01*
X93574520Y-75125480D02*
X87174520Y-75125480D01*
%TO.N,/SW_DIRECTION*%
X83250000Y-71750000D02*
X83250000Y-76550000D01*
X101300000Y-53700000D02*
X83250000Y-71750000D01*
X101300000Y-52000000D02*
X101300000Y-53700000D01*
%TD*%
%TA.AperFunction,Conductor*%
%TO.N,GND*%
G36*
X165175500Y-46769962D02*
G01*
X165230038Y-46824500D01*
X165250000Y-46899000D01*
X165250000Y-66093997D01*
X165230038Y-66168497D01*
X165210487Y-66195060D01*
X156386265Y-75754634D01*
X147321701Y-85574578D01*
X147317574Y-85578873D01*
X147190088Y-85706359D01*
X147123293Y-85744923D01*
X147084729Y-85750000D01*
X77649000Y-85750000D01*
X77574500Y-85730038D01*
X77519962Y-85675500D01*
X77500000Y-85601000D01*
X77500000Y-75777623D01*
X79649500Y-75777623D01*
X79649501Y-77322376D01*
X79656149Y-77383580D01*
X79706474Y-77517824D01*
X79792454Y-77632546D01*
X79800948Y-77638912D01*
X79849815Y-77675536D01*
X79907176Y-77718526D01*
X80041420Y-77768851D01*
X80050705Y-77769860D01*
X80050706Y-77769860D01*
X80069925Y-77771948D01*
X80102623Y-77775500D01*
X80106662Y-77775500D01*
X80750963Y-77775499D01*
X81397376Y-77775499D01*
X81427178Y-77772262D01*
X81449294Y-77769860D01*
X81449297Y-77769859D01*
X81458580Y-77768851D01*
X81592824Y-77718526D01*
X81650185Y-77675536D01*
X81699052Y-77638912D01*
X81707546Y-77632546D01*
X81793526Y-77517824D01*
X81843851Y-77383580D01*
X81850500Y-77322377D01*
X81850500Y-76727469D01*
X82149500Y-76727469D01*
X82164439Y-76884046D01*
X82166434Y-76890848D01*
X82166435Y-76890851D01*
X82213983Y-77052927D01*
X82223553Y-77085549D01*
X82319705Y-77272239D01*
X82324083Y-77277813D01*
X82324086Y-77277817D01*
X82394026Y-77366854D01*
X82449424Y-77437379D01*
X82454778Y-77442025D01*
X82454779Y-77442026D01*
X82551917Y-77526318D01*
X82608029Y-77575010D01*
X82789799Y-77680166D01*
X82988174Y-77749053D01*
X82995193Y-77750071D01*
X82995194Y-77750071D01*
X83030265Y-77755156D01*
X83195996Y-77779186D01*
X83346552Y-77772218D01*
X83398682Y-77769805D01*
X83398683Y-77769805D01*
X83405767Y-77769477D01*
X83609918Y-77720276D01*
X83616373Y-77717341D01*
X83616379Y-77717339D01*
X83794628Y-77636294D01*
X83801081Y-77633360D01*
X83846141Y-77601397D01*
X83889886Y-77570366D01*
X83972360Y-77511863D01*
X84117575Y-77360169D01*
X84121721Y-77353749D01*
X84179683Y-77263981D01*
X84231485Y-77183754D01*
X84309981Y-76988981D01*
X84338258Y-76844183D01*
X84349201Y-76788148D01*
X84349201Y-76788146D01*
X84350230Y-76782878D01*
X84350500Y-76777357D01*
X84350500Y-76727469D01*
X84649500Y-76727469D01*
X84664439Y-76884046D01*
X84666434Y-76890848D01*
X84666435Y-76890851D01*
X84713983Y-77052927D01*
X84723553Y-77085549D01*
X84819705Y-77272239D01*
X84824083Y-77277813D01*
X84824086Y-77277817D01*
X84894026Y-77366854D01*
X84949424Y-77437379D01*
X84954778Y-77442025D01*
X84954779Y-77442026D01*
X85051917Y-77526318D01*
X85108029Y-77575010D01*
X85289799Y-77680166D01*
X85488174Y-77749053D01*
X85495193Y-77750071D01*
X85495194Y-77750071D01*
X85530265Y-77755156D01*
X85695996Y-77779186D01*
X85846552Y-77772218D01*
X85898682Y-77769805D01*
X85898683Y-77769805D01*
X85905767Y-77769477D01*
X86109918Y-77720276D01*
X86116373Y-77717341D01*
X86116379Y-77717339D01*
X86294628Y-77636294D01*
X86301081Y-77633360D01*
X86346141Y-77601397D01*
X86389886Y-77570366D01*
X86472360Y-77511863D01*
X86617575Y-77360169D01*
X86621721Y-77353749D01*
X86679683Y-77263981D01*
X86731485Y-77183754D01*
X86809981Y-76988981D01*
X86838258Y-76844183D01*
X86849201Y-76788148D01*
X86849201Y-76788146D01*
X86850230Y-76782878D01*
X86850500Y-76777357D01*
X86850500Y-76372531D01*
X86845686Y-76322073D01*
X86838422Y-76245935D01*
X86851218Y-76169876D01*
X86881389Y-76126425D01*
X86916025Y-76091789D01*
X86982820Y-76053225D01*
X87059948Y-76053225D01*
X87126743Y-76091789D01*
X87165307Y-76158584D01*
X87167622Y-76225706D01*
X87154704Y-76291855D01*
X87149770Y-76317122D01*
X87149500Y-76322643D01*
X87149500Y-76727469D01*
X87164439Y-76884046D01*
X87166434Y-76890848D01*
X87166435Y-76890851D01*
X87213983Y-77052927D01*
X87223553Y-77085549D01*
X87319705Y-77272239D01*
X87324083Y-77277813D01*
X87324086Y-77277817D01*
X87394026Y-77366854D01*
X87449424Y-77437379D01*
X87454778Y-77442025D01*
X87454779Y-77442026D01*
X87551917Y-77526318D01*
X87608029Y-77575010D01*
X87789799Y-77680166D01*
X87988174Y-77749053D01*
X87995193Y-77750071D01*
X87995194Y-77750071D01*
X88030265Y-77755156D01*
X88195996Y-77779186D01*
X88346552Y-77772218D01*
X88398682Y-77769805D01*
X88398683Y-77769805D01*
X88405767Y-77769477D01*
X88609918Y-77720276D01*
X88616373Y-77717341D01*
X88616379Y-77717339D01*
X88794628Y-77636294D01*
X88801081Y-77633360D01*
X88846141Y-77601397D01*
X88889886Y-77570366D01*
X88972360Y-77511863D01*
X89117575Y-77360169D01*
X89121721Y-77353749D01*
X89142542Y-77321503D01*
X103642001Y-77321503D01*
X103642400Y-77329204D01*
X103652127Y-77422953D01*
X103655547Y-77438793D01*
X103706168Y-77590524D01*
X103713461Y-77606093D01*
X103797359Y-77741669D01*
X103808048Y-77755156D01*
X103920883Y-77867795D01*
X103934377Y-77878452D01*
X104070105Y-77962115D01*
X104085693Y-77969384D01*
X104237518Y-78019743D01*
X104253333Y-78023133D01*
X104345849Y-78032612D01*
X104353444Y-78033000D01*
X104726384Y-78033000D01*
X104741855Y-78028855D01*
X104746000Y-78013384D01*
X104746000Y-78013383D01*
X105254000Y-78013383D01*
X105258145Y-78028854D01*
X105273616Y-78032999D01*
X105646503Y-78032999D01*
X105654204Y-78032600D01*
X105747953Y-78022873D01*
X105763793Y-78019453D01*
X105915524Y-77968832D01*
X105931093Y-77961539D01*
X106066669Y-77877641D01*
X106080156Y-77866952D01*
X106192795Y-77754117D01*
X106203452Y-77740623D01*
X106287115Y-77604895D01*
X106294384Y-77589307D01*
X106344743Y-77437482D01*
X106348133Y-77421667D01*
X106349654Y-77406822D01*
X106377105Y-77334744D01*
X106436918Y-77286049D01*
X106513064Y-77273784D01*
X106585142Y-77301235D01*
X106615051Y-77329968D01*
X106695040Y-77431799D01*
X106695044Y-77431803D01*
X106699424Y-77437379D01*
X106704778Y-77442025D01*
X106704779Y-77442026D01*
X106801917Y-77526318D01*
X106858029Y-77575010D01*
X107039799Y-77680166D01*
X107238174Y-77749053D01*
X107245193Y-77750071D01*
X107245194Y-77750071D01*
X107280265Y-77755156D01*
X107445996Y-77779186D01*
X107596552Y-77772218D01*
X107648682Y-77769805D01*
X107648683Y-77769805D01*
X107655767Y-77769477D01*
X107859918Y-77720276D01*
X107866373Y-77717341D01*
X107866379Y-77717339D01*
X108044628Y-77636294D01*
X108051081Y-77633360D01*
X108096141Y-77601397D01*
X108139886Y-77570366D01*
X108222360Y-77511863D01*
X108367575Y-77360169D01*
X108371721Y-77353749D01*
X108429683Y-77263981D01*
X108481485Y-77183754D01*
X108559981Y-76988981D01*
X108588258Y-76844183D01*
X108599201Y-76788148D01*
X108599201Y-76788146D01*
X108600230Y-76782878D01*
X108600500Y-76777357D01*
X108600500Y-76727469D01*
X108899500Y-76727469D01*
X108914439Y-76884046D01*
X108916434Y-76890848D01*
X108916435Y-76890851D01*
X108963983Y-77052927D01*
X108973553Y-77085549D01*
X109069705Y-77272239D01*
X109074083Y-77277813D01*
X109074086Y-77277817D01*
X109144026Y-77366854D01*
X109199424Y-77437379D01*
X109204778Y-77442025D01*
X109204779Y-77442026D01*
X109301917Y-77526318D01*
X109358029Y-77575010D01*
X109539799Y-77680166D01*
X109738174Y-77749053D01*
X109745193Y-77750071D01*
X109745194Y-77750071D01*
X109780265Y-77755156D01*
X109945996Y-77779186D01*
X110096552Y-77772218D01*
X110148682Y-77769805D01*
X110148683Y-77769805D01*
X110155767Y-77769477D01*
X110359918Y-77720276D01*
X110366373Y-77717341D01*
X110366379Y-77717339D01*
X110544628Y-77636294D01*
X110551081Y-77633360D01*
X110596141Y-77601397D01*
X110639886Y-77570366D01*
X110722360Y-77511863D01*
X110867575Y-77360169D01*
X110871721Y-77353749D01*
X110929683Y-77263981D01*
X110981485Y-77183754D01*
X111059981Y-76988981D01*
X111088258Y-76844183D01*
X111099201Y-76788148D01*
X111099201Y-76788146D01*
X111100230Y-76782878D01*
X111100500Y-76777357D01*
X111100500Y-76727469D01*
X111399500Y-76727469D01*
X111414439Y-76884046D01*
X111416434Y-76890848D01*
X111416435Y-76890851D01*
X111463983Y-77052927D01*
X111473553Y-77085549D01*
X111569705Y-77272239D01*
X111574083Y-77277813D01*
X111574086Y-77277817D01*
X111644026Y-77366854D01*
X111699424Y-77437379D01*
X111704778Y-77442025D01*
X111704779Y-77442026D01*
X111801917Y-77526318D01*
X111858029Y-77575010D01*
X112039799Y-77680166D01*
X112238174Y-77749053D01*
X112245193Y-77750071D01*
X112245194Y-77750071D01*
X112280265Y-77755156D01*
X112445996Y-77779186D01*
X112596552Y-77772218D01*
X112648682Y-77769805D01*
X112648683Y-77769805D01*
X112655767Y-77769477D01*
X112859918Y-77720276D01*
X112866373Y-77717341D01*
X112866379Y-77717339D01*
X113044628Y-77636294D01*
X113051081Y-77633360D01*
X113096141Y-77601397D01*
X113139886Y-77570366D01*
X113222360Y-77511863D01*
X113367575Y-77360169D01*
X113371721Y-77353749D01*
X113429683Y-77263981D01*
X113481485Y-77183754D01*
X113559981Y-76988981D01*
X113588258Y-76844183D01*
X113599201Y-76788148D01*
X113599201Y-76788146D01*
X113600230Y-76782878D01*
X113600500Y-76777357D01*
X113600500Y-76727469D01*
X113899500Y-76727469D01*
X113914439Y-76884046D01*
X113916434Y-76890848D01*
X113916435Y-76890851D01*
X113963983Y-77052927D01*
X113973553Y-77085549D01*
X114069705Y-77272239D01*
X114074083Y-77277813D01*
X114074086Y-77277817D01*
X114144026Y-77366854D01*
X114199424Y-77437379D01*
X114204778Y-77442025D01*
X114204779Y-77442026D01*
X114301917Y-77526318D01*
X114358029Y-77575010D01*
X114539799Y-77680166D01*
X114738174Y-77749053D01*
X114745193Y-77750071D01*
X114745194Y-77750071D01*
X114780265Y-77755156D01*
X114945996Y-77779186D01*
X115096552Y-77772218D01*
X115148682Y-77769805D01*
X115148683Y-77769805D01*
X115155767Y-77769477D01*
X115359918Y-77720276D01*
X115366373Y-77717341D01*
X115366379Y-77717339D01*
X115544628Y-77636294D01*
X115551081Y-77633360D01*
X115596141Y-77601397D01*
X115639886Y-77570366D01*
X115722360Y-77511863D01*
X115867575Y-77360169D01*
X115871721Y-77353749D01*
X115929683Y-77263981D01*
X115981485Y-77183754D01*
X116059981Y-76988981D01*
X116088258Y-76844183D01*
X116099201Y-76788148D01*
X116099201Y-76788146D01*
X116100230Y-76782878D01*
X116100500Y-76777357D01*
X116100500Y-76372531D01*
X116085561Y-76215954D01*
X116075649Y-76182165D01*
X116028442Y-76021251D01*
X116028442Y-76021250D01*
X116026447Y-76014451D01*
X116022436Y-76006662D01*
X116020356Y-76002623D01*
X136899500Y-76002623D01*
X136899501Y-77597376D01*
X136899936Y-77601377D01*
X136904013Y-77638912D01*
X136906149Y-77658580D01*
X136956474Y-77792824D01*
X137042454Y-77907546D01*
X137157176Y-77993526D01*
X137291420Y-78043851D01*
X137300705Y-78044860D01*
X137300706Y-78044860D01*
X137319925Y-78046948D01*
X137352623Y-78050500D01*
X137356662Y-78050500D01*
X138000963Y-78050499D01*
X138647376Y-78050499D01*
X138677178Y-78047262D01*
X138699294Y-78044860D01*
X138699297Y-78044859D01*
X138708580Y-78043851D01*
X138842824Y-77993526D01*
X138957546Y-77907546D01*
X139043526Y-77792824D01*
X139093851Y-77658580D01*
X139100500Y-77597377D01*
X139100500Y-77002469D01*
X139399500Y-77002469D01*
X139414439Y-77159046D01*
X139416434Y-77165848D01*
X139416435Y-77165851D01*
X139465983Y-77334744D01*
X139473553Y-77360549D01*
X139569705Y-77547239D01*
X139574083Y-77552813D01*
X139574086Y-77552817D01*
X139649870Y-77649294D01*
X139699424Y-77712379D01*
X139704778Y-77717025D01*
X139704779Y-77717026D01*
X139801917Y-77801318D01*
X139858029Y-77850010D01*
X140039799Y-77955166D01*
X140238174Y-78024053D01*
X140245193Y-78025071D01*
X140245194Y-78025071D01*
X140292825Y-78031977D01*
X140445996Y-78054186D01*
X140596552Y-78047218D01*
X140648682Y-78044805D01*
X140648683Y-78044805D01*
X140655767Y-78044477D01*
X140859918Y-77995276D01*
X140866373Y-77992341D01*
X140866379Y-77992339D01*
X141044628Y-77911294D01*
X141051081Y-77908360D01*
X141093244Y-77878452D01*
X141201982Y-77801318D01*
X141222360Y-77786863D01*
X141367575Y-77635169D01*
X141374754Y-77624052D01*
X141450502Y-77506738D01*
X141481485Y-77458754D01*
X141559981Y-77263981D01*
X141600230Y-77057878D01*
X141600500Y-77052357D01*
X141600500Y-76597531D01*
X141585561Y-76440954D01*
X141564453Y-76369001D01*
X141528442Y-76246251D01*
X141528442Y-76246250D01*
X141526447Y-76239451D01*
X141510841Y-76209149D01*
X141472800Y-76135289D01*
X141430295Y-76052761D01*
X141425917Y-76047187D01*
X141425914Y-76047183D01*
X141304956Y-75893197D01*
X141300576Y-75887621D01*
X141220647Y-75818262D01*
X141147323Y-75754634D01*
X141147321Y-75754633D01*
X141141971Y-75749990D01*
X140960201Y-75644834D01*
X140761826Y-75575947D01*
X140754807Y-75574929D01*
X140754806Y-75574929D01*
X140707175Y-75568023D01*
X140554004Y-75545814D01*
X140403448Y-75552782D01*
X140351318Y-75555195D01*
X140351317Y-75555195D01*
X140344233Y-75555523D01*
X140140082Y-75604724D01*
X140133627Y-75607659D01*
X140133621Y-75607661D01*
X139978186Y-75678333D01*
X139948919Y-75691640D01*
X139777640Y-75813137D01*
X139632425Y-75964831D01*
X139628577Y-75970790D01*
X139628575Y-75970793D01*
X139600386Y-76014451D01*
X139518515Y-76141246D01*
X139440019Y-76336019D01*
X139399770Y-76542122D01*
X139399500Y-76547643D01*
X139399500Y-77002469D01*
X139100500Y-77002469D01*
X139100499Y-76002624D01*
X139093851Y-75941420D01*
X139043526Y-75807176D01*
X138957546Y-75692454D01*
X138842824Y-75606474D01*
X138807581Y-75593262D01*
X138717324Y-75559427D01*
X138717325Y-75559427D01*
X138708580Y-75556149D01*
X138699295Y-75555140D01*
X138699294Y-75555140D01*
X138680075Y-75553052D01*
X138647377Y-75549500D01*
X138643338Y-75549500D01*
X137999037Y-75549501D01*
X137352624Y-75549501D01*
X137322822Y-75552738D01*
X137300706Y-75555140D01*
X137300703Y-75555141D01*
X137291420Y-75556149D01*
X137157176Y-75606474D01*
X137042454Y-75692454D01*
X136956474Y-75807176D01*
X136906149Y-75941420D01*
X136899500Y-76002623D01*
X116020356Y-76002623D01*
X115961125Y-75887621D01*
X115930295Y-75827761D01*
X115925917Y-75822187D01*
X115925914Y-75822183D01*
X115804956Y-75668197D01*
X115800576Y-75662621D01*
X115784171Y-75648385D01*
X115647323Y-75529634D01*
X115647321Y-75529633D01*
X115641971Y-75524990D01*
X115460201Y-75419834D01*
X115432107Y-75410078D01*
X115353153Y-75382661D01*
X115261826Y-75350947D01*
X115254807Y-75349929D01*
X115254806Y-75349929D01*
X115207175Y-75343023D01*
X115054004Y-75320814D01*
X114903448Y-75327782D01*
X114851318Y-75330195D01*
X114851317Y-75330195D01*
X114844233Y-75330523D01*
X114640082Y-75379724D01*
X114633627Y-75382659D01*
X114633621Y-75382661D01*
X114468186Y-75457880D01*
X114448919Y-75466640D01*
X114277640Y-75588137D01*
X114132425Y-75739831D01*
X114128577Y-75745790D01*
X114128575Y-75745793D01*
X114110606Y-75773623D01*
X114018515Y-75916246D01*
X113940019Y-76111019D01*
X113934116Y-76141246D01*
X113907726Y-76276384D01*
X113899770Y-76317122D01*
X113899500Y-76322643D01*
X113899500Y-76727469D01*
X113600500Y-76727469D01*
X113600500Y-76372531D01*
X113585561Y-76215954D01*
X113575649Y-76182165D01*
X113528442Y-76021251D01*
X113528442Y-76021250D01*
X113526447Y-76014451D01*
X113522436Y-76006662D01*
X113461125Y-75887621D01*
X113430295Y-75827761D01*
X113425917Y-75822187D01*
X113425914Y-75822183D01*
X113304956Y-75668197D01*
X113300576Y-75662621D01*
X113284171Y-75648385D01*
X113147323Y-75529634D01*
X113147321Y-75529633D01*
X113141971Y-75524990D01*
X112960201Y-75419834D01*
X112932107Y-75410078D01*
X112853153Y-75382661D01*
X112761826Y-75350947D01*
X112754807Y-75349929D01*
X112754806Y-75349929D01*
X112707175Y-75343023D01*
X112554004Y-75320814D01*
X112403448Y-75327782D01*
X112351318Y-75330195D01*
X112351317Y-75330195D01*
X112344233Y-75330523D01*
X112140082Y-75379724D01*
X112133627Y-75382659D01*
X112133621Y-75382661D01*
X111968186Y-75457880D01*
X111948919Y-75466640D01*
X111777640Y-75588137D01*
X111632425Y-75739831D01*
X111628577Y-75745790D01*
X111628575Y-75745793D01*
X111610606Y-75773623D01*
X111518515Y-75916246D01*
X111440019Y-76111019D01*
X111434116Y-76141246D01*
X111407726Y-76276384D01*
X111399770Y-76317122D01*
X111399500Y-76322643D01*
X111399500Y-76727469D01*
X111100500Y-76727469D01*
X111100500Y-76372531D01*
X111085561Y-76215954D01*
X111075649Y-76182165D01*
X111028442Y-76021251D01*
X111028442Y-76021250D01*
X111026447Y-76014451D01*
X111022436Y-76006662D01*
X110961125Y-75887621D01*
X110930295Y-75827761D01*
X110925917Y-75822187D01*
X110925914Y-75822183D01*
X110804956Y-75668197D01*
X110800576Y-75662621D01*
X110784171Y-75648385D01*
X110647323Y-75529634D01*
X110647321Y-75529633D01*
X110641971Y-75524990D01*
X110460201Y-75419834D01*
X110432107Y-75410078D01*
X110353153Y-75382661D01*
X110261826Y-75350947D01*
X110254807Y-75349929D01*
X110254806Y-75349929D01*
X110207175Y-75343023D01*
X110054004Y-75320814D01*
X109903448Y-75327782D01*
X109851318Y-75330195D01*
X109851317Y-75330195D01*
X109844233Y-75330523D01*
X109640082Y-75379724D01*
X109633627Y-75382659D01*
X109633621Y-75382661D01*
X109468186Y-75457880D01*
X109448919Y-75466640D01*
X109277640Y-75588137D01*
X109132425Y-75739831D01*
X109128577Y-75745790D01*
X109128575Y-75745793D01*
X109110606Y-75773623D01*
X109018515Y-75916246D01*
X108940019Y-76111019D01*
X108934116Y-76141246D01*
X108907726Y-76276384D01*
X108899770Y-76317122D01*
X108899500Y-76322643D01*
X108899500Y-76727469D01*
X108600500Y-76727469D01*
X108600500Y-76372531D01*
X108585561Y-76215954D01*
X108575649Y-76182165D01*
X108528442Y-76021251D01*
X108528442Y-76021250D01*
X108526447Y-76014451D01*
X108522436Y-76006662D01*
X108461125Y-75887621D01*
X108430295Y-75827761D01*
X108425917Y-75822187D01*
X108425914Y-75822183D01*
X108304956Y-75668197D01*
X108300576Y-75662621D01*
X108284171Y-75648385D01*
X108147323Y-75529634D01*
X108147321Y-75529633D01*
X108141971Y-75524990D01*
X107960201Y-75419834D01*
X107932107Y-75410078D01*
X107853153Y-75382661D01*
X107761826Y-75350947D01*
X107754807Y-75349929D01*
X107754806Y-75349929D01*
X107707175Y-75343023D01*
X107554004Y-75320814D01*
X107403448Y-75327782D01*
X107351318Y-75330195D01*
X107351317Y-75330195D01*
X107344233Y-75330523D01*
X107140082Y-75379724D01*
X107133627Y-75382659D01*
X107133621Y-75382661D01*
X106968186Y-75457880D01*
X106948919Y-75466640D01*
X106777640Y-75588137D01*
X106632425Y-75739831D01*
X106628575Y-75745794D01*
X106628570Y-75745800D01*
X106622559Y-75755109D01*
X106565377Y-75806868D01*
X106489977Y-75823101D01*
X106416562Y-75799458D01*
X106364803Y-75742276D01*
X106349181Y-75689660D01*
X106347872Y-75677038D01*
X106344453Y-75661207D01*
X106293832Y-75509476D01*
X106286539Y-75493907D01*
X106202641Y-75358331D01*
X106191952Y-75344844D01*
X106079117Y-75232205D01*
X106065623Y-75221548D01*
X105929895Y-75137885D01*
X105914307Y-75130616D01*
X105762482Y-75080257D01*
X105746667Y-75076867D01*
X105654151Y-75067388D01*
X105646555Y-75067000D01*
X105273616Y-75067000D01*
X105258145Y-75071145D01*
X105254000Y-75086616D01*
X105254000Y-78013383D01*
X104746000Y-78013383D01*
X104746000Y-76823616D01*
X104741855Y-76808145D01*
X104726384Y-76804000D01*
X103661617Y-76804000D01*
X103646146Y-76808145D01*
X103642001Y-76823616D01*
X103642001Y-77321503D01*
X89142542Y-77321503D01*
X89179683Y-77263981D01*
X89231485Y-77183754D01*
X89309981Y-76988981D01*
X89338258Y-76844183D01*
X89349201Y-76788148D01*
X89349201Y-76788146D01*
X89350230Y-76782878D01*
X89350500Y-76777357D01*
X89350500Y-76372531D01*
X89341327Y-76276384D01*
X103642000Y-76276384D01*
X103646145Y-76291855D01*
X103661616Y-76296000D01*
X104726384Y-76296000D01*
X104741855Y-76291855D01*
X104746000Y-76276384D01*
X104746000Y-75086617D01*
X104741855Y-75071146D01*
X104726384Y-75067001D01*
X104353497Y-75067001D01*
X104345796Y-75067400D01*
X104252047Y-75077127D01*
X104236207Y-75080547D01*
X104084476Y-75131168D01*
X104068907Y-75138461D01*
X103933331Y-75222359D01*
X103919844Y-75233048D01*
X103807205Y-75345883D01*
X103796548Y-75359377D01*
X103712885Y-75495105D01*
X103705616Y-75510693D01*
X103655257Y-75662518D01*
X103651867Y-75678333D01*
X103642388Y-75770849D01*
X103642000Y-75778445D01*
X103642000Y-76276384D01*
X89341327Y-76276384D01*
X89335561Y-76215954D01*
X89325649Y-76182165D01*
X89278442Y-76021251D01*
X89278442Y-76021250D01*
X89276447Y-76014451D01*
X89188247Y-75843202D01*
X89171883Y-75767832D01*
X89195396Y-75694375D01*
X89252487Y-75642517D01*
X89320711Y-75625980D01*
X93503011Y-75625980D01*
X93514960Y-75626460D01*
X93523614Y-75627156D01*
X93533967Y-75629499D01*
X93544559Y-75628842D01*
X93544562Y-75628842D01*
X93586074Y-75626266D01*
X93595301Y-75625980D01*
X93610460Y-75625980D01*
X93619654Y-75624663D01*
X93631545Y-75623445D01*
X93677058Y-75620621D01*
X93687043Y-75617016D01*
X93696586Y-75615040D01*
X93705930Y-75612308D01*
X93716438Y-75610803D01*
X93726101Y-75606410D01*
X93726103Y-75606409D01*
X93757947Y-75591930D01*
X93769009Y-75587426D01*
X93811907Y-75571940D01*
X93820482Y-75565676D01*
X93829078Y-75561105D01*
X93837279Y-75555860D01*
X93846948Y-75551464D01*
X93854991Y-75544533D01*
X93854995Y-75544531D01*
X93881496Y-75521696D01*
X93890866Y-75514256D01*
X93895743Y-75510693D01*
X93900856Y-75506958D01*
X93911006Y-75496808D01*
X93919104Y-75489290D01*
X93934588Y-75475948D01*
X93955557Y-75457880D01*
X93961331Y-75448972D01*
X93968310Y-75440972D01*
X93968591Y-75441217D01*
X93977036Y-75430778D01*
X97164676Y-72243138D01*
X109344758Y-72243138D01*
X109345744Y-72252069D01*
X109345744Y-72252070D01*
X109347031Y-72263723D01*
X109362035Y-72399633D01*
X109416143Y-72547490D01*
X109503958Y-72678172D01*
X109510600Y-72684215D01*
X109510601Y-72684217D01*
X109569939Y-72738210D01*
X109620410Y-72784135D01*
X109758776Y-72859262D01*
X109813940Y-72873734D01*
X109902384Y-72896937D01*
X109902388Y-72896937D01*
X109911069Y-72899215D01*
X110068495Y-72901688D01*
X110119031Y-72890114D01*
X110213210Y-72868544D01*
X110213211Y-72868544D01*
X110221968Y-72866538D01*
X110231904Y-72861541D01*
X110354596Y-72799833D01*
X110354598Y-72799832D01*
X110362625Y-72795795D01*
X110373863Y-72786197D01*
X110443478Y-72752994D01*
X110470628Y-72750500D01*
X114777392Y-72750500D01*
X114851892Y-72770462D01*
X114863707Y-72778047D01*
X114863764Y-72778087D01*
X114870410Y-72784135D01*
X114878303Y-72788421D01*
X114878305Y-72788422D01*
X115000884Y-72854977D01*
X115008776Y-72859262D01*
X115063940Y-72873734D01*
X115152384Y-72896937D01*
X115152388Y-72896937D01*
X115161069Y-72899215D01*
X115318495Y-72901688D01*
X115369031Y-72890114D01*
X115463210Y-72868544D01*
X115463211Y-72868544D01*
X115471968Y-72866538D01*
X115479995Y-72862501D01*
X115604599Y-72799832D01*
X115604601Y-72799831D01*
X115612625Y-72795795D01*
X115732348Y-72693542D01*
X115739049Y-72684217D01*
X115818981Y-72572980D01*
X115818982Y-72572977D01*
X115824224Y-72565683D01*
X115882950Y-72419598D01*
X115905134Y-72263723D01*
X115905278Y-72250000D01*
X115886363Y-72093694D01*
X115834830Y-71957314D01*
X115833885Y-71954813D01*
X115833883Y-71954809D01*
X115830710Y-71946412D01*
X115741531Y-71816657D01*
X115623976Y-71711919D01*
X115484831Y-71638245D01*
X115476119Y-71636057D01*
X115476117Y-71636056D01*
X115340840Y-71602077D01*
X115340838Y-71602077D01*
X115332128Y-71599889D01*
X115174684Y-71599065D01*
X115165955Y-71601161D01*
X115165952Y-71601161D01*
X115094207Y-71618386D01*
X115021588Y-71635820D01*
X114881679Y-71708032D01*
X114874905Y-71713942D01*
X114867479Y-71718988D01*
X114866501Y-71717550D01*
X114806968Y-71746713D01*
X114778286Y-71749500D01*
X110472850Y-71749500D01*
X110398350Y-71729538D01*
X110387811Y-71722850D01*
X110380688Y-71717899D01*
X110373976Y-71711919D01*
X110234831Y-71638245D01*
X110226119Y-71636057D01*
X110226117Y-71636056D01*
X110090840Y-71602077D01*
X110090838Y-71602077D01*
X110082128Y-71599889D01*
X109924684Y-71599065D01*
X109915955Y-71601161D01*
X109915952Y-71601161D01*
X109844207Y-71618386D01*
X109771588Y-71635820D01*
X109672641Y-71686890D01*
X109661071Y-71692862D01*
X109631679Y-71708032D01*
X109513034Y-71811533D01*
X109422501Y-71940348D01*
X109365309Y-72087039D01*
X109344758Y-72243138D01*
X97164676Y-72243138D01*
X100688673Y-68719141D01*
X100755468Y-68680577D01*
X100794032Y-68675500D01*
X103149674Y-68675500D01*
X103222740Y-68660966D01*
X103305601Y-68605601D01*
X103360966Y-68522740D01*
X103375500Y-68449674D01*
X103375500Y-65550326D01*
X103360966Y-65477260D01*
X103305601Y-65394399D01*
X103222740Y-65339034D01*
X103149674Y-65324500D01*
X100250326Y-65324500D01*
X100177260Y-65339034D01*
X100094399Y-65394399D01*
X100039034Y-65477260D01*
X100024500Y-65550326D01*
X100024500Y-67905968D01*
X100004538Y-67980468D01*
X99980859Y-68011327D01*
X93410847Y-74581339D01*
X93344052Y-74619903D01*
X93305488Y-74624980D01*
X87246029Y-74624980D01*
X87234080Y-74624500D01*
X87225426Y-74623804D01*
X87215073Y-74621461D01*
X87204481Y-74622118D01*
X87204478Y-74622118D01*
X87162966Y-74624694D01*
X87153739Y-74624980D01*
X87138580Y-74624980D01*
X87129386Y-74626297D01*
X87117495Y-74627515D01*
X87071982Y-74630339D01*
X87062003Y-74633941D01*
X87052467Y-74635916D01*
X87043111Y-74638652D01*
X87032602Y-74640157D01*
X86991080Y-74659036D01*
X86980035Y-74663531D01*
X86937133Y-74679019D01*
X86928564Y-74685279D01*
X86919970Y-74689849D01*
X86911754Y-74695103D01*
X86902092Y-74699496D01*
X86894053Y-74706423D01*
X86894050Y-74706425D01*
X86867554Y-74729257D01*
X86858179Y-74736700D01*
X86852837Y-74740602D01*
X86852830Y-74740608D01*
X86848184Y-74744002D01*
X86838034Y-74754152D01*
X86829937Y-74761669D01*
X86793483Y-74793080D01*
X86787709Y-74801988D01*
X86780730Y-74809988D01*
X86780449Y-74809743D01*
X86772004Y-74820182D01*
X86248135Y-75344051D01*
X86181340Y-75382615D01*
X86104212Y-75382615D01*
X86093904Y-75379449D01*
X86011826Y-75350947D01*
X86004807Y-75349929D01*
X86004806Y-75349929D01*
X85957175Y-75343023D01*
X85804004Y-75320814D01*
X85653448Y-75327782D01*
X85601318Y-75330195D01*
X85601317Y-75330195D01*
X85594233Y-75330523D01*
X85390082Y-75379724D01*
X85383627Y-75382659D01*
X85383621Y-75382661D01*
X85218186Y-75457880D01*
X85198919Y-75466640D01*
X85027640Y-75588137D01*
X84882425Y-75739831D01*
X84878577Y-75745790D01*
X84878575Y-75745793D01*
X84860606Y-75773623D01*
X84768515Y-75916246D01*
X84690019Y-76111019D01*
X84684116Y-76141246D01*
X84657726Y-76276384D01*
X84649770Y-76317122D01*
X84649500Y-76322643D01*
X84649500Y-76727469D01*
X84350500Y-76727469D01*
X84350500Y-76372531D01*
X84335561Y-76215954D01*
X84325649Y-76182165D01*
X84278442Y-76021251D01*
X84278442Y-76021250D01*
X84276447Y-76014451D01*
X84272436Y-76006662D01*
X84211125Y-75887621D01*
X84180295Y-75827761D01*
X84175917Y-75822187D01*
X84175914Y-75822183D01*
X84054956Y-75668197D01*
X84050576Y-75662621D01*
X84034171Y-75648385D01*
X83897323Y-75529634D01*
X83897321Y-75529633D01*
X83891971Y-75524990D01*
X83885839Y-75521442D01*
X83885834Y-75521439D01*
X83824888Y-75486181D01*
X83770397Y-75431595D01*
X83750500Y-75357208D01*
X83750500Y-72019032D01*
X83770462Y-71944532D01*
X83794141Y-71913673D01*
X88751796Y-66956018D01*
X90620378Y-66956018D01*
X90622491Y-67000000D01*
X90628153Y-67117877D01*
X90632326Y-67204765D01*
X90680910Y-67449013D01*
X90682777Y-67454212D01*
X90682778Y-67454217D01*
X90753568Y-67651382D01*
X90765063Y-67683398D01*
X90882935Y-67902770D01*
X90886243Y-67907200D01*
X90886245Y-67907203D01*
X90963998Y-68011327D01*
X91031938Y-68102309D01*
X91208799Y-68277633D01*
X91213252Y-68280898D01*
X91213259Y-68280904D01*
X91405169Y-68421618D01*
X91405175Y-68421622D01*
X91409631Y-68424889D01*
X91414524Y-68427463D01*
X91414525Y-68427464D01*
X91625126Y-68538267D01*
X91625131Y-68538269D01*
X91630023Y-68540843D01*
X91635244Y-68542666D01*
X91635248Y-68542668D01*
X91838808Y-68613754D01*
X91865133Y-68622947D01*
X92109796Y-68669397D01*
X92115319Y-68669614D01*
X92353113Y-68678957D01*
X92353114Y-68678957D01*
X92358638Y-68679174D01*
X92364134Y-68678572D01*
X92364136Y-68678572D01*
X92600689Y-68652666D01*
X92600693Y-68652665D01*
X92606192Y-68652063D01*
X92611537Y-68650656D01*
X92611541Y-68650655D01*
X92701838Y-68626881D01*
X92847019Y-68588658D01*
X92971293Y-68535266D01*
X95829807Y-68535266D01*
X95835006Y-68544272D01*
X95881589Y-68582196D01*
X95890191Y-68588242D01*
X96115680Y-68723997D01*
X96125046Y-68728769D01*
X96367422Y-68831403D01*
X96377360Y-68834805D01*
X96631764Y-68902259D01*
X96642108Y-68904232D01*
X96903484Y-68935168D01*
X96913969Y-68935663D01*
X97177120Y-68929461D01*
X97187566Y-68928473D01*
X97447205Y-68885258D01*
X97457425Y-68882805D01*
X97708389Y-68803435D01*
X97718143Y-68799573D01*
X97955417Y-68685635D01*
X97964551Y-68680426D01*
X98162047Y-68548463D01*
X98172606Y-68536423D01*
X98170239Y-68529449D01*
X97013871Y-67373081D01*
X97000000Y-67365073D01*
X96986129Y-67373081D01*
X95837815Y-68521395D01*
X95829807Y-68535266D01*
X92971293Y-68535266D01*
X93075829Y-68490354D01*
X93287596Y-68359309D01*
X93477666Y-68198402D01*
X93641866Y-68011168D01*
X93776587Y-67801721D01*
X93878870Y-67574662D01*
X93946468Y-67334978D01*
X93977895Y-67087935D01*
X93980198Y-67000000D01*
X93979917Y-66996212D01*
X93976066Y-66944401D01*
X95063225Y-66944401D01*
X95073558Y-67207390D01*
X95074711Y-67217840D01*
X95122000Y-67476768D01*
X95124614Y-67486945D01*
X95207909Y-67736613D01*
X95211936Y-67746334D01*
X95329580Y-67981778D01*
X95334931Y-67990826D01*
X95452527Y-68160974D01*
X95464733Y-68171343D01*
X95472064Y-68168726D01*
X96626919Y-67013871D01*
X96634927Y-67000000D01*
X97365073Y-67000000D01*
X97373081Y-67013871D01*
X98522203Y-68162993D01*
X98536074Y-68171001D01*
X98545648Y-68165474D01*
X98564439Y-68143119D01*
X98570610Y-68134626D01*
X98709895Y-67911290D01*
X98714815Y-67901996D01*
X98821237Y-67661275D01*
X98824799Y-67651382D01*
X98896243Y-67398058D01*
X98898374Y-67387770D01*
X98933608Y-67125453D01*
X98934234Y-67117877D01*
X98937819Y-67003801D01*
X98937670Y-66996212D01*
X98918976Y-66732197D01*
X98917494Y-66721788D01*
X98862100Y-66464490D01*
X98859165Y-66454385D01*
X98768068Y-66207458D01*
X98763739Y-66197871D01*
X98638754Y-65966233D01*
X98633126Y-65957365D01*
X98546529Y-65840120D01*
X98534000Y-65830136D01*
X98525886Y-65833324D01*
X97373081Y-66986129D01*
X97365073Y-67000000D01*
X96634927Y-67000000D01*
X96626919Y-66986129D01*
X95479075Y-65838285D01*
X95465204Y-65830277D01*
X95456722Y-65835174D01*
X95400428Y-65906583D01*
X95394525Y-65915269D01*
X95262326Y-66142866D01*
X95257700Y-66152309D01*
X95158887Y-66396266D01*
X95155641Y-66406258D01*
X95092191Y-66661690D01*
X95090381Y-66672059D01*
X95063556Y-66933880D01*
X95063225Y-66944401D01*
X93976066Y-66944401D01*
X93962152Y-66757173D01*
X93961742Y-66751651D01*
X93906781Y-66508758D01*
X93816522Y-66276656D01*
X93813781Y-66271860D01*
X93813778Y-66271854D01*
X93695690Y-66065243D01*
X93695685Y-66065236D01*
X93692947Y-66060445D01*
X93538772Y-65864875D01*
X93357383Y-65694241D01*
X93152765Y-65552292D01*
X93134213Y-65543143D01*
X93029794Y-65491650D01*
X92976846Y-65465539D01*
X95829569Y-65465539D01*
X95832460Y-65473250D01*
X96986129Y-66626919D01*
X97000000Y-66634927D01*
X97013871Y-66626919D01*
X98161582Y-65479208D01*
X98169590Y-65465337D01*
X98164972Y-65457338D01*
X98068160Y-65383453D01*
X98059375Y-65377683D01*
X97829726Y-65249073D01*
X97820223Y-65244601D01*
X97574749Y-65149634D01*
X97564698Y-65146542D01*
X97308292Y-65087111D01*
X97297909Y-65085466D01*
X97035697Y-65062756D01*
X97025174Y-65062591D01*
X96762371Y-65077054D01*
X96751947Y-65078370D01*
X96493797Y-65129720D01*
X96483655Y-65132495D01*
X96235318Y-65219704D01*
X96225685Y-65223872D01*
X95992099Y-65345210D01*
X95983151Y-65350694D01*
X95839744Y-65453174D01*
X95829569Y-65465539D01*
X92976846Y-65465539D01*
X92929413Y-65442148D01*
X92924153Y-65440464D01*
X92924150Y-65440463D01*
X92697499Y-65367911D01*
X92697495Y-65367910D01*
X92692234Y-65366226D01*
X92446439Y-65326196D01*
X92308845Y-65324395D01*
X92202954Y-65323008D01*
X92202949Y-65323008D01*
X92197426Y-65322936D01*
X92191954Y-65323681D01*
X92191949Y-65323681D01*
X92100168Y-65336172D01*
X91950667Y-65356518D01*
X91878053Y-65377683D01*
X91716898Y-65424655D01*
X91716892Y-65424657D01*
X91711582Y-65426205D01*
X91706553Y-65428523D01*
X91706554Y-65428523D01*
X91626261Y-65465539D01*
X91485424Y-65530466D01*
X91277160Y-65667009D01*
X91091367Y-65832836D01*
X90932125Y-66024304D01*
X90929260Y-66029026D01*
X90805802Y-66232477D01*
X90805799Y-66232483D01*
X90802933Y-66237206D01*
X90706628Y-66466865D01*
X90645328Y-66708237D01*
X90644774Y-66713735D01*
X90644774Y-66713737D01*
X90621548Y-66944401D01*
X90620378Y-66956018D01*
X88751796Y-66956018D01*
X93261066Y-62446748D01*
X150279500Y-62446748D01*
X150319731Y-62636017D01*
X150398433Y-62812785D01*
X150403022Y-62819101D01*
X150507579Y-62963013D01*
X150507582Y-62963017D01*
X150512167Y-62969327D01*
X150655964Y-63098802D01*
X150823537Y-63195550D01*
X151007563Y-63255344D01*
X151015323Y-63256160D01*
X151015325Y-63256160D01*
X151055712Y-63260405D01*
X151151762Y-63270500D01*
X151248238Y-63270500D01*
X151344288Y-63260405D01*
X151384675Y-63256160D01*
X151384677Y-63256160D01*
X151392437Y-63255344D01*
X151576463Y-63195550D01*
X151744036Y-63098802D01*
X151887833Y-62969327D01*
X151892418Y-62963017D01*
X151892421Y-62963013D01*
X151996978Y-62819101D01*
X152001567Y-62812785D01*
X152080269Y-62636017D01*
X152120500Y-62446748D01*
X162979500Y-62446748D01*
X163019731Y-62636017D01*
X163098433Y-62812785D01*
X163103022Y-62819101D01*
X163207579Y-62963013D01*
X163207582Y-62963017D01*
X163212167Y-62969327D01*
X163355964Y-63098802D01*
X163523537Y-63195550D01*
X163707563Y-63255344D01*
X163715323Y-63256160D01*
X163715325Y-63256160D01*
X163755712Y-63260405D01*
X163851762Y-63270500D01*
X163948238Y-63270500D01*
X164044288Y-63260405D01*
X164084675Y-63256160D01*
X164084677Y-63256160D01*
X164092437Y-63255344D01*
X164276463Y-63195550D01*
X164444036Y-63098802D01*
X164587833Y-62969327D01*
X164592418Y-62963017D01*
X164592421Y-62963013D01*
X164696978Y-62819101D01*
X164701567Y-62812785D01*
X164780269Y-62636017D01*
X164820500Y-62446748D01*
X164820500Y-62253252D01*
X164780269Y-62063983D01*
X164701567Y-61887215D01*
X164674241Y-61849604D01*
X164592421Y-61736987D01*
X164592418Y-61736983D01*
X164587833Y-61730673D01*
X164444036Y-61601198D01*
X164276463Y-61504450D01*
X164092437Y-61444656D01*
X164084677Y-61443840D01*
X164084675Y-61443840D01*
X164044288Y-61439595D01*
X163948238Y-61429500D01*
X163851762Y-61429500D01*
X163755712Y-61439595D01*
X163715325Y-61443840D01*
X163715323Y-61443840D01*
X163707563Y-61444656D01*
X163523537Y-61504450D01*
X163355964Y-61601198D01*
X163212167Y-61730673D01*
X163207582Y-61736983D01*
X163207579Y-61736987D01*
X163125759Y-61849604D01*
X163098433Y-61887215D01*
X163019731Y-62063983D01*
X162979500Y-62253252D01*
X162979500Y-62446748D01*
X152120500Y-62446748D01*
X152120500Y-62253252D01*
X152080269Y-62063983D01*
X152001567Y-61887215D01*
X151974241Y-61849604D01*
X151892421Y-61736987D01*
X151892418Y-61736983D01*
X151887833Y-61730673D01*
X151744036Y-61601198D01*
X151576463Y-61504450D01*
X151392437Y-61444656D01*
X151384677Y-61443840D01*
X151384675Y-61443840D01*
X151344288Y-61439595D01*
X151248238Y-61429500D01*
X151151762Y-61429500D01*
X151055712Y-61439595D01*
X151015325Y-61443840D01*
X151015323Y-61443840D01*
X151007563Y-61444656D01*
X150823537Y-61504450D01*
X150655964Y-61601198D01*
X150512167Y-61730673D01*
X150507582Y-61736983D01*
X150507579Y-61736987D01*
X150425759Y-61849604D01*
X150398433Y-61887215D01*
X150319731Y-62063983D01*
X150279500Y-62253252D01*
X150279500Y-62446748D01*
X93261066Y-62446748D01*
X96099424Y-59608390D01*
X105602847Y-59608390D01*
X105603592Y-59613862D01*
X105603592Y-59613867D01*
X105630228Y-59809583D01*
X105638333Y-59869140D01*
X105639879Y-59874444D01*
X105639880Y-59874449D01*
X105710420Y-60116460D01*
X105711971Y-60121781D01*
X105731942Y-60165101D01*
X105819829Y-60355745D01*
X105819833Y-60355752D01*
X105822143Y-60360763D01*
X105966429Y-60580835D01*
X106141658Y-60777163D01*
X106343982Y-60945434D01*
X106348707Y-60948301D01*
X106348711Y-60948304D01*
X106564227Y-61079082D01*
X106564233Y-61079085D01*
X106568956Y-61081951D01*
X106574052Y-61084088D01*
X106574056Y-61084090D01*
X106806538Y-61181577D01*
X106811637Y-61183715D01*
X106816992Y-61185075D01*
X106816998Y-61185077D01*
X107061335Y-61247131D01*
X107066694Y-61248492D01*
X107285255Y-61270500D01*
X107441812Y-61270500D01*
X107444551Y-61270296D01*
X107444563Y-61270296D01*
X107547462Y-61262649D01*
X107637430Y-61255963D01*
X107746024Y-61231391D01*
X107888702Y-61199107D01*
X107888708Y-61199105D01*
X107894096Y-61197886D01*
X107930537Y-61183715D01*
X108134204Y-61104513D01*
X108134205Y-61104512D01*
X108139357Y-61102509D01*
X108144152Y-61099768D01*
X108144157Y-61099766D01*
X108363030Y-60974669D01*
X108363033Y-60974667D01*
X108367827Y-60971927D01*
X108401434Y-60945434D01*
X108570146Y-60812432D01*
X108574487Y-60809010D01*
X108578269Y-60804990D01*
X108578273Y-60804986D01*
X108751011Y-60621359D01*
X108751014Y-60621356D01*
X108754795Y-60617336D01*
X108777260Y-60584954D01*
X108825371Y-60515602D01*
X108904792Y-60401117D01*
X109021182Y-60165101D01*
X109101409Y-59914474D01*
X109143709Y-59654742D01*
X109144316Y-59608390D01*
X116852847Y-59608390D01*
X116853592Y-59613862D01*
X116853592Y-59613867D01*
X116880228Y-59809583D01*
X116888333Y-59869140D01*
X116889879Y-59874444D01*
X116889880Y-59874449D01*
X116960420Y-60116460D01*
X116961971Y-60121781D01*
X116981942Y-60165101D01*
X117069829Y-60355745D01*
X117069833Y-60355752D01*
X117072143Y-60360763D01*
X117216429Y-60580835D01*
X117391658Y-60777163D01*
X117593982Y-60945434D01*
X117598707Y-60948301D01*
X117598711Y-60948304D01*
X117814227Y-61079082D01*
X117814233Y-61079085D01*
X117818956Y-61081951D01*
X117824052Y-61084088D01*
X117824056Y-61084090D01*
X118056538Y-61181577D01*
X118061637Y-61183715D01*
X118066992Y-61185075D01*
X118066998Y-61185077D01*
X118311335Y-61247131D01*
X118316694Y-61248492D01*
X118535255Y-61270500D01*
X118691812Y-61270500D01*
X118694551Y-61270296D01*
X118694563Y-61270296D01*
X118797462Y-61262649D01*
X118887430Y-61255963D01*
X118996024Y-61231391D01*
X119138702Y-61199107D01*
X119138708Y-61199105D01*
X119144096Y-61197886D01*
X119180537Y-61183715D01*
X119384204Y-61104513D01*
X119384205Y-61104512D01*
X119389357Y-61102509D01*
X119394152Y-61099768D01*
X119394157Y-61099766D01*
X119613030Y-60974669D01*
X119613033Y-60974667D01*
X119617827Y-60971927D01*
X119651434Y-60945434D01*
X119820146Y-60812432D01*
X119824487Y-60809010D01*
X119828269Y-60804990D01*
X119828273Y-60804986D01*
X120001011Y-60621359D01*
X120001014Y-60621356D01*
X120004795Y-60617336D01*
X120027260Y-60584954D01*
X120075371Y-60515602D01*
X120154792Y-60401117D01*
X120271182Y-60165101D01*
X120351409Y-59914474D01*
X120393709Y-59654742D01*
X120394316Y-59608390D01*
X125102847Y-59608390D01*
X125103592Y-59613862D01*
X125103592Y-59613867D01*
X125130228Y-59809583D01*
X125138333Y-59869140D01*
X125139879Y-59874444D01*
X125139880Y-59874449D01*
X125210420Y-60116460D01*
X125211971Y-60121781D01*
X125231942Y-60165101D01*
X125319829Y-60355745D01*
X125319833Y-60355752D01*
X125322143Y-60360763D01*
X125466429Y-60580835D01*
X125641658Y-60777163D01*
X125843982Y-60945434D01*
X125848707Y-60948301D01*
X125848711Y-60948304D01*
X126064227Y-61079082D01*
X126064233Y-61079085D01*
X126068956Y-61081951D01*
X126074052Y-61084088D01*
X126074056Y-61084090D01*
X126306538Y-61181577D01*
X126311637Y-61183715D01*
X126316992Y-61185075D01*
X126316998Y-61185077D01*
X126561335Y-61247131D01*
X126566694Y-61248492D01*
X126785255Y-61270500D01*
X126941812Y-61270500D01*
X126944551Y-61270296D01*
X126944563Y-61270296D01*
X127047462Y-61262649D01*
X127137430Y-61255963D01*
X127246024Y-61231391D01*
X127388702Y-61199107D01*
X127388708Y-61199105D01*
X127394096Y-61197886D01*
X127430537Y-61183715D01*
X127634204Y-61104513D01*
X127634205Y-61104512D01*
X127639357Y-61102509D01*
X127644152Y-61099768D01*
X127644157Y-61099766D01*
X127863030Y-60974669D01*
X127863033Y-60974667D01*
X127867827Y-60971927D01*
X127901434Y-60945434D01*
X128070146Y-60812432D01*
X128074487Y-60809010D01*
X128078269Y-60804990D01*
X128078273Y-60804986D01*
X128251011Y-60621359D01*
X128251014Y-60621356D01*
X128254795Y-60617336D01*
X128277260Y-60584954D01*
X128325371Y-60515602D01*
X128404792Y-60401117D01*
X128521182Y-60165101D01*
X128601409Y-59914474D01*
X128643709Y-59654742D01*
X128644316Y-59608390D01*
X136352847Y-59608390D01*
X136353592Y-59613862D01*
X136353592Y-59613867D01*
X136380228Y-59809583D01*
X136388333Y-59869140D01*
X136389879Y-59874444D01*
X136389880Y-59874449D01*
X136460420Y-60116460D01*
X136461971Y-60121781D01*
X136481942Y-60165101D01*
X136569829Y-60355745D01*
X136569833Y-60355752D01*
X136572143Y-60360763D01*
X136716429Y-60580835D01*
X136891658Y-60777163D01*
X137093982Y-60945434D01*
X137098707Y-60948301D01*
X137098711Y-60948304D01*
X137314227Y-61079082D01*
X137314233Y-61079085D01*
X137318956Y-61081951D01*
X137324052Y-61084088D01*
X137324056Y-61084090D01*
X137556538Y-61181577D01*
X137561637Y-61183715D01*
X137566992Y-61185075D01*
X137566998Y-61185077D01*
X137811335Y-61247131D01*
X137816694Y-61248492D01*
X138035255Y-61270500D01*
X138191812Y-61270500D01*
X138194551Y-61270296D01*
X138194563Y-61270296D01*
X138297462Y-61262649D01*
X138387430Y-61255963D01*
X138496024Y-61231391D01*
X138638702Y-61199107D01*
X138638708Y-61199105D01*
X138644096Y-61197886D01*
X138680537Y-61183715D01*
X138884204Y-61104513D01*
X138884205Y-61104512D01*
X138889357Y-61102509D01*
X138894152Y-61099768D01*
X138894157Y-61099766D01*
X139113030Y-60974669D01*
X139113033Y-60974667D01*
X139117827Y-60971927D01*
X139151434Y-60945434D01*
X139320146Y-60812432D01*
X139324487Y-60809010D01*
X139328269Y-60804990D01*
X139328273Y-60804986D01*
X139501011Y-60621359D01*
X139501014Y-60621356D01*
X139504795Y-60617336D01*
X139527260Y-60584954D01*
X139575371Y-60515602D01*
X139654792Y-60401117D01*
X139771182Y-60165101D01*
X139851409Y-59914474D01*
X139893709Y-59654742D01*
X139897153Y-59391610D01*
X139890102Y-59339795D01*
X139862412Y-59136335D01*
X139861667Y-59130860D01*
X139848454Y-59085526D01*
X139789580Y-58883540D01*
X139789580Y-58883539D01*
X139788029Y-58878219D01*
X139759700Y-58816768D01*
X139680171Y-58644255D01*
X139680167Y-58644248D01*
X139677857Y-58639237D01*
X139533571Y-58419165D01*
X139358342Y-58222837D01*
X139156018Y-58054566D01*
X139151293Y-58051699D01*
X139151289Y-58051696D01*
X138935773Y-57920918D01*
X138935767Y-57920915D01*
X138931044Y-57918049D01*
X138925948Y-57915912D01*
X138925944Y-57915910D01*
X138693462Y-57818423D01*
X138693460Y-57818422D01*
X138688363Y-57816285D01*
X138683008Y-57814925D01*
X138683002Y-57814923D01*
X138438665Y-57752869D01*
X138433306Y-57751508D01*
X138214745Y-57729500D01*
X138058188Y-57729500D01*
X138055449Y-57729704D01*
X138055437Y-57729704D01*
X137952538Y-57737351D01*
X137862570Y-57744037D01*
X137753976Y-57768609D01*
X137611298Y-57800893D01*
X137611292Y-57800895D01*
X137605904Y-57802114D01*
X137600749Y-57804119D01*
X137600748Y-57804119D01*
X137563966Y-57818423D01*
X137360643Y-57897491D01*
X137355848Y-57900232D01*
X137355843Y-57900234D01*
X137319654Y-57920918D01*
X137132173Y-58028073D01*
X137127836Y-58031492D01*
X137127833Y-58031494D01*
X137094076Y-58058106D01*
X136925513Y-58190990D01*
X136921731Y-58195010D01*
X136921727Y-58195014D01*
X136895554Y-58222837D01*
X136745205Y-58382664D01*
X136742058Y-58387200D01*
X136742055Y-58387204D01*
X136674629Y-58484398D01*
X136595208Y-58598883D01*
X136478818Y-58834899D01*
X136398591Y-59085526D01*
X136356291Y-59345258D01*
X136352847Y-59608390D01*
X128644316Y-59608390D01*
X128647153Y-59391610D01*
X128640102Y-59339795D01*
X128612412Y-59136335D01*
X128611667Y-59130860D01*
X128598454Y-59085526D01*
X128539580Y-58883540D01*
X128539580Y-58883539D01*
X128538029Y-58878219D01*
X128509700Y-58816768D01*
X128430171Y-58644255D01*
X128430167Y-58644248D01*
X128427857Y-58639237D01*
X128283571Y-58419165D01*
X128108342Y-58222837D01*
X127906018Y-58054566D01*
X127901293Y-58051699D01*
X127901289Y-58051696D01*
X127685773Y-57920918D01*
X127685767Y-57920915D01*
X127681044Y-57918049D01*
X127675948Y-57915912D01*
X127675944Y-57915910D01*
X127443462Y-57818423D01*
X127443460Y-57818422D01*
X127438363Y-57816285D01*
X127433008Y-57814925D01*
X127433002Y-57814923D01*
X127188665Y-57752869D01*
X127183306Y-57751508D01*
X126964745Y-57729500D01*
X126808188Y-57729500D01*
X126805449Y-57729704D01*
X126805437Y-57729704D01*
X126702538Y-57737351D01*
X126612570Y-57744037D01*
X126503976Y-57768609D01*
X126361298Y-57800893D01*
X126361292Y-57800895D01*
X126355904Y-57802114D01*
X126350749Y-57804119D01*
X126350748Y-57804119D01*
X126313966Y-57818423D01*
X126110643Y-57897491D01*
X126105848Y-57900232D01*
X126105843Y-57900234D01*
X126069654Y-57920918D01*
X125882173Y-58028073D01*
X125877836Y-58031492D01*
X125877833Y-58031494D01*
X125844076Y-58058106D01*
X125675513Y-58190990D01*
X125671731Y-58195010D01*
X125671727Y-58195014D01*
X125645554Y-58222837D01*
X125495205Y-58382664D01*
X125492058Y-58387200D01*
X125492055Y-58387204D01*
X125424629Y-58484398D01*
X125345208Y-58598883D01*
X125228818Y-58834899D01*
X125148591Y-59085526D01*
X125106291Y-59345258D01*
X125102847Y-59608390D01*
X120394316Y-59608390D01*
X120397153Y-59391610D01*
X120390102Y-59339795D01*
X120362412Y-59136335D01*
X120361667Y-59130860D01*
X120348454Y-59085526D01*
X120289580Y-58883540D01*
X120289580Y-58883539D01*
X120288029Y-58878219D01*
X120259700Y-58816768D01*
X120180171Y-58644255D01*
X120180167Y-58644248D01*
X120177857Y-58639237D01*
X120033571Y-58419165D01*
X119858342Y-58222837D01*
X119656018Y-58054566D01*
X119651293Y-58051699D01*
X119651289Y-58051696D01*
X119435773Y-57920918D01*
X119435767Y-57920915D01*
X119431044Y-57918049D01*
X119425948Y-57915912D01*
X119425944Y-57915910D01*
X119193462Y-57818423D01*
X119193460Y-57818422D01*
X119188363Y-57816285D01*
X119183008Y-57814925D01*
X119183002Y-57814923D01*
X118938665Y-57752869D01*
X118933306Y-57751508D01*
X118714745Y-57729500D01*
X118558188Y-57729500D01*
X118555449Y-57729704D01*
X118555437Y-57729704D01*
X118452538Y-57737351D01*
X118362570Y-57744037D01*
X118253976Y-57768609D01*
X118111298Y-57800893D01*
X118111292Y-57800895D01*
X118105904Y-57802114D01*
X118100749Y-57804119D01*
X118100748Y-57804119D01*
X118063966Y-57818423D01*
X117860643Y-57897491D01*
X117855848Y-57900232D01*
X117855843Y-57900234D01*
X117819654Y-57920918D01*
X117632173Y-58028073D01*
X117627836Y-58031492D01*
X117627833Y-58031494D01*
X117594076Y-58058106D01*
X117425513Y-58190990D01*
X117421731Y-58195010D01*
X117421727Y-58195014D01*
X117395554Y-58222837D01*
X117245205Y-58382664D01*
X117242058Y-58387200D01*
X117242055Y-58387204D01*
X117174629Y-58484398D01*
X117095208Y-58598883D01*
X116978818Y-58834899D01*
X116898591Y-59085526D01*
X116856291Y-59345258D01*
X116852847Y-59608390D01*
X109144316Y-59608390D01*
X109147153Y-59391610D01*
X109140102Y-59339795D01*
X109112412Y-59136335D01*
X109111667Y-59130860D01*
X109098454Y-59085526D01*
X109039580Y-58883540D01*
X109039580Y-58883539D01*
X109038029Y-58878219D01*
X109009700Y-58816768D01*
X108930171Y-58644255D01*
X108930167Y-58644248D01*
X108927857Y-58639237D01*
X108783571Y-58419165D01*
X108608342Y-58222837D01*
X108406018Y-58054566D01*
X108401293Y-58051699D01*
X108401289Y-58051696D01*
X108185773Y-57920918D01*
X108185767Y-57920915D01*
X108181044Y-57918049D01*
X108175948Y-57915912D01*
X108175944Y-57915910D01*
X107943462Y-57818423D01*
X107943460Y-57818422D01*
X107938363Y-57816285D01*
X107933008Y-57814925D01*
X107933002Y-57814923D01*
X107688665Y-57752869D01*
X107683306Y-57751508D01*
X107464745Y-57729500D01*
X107308188Y-57729500D01*
X107305449Y-57729704D01*
X107305437Y-57729704D01*
X107202538Y-57737351D01*
X107112570Y-57744037D01*
X107003976Y-57768609D01*
X106861298Y-57800893D01*
X106861292Y-57800895D01*
X106855904Y-57802114D01*
X106850749Y-57804119D01*
X106850748Y-57804119D01*
X106813966Y-57818423D01*
X106610643Y-57897491D01*
X106605848Y-57900232D01*
X106605843Y-57900234D01*
X106569654Y-57920918D01*
X106382173Y-58028073D01*
X106377836Y-58031492D01*
X106377833Y-58031494D01*
X106344076Y-58058106D01*
X106175513Y-58190990D01*
X106171731Y-58195010D01*
X106171727Y-58195014D01*
X106145554Y-58222837D01*
X105995205Y-58382664D01*
X105992058Y-58387200D01*
X105992055Y-58387204D01*
X105924629Y-58484398D01*
X105845208Y-58598883D01*
X105728818Y-58834899D01*
X105648591Y-59085526D01*
X105606291Y-59345258D01*
X105602847Y-59608390D01*
X96099424Y-59608390D01*
X98838250Y-56869564D01*
X158295509Y-56869564D01*
X158298235Y-56874286D01*
X158298630Y-56874585D01*
X158388135Y-56924608D01*
X158401428Y-56930415D01*
X158575570Y-56986997D01*
X158589733Y-56990111D01*
X158771557Y-57011793D01*
X158786049Y-57012096D01*
X158968619Y-56998048D01*
X158982903Y-56995529D01*
X159159262Y-56946289D01*
X159172785Y-56941044D01*
X159294166Y-56879729D01*
X159306106Y-56869054D01*
X159305324Y-56865310D01*
X159303289Y-56862499D01*
X158813871Y-56373081D01*
X158800000Y-56365073D01*
X158786129Y-56373081D01*
X158303517Y-56855693D01*
X158295509Y-56869564D01*
X98838250Y-56869564D01*
X99718359Y-55989455D01*
X155444825Y-55989455D01*
X155445637Y-55997737D01*
X155445637Y-55997741D01*
X155448381Y-56025725D01*
X155461255Y-56157025D01*
X155463881Y-56164920D01*
X155463882Y-56164923D01*
X155474090Y-56195609D01*
X155514402Y-56316791D01*
X155601624Y-56460812D01*
X155718586Y-56581929D01*
X155725555Y-56586490D01*
X155725557Y-56586491D01*
X155852503Y-56669563D01*
X155852506Y-56669564D01*
X155859475Y-56674125D01*
X156017289Y-56732815D01*
X156025543Y-56733916D01*
X156025546Y-56733917D01*
X156175928Y-56753982D01*
X156175932Y-56753982D01*
X156184183Y-56755083D01*
X156292053Y-56745266D01*
X156343570Y-56740578D01*
X156343572Y-56740578D01*
X156351864Y-56739823D01*
X156511997Y-56687793D01*
X156656623Y-56601578D01*
X156778554Y-56485465D01*
X156794934Y-56460812D01*
X156867120Y-56352163D01*
X156871731Y-56345223D01*
X156931521Y-56187823D01*
X156933243Y-56175575D01*
X156954303Y-56025725D01*
X156954955Y-56021088D01*
X156955249Y-56000000D01*
X156954477Y-55993119D01*
X157787832Y-55993119D01*
X157803153Y-56175575D01*
X157805773Y-56189854D01*
X157856242Y-56365861D01*
X157861582Y-56379347D01*
X157920460Y-56493912D01*
X157931221Y-56505780D01*
X157935226Y-56504914D01*
X157937626Y-56503164D01*
X158426919Y-56013871D01*
X158434927Y-56000000D01*
X159165073Y-56000000D01*
X159173081Y-56013871D01*
X159655602Y-56496392D01*
X159669473Y-56504400D01*
X159674429Y-56501539D01*
X159721712Y-56418306D01*
X159727607Y-56405066D01*
X159785407Y-56231313D01*
X159788619Y-56217171D01*
X159811961Y-56032407D01*
X159812540Y-56024119D01*
X159812819Y-56004176D01*
X159812470Y-55995849D01*
X159794298Y-55810520D01*
X159791479Y-55796282D01*
X159738560Y-55621008D01*
X159733026Y-55607582D01*
X159679266Y-55506473D01*
X159668343Y-55494759D01*
X159663821Y-55495803D01*
X159662227Y-55496983D01*
X159173081Y-55986129D01*
X159165073Y-56000000D01*
X158434927Y-56000000D01*
X158426919Y-55986129D01*
X157944180Y-55503390D01*
X157930309Y-55495382D01*
X157925821Y-55497973D01*
X157925225Y-55498767D01*
X157872540Y-55594599D01*
X157866825Y-55607932D01*
X157811462Y-55782460D01*
X157808444Y-55796657D01*
X157788034Y-55978617D01*
X157787832Y-55993119D01*
X156954477Y-55993119D01*
X156936481Y-55832676D01*
X156881108Y-55673668D01*
X156791884Y-55530879D01*
X156673242Y-55411406D01*
X156666212Y-55406945D01*
X156666210Y-55406943D01*
X156538112Y-55325650D01*
X156538110Y-55325649D01*
X156531079Y-55321187D01*
X156523233Y-55318393D01*
X156380304Y-55267498D01*
X156380301Y-55267497D01*
X156372462Y-55264706D01*
X156364199Y-55263721D01*
X156364196Y-55263720D01*
X156262146Y-55251551D01*
X156205273Y-55244769D01*
X156196995Y-55245639D01*
X156196993Y-55245639D01*
X156121547Y-55253569D01*
X156037821Y-55262369D01*
X155878431Y-55316630D01*
X155735022Y-55404856D01*
X155673202Y-55465395D01*
X155631255Y-55506473D01*
X155614724Y-55522661D01*
X155610213Y-55529661D01*
X155610212Y-55529662D01*
X155569119Y-55593426D01*
X155523515Y-55664190D01*
X155520667Y-55672016D01*
X155520666Y-55672017D01*
X155515501Y-55686207D01*
X155465927Y-55822409D01*
X155464884Y-55830668D01*
X155464883Y-55830671D01*
X155456998Y-55893094D01*
X155444825Y-55989455D01*
X99718359Y-55989455D01*
X100576356Y-55131458D01*
X158294510Y-55131458D01*
X158295464Y-55135724D01*
X158296929Y-55137719D01*
X158786129Y-55626919D01*
X158800000Y-55634927D01*
X158813871Y-55626919D01*
X159296775Y-55144015D01*
X159304783Y-55130144D01*
X159302327Y-55125890D01*
X159301137Y-55125003D01*
X159198917Y-55069733D01*
X159185543Y-55064111D01*
X159010626Y-55009965D01*
X158996421Y-55007049D01*
X158814312Y-54987909D01*
X158799820Y-54987808D01*
X158617462Y-55004404D01*
X158603217Y-55007121D01*
X158427557Y-55058821D01*
X158414113Y-55064253D01*
X158306300Y-55120616D01*
X158294510Y-55131458D01*
X100576356Y-55131458D01*
X101603346Y-54104468D01*
X101612134Y-54096359D01*
X101618744Y-54090733D01*
X101627720Y-54085070D01*
X101662286Y-54045931D01*
X101668594Y-54039220D01*
X101679321Y-54028493D01*
X101684904Y-54021044D01*
X101692443Y-54011785D01*
X101693736Y-54010320D01*
X101722623Y-53977612D01*
X101727135Y-53968002D01*
X101732488Y-53959854D01*
X101737161Y-53951318D01*
X101743527Y-53942824D01*
X101747253Y-53932885D01*
X101747255Y-53932881D01*
X101759537Y-53900119D01*
X101764180Y-53889099D01*
X101783553Y-53847837D01*
X101785187Y-53837342D01*
X101788034Y-53828030D01*
X101790124Y-53818524D01*
X101793852Y-53808580D01*
X101794639Y-53797992D01*
X101795846Y-53792502D01*
X101831342Y-53724027D01*
X101896319Y-53682474D01*
X101941370Y-53675500D01*
X102749674Y-53675500D01*
X102822740Y-53660966D01*
X102905601Y-53605601D01*
X102960966Y-53522740D01*
X102975500Y-53449674D01*
X102975500Y-52369564D01*
X160595509Y-52369564D01*
X160598235Y-52374286D01*
X160598630Y-52374585D01*
X160688135Y-52424608D01*
X160701428Y-52430415D01*
X160875570Y-52486997D01*
X160889733Y-52490111D01*
X161071557Y-52511793D01*
X161086049Y-52512096D01*
X161268619Y-52498048D01*
X161282903Y-52495529D01*
X161459262Y-52446289D01*
X161472785Y-52441044D01*
X161594166Y-52379729D01*
X161606106Y-52369054D01*
X161605324Y-52365310D01*
X161603289Y-52362499D01*
X161113871Y-51873081D01*
X161100000Y-51865073D01*
X161086129Y-51873081D01*
X160603517Y-52355693D01*
X160595509Y-52369564D01*
X102975500Y-52369564D01*
X102975500Y-51489455D01*
X153094825Y-51489455D01*
X153095637Y-51497737D01*
X153095637Y-51497741D01*
X153098381Y-51525725D01*
X153111255Y-51657025D01*
X153113881Y-51664920D01*
X153113882Y-51664923D01*
X153131263Y-51717171D01*
X153164402Y-51816791D01*
X153251624Y-51960812D01*
X153257412Y-51966805D01*
X153257413Y-51966807D01*
X153290954Y-52001539D01*
X153368586Y-52081929D01*
X153375555Y-52086490D01*
X153375557Y-52086491D01*
X153502503Y-52169563D01*
X153502506Y-52169564D01*
X153509475Y-52174125D01*
X153667289Y-52232815D01*
X153675543Y-52233916D01*
X153675546Y-52233917D01*
X153825928Y-52253982D01*
X153825932Y-52253982D01*
X153834183Y-52255083D01*
X153942053Y-52245266D01*
X153993570Y-52240578D01*
X153993572Y-52240578D01*
X154001864Y-52239823D01*
X154161997Y-52187793D01*
X154306623Y-52101578D01*
X154428554Y-51985465D01*
X154444934Y-51960812D01*
X154517120Y-51852163D01*
X154521731Y-51845223D01*
X154581521Y-51687823D01*
X154583243Y-51675575D01*
X154604303Y-51525725D01*
X154604955Y-51521088D01*
X154605249Y-51500000D01*
X154604477Y-51493119D01*
X160087832Y-51493119D01*
X160103153Y-51675575D01*
X160105773Y-51689854D01*
X160156242Y-51865861D01*
X160161582Y-51879347D01*
X160220460Y-51993912D01*
X160231221Y-52005780D01*
X160235226Y-52004914D01*
X160237626Y-52003164D01*
X160726919Y-51513871D01*
X160734927Y-51500000D01*
X161465073Y-51500000D01*
X161473081Y-51513871D01*
X161955602Y-51996392D01*
X161969473Y-52004400D01*
X161974429Y-52001539D01*
X162021712Y-51918306D01*
X162027607Y-51905066D01*
X162085407Y-51731313D01*
X162088619Y-51717171D01*
X162111961Y-51532407D01*
X162112540Y-51524119D01*
X162112819Y-51504176D01*
X162112470Y-51495849D01*
X162094298Y-51310520D01*
X162091479Y-51296282D01*
X162038560Y-51121008D01*
X162033026Y-51107582D01*
X161979266Y-51006473D01*
X161968343Y-50994759D01*
X161963821Y-50995803D01*
X161962227Y-50996983D01*
X161473081Y-51486129D01*
X161465073Y-51500000D01*
X160734927Y-51500000D01*
X160726919Y-51486129D01*
X160244180Y-51003390D01*
X160230309Y-50995382D01*
X160225821Y-50997973D01*
X160225225Y-50998767D01*
X160172540Y-51094599D01*
X160166825Y-51107932D01*
X160111462Y-51282460D01*
X160108444Y-51296657D01*
X160088034Y-51478617D01*
X160087832Y-51493119D01*
X154604477Y-51493119D01*
X154586481Y-51332676D01*
X154531108Y-51173668D01*
X154441884Y-51030879D01*
X154323242Y-50911406D01*
X154316212Y-50906945D01*
X154316210Y-50906943D01*
X154188112Y-50825650D01*
X154188110Y-50825649D01*
X154181079Y-50821187D01*
X154173233Y-50818393D01*
X154030304Y-50767498D01*
X154030301Y-50767497D01*
X154022462Y-50764706D01*
X154014199Y-50763721D01*
X154014196Y-50763720D01*
X153919685Y-50752450D01*
X153855273Y-50744769D01*
X153846995Y-50745639D01*
X153846993Y-50745639D01*
X153771547Y-50753569D01*
X153687821Y-50762369D01*
X153528431Y-50816630D01*
X153521335Y-50820996D01*
X153521334Y-50820996D01*
X153490249Y-50840120D01*
X153385022Y-50904856D01*
X153333200Y-50955604D01*
X153281255Y-51006473D01*
X153264724Y-51022661D01*
X153173515Y-51164190D01*
X153115927Y-51322409D01*
X153114884Y-51330668D01*
X153114883Y-51330671D01*
X153107845Y-51386389D01*
X153094825Y-51489455D01*
X102975500Y-51489455D01*
X102975500Y-50631458D01*
X160594510Y-50631458D01*
X160595464Y-50635724D01*
X160596929Y-50637719D01*
X161086129Y-51126919D01*
X161100000Y-51134927D01*
X161113871Y-51126919D01*
X161596775Y-50644015D01*
X161604783Y-50630144D01*
X161602327Y-50625890D01*
X161601137Y-50625003D01*
X161498917Y-50569733D01*
X161485543Y-50564111D01*
X161310626Y-50509965D01*
X161296421Y-50507049D01*
X161114312Y-50487909D01*
X161099820Y-50487808D01*
X160917462Y-50504404D01*
X160903217Y-50507121D01*
X160727557Y-50558821D01*
X160714113Y-50564253D01*
X160606300Y-50620616D01*
X160594510Y-50631458D01*
X102975500Y-50631458D01*
X102975500Y-50550326D01*
X102960966Y-50477260D01*
X102905601Y-50394399D01*
X102822740Y-50339034D01*
X102749674Y-50324500D01*
X99850326Y-50324500D01*
X99777260Y-50339034D01*
X99694399Y-50394399D01*
X99639034Y-50477260D01*
X99624500Y-50550326D01*
X99624500Y-53449674D01*
X99639034Y-53522740D01*
X99694399Y-53605601D01*
X99777260Y-53660966D01*
X99850326Y-53675500D01*
X100256968Y-53675500D01*
X100331468Y-53695462D01*
X100386006Y-53750000D01*
X100405968Y-53824500D01*
X100386006Y-53899000D01*
X100362327Y-53929859D01*
X82946654Y-71345532D01*
X82937866Y-71353641D01*
X82931256Y-71359267D01*
X82922280Y-71364930D01*
X82887714Y-71404069D01*
X82881406Y-71410780D01*
X82870680Y-71421506D01*
X82865101Y-71428950D01*
X82857576Y-71438193D01*
X82827377Y-71472388D01*
X82822866Y-71481997D01*
X82817512Y-71490147D01*
X82812838Y-71498685D01*
X82806474Y-71507176D01*
X82802749Y-71517112D01*
X82802748Y-71517114D01*
X82790468Y-71549871D01*
X82785826Y-71560887D01*
X82766447Y-71602163D01*
X82764814Y-71612655D01*
X82761962Y-71621982D01*
X82759873Y-71631485D01*
X82756148Y-71641420D01*
X82755362Y-71652003D01*
X82755361Y-71652005D01*
X82752769Y-71686890D01*
X82751405Y-71698770D01*
X82749500Y-71711009D01*
X82749500Y-71725362D01*
X82749090Y-71736401D01*
X82745524Y-71784392D01*
X82747740Y-71794774D01*
X82748462Y-71805364D01*
X82748090Y-71805389D01*
X82749500Y-71818743D01*
X82749500Y-75353774D01*
X82729538Y-75428274D01*
X82686708Y-75475302D01*
X82527640Y-75588137D01*
X82382425Y-75739831D01*
X82378577Y-75745790D01*
X82378575Y-75745793D01*
X82360606Y-75773623D01*
X82268515Y-75916246D01*
X82190019Y-76111019D01*
X82184116Y-76141246D01*
X82157726Y-76276384D01*
X82149770Y-76317122D01*
X82149500Y-76322643D01*
X82149500Y-76727469D01*
X81850500Y-76727469D01*
X81850499Y-75777624D01*
X81847042Y-75745793D01*
X81844860Y-75725706D01*
X81844859Y-75725703D01*
X81843851Y-75716420D01*
X81793526Y-75582176D01*
X81707546Y-75467454D01*
X81675114Y-75443147D01*
X81601318Y-75387840D01*
X81592824Y-75381474D01*
X81458580Y-75331149D01*
X81449295Y-75330140D01*
X81449294Y-75330140D01*
X81430075Y-75328052D01*
X81397377Y-75324500D01*
X81393338Y-75324500D01*
X80749037Y-75324501D01*
X80102624Y-75324501D01*
X80072822Y-75327738D01*
X80050706Y-75330140D01*
X80050703Y-75330141D01*
X80041420Y-75331149D01*
X79907176Y-75381474D01*
X79898682Y-75387840D01*
X79824887Y-75443147D01*
X79792454Y-75467454D01*
X79706474Y-75582176D01*
X79656149Y-75716420D01*
X79649500Y-75777623D01*
X77500000Y-75777623D01*
X77500000Y-54971497D01*
X77519962Y-54896997D01*
X77574500Y-54842459D01*
X77649000Y-54822497D01*
X77723500Y-54842459D01*
X77778038Y-54896997D01*
X77784039Y-54908524D01*
X77862898Y-55077638D01*
X77988402Y-55256877D01*
X78143123Y-55411598D01*
X78322361Y-55537102D01*
X78520670Y-55629575D01*
X78526951Y-55631258D01*
X78725744Y-55684525D01*
X78725749Y-55684526D01*
X78732023Y-55686207D01*
X78738494Y-55686773D01*
X78738499Y-55686774D01*
X78943519Y-55704710D01*
X78950000Y-55705277D01*
X78956481Y-55704710D01*
X79161501Y-55686774D01*
X79161506Y-55686773D01*
X79167977Y-55686207D01*
X79174251Y-55684526D01*
X79174256Y-55684525D01*
X79373049Y-55631258D01*
X79379330Y-55629575D01*
X79577639Y-55537102D01*
X79756877Y-55411598D01*
X79911598Y-55256877D01*
X80037102Y-55077638D01*
X80129575Y-54879330D01*
X80139455Y-54842459D01*
X80184525Y-54674256D01*
X80184526Y-54674251D01*
X80186207Y-54667977D01*
X80205277Y-54450000D01*
X84194723Y-54450000D01*
X84213793Y-54667977D01*
X84215474Y-54674251D01*
X84215475Y-54674256D01*
X84260545Y-54842459D01*
X84270425Y-54879330D01*
X84362898Y-55077638D01*
X84488402Y-55256877D01*
X84643123Y-55411598D01*
X84822361Y-55537102D01*
X85020670Y-55629575D01*
X85026951Y-55631258D01*
X85225744Y-55684525D01*
X85225749Y-55684526D01*
X85232023Y-55686207D01*
X85238494Y-55686773D01*
X85238499Y-55686774D01*
X85443519Y-55704710D01*
X85450000Y-55705277D01*
X85456481Y-55704710D01*
X85661501Y-55686774D01*
X85661506Y-55686773D01*
X85667977Y-55686207D01*
X85674251Y-55684526D01*
X85674256Y-55684525D01*
X85873049Y-55631258D01*
X85879330Y-55629575D01*
X86077639Y-55537102D01*
X86256877Y-55411598D01*
X86411598Y-55256877D01*
X86537102Y-55077638D01*
X86629575Y-54879330D01*
X86639455Y-54842459D01*
X86684525Y-54674256D01*
X86684526Y-54674251D01*
X86686207Y-54667977D01*
X86705277Y-54450000D01*
X86686207Y-54232023D01*
X86649111Y-54093577D01*
X86631258Y-54026951D01*
X86629575Y-54020670D01*
X86537102Y-53822362D01*
X86523850Y-53803435D01*
X86436689Y-53678957D01*
X86411598Y-53643123D01*
X86256877Y-53488402D01*
X86077639Y-53362898D01*
X85879330Y-53270425D01*
X85873049Y-53268742D01*
X85674256Y-53215475D01*
X85674251Y-53215474D01*
X85667977Y-53213793D01*
X85661506Y-53213227D01*
X85661501Y-53213226D01*
X85456481Y-53195290D01*
X85450000Y-53194723D01*
X85443519Y-53195290D01*
X85238499Y-53213226D01*
X85238494Y-53213227D01*
X85232023Y-53213793D01*
X85225749Y-53215474D01*
X85225744Y-53215475D01*
X85026951Y-53268742D01*
X85020670Y-53270425D01*
X84822362Y-53362898D01*
X84817034Y-53366629D01*
X84817030Y-53366631D01*
X84738501Y-53421618D01*
X84643123Y-53488402D01*
X84488402Y-53643123D01*
X84463311Y-53678957D01*
X84376151Y-53803435D01*
X84362898Y-53822362D01*
X84270425Y-54020670D01*
X84268742Y-54026951D01*
X84250890Y-54093577D01*
X84213793Y-54232023D01*
X84194723Y-54450000D01*
X80205277Y-54450000D01*
X80186207Y-54232023D01*
X80149111Y-54093577D01*
X80131258Y-54026951D01*
X80129575Y-54020670D01*
X80037102Y-53822362D01*
X80023850Y-53803435D01*
X79936689Y-53678957D01*
X79911598Y-53643123D01*
X79756877Y-53488402D01*
X79577639Y-53362898D01*
X79379330Y-53270425D01*
X79373049Y-53268742D01*
X79174256Y-53215475D01*
X79174251Y-53215474D01*
X79167977Y-53213793D01*
X79161506Y-53213227D01*
X79161501Y-53213226D01*
X78956481Y-53195290D01*
X78950000Y-53194723D01*
X78943519Y-53195290D01*
X78738499Y-53213226D01*
X78738494Y-53213227D01*
X78732023Y-53213793D01*
X78725749Y-53215474D01*
X78725744Y-53215475D01*
X78526951Y-53268742D01*
X78520670Y-53270425D01*
X78322362Y-53362898D01*
X78317034Y-53366629D01*
X78317030Y-53366631D01*
X78238501Y-53421618D01*
X78143123Y-53488402D01*
X77988402Y-53643123D01*
X77963311Y-53678957D01*
X77876151Y-53803435D01*
X77862898Y-53822362D01*
X77784040Y-53991473D01*
X77734463Y-54050557D01*
X77661986Y-54076936D01*
X77586030Y-54063543D01*
X77526946Y-54013966D01*
X77500567Y-53941489D01*
X77500000Y-53928503D01*
X77500000Y-51956018D01*
X90220378Y-51956018D01*
X90223157Y-52013871D01*
X90231511Y-52187793D01*
X90232326Y-52204765D01*
X90239450Y-52240578D01*
X90277211Y-52430415D01*
X90280910Y-52449013D01*
X90282777Y-52454212D01*
X90282778Y-52454217D01*
X90353568Y-52651382D01*
X90365063Y-52683398D01*
X90482935Y-52902770D01*
X90486243Y-52907200D01*
X90486245Y-52907203D01*
X90566982Y-53015323D01*
X90631938Y-53102309D01*
X90808799Y-53277633D01*
X90813252Y-53280898D01*
X90813259Y-53280904D01*
X91005169Y-53421618D01*
X91005175Y-53421622D01*
X91009631Y-53424889D01*
X91014524Y-53427463D01*
X91014525Y-53427464D01*
X91225126Y-53538267D01*
X91225131Y-53538269D01*
X91230023Y-53540843D01*
X91235244Y-53542666D01*
X91235248Y-53542668D01*
X91438808Y-53613754D01*
X91465133Y-53622947D01*
X91709796Y-53669397D01*
X91715319Y-53669614D01*
X91953113Y-53678957D01*
X91953114Y-53678957D01*
X91958638Y-53679174D01*
X91964134Y-53678572D01*
X91964136Y-53678572D01*
X92200689Y-53652666D01*
X92200693Y-53652665D01*
X92206192Y-53652063D01*
X92211537Y-53650656D01*
X92211541Y-53650655D01*
X92301838Y-53626881D01*
X92447019Y-53588658D01*
X92571293Y-53535266D01*
X95429807Y-53535266D01*
X95435006Y-53544272D01*
X95481589Y-53582196D01*
X95490191Y-53588242D01*
X95715680Y-53723997D01*
X95725046Y-53728769D01*
X95967422Y-53831403D01*
X95977360Y-53834805D01*
X96231764Y-53902259D01*
X96242108Y-53904232D01*
X96503484Y-53935168D01*
X96513969Y-53935663D01*
X96777120Y-53929461D01*
X96787566Y-53928473D01*
X97047205Y-53885258D01*
X97057425Y-53882805D01*
X97308389Y-53803435D01*
X97318143Y-53799573D01*
X97555417Y-53685635D01*
X97564551Y-53680426D01*
X97762047Y-53548463D01*
X97772606Y-53536423D01*
X97770239Y-53529449D01*
X96613871Y-52373081D01*
X96600000Y-52365073D01*
X96586129Y-52373081D01*
X95437815Y-53521395D01*
X95429807Y-53535266D01*
X92571293Y-53535266D01*
X92675829Y-53490354D01*
X92887596Y-53359309D01*
X93077666Y-53198402D01*
X93241866Y-53011168D01*
X93376587Y-52801721D01*
X93478870Y-52574662D01*
X93480369Y-52569347D01*
X93544968Y-52340297D01*
X93544968Y-52340296D01*
X93546468Y-52334978D01*
X93577895Y-52087935D01*
X93580198Y-52000000D01*
X93579917Y-51996212D01*
X93576067Y-51944401D01*
X94663225Y-51944401D01*
X94673558Y-52207390D01*
X94674711Y-52217840D01*
X94722000Y-52476768D01*
X94724614Y-52486945D01*
X94807909Y-52736613D01*
X94811936Y-52746334D01*
X94929580Y-52981778D01*
X94934931Y-52990826D01*
X95052527Y-53160974D01*
X95064733Y-53171343D01*
X95072064Y-53168726D01*
X96226919Y-52013871D01*
X96234927Y-52000000D01*
X96965073Y-52000000D01*
X96973081Y-52013871D01*
X98122203Y-53162993D01*
X98136074Y-53171001D01*
X98145648Y-53165474D01*
X98164439Y-53143119D01*
X98170610Y-53134626D01*
X98309895Y-52911290D01*
X98314815Y-52901996D01*
X98421237Y-52661275D01*
X98424799Y-52651382D01*
X98496243Y-52398058D01*
X98498374Y-52387770D01*
X98533608Y-52125453D01*
X98534234Y-52117877D01*
X98537819Y-52003801D01*
X98537670Y-51996212D01*
X98518976Y-51732197D01*
X98517494Y-51721788D01*
X98462100Y-51464490D01*
X98459165Y-51454385D01*
X98368068Y-51207458D01*
X98363739Y-51197871D01*
X98238754Y-50966233D01*
X98233126Y-50957365D01*
X98146529Y-50840120D01*
X98134000Y-50830136D01*
X98125886Y-50833324D01*
X96973081Y-51986129D01*
X96965073Y-52000000D01*
X96234927Y-52000000D01*
X96226919Y-51986129D01*
X95079075Y-50838285D01*
X95065204Y-50830277D01*
X95056722Y-50835174D01*
X95000428Y-50906583D01*
X94994525Y-50915269D01*
X94862326Y-51142866D01*
X94857700Y-51152309D01*
X94758887Y-51396266D01*
X94755641Y-51406258D01*
X94692191Y-51661690D01*
X94690381Y-51672059D01*
X94663556Y-51933880D01*
X94663225Y-51944401D01*
X93576067Y-51944401D01*
X93570171Y-51865073D01*
X93561742Y-51751651D01*
X93531825Y-51619438D01*
X93508002Y-51514152D01*
X93508000Y-51514146D01*
X93506781Y-51508758D01*
X93463036Y-51396266D01*
X93418528Y-51281814D01*
X93418527Y-51281812D01*
X93416522Y-51276656D01*
X93413781Y-51271860D01*
X93413778Y-51271854D01*
X93295690Y-51065243D01*
X93295685Y-51065236D01*
X93292947Y-51060445D01*
X93138772Y-50864875D01*
X92957383Y-50694241D01*
X92752765Y-50552292D01*
X92734213Y-50543143D01*
X92703813Y-50528152D01*
X92576846Y-50465539D01*
X95429569Y-50465539D01*
X95432460Y-50473250D01*
X96586129Y-51626919D01*
X96600000Y-51634927D01*
X96613871Y-51626919D01*
X97761582Y-50479208D01*
X97769590Y-50465337D01*
X97764972Y-50457338D01*
X97668160Y-50383453D01*
X97659375Y-50377683D01*
X97429726Y-50249073D01*
X97420223Y-50244601D01*
X97174749Y-50149634D01*
X97164698Y-50146542D01*
X96908292Y-50087111D01*
X96897909Y-50085466D01*
X96635697Y-50062756D01*
X96625174Y-50062591D01*
X96362371Y-50077054D01*
X96351947Y-50078370D01*
X96093797Y-50129720D01*
X96083655Y-50132495D01*
X95835318Y-50219704D01*
X95825685Y-50223872D01*
X95592099Y-50345210D01*
X95583151Y-50350694D01*
X95439744Y-50453174D01*
X95429569Y-50465539D01*
X92576846Y-50465539D01*
X92529413Y-50442148D01*
X92524153Y-50440464D01*
X92524150Y-50440463D01*
X92297499Y-50367911D01*
X92297495Y-50367910D01*
X92292234Y-50366226D01*
X92046439Y-50326196D01*
X91908845Y-50324395D01*
X91802954Y-50323008D01*
X91802949Y-50323008D01*
X91797426Y-50322936D01*
X91791954Y-50323681D01*
X91791949Y-50323681D01*
X91700168Y-50336172D01*
X91550667Y-50356518D01*
X91478053Y-50377683D01*
X91316898Y-50424655D01*
X91316892Y-50424657D01*
X91311582Y-50426205D01*
X91306553Y-50428523D01*
X91306554Y-50428523D01*
X91107042Y-50520500D01*
X91085424Y-50530466D01*
X90877160Y-50667009D01*
X90691367Y-50832836D01*
X90532125Y-51024304D01*
X90523849Y-51037943D01*
X90405802Y-51232477D01*
X90405799Y-51232483D01*
X90402933Y-51237206D01*
X90306628Y-51466865D01*
X90245328Y-51708237D01*
X90244774Y-51713735D01*
X90244774Y-51713737D01*
X90221548Y-51944401D01*
X90220378Y-51956018D01*
X77500000Y-51956018D01*
X77500000Y-51183102D01*
X78081971Y-51183102D01*
X78085180Y-51188662D01*
X78258271Y-51294733D01*
X78268676Y-51300034D01*
X78477156Y-51386389D01*
X78488250Y-51389994D01*
X78707680Y-51442675D01*
X78719196Y-51444499D01*
X78944168Y-51462204D01*
X78955832Y-51462204D01*
X79180804Y-51444499D01*
X79192320Y-51442675D01*
X79411750Y-51389994D01*
X79422844Y-51386389D01*
X79631324Y-51300034D01*
X79641729Y-51294733D01*
X79807168Y-51193351D01*
X79816894Y-51183102D01*
X84581971Y-51183102D01*
X84585180Y-51188662D01*
X84758271Y-51294733D01*
X84768676Y-51300034D01*
X84977156Y-51386389D01*
X84988250Y-51389994D01*
X85207680Y-51442675D01*
X85219196Y-51444499D01*
X85444168Y-51462204D01*
X85455832Y-51462204D01*
X85680804Y-51444499D01*
X85692320Y-51442675D01*
X85911750Y-51389994D01*
X85922844Y-51386389D01*
X86131324Y-51300034D01*
X86141729Y-51294733D01*
X86307168Y-51193351D01*
X86318192Y-51181734D01*
X86316368Y-51175578D01*
X85463871Y-50323081D01*
X85450000Y-50315073D01*
X85436129Y-50323081D01*
X84589979Y-51169231D01*
X84581971Y-51183102D01*
X79816894Y-51183102D01*
X79818192Y-51181734D01*
X79816368Y-51175578D01*
X78963871Y-50323081D01*
X78950000Y-50315073D01*
X78936129Y-50323081D01*
X78089979Y-51169231D01*
X78081971Y-51183102D01*
X77500000Y-51183102D01*
X77500000Y-50955604D01*
X77519962Y-50881104D01*
X77574500Y-50826566D01*
X77649000Y-50806604D01*
X77683783Y-50810721D01*
X77716760Y-50818638D01*
X77724422Y-50816368D01*
X78576919Y-49963871D01*
X78584927Y-49950000D01*
X79315073Y-49950000D01*
X79323081Y-49963871D01*
X80169231Y-50810021D01*
X80183102Y-50818029D01*
X80188662Y-50814820D01*
X80294733Y-50641729D01*
X80300034Y-50631324D01*
X80386389Y-50422844D01*
X80389994Y-50411750D01*
X80442675Y-50192320D01*
X80444499Y-50180804D01*
X80462204Y-49955832D01*
X83937796Y-49955832D01*
X83955501Y-50180804D01*
X83957325Y-50192320D01*
X84010006Y-50411750D01*
X84013611Y-50422844D01*
X84099966Y-50631324D01*
X84105267Y-50641729D01*
X84206649Y-50807168D01*
X84218266Y-50818192D01*
X84224422Y-50816368D01*
X85076919Y-49963871D01*
X85084927Y-49950000D01*
X85815073Y-49950000D01*
X85823081Y-49963871D01*
X86669231Y-50810021D01*
X86683102Y-50818029D01*
X86688662Y-50814820D01*
X86794733Y-50641729D01*
X86800034Y-50631324D01*
X86886389Y-50422844D01*
X86889994Y-50411750D01*
X86942675Y-50192320D01*
X86944499Y-50180804D01*
X86962204Y-49955832D01*
X86962204Y-49944168D01*
X86944499Y-49719196D01*
X86942675Y-49707680D01*
X86940050Y-49696748D01*
X150279500Y-49696748D01*
X150319731Y-49886017D01*
X150398433Y-50062785D01*
X150403022Y-50069101D01*
X150507579Y-50213013D01*
X150507582Y-50213017D01*
X150512167Y-50219327D01*
X150655964Y-50348802D01*
X150662720Y-50352703D01*
X150662722Y-50352704D01*
X150714799Y-50382771D01*
X150823537Y-50445550D01*
X151007563Y-50505344D01*
X151015323Y-50506160D01*
X151015325Y-50506160D01*
X151055712Y-50510405D01*
X151151762Y-50520500D01*
X151248238Y-50520500D01*
X151344288Y-50510405D01*
X151384675Y-50506160D01*
X151384677Y-50506160D01*
X151392437Y-50505344D01*
X151576463Y-50445550D01*
X151685201Y-50382771D01*
X151737278Y-50352704D01*
X151737280Y-50352703D01*
X151744036Y-50348802D01*
X151887833Y-50219327D01*
X151892418Y-50213017D01*
X151892421Y-50213013D01*
X151996978Y-50069101D01*
X152001567Y-50062785D01*
X152080269Y-49886017D01*
X152109872Y-49746748D01*
X162979500Y-49746748D01*
X162981124Y-49754388D01*
X163010620Y-49893152D01*
X163019731Y-49936017D01*
X163098433Y-50112785D01*
X163103022Y-50119101D01*
X163207579Y-50263013D01*
X163207582Y-50263017D01*
X163212167Y-50269327D01*
X163355964Y-50398802D01*
X163362720Y-50402703D01*
X163362722Y-50402704D01*
X163407442Y-50428523D01*
X163523537Y-50495550D01*
X163707563Y-50555344D01*
X163715323Y-50556160D01*
X163715325Y-50556160D01*
X163740644Y-50558821D01*
X163851762Y-50570500D01*
X163948238Y-50570500D01*
X164059356Y-50558821D01*
X164084675Y-50556160D01*
X164084677Y-50556160D01*
X164092437Y-50555344D01*
X164276463Y-50495550D01*
X164392558Y-50428523D01*
X164437278Y-50402704D01*
X164437280Y-50402703D01*
X164444036Y-50398802D01*
X164587833Y-50269327D01*
X164592418Y-50263017D01*
X164592421Y-50263013D01*
X164696978Y-50119101D01*
X164701567Y-50112785D01*
X164780269Y-49936017D01*
X164789381Y-49893152D01*
X164818876Y-49754388D01*
X164820500Y-49746748D01*
X164820500Y-49553252D01*
X164780269Y-49363983D01*
X164701567Y-49187215D01*
X164632994Y-49092832D01*
X164592421Y-49036987D01*
X164592418Y-49036983D01*
X164587833Y-49030673D01*
X164444036Y-48901198D01*
X164276463Y-48804450D01*
X164092437Y-48744656D01*
X164084677Y-48743840D01*
X164084675Y-48743840D01*
X164044288Y-48739595D01*
X163948238Y-48729500D01*
X163851762Y-48729500D01*
X163755712Y-48739595D01*
X163715325Y-48743840D01*
X163715323Y-48743840D01*
X163707563Y-48744656D01*
X163523537Y-48804450D01*
X163355964Y-48901198D01*
X163212167Y-49030673D01*
X163207582Y-49036983D01*
X163207579Y-49036987D01*
X163167006Y-49092832D01*
X163098433Y-49187215D01*
X163019731Y-49363983D01*
X162979500Y-49553252D01*
X162979500Y-49746748D01*
X152109872Y-49746748D01*
X152120500Y-49696748D01*
X152120500Y-49503252D01*
X152090897Y-49363983D01*
X152081893Y-49321622D01*
X152081892Y-49321620D01*
X152080269Y-49313983D01*
X152001567Y-49137215D01*
X151967248Y-49089979D01*
X151892421Y-48986987D01*
X151892418Y-48986983D01*
X151887833Y-48980673D01*
X151744036Y-48851198D01*
X151576463Y-48754450D01*
X151392437Y-48694656D01*
X151384677Y-48693840D01*
X151384675Y-48693840D01*
X151344288Y-48689595D01*
X151248238Y-48679500D01*
X151151762Y-48679500D01*
X151055712Y-48689595D01*
X151015325Y-48693840D01*
X151015323Y-48693840D01*
X151007563Y-48694656D01*
X150823537Y-48754450D01*
X150655964Y-48851198D01*
X150512167Y-48980673D01*
X150507582Y-48986983D01*
X150507579Y-48986987D01*
X150432752Y-49089979D01*
X150398433Y-49137215D01*
X150319731Y-49313983D01*
X150318108Y-49321620D01*
X150318107Y-49321622D01*
X150309103Y-49363983D01*
X150279500Y-49503252D01*
X150279500Y-49696748D01*
X86940050Y-49696748D01*
X86889994Y-49488250D01*
X86886389Y-49477156D01*
X86800034Y-49268676D01*
X86794733Y-49258271D01*
X86693351Y-49092832D01*
X86681734Y-49081808D01*
X86675578Y-49083632D01*
X85823081Y-49936129D01*
X85815073Y-49950000D01*
X85084927Y-49950000D01*
X85076919Y-49936129D01*
X84230769Y-49089979D01*
X84216898Y-49081971D01*
X84211338Y-49085180D01*
X84105267Y-49258271D01*
X84099966Y-49268676D01*
X84013611Y-49477156D01*
X84010006Y-49488250D01*
X83957325Y-49707680D01*
X83955501Y-49719196D01*
X83937796Y-49944168D01*
X83937796Y-49955832D01*
X80462204Y-49955832D01*
X80462204Y-49944168D01*
X80444499Y-49719196D01*
X80442675Y-49707680D01*
X80389994Y-49488250D01*
X80386389Y-49477156D01*
X80300034Y-49268676D01*
X80294733Y-49258271D01*
X80193351Y-49092832D01*
X80181734Y-49081808D01*
X80175578Y-49083632D01*
X79323081Y-49936129D01*
X79315073Y-49950000D01*
X78584927Y-49950000D01*
X78576919Y-49936129D01*
X77730769Y-49089979D01*
X77715537Y-49081185D01*
X77712207Y-49081185D01*
X77649000Y-49098121D01*
X77574500Y-49078159D01*
X77519962Y-49023621D01*
X77500000Y-48949121D01*
X77500000Y-48718266D01*
X78081808Y-48718266D01*
X78083632Y-48724422D01*
X78936129Y-49576919D01*
X78950000Y-49584927D01*
X78963871Y-49576919D01*
X79810021Y-48730769D01*
X79817239Y-48718266D01*
X84581808Y-48718266D01*
X84583632Y-48724422D01*
X85436129Y-49576919D01*
X85450000Y-49584927D01*
X85463871Y-49576919D01*
X86310021Y-48730769D01*
X86318029Y-48716898D01*
X86314820Y-48711338D01*
X86141729Y-48605267D01*
X86131324Y-48599966D01*
X85922844Y-48513611D01*
X85911750Y-48510006D01*
X85692320Y-48457325D01*
X85680804Y-48455501D01*
X85455832Y-48437796D01*
X85444168Y-48437796D01*
X85219196Y-48455501D01*
X85207680Y-48457325D01*
X84988250Y-48510006D01*
X84977156Y-48513611D01*
X84768676Y-48599966D01*
X84758271Y-48605267D01*
X84592832Y-48706649D01*
X84581808Y-48718266D01*
X79817239Y-48718266D01*
X79818029Y-48716898D01*
X79814820Y-48711338D01*
X79641729Y-48605267D01*
X79631324Y-48599966D01*
X79422844Y-48513611D01*
X79411750Y-48510006D01*
X79192320Y-48457325D01*
X79180804Y-48455501D01*
X78955832Y-48437796D01*
X78944168Y-48437796D01*
X78719196Y-48455501D01*
X78707680Y-48457325D01*
X78488250Y-48510006D01*
X78477156Y-48513611D01*
X78268676Y-48599966D01*
X78258271Y-48605267D01*
X78092832Y-48706649D01*
X78081808Y-48718266D01*
X77500000Y-48718266D01*
X77500000Y-46899000D01*
X77519962Y-46824500D01*
X77574500Y-46769962D01*
X77649000Y-46750000D01*
X165101000Y-46750000D01*
X165175500Y-46769962D01*
G37*
%TD.AperFunction*%
%TD*%
M02*
