%TF.GenerationSoftware,KiCad,Pcbnew,(6.0.1)*%
%TF.CreationDate,2022-02-14T12:00:35-05:00*%
%TF.ProjectId,interface-board,696e7465-7266-4616-9365-2d626f617264,rev?*%
%TF.SameCoordinates,Original*%
%TF.FileFunction,Legend,Top*%
%TF.FilePolarity,Positive*%
%FSLAX46Y46*%
G04 Gerber Fmt 4.6, Leading zero omitted, Abs format (unit mm)*
G04 Created by KiCad (PCBNEW (6.0.1)) date 2022-02-14 12:00:35*
%MOMM*%
%LPD*%
G01*
G04 APERTURE LIST*
%ADD10C,0.150000*%
%ADD11C,0.050000*%
%ADD12C,0.120000*%
%ADD13C,0.127000*%
%ADD14C,0.500000*%
%ADD15C,0.010000*%
%ADD16C,2.000000*%
G04 APERTURE END LIST*
D10*
%TO.C,RV1*%
X48732380Y-134580238D02*
X48256190Y-134913571D01*
X48732380Y-135151666D02*
X47732380Y-135151666D01*
X47732380Y-134770714D01*
X47780000Y-134675476D01*
X47827619Y-134627857D01*
X47922857Y-134580238D01*
X48065714Y-134580238D01*
X48160952Y-134627857D01*
X48208571Y-134675476D01*
X48256190Y-134770714D01*
X48256190Y-135151666D01*
X47732380Y-134294523D02*
X48732380Y-133961190D01*
X47732380Y-133627857D01*
X48732380Y-132770714D02*
X48732380Y-133342142D01*
X48732380Y-133056428D02*
X47732380Y-133056428D01*
X47875238Y-133151666D01*
X47970476Y-133246904D01*
X48018095Y-133342142D01*
%TO.C,RV2*%
X48732380Y-112990238D02*
X48256190Y-113323571D01*
X48732380Y-113561666D02*
X47732380Y-113561666D01*
X47732380Y-113180714D01*
X47780000Y-113085476D01*
X47827619Y-113037857D01*
X47922857Y-112990238D01*
X48065714Y-112990238D01*
X48160952Y-113037857D01*
X48208571Y-113085476D01*
X48256190Y-113180714D01*
X48256190Y-113561666D01*
X47732380Y-112704523D02*
X48732380Y-112371190D01*
X47732380Y-112037857D01*
X47827619Y-111752142D02*
X47780000Y-111704523D01*
X47732380Y-111609285D01*
X47732380Y-111371190D01*
X47780000Y-111275952D01*
X47827619Y-111228333D01*
X47922857Y-111180714D01*
X48018095Y-111180714D01*
X48160952Y-111228333D01*
X48732380Y-111799761D01*
X48732380Y-111180714D01*
%TO.C,H2*%
X39878095Y-89724380D02*
X39878095Y-88724380D01*
X39878095Y-89200571D02*
X40449523Y-89200571D01*
X40449523Y-89724380D02*
X40449523Y-88724380D01*
X40878095Y-88819619D02*
X40925714Y-88772000D01*
X41020952Y-88724380D01*
X41259047Y-88724380D01*
X41354285Y-88772000D01*
X41401904Y-88819619D01*
X41449523Y-88914857D01*
X41449523Y-89010095D01*
X41401904Y-89152952D01*
X40830476Y-89724380D01*
X41449523Y-89724380D01*
D11*
%TO.C,J1*%
X62002106Y-104753532D02*
X62002106Y-105754446D01*
X61935379Y-105954629D01*
X61801923Y-106088084D01*
X61601740Y-106154812D01*
X61468285Y-106154812D01*
X63403386Y-106154812D02*
X62602655Y-106154812D01*
X63003020Y-106154812D02*
X63003020Y-104753532D01*
X62869565Y-104953715D01*
X62736110Y-105087170D01*
X62602655Y-105153898D01*
X58000676Y-141734685D02*
X57933971Y-141801390D01*
X57733857Y-141868095D01*
X57600447Y-141868095D01*
X57400333Y-141801390D01*
X57266923Y-141667980D01*
X57200219Y-141534571D01*
X57133514Y-141267752D01*
X57133514Y-141067638D01*
X57200219Y-140800819D01*
X57266923Y-140667409D01*
X57400333Y-140534000D01*
X57600447Y-140467295D01*
X57733857Y-140467295D01*
X57933971Y-140534000D01*
X58000676Y-140600704D01*
X58801133Y-141868095D02*
X58667723Y-141801390D01*
X58601019Y-141734685D01*
X58534314Y-141601276D01*
X58534314Y-141201047D01*
X58601019Y-141067638D01*
X58667723Y-141000933D01*
X58801133Y-140934228D01*
X59001247Y-140934228D01*
X59134657Y-141000933D01*
X59201361Y-141067638D01*
X59268066Y-141201047D01*
X59268066Y-141601276D01*
X59201361Y-141734685D01*
X59134657Y-141801390D01*
X59001247Y-141868095D01*
X58801133Y-141868095D01*
X59868409Y-140934228D02*
X59868409Y-141868095D01*
X59868409Y-141067638D02*
X59935114Y-141000933D01*
X60068523Y-140934228D01*
X60268638Y-140934228D01*
X60402047Y-141000933D01*
X60468752Y-141134342D01*
X60468752Y-141868095D01*
X61135800Y-140934228D02*
X61135800Y-141868095D01*
X61135800Y-141067638D02*
X61202504Y-141000933D01*
X61335914Y-140934228D01*
X61536028Y-140934228D01*
X61669438Y-141000933D01*
X61736142Y-141134342D01*
X61736142Y-141868095D01*
X62069666Y-142001504D02*
X63136942Y-142001504D01*
X63737285Y-140467295D02*
X63870695Y-140467295D01*
X64004104Y-140534000D01*
X64070809Y-140600704D01*
X64137514Y-140734114D01*
X64204219Y-141000933D01*
X64204219Y-141334457D01*
X64137514Y-141601276D01*
X64070809Y-141734685D01*
X64004104Y-141801390D01*
X63870695Y-141868095D01*
X63737285Y-141868095D01*
X63603876Y-141801390D01*
X63537171Y-141734685D01*
X63470466Y-141601276D01*
X63403761Y-141334457D01*
X63403761Y-141000933D01*
X63470466Y-140734114D01*
X63537171Y-140600704D01*
X63603876Y-140534000D01*
X63737285Y-140467295D01*
X65538314Y-141868095D02*
X64737857Y-141868095D01*
X65138085Y-141868095D02*
X65138085Y-140467295D01*
X65004676Y-140667409D01*
X64871266Y-140800819D01*
X64737857Y-140867523D01*
X66005247Y-141868095D02*
X66739000Y-140934228D01*
X66005247Y-140934228D02*
X66739000Y-141868095D01*
X68006390Y-141868095D02*
X67205933Y-141868095D01*
X67606161Y-141868095D02*
X67606161Y-140467295D01*
X67472752Y-140667409D01*
X67339342Y-140800819D01*
X67205933Y-140867523D01*
X69207076Y-140934228D02*
X69207076Y-141868095D01*
X68873552Y-140400590D02*
X68540028Y-141401161D01*
X69407190Y-141401161D01*
D10*
%TO.C,J2*%
X107437380Y-131778333D02*
X108151666Y-131778333D01*
X108294523Y-131825952D01*
X108389761Y-131921190D01*
X108437380Y-132064047D01*
X108437380Y-132159285D01*
X107532619Y-131349761D02*
X107485000Y-131302142D01*
X107437380Y-131206904D01*
X107437380Y-130968809D01*
X107485000Y-130873571D01*
X107532619Y-130825952D01*
X107627857Y-130778333D01*
X107723095Y-130778333D01*
X107865952Y-130825952D01*
X108437380Y-131397380D01*
X108437380Y-130778333D01*
%TO.C,SW3*%
X108389761Y-94678333D02*
X108437380Y-94535476D01*
X108437380Y-94297380D01*
X108389761Y-94202142D01*
X108342142Y-94154523D01*
X108246904Y-94106904D01*
X108151666Y-94106904D01*
X108056428Y-94154523D01*
X108008809Y-94202142D01*
X107961190Y-94297380D01*
X107913571Y-94487857D01*
X107865952Y-94583095D01*
X107818333Y-94630714D01*
X107723095Y-94678333D01*
X107627857Y-94678333D01*
X107532619Y-94630714D01*
X107485000Y-94583095D01*
X107437380Y-94487857D01*
X107437380Y-94249761D01*
X107485000Y-94106904D01*
X107437380Y-93773571D02*
X108437380Y-93535476D01*
X107723095Y-93345000D01*
X108437380Y-93154523D01*
X107437380Y-92916428D01*
X107437380Y-92630714D02*
X107437380Y-92011666D01*
X107818333Y-92345000D01*
X107818333Y-92202142D01*
X107865952Y-92106904D01*
X107913571Y-92059285D01*
X108008809Y-92011666D01*
X108246904Y-92011666D01*
X108342142Y-92059285D01*
X108389761Y-92106904D01*
X108437380Y-92202142D01*
X108437380Y-92487857D01*
X108389761Y-92583095D01*
X108342142Y-92630714D01*
%TO.C,SW4*%
X108389761Y-112458333D02*
X108437380Y-112315476D01*
X108437380Y-112077380D01*
X108389761Y-111982142D01*
X108342142Y-111934523D01*
X108246904Y-111886904D01*
X108151666Y-111886904D01*
X108056428Y-111934523D01*
X108008809Y-111982142D01*
X107961190Y-112077380D01*
X107913571Y-112267857D01*
X107865952Y-112363095D01*
X107818333Y-112410714D01*
X107723095Y-112458333D01*
X107627857Y-112458333D01*
X107532619Y-112410714D01*
X107485000Y-112363095D01*
X107437380Y-112267857D01*
X107437380Y-112029761D01*
X107485000Y-111886904D01*
X107437380Y-111553571D02*
X108437380Y-111315476D01*
X107723095Y-111125000D01*
X108437380Y-110934523D01*
X107437380Y-110696428D01*
X107770714Y-109886904D02*
X108437380Y-109886904D01*
X107389761Y-110125000D02*
X108104047Y-110363095D01*
X108104047Y-109744047D01*
%TO.C,H1*%
X91186095Y-78548380D02*
X91186095Y-77548380D01*
X91186095Y-78024571D02*
X91757523Y-78024571D01*
X91757523Y-78548380D02*
X91757523Y-77548380D01*
X92757523Y-78548380D02*
X92186095Y-78548380D01*
X92471809Y-78548380D02*
X92471809Y-77548380D01*
X92376571Y-77691238D01*
X92281333Y-77786476D01*
X92186095Y-77834095D01*
D12*
%TO.C,RV1*%
X36080000Y-131235000D02*
X36080000Y-131735000D01*
X35470000Y-133985000D02*
X35470000Y-139045000D01*
X41580000Y-136235000D02*
X36080000Y-136235000D01*
X47190000Y-137625000D02*
X42690000Y-137625000D01*
X47190000Y-130345000D02*
X42690000Y-130345000D01*
X44680000Y-131485000D02*
X45280000Y-131185000D01*
X41580000Y-133735000D02*
X36080000Y-133735000D01*
X47190000Y-139045000D02*
X47190000Y-137625000D01*
X35470000Y-133985000D02*
X35470000Y-128925000D01*
X36080000Y-136235000D02*
X36080000Y-136735000D01*
X47190000Y-128925000D02*
X47190000Y-130345000D01*
X36080000Y-133735000D02*
X36080000Y-134235000D01*
X35470000Y-139045000D02*
X47190000Y-139045000D01*
X36080000Y-134235000D02*
X41580000Y-134235000D01*
X35470000Y-128925000D02*
X47190000Y-128925000D01*
X41580000Y-131735000D02*
X41580000Y-131235000D01*
X36080000Y-136735000D02*
X41580000Y-136735000D01*
X36080000Y-131735000D02*
X41580000Y-131735000D01*
X41580000Y-136735000D02*
X41580000Y-136235000D01*
X45280000Y-131785000D02*
X44680000Y-131485000D01*
X41580000Y-131235000D02*
X36080000Y-131235000D01*
X41580000Y-134235000D02*
X41580000Y-133735000D01*
X45280000Y-131185000D02*
X45280000Y-131785000D01*
%TO.C,RV2*%
X35470000Y-117455000D02*
X47190000Y-117455000D01*
X44680000Y-109895000D02*
X45280000Y-109595000D01*
X35470000Y-107335000D02*
X47190000Y-107335000D01*
X41580000Y-112645000D02*
X41580000Y-112145000D01*
X41580000Y-109645000D02*
X36080000Y-109645000D01*
X47190000Y-108755000D02*
X42690000Y-108755000D01*
X36080000Y-109645000D02*
X36080000Y-110145000D01*
X41580000Y-114645000D02*
X36080000Y-114645000D01*
X36080000Y-112645000D02*
X41580000Y-112645000D01*
X36080000Y-115145000D02*
X41580000Y-115145000D01*
X36080000Y-114645000D02*
X36080000Y-115145000D01*
X41580000Y-110145000D02*
X41580000Y-109645000D01*
X45280000Y-109595000D02*
X45280000Y-110195000D01*
X41580000Y-115145000D02*
X41580000Y-114645000D01*
X36080000Y-110145000D02*
X41580000Y-110145000D01*
X45280000Y-110195000D02*
X44680000Y-109895000D01*
X47190000Y-107335000D02*
X47190000Y-108755000D01*
X35470000Y-112395000D02*
X35470000Y-107335000D01*
X35470000Y-112395000D02*
X35470000Y-117455000D01*
X36080000Y-112145000D02*
X36080000Y-112645000D01*
X47190000Y-117455000D02*
X47190000Y-116035000D01*
X41580000Y-112145000D02*
X36080000Y-112145000D01*
X47190000Y-116035000D02*
X42690000Y-116035000D01*
D13*
%TO.C,J1*%
X54340000Y-135240000D02*
X54340000Y-111140000D01*
X63040000Y-132990000D02*
X63040000Y-113390000D01*
X92440000Y-134990000D02*
X65040000Y-134990000D01*
X99140000Y-139240000D02*
X58340000Y-139240000D01*
X103140000Y-111140000D02*
X103140000Y-135240000D01*
X65040000Y-111390000D02*
X92440000Y-111390000D01*
X58340000Y-107140000D02*
X99140000Y-107140000D01*
X94440000Y-113390000D02*
X94440000Y-132990000D01*
X92440000Y-134990000D02*
G75*
G03*
X94440000Y-132990000I1J1999999D01*
G01*
X94440000Y-113390000D02*
G75*
G03*
X92440000Y-111390000I-1999999J1D01*
G01*
X63040000Y-132990000D02*
G75*
G03*
X65040000Y-134990000I1999999J-1D01*
G01*
X58340000Y-107140000D02*
G75*
G03*
X54340000Y-111140000I0J-4000000D01*
G01*
X65040000Y-111390000D02*
G75*
G03*
X63040000Y-113390000I-1J-1999999D01*
G01*
X99140000Y-139240000D02*
G75*
G03*
X103140000Y-135240000I0J4000000D01*
G01*
X54340000Y-135240000D02*
G75*
G03*
X58340000Y-139240000I4000000J0D01*
G01*
X103140000Y-111140000D02*
G75*
G03*
X99140000Y-107140000I-4000000J0D01*
G01*
D14*
X53582000Y-119190000D02*
G75*
G03*
X53582000Y-119190000I-175000J0D01*
G01*
D12*
%TO.C,J2*%
X120185000Y-134195000D02*
X120185000Y-133695000D01*
X111585000Y-136445000D02*
X110985000Y-136745000D01*
X114685000Y-126695000D02*
X120185000Y-126695000D01*
X114685000Y-128695000D02*
X114685000Y-129195000D01*
X120795000Y-139005000D02*
X109075000Y-139005000D01*
X114685000Y-129195000D02*
X120185000Y-129195000D01*
X120795000Y-131445000D02*
X120795000Y-139005000D01*
X120185000Y-136195000D02*
X114685000Y-136195000D01*
X120185000Y-131195000D02*
X114685000Y-131195000D01*
X120795000Y-131445000D02*
X120795000Y-123885000D01*
X114685000Y-133695000D02*
X114685000Y-134195000D01*
X120185000Y-133695000D02*
X114685000Y-133695000D01*
X120185000Y-131695000D02*
X120185000Y-131195000D01*
X109075000Y-123885000D02*
X109075000Y-125305000D01*
X120185000Y-126695000D02*
X120185000Y-126195000D01*
X120795000Y-123885000D02*
X109075000Y-123885000D01*
X120185000Y-129195000D02*
X120185000Y-128695000D01*
X110985000Y-136745000D02*
X110985000Y-136145000D01*
X120185000Y-136695000D02*
X120185000Y-136195000D01*
X114685000Y-136195000D02*
X114685000Y-136695000D01*
X109075000Y-137585000D02*
X113575000Y-137585000D01*
X109075000Y-125305000D02*
X113575000Y-125305000D01*
X114685000Y-131195000D02*
X114685000Y-131695000D01*
X120185000Y-128695000D02*
X114685000Y-128695000D01*
X120185000Y-126195000D02*
X114685000Y-126195000D01*
X110985000Y-136145000D02*
X111585000Y-136445000D01*
X114685000Y-134195000D02*
X120185000Y-134195000D01*
X114685000Y-126195000D02*
X114685000Y-126695000D01*
X109075000Y-139005000D02*
X109075000Y-137585000D01*
X114685000Y-131695000D02*
X120185000Y-131695000D01*
X114685000Y-136695000D02*
X120185000Y-136695000D01*
D15*
%TO.C,G\u002A\u002A\u002A*%
X67992770Y-95197936D02*
X67992770Y-95922118D01*
X67992770Y-95922118D02*
X67992212Y-96195288D01*
X67992212Y-96195288D02*
X67989528Y-96387365D01*
X67989528Y-96387365D02*
X67983201Y-96510465D01*
X67983201Y-96510465D02*
X67971714Y-96576703D01*
X67971714Y-96576703D02*
X67953550Y-96598196D01*
X67953550Y-96598196D02*
X67927194Y-96587058D01*
X67927194Y-96587058D02*
X67911211Y-96573700D01*
X67911211Y-96573700D02*
X67862162Y-96536397D01*
X67862162Y-96536397D02*
X67744851Y-96450192D01*
X67744851Y-96450192D02*
X67566777Y-96320480D01*
X67566777Y-96320480D02*
X67335440Y-96152659D01*
X67335440Y-96152659D02*
X67058340Y-95952122D01*
X67058340Y-95952122D02*
X66742977Y-95724268D01*
X66742977Y-95724268D02*
X66396850Y-95474491D01*
X66396850Y-95474491D02*
X66027460Y-95208188D01*
X66027460Y-95208188D02*
X65642307Y-94930755D01*
X65642307Y-94930755D02*
X65248890Y-94647587D01*
X65248890Y-94647587D02*
X64854709Y-94364081D01*
X64854709Y-94364081D02*
X64467264Y-94085633D01*
X64467264Y-94085633D02*
X64094055Y-93817639D01*
X64094055Y-93817639D02*
X63742583Y-93565495D01*
X63742583Y-93565495D02*
X63420346Y-93334597D01*
X63420346Y-93334597D02*
X63134844Y-93130340D01*
X63134844Y-93130340D02*
X62893578Y-92958121D01*
X62893578Y-92958121D02*
X62704048Y-92823337D01*
X62704048Y-92823337D02*
X62573753Y-92731382D01*
X62573753Y-92731382D02*
X62510193Y-92687653D01*
X62510193Y-92687653D02*
X62508689Y-92686695D01*
X62508689Y-92686695D02*
X62533454Y-92690376D01*
X62533454Y-92690376D02*
X62637978Y-92722034D01*
X62637978Y-92722034D02*
X62814020Y-92778918D01*
X62814020Y-92778918D02*
X63053340Y-92858275D01*
X63053340Y-92858275D02*
X63347697Y-92957351D01*
X63347697Y-92957351D02*
X63688850Y-93073395D01*
X63688850Y-93073395D02*
X64068559Y-93203654D01*
X64068559Y-93203654D02*
X64427092Y-93327521D01*
X64427092Y-93327521D02*
X64838169Y-93469901D01*
X64838169Y-93469901D02*
X65221371Y-93602456D01*
X65221371Y-93602456D02*
X65567891Y-93722150D01*
X65567891Y-93722150D02*
X65868920Y-93825951D01*
X65868920Y-93825951D02*
X66115650Y-93910822D01*
X66115650Y-93910822D02*
X66299273Y-93973729D01*
X66299273Y-93973729D02*
X66410981Y-94011639D01*
X66410981Y-94011639D02*
X66442780Y-94021945D01*
X66442780Y-94021945D02*
X66446977Y-93978038D01*
X66446977Y-93978038D02*
X66450535Y-93857106D01*
X66450535Y-93857106D02*
X66453172Y-93675334D01*
X66453172Y-93675334D02*
X66454608Y-93448910D01*
X66454608Y-93448910D02*
X66454789Y-93329350D01*
X66454789Y-93329350D02*
X66454789Y-92636755D01*
X66454789Y-92636755D02*
X67631578Y-93157291D01*
X67631578Y-93157291D02*
X68003992Y-93321864D01*
X68003992Y-93321864D02*
X68406553Y-93499486D01*
X68406553Y-93499486D02*
X68813990Y-93679024D01*
X68813990Y-93679024D02*
X69201031Y-93849346D01*
X69201031Y-93849346D02*
X69542404Y-93999321D01*
X69542404Y-93999321D02*
X69705523Y-94070847D01*
X69705523Y-94070847D02*
X70602678Y-94463867D01*
X70602678Y-94463867D02*
X70602678Y-96154946D01*
X70602678Y-96154946D02*
X67992770Y-95197936D01*
X67992770Y-95197936D02*
X67992770Y-95197936D01*
G36*
X67631578Y-93157291D02*
G01*
X68003992Y-93321864D01*
X68406553Y-93499486D01*
X68813990Y-93679024D01*
X69201031Y-93849346D01*
X69542404Y-93999321D01*
X69705523Y-94070847D01*
X70602678Y-94463867D01*
X70602678Y-96154946D01*
X67992770Y-95197936D01*
X67992770Y-95922118D01*
X67992212Y-96195288D01*
X67989528Y-96387365D01*
X67983201Y-96510465D01*
X67971714Y-96576703D01*
X67953550Y-96598196D01*
X67927194Y-96587058D01*
X67911211Y-96573700D01*
X67862162Y-96536397D01*
X67744851Y-96450192D01*
X67566777Y-96320480D01*
X67335440Y-96152659D01*
X67058340Y-95952122D01*
X66742977Y-95724268D01*
X66396850Y-95474491D01*
X66027460Y-95208188D01*
X65642307Y-94930755D01*
X65248890Y-94647587D01*
X64854709Y-94364081D01*
X64467264Y-94085633D01*
X64094055Y-93817639D01*
X63742583Y-93565495D01*
X63420346Y-93334597D01*
X63134844Y-93130340D01*
X62893578Y-92958121D01*
X62704048Y-92823337D01*
X62573753Y-92731382D01*
X62510193Y-92687653D01*
X62508689Y-92686695D01*
X62533454Y-92690376D01*
X62637978Y-92722034D01*
X62814020Y-92778918D01*
X63053340Y-92858275D01*
X63347697Y-92957351D01*
X63688850Y-93073395D01*
X64068559Y-93203654D01*
X64427092Y-93327521D01*
X64838169Y-93469901D01*
X65221371Y-93602456D01*
X65567891Y-93722150D01*
X65868920Y-93825951D01*
X66115650Y-93910822D01*
X66299273Y-93973729D01*
X66410981Y-94011639D01*
X66442780Y-94021945D01*
X66446977Y-93978038D01*
X66450535Y-93857106D01*
X66453172Y-93675334D01*
X66454608Y-93448910D01*
X66454789Y-93329350D01*
X66454789Y-92636755D01*
X67631578Y-93157291D01*
G37*
X67631578Y-93157291D02*
X68003992Y-93321864D01*
X68406553Y-93499486D01*
X68813990Y-93679024D01*
X69201031Y-93849346D01*
X69542404Y-93999321D01*
X69705523Y-94070847D01*
X70602678Y-94463867D01*
X70602678Y-96154946D01*
X67992770Y-95197936D01*
X67992770Y-95922118D01*
X67992212Y-96195288D01*
X67989528Y-96387365D01*
X67983201Y-96510465D01*
X67971714Y-96576703D01*
X67953550Y-96598196D01*
X67927194Y-96587058D01*
X67911211Y-96573700D01*
X67862162Y-96536397D01*
X67744851Y-96450192D01*
X67566777Y-96320480D01*
X67335440Y-96152659D01*
X67058340Y-95952122D01*
X66742977Y-95724268D01*
X66396850Y-95474491D01*
X66027460Y-95208188D01*
X65642307Y-94930755D01*
X65248890Y-94647587D01*
X64854709Y-94364081D01*
X64467264Y-94085633D01*
X64094055Y-93817639D01*
X63742583Y-93565495D01*
X63420346Y-93334597D01*
X63134844Y-93130340D01*
X62893578Y-92958121D01*
X62704048Y-92823337D01*
X62573753Y-92731382D01*
X62510193Y-92687653D01*
X62508689Y-92686695D01*
X62533454Y-92690376D01*
X62637978Y-92722034D01*
X62814020Y-92778918D01*
X63053340Y-92858275D01*
X63347697Y-92957351D01*
X63688850Y-93073395D01*
X64068559Y-93203654D01*
X64427092Y-93327521D01*
X64838169Y-93469901D01*
X65221371Y-93602456D01*
X65567891Y-93722150D01*
X65868920Y-93825951D01*
X66115650Y-93910822D01*
X66299273Y-93973729D01*
X66410981Y-94011639D01*
X66442780Y-94021945D01*
X66446977Y-93978038D01*
X66450535Y-93857106D01*
X66453172Y-93675334D01*
X66454608Y-93448910D01*
X66454789Y-93329350D01*
X66454789Y-92636755D01*
X67631578Y-93157291D01*
X69704939Y-99929796D02*
X69040228Y-100593322D01*
X69040228Y-100593322D02*
X67831495Y-100593322D01*
X67831495Y-100593322D02*
X67422749Y-100186470D01*
X67422749Y-100186470D02*
X67014003Y-99779617D01*
X67014003Y-99779617D02*
X66150101Y-100639927D01*
X66150101Y-100639927D02*
X64337169Y-100639927D01*
X64337169Y-100639927D02*
X64090348Y-100883682D01*
X64090348Y-100883682D02*
X63843528Y-101127437D01*
X63843528Y-101127437D02*
X63307984Y-100591893D01*
X63307984Y-100591893D02*
X62772441Y-100056349D01*
X62772441Y-100056349D02*
X63297009Y-99533640D01*
X63297009Y-99533640D02*
X63821578Y-99010930D01*
X63821578Y-99010930D02*
X64334238Y-99470754D01*
X64334238Y-99470754D02*
X64940905Y-99472772D01*
X64940905Y-99472772D02*
X65547571Y-99474789D01*
X65547571Y-99474789D02*
X66058642Y-98962129D01*
X66058642Y-98962129D02*
X66569713Y-98449468D01*
X66569713Y-98449468D02*
X64284129Y-98449468D01*
X64284129Y-98449468D02*
X64054098Y-98683010D01*
X64054098Y-98683010D02*
X63824068Y-98916552D01*
X63824068Y-98916552D02*
X63298511Y-98392486D01*
X63298511Y-98392486D02*
X63120134Y-98212818D01*
X63120134Y-98212818D02*
X62967697Y-98055849D01*
X62967697Y-98055849D02*
X62852377Y-97933364D01*
X62852377Y-97933364D02*
X62785353Y-97857152D01*
X62785353Y-97857152D02*
X62772954Y-97838288D01*
X62772954Y-97838288D02*
X62804960Y-97797465D01*
X62804960Y-97797465D02*
X62893351Y-97704282D01*
X62893351Y-97704282D02*
X63026685Y-97570312D01*
X63026685Y-97570312D02*
X63193518Y-97407131D01*
X63193518Y-97407131D02*
X63306944Y-97298101D01*
X63306944Y-97298101D02*
X63840934Y-96788046D01*
X63840934Y-96788046D02*
X64085994Y-97036188D01*
X64085994Y-97036188D02*
X64331054Y-97284331D01*
X64331054Y-97284331D02*
X67177631Y-97284331D01*
X67177631Y-97284331D02*
X67177631Y-98356257D01*
X67177631Y-98356257D02*
X67771623Y-98950249D01*
X67771623Y-98950249D02*
X68365614Y-99544241D01*
X68365614Y-99544241D02*
X69553598Y-98356257D01*
X69553598Y-98356257D02*
X67177631Y-98356257D01*
X67177631Y-98356257D02*
X67177631Y-97284331D01*
X67177631Y-97284331D02*
X68898875Y-97284331D01*
X68898875Y-97284331D02*
X69168502Y-97017517D01*
X69168502Y-97017517D02*
X69438130Y-96750703D01*
X69438130Y-96750703D02*
X69903890Y-97214716D01*
X69903890Y-97214716D02*
X70369651Y-97678729D01*
X70369651Y-97678729D02*
X70369651Y-99266270D01*
X70369651Y-99266270D02*
X69704939Y-99929796D01*
X69704939Y-99929796D02*
X69704939Y-99929796D01*
G36*
X69168502Y-97017517D02*
G01*
X69438130Y-96750703D01*
X69903890Y-97214716D01*
X70369651Y-97678729D01*
X70369651Y-99266270D01*
X69704939Y-99929796D01*
X69040228Y-100593322D01*
X67831495Y-100593322D01*
X67422749Y-100186470D01*
X67014003Y-99779617D01*
X66150101Y-100639927D01*
X64337169Y-100639927D01*
X64090348Y-100883682D01*
X63843528Y-101127437D01*
X63307984Y-100591893D01*
X62772441Y-100056349D01*
X63297009Y-99533640D01*
X63821578Y-99010930D01*
X64334238Y-99470754D01*
X64940905Y-99472772D01*
X65547571Y-99474789D01*
X66058642Y-98962129D01*
X66569713Y-98449468D01*
X64284129Y-98449468D01*
X64054098Y-98683010D01*
X63824068Y-98916552D01*
X63298511Y-98392486D01*
X63262542Y-98356257D01*
X67177631Y-98356257D01*
X67771623Y-98950249D01*
X68365614Y-99544241D01*
X69553598Y-98356257D01*
X67177631Y-98356257D01*
X63262542Y-98356257D01*
X63120134Y-98212818D01*
X62967697Y-98055849D01*
X62852377Y-97933364D01*
X62785353Y-97857152D01*
X62772954Y-97838288D01*
X62804960Y-97797465D01*
X62893351Y-97704282D01*
X63026685Y-97570312D01*
X63193518Y-97407131D01*
X63306944Y-97298101D01*
X63840934Y-96788046D01*
X64085994Y-97036188D01*
X64331054Y-97284331D01*
X68898875Y-97284331D01*
X69168502Y-97017517D01*
G37*
X69168502Y-97017517D02*
X69438130Y-96750703D01*
X69903890Y-97214716D01*
X70369651Y-97678729D01*
X70369651Y-99266270D01*
X69704939Y-99929796D01*
X69040228Y-100593322D01*
X67831495Y-100593322D01*
X67422749Y-100186470D01*
X67014003Y-99779617D01*
X66150101Y-100639927D01*
X64337169Y-100639927D01*
X64090348Y-100883682D01*
X63843528Y-101127437D01*
X63307984Y-100591893D01*
X62772441Y-100056349D01*
X63297009Y-99533640D01*
X63821578Y-99010930D01*
X64334238Y-99470754D01*
X64940905Y-99472772D01*
X65547571Y-99474789D01*
X66058642Y-98962129D01*
X66569713Y-98449468D01*
X64284129Y-98449468D01*
X64054098Y-98683010D01*
X63824068Y-98916552D01*
X63298511Y-98392486D01*
X63262542Y-98356257D01*
X67177631Y-98356257D01*
X67771623Y-98950249D01*
X68365614Y-99544241D01*
X69553598Y-98356257D01*
X67177631Y-98356257D01*
X63262542Y-98356257D01*
X63120134Y-98212818D01*
X62967697Y-98055849D01*
X62852377Y-97933364D01*
X62785353Y-97857152D01*
X62772954Y-97838288D01*
X62804960Y-97797465D01*
X62893351Y-97704282D01*
X63026685Y-97570312D01*
X63193518Y-97407131D01*
X63306944Y-97298101D01*
X63840934Y-96788046D01*
X64085994Y-97036188D01*
X64331054Y-97284331D01*
X68898875Y-97284331D01*
X69168502Y-97017517D01*
X69497719Y-91654784D02*
X68645697Y-92505873D01*
X68645697Y-92505873D02*
X67759425Y-91623287D01*
X67759425Y-91623287D02*
X69040145Y-90340111D01*
X69040145Y-90340111D02*
X67103368Y-90340111D01*
X67103368Y-90340111D02*
X67130568Y-92109983D01*
X67130568Y-92109983D02*
X66559651Y-91540333D01*
X66559651Y-91540333D02*
X65988734Y-90970684D01*
X65988734Y-90970684D02*
X65988734Y-90340111D01*
X65988734Y-90340111D02*
X64641918Y-90340111D01*
X64641918Y-90340111D02*
X64515208Y-90506235D01*
X64515208Y-90506235D02*
X64388499Y-90672359D01*
X64388499Y-90672359D02*
X64862138Y-91147616D01*
X64862138Y-91147616D02*
X65335776Y-91622872D01*
X65335776Y-91622872D02*
X64494888Y-92463760D01*
X64494888Y-92463760D02*
X63633921Y-91598448D01*
X63633921Y-91598448D02*
X63403439Y-91365987D01*
X63403439Y-91365987D02*
X63196245Y-91155450D01*
X63196245Y-91155450D02*
X63020975Y-90975740D01*
X63020975Y-90975740D02*
X62886268Y-90835760D01*
X62886268Y-90835760D02*
X62800758Y-90744415D01*
X62800758Y-90744415D02*
X62772954Y-90710864D01*
X62772954Y-90710864D02*
X62804497Y-90673018D01*
X62804497Y-90673018D02*
X62892956Y-90579037D01*
X62892956Y-90579037D02*
X63029076Y-90438438D01*
X63029076Y-90438438D02*
X63203602Y-90260734D01*
X63203602Y-90260734D02*
X63407278Y-90055440D01*
X63407278Y-90055440D02*
X63530808Y-89931783D01*
X63530808Y-89931783D02*
X64288661Y-89174973D01*
X64288661Y-89174973D02*
X68711875Y-89174973D01*
X68711875Y-89174973D02*
X69530808Y-89989334D01*
X69530808Y-89989334D02*
X70349742Y-90803695D01*
X70349742Y-90803695D02*
X69497719Y-91654784D01*
X69497719Y-91654784D02*
X69497719Y-91654784D01*
G36*
X69530808Y-89989334D02*
G01*
X70349742Y-90803695D01*
X69497719Y-91654784D01*
X68645697Y-92505873D01*
X67759425Y-91623287D01*
X69040145Y-90340111D01*
X67103368Y-90340111D01*
X67130568Y-92109983D01*
X66559651Y-91540333D01*
X65988734Y-90970684D01*
X65988734Y-90340111D01*
X64641918Y-90340111D01*
X64515208Y-90506235D01*
X64388499Y-90672359D01*
X64862138Y-91147616D01*
X65335776Y-91622872D01*
X64494888Y-92463760D01*
X63633921Y-91598448D01*
X63403439Y-91365987D01*
X63196245Y-91155450D01*
X63020975Y-90975740D01*
X62886268Y-90835760D01*
X62800758Y-90744415D01*
X62772954Y-90710864D01*
X62804497Y-90673018D01*
X62892956Y-90579037D01*
X63029076Y-90438438D01*
X63203602Y-90260734D01*
X63407278Y-90055440D01*
X63530808Y-89931783D01*
X64288661Y-89174973D01*
X68711875Y-89174973D01*
X69530808Y-89989334D01*
G37*
X69530808Y-89989334D02*
X70349742Y-90803695D01*
X69497719Y-91654784D01*
X68645697Y-92505873D01*
X67759425Y-91623287D01*
X69040145Y-90340111D01*
X67103368Y-90340111D01*
X67130568Y-92109983D01*
X66559651Y-91540333D01*
X65988734Y-90970684D01*
X65988734Y-90340111D01*
X64641918Y-90340111D01*
X64515208Y-90506235D01*
X64388499Y-90672359D01*
X64862138Y-91147616D01*
X65335776Y-91622872D01*
X64494888Y-92463760D01*
X63633921Y-91598448D01*
X63403439Y-91365987D01*
X63196245Y-91155450D01*
X63020975Y-90975740D01*
X62886268Y-90835760D01*
X62800758Y-90744415D01*
X62772954Y-90710864D01*
X62804497Y-90673018D01*
X62892956Y-90579037D01*
X63029076Y-90438438D01*
X63203602Y-90260734D01*
X63407278Y-90055440D01*
X63530808Y-89931783D01*
X64288661Y-89174973D01*
X68711875Y-89174973D01*
X69530808Y-89989334D01*
X68760790Y-88336074D02*
X64337169Y-88336074D01*
X64337169Y-88336074D02*
X64090348Y-88579829D01*
X64090348Y-88579829D02*
X63843528Y-88823583D01*
X63843528Y-88823583D02*
X63307984Y-88288040D01*
X63307984Y-88288040D02*
X62772441Y-87752496D01*
X62772441Y-87752496D02*
X63308241Y-87218215D01*
X63308241Y-87218215D02*
X63844042Y-86683935D01*
X63844042Y-86683935D02*
X64090606Y-86927436D01*
X64090606Y-86927436D02*
X64337169Y-87170936D01*
X64337169Y-87170936D02*
X65289651Y-87170936D01*
X65289651Y-87170936D02*
X65289651Y-86145615D01*
X65289651Y-86145615D02*
X64337169Y-86145615D01*
X64337169Y-86145615D02*
X64090348Y-86389370D01*
X64090348Y-86389370D02*
X63843528Y-86633125D01*
X63843528Y-86633125D02*
X63307984Y-86097581D01*
X63307984Y-86097581D02*
X62772441Y-85562037D01*
X62772441Y-85562037D02*
X63308241Y-85027757D01*
X63308241Y-85027757D02*
X63844042Y-84493477D01*
X63844042Y-84493477D02*
X64090606Y-84736977D01*
X64090606Y-84736977D02*
X64337169Y-84980478D01*
X64337169Y-84980478D02*
X66501394Y-84980478D01*
X66501394Y-84980478D02*
X66501394Y-86145615D01*
X66501394Y-86145615D02*
X66501394Y-87170936D01*
X66501394Y-87170936D02*
X68018663Y-87170936D01*
X68018663Y-87170936D02*
X68553331Y-86660637D01*
X68553331Y-86660637D02*
X69088000Y-86150338D01*
X69088000Y-86150338D02*
X67794697Y-86147977D01*
X67794697Y-86147977D02*
X66501394Y-86145615D01*
X66501394Y-86145615D02*
X66501394Y-84980478D01*
X66501394Y-84980478D02*
X68622865Y-84980478D01*
X68622865Y-84980478D02*
X69496283Y-85854805D01*
X69496283Y-85854805D02*
X70369702Y-86729132D01*
X70369702Y-86729132D02*
X68760790Y-88336074D01*
X68760790Y-88336074D02*
X68760790Y-88336074D01*
G36*
X69496283Y-85854805D02*
G01*
X70369702Y-86729132D01*
X68760790Y-88336074D01*
X64337169Y-88336074D01*
X64090348Y-88579829D01*
X63843528Y-88823583D01*
X63307984Y-88288040D01*
X62772441Y-87752496D01*
X63308241Y-87218215D01*
X63844042Y-86683935D01*
X64090606Y-86927436D01*
X64337169Y-87170936D01*
X65289651Y-87170936D01*
X65289651Y-86145615D01*
X66501394Y-86145615D01*
X66501394Y-87170936D01*
X68018663Y-87170936D01*
X68553331Y-86660637D01*
X69088000Y-86150338D01*
X67794697Y-86147977D01*
X66501394Y-86145615D01*
X65289651Y-86145615D01*
X64337169Y-86145615D01*
X64090348Y-86389370D01*
X63843528Y-86633125D01*
X63307984Y-86097581D01*
X62772441Y-85562037D01*
X63308241Y-85027757D01*
X63844042Y-84493477D01*
X64090606Y-84736977D01*
X64337169Y-84980478D01*
X68622865Y-84980478D01*
X69496283Y-85854805D01*
G37*
X69496283Y-85854805D02*
X70369702Y-86729132D01*
X68760790Y-88336074D01*
X64337169Y-88336074D01*
X64090348Y-88579829D01*
X63843528Y-88823583D01*
X63307984Y-88288040D01*
X62772441Y-87752496D01*
X63308241Y-87218215D01*
X63844042Y-86683935D01*
X64090606Y-86927436D01*
X64337169Y-87170936D01*
X65289651Y-87170936D01*
X65289651Y-86145615D01*
X66501394Y-86145615D01*
X66501394Y-87170936D01*
X68018663Y-87170936D01*
X68553331Y-86660637D01*
X69088000Y-86150338D01*
X67794697Y-86147977D01*
X66501394Y-86145615D01*
X65289651Y-86145615D01*
X64337169Y-86145615D01*
X64090348Y-86389370D01*
X63843528Y-86633125D01*
X63307984Y-86097581D01*
X62772441Y-85562037D01*
X63308241Y-85027757D01*
X63844042Y-84493477D01*
X64090606Y-84736977D01*
X64337169Y-84980478D01*
X68622865Y-84980478D01*
X69496283Y-85854805D01*
X68716127Y-104508184D02*
X64519740Y-104508184D01*
X64519740Y-104508184D02*
X63646314Y-103633849D01*
X63646314Y-103633849D02*
X62772888Y-102759515D01*
X62772888Y-102759515D02*
X63554063Y-101979354D01*
X63554063Y-101979354D02*
X64335237Y-101199193D01*
X64335237Y-101199193D02*
X64711520Y-101199193D01*
X64711520Y-101199193D02*
X64711520Y-102364331D01*
X64711520Y-102364331D02*
X64557156Y-102513946D01*
X64557156Y-102513946D02*
X64402791Y-102663562D01*
X64402791Y-102663562D02*
X64716806Y-102980001D01*
X64716806Y-102980001D02*
X65030821Y-103296441D01*
X65030821Y-103296441D02*
X68157638Y-103296441D01*
X68157638Y-103296441D02*
X68621945Y-102830386D01*
X68621945Y-102830386D02*
X69086251Y-102364331D01*
X69086251Y-102364331D02*
X64711520Y-102364331D01*
X64711520Y-102364331D02*
X64711520Y-101199193D01*
X64711520Y-101199193D02*
X68762760Y-101199193D01*
X68762760Y-101199193D02*
X69577364Y-102014796D01*
X69577364Y-102014796D02*
X70391969Y-102830400D01*
X70391969Y-102830400D02*
X68716127Y-104508184D01*
X68716127Y-104508184D02*
X68716127Y-104508184D01*
G36*
X69577364Y-102014796D02*
G01*
X70391969Y-102830400D01*
X68716127Y-104508184D01*
X64519740Y-104508184D01*
X63646314Y-103633849D01*
X62772888Y-102759515D01*
X62868966Y-102663562D01*
X64402791Y-102663562D01*
X64716806Y-102980001D01*
X65030821Y-103296441D01*
X68157638Y-103296441D01*
X68621945Y-102830386D01*
X69086251Y-102364331D01*
X64711520Y-102364331D01*
X64557156Y-102513946D01*
X64402791Y-102663562D01*
X62868966Y-102663562D01*
X63554063Y-101979354D01*
X64335237Y-101199193D01*
X68762760Y-101199193D01*
X69577364Y-102014796D01*
G37*
X69577364Y-102014796D02*
X70391969Y-102830400D01*
X68716127Y-104508184D01*
X64519740Y-104508184D01*
X63646314Y-103633849D01*
X62772888Y-102759515D01*
X62868966Y-102663562D01*
X64402791Y-102663562D01*
X64716806Y-102980001D01*
X65030821Y-103296441D01*
X68157638Y-103296441D01*
X68621945Y-102830386D01*
X69086251Y-102364331D01*
X64711520Y-102364331D01*
X64557156Y-102513946D01*
X64402791Y-102663562D01*
X62868966Y-102663562D01*
X63554063Y-101979354D01*
X64335237Y-101199193D01*
X68762760Y-101199193D01*
X69577364Y-102014796D01*
D12*
%TO.C,SW3*%
X120185000Y-92345000D02*
X120185000Y-91845000D01*
X114685000Y-89345000D02*
X114685000Y-89845000D01*
X114685000Y-96845000D02*
X114685000Y-97345000D01*
X114685000Y-91845000D02*
X114685000Y-92345000D01*
X120795000Y-99655000D02*
X109075000Y-99655000D01*
X110985000Y-97395000D02*
X110985000Y-96795000D01*
X120795000Y-87035000D02*
X109075000Y-87035000D01*
X120185000Y-89345000D02*
X114685000Y-89345000D01*
X109075000Y-98235000D02*
X113575000Y-98235000D01*
X109075000Y-87035000D02*
X109075000Y-88455000D01*
X114685000Y-94845000D02*
X120185000Y-94845000D01*
X110985000Y-96795000D02*
X111585000Y-97095000D01*
X120185000Y-91845000D02*
X114685000Y-91845000D01*
X120185000Y-97345000D02*
X120185000Y-96845000D01*
X109075000Y-88455000D02*
X113575000Y-88455000D01*
X109075000Y-99655000D02*
X109075000Y-98235000D01*
X114685000Y-92345000D02*
X120185000Y-92345000D01*
X114685000Y-94345000D02*
X114685000Y-94845000D01*
X120185000Y-94345000D02*
X114685000Y-94345000D01*
X120185000Y-94845000D02*
X120185000Y-94345000D01*
X111585000Y-97095000D02*
X110985000Y-97395000D01*
X114685000Y-89845000D02*
X120185000Y-89845000D01*
X114685000Y-97345000D02*
X120185000Y-97345000D01*
X120185000Y-89845000D02*
X120185000Y-89345000D01*
X120185000Y-96845000D02*
X114685000Y-96845000D01*
X120795000Y-93345000D02*
X120795000Y-87035000D01*
X120795000Y-93345000D02*
X120795000Y-99655000D01*
%TO.C,SW4*%
X120185000Y-112625000D02*
X120185000Y-112125000D01*
X109075000Y-113515000D02*
X113575000Y-113515000D01*
X120795000Y-111125000D02*
X120795000Y-114935000D01*
X120185000Y-112125000D02*
X114685000Y-112125000D01*
X120795000Y-111125000D02*
X120795000Y-107315000D01*
X114685000Y-109625000D02*
X114685000Y-110125000D01*
X120795000Y-114935000D02*
X109075000Y-114935000D01*
X109075000Y-107315000D02*
X109075000Y-108735000D01*
X110985000Y-112675000D02*
X110985000Y-112075000D01*
X120185000Y-109625000D02*
X114685000Y-109625000D01*
X114685000Y-112625000D02*
X120185000Y-112625000D01*
X111585000Y-112375000D02*
X110985000Y-112675000D01*
X114685000Y-110125000D02*
X120185000Y-110125000D01*
X120185000Y-110125000D02*
X120185000Y-109625000D01*
X110985000Y-112075000D02*
X111585000Y-112375000D01*
X114685000Y-112125000D02*
X114685000Y-112625000D01*
X109075000Y-108735000D02*
X113575000Y-108735000D01*
X120795000Y-107315000D02*
X109075000Y-107315000D01*
X109075000Y-114935000D02*
X109075000Y-113515000D01*
%TD*%
D16*
%TO.C,J1*%
X61040000Y-112390000D03*
X59540000Y-130490000D03*
X97940000Y-130490000D03*
X96440000Y-112390000D03*
%TD*%
M02*
