%TF.GenerationSoftware,KiCad,Pcbnew,(6.0.1-0)*%
%TF.CreationDate,2022-04-07T08:57:16-04:00*%
%TF.ProjectId,interface-board,696e7465-7266-4616-9365-2d626f617264,rev?*%
%TF.SameCoordinates,Original*%
%TF.FileFunction,Legend,Top*%
%TF.FilePolarity,Positive*%
%FSLAX46Y46*%
G04 Gerber Fmt 4.6, Leading zero omitted, Abs format (unit mm)*
G04 Created by KiCad (PCBNEW (6.0.1-0)) date 2022-04-07 08:57:16*
%MOMM*%
%LPD*%
G01*
G04 APERTURE LIST*
%ADD10C,0.150000*%
%ADD11C,0.120000*%
%ADD12C,0.100000*%
%ADD13C,0.010000*%
G04 APERTURE END LIST*
D10*
X146607142Y-75328214D02*
X146535714Y-75399642D01*
X146321428Y-75471071D01*
X146178571Y-75471071D01*
X145964285Y-75399642D01*
X145821428Y-75256785D01*
X145750000Y-75113928D01*
X145678571Y-74828214D01*
X145678571Y-74613928D01*
X145750000Y-74328214D01*
X145821428Y-74185357D01*
X145964285Y-74042500D01*
X146178571Y-73971071D01*
X146321428Y-73971071D01*
X146535714Y-74042500D01*
X146607142Y-74113928D01*
X147250000Y-75328214D02*
X147321428Y-75399642D01*
X147250000Y-75471071D01*
X147178571Y-75399642D01*
X147250000Y-75328214D01*
X147250000Y-75471071D01*
X148750000Y-74042500D02*
X148607142Y-73971071D01*
X148392857Y-73971071D01*
X148178571Y-74042500D01*
X148035714Y-74185357D01*
X147964285Y-74328214D01*
X147892857Y-74613928D01*
X147892857Y-74828214D01*
X147964285Y-75113928D01*
X148035714Y-75256785D01*
X148178571Y-75399642D01*
X148392857Y-75471071D01*
X148535714Y-75471071D01*
X148750000Y-75399642D01*
X148821428Y-75328214D01*
X148821428Y-74828214D01*
X148535714Y-74828214D01*
X149464285Y-75471071D02*
X149464285Y-74471071D01*
X149464285Y-74756785D02*
X149535714Y-74613928D01*
X149607142Y-74542500D01*
X149750000Y-74471071D01*
X149892857Y-74471071D01*
X151035714Y-74471071D02*
X151035714Y-75471071D01*
X150392857Y-74471071D02*
X150392857Y-75256785D01*
X150464285Y-75399642D01*
X150607142Y-75471071D01*
X150821428Y-75471071D01*
X150964285Y-75399642D01*
X151035714Y-75328214D01*
X151750000Y-74471071D02*
X151750000Y-75471071D01*
X151750000Y-74613928D02*
X151821428Y-74542500D01*
X151964285Y-74471071D01*
X152178571Y-74471071D01*
X152321428Y-74542500D01*
X152392857Y-74685357D01*
X152392857Y-75471071D01*
X153750000Y-75471071D02*
X153750000Y-73971071D01*
X153750000Y-75399642D02*
X153607142Y-75471071D01*
X153321428Y-75471071D01*
X153178571Y-75399642D01*
X153107142Y-75328214D01*
X153035714Y-75185357D01*
X153035714Y-74756785D01*
X153107142Y-74613928D01*
X153178571Y-74542500D01*
X153321428Y-74471071D01*
X153607142Y-74471071D01*
X153750000Y-74542500D01*
X145535714Y-77886071D02*
X145821428Y-77886071D01*
X145964285Y-77814642D01*
X146035714Y-77743214D01*
X146178571Y-77528928D01*
X146250000Y-77243214D01*
X146250000Y-76671785D01*
X146178571Y-76528928D01*
X146107142Y-76457500D01*
X145964285Y-76386071D01*
X145678571Y-76386071D01*
X145535714Y-76457500D01*
X145464285Y-76528928D01*
X145392857Y-76671785D01*
X145392857Y-77028928D01*
X145464285Y-77171785D01*
X145535714Y-77243214D01*
X145678571Y-77314642D01*
X145964285Y-77314642D01*
X146107142Y-77243214D01*
X146178571Y-77171785D01*
X146250000Y-77028928D01*
X147535714Y-76386071D02*
X147250000Y-76386071D01*
X147107142Y-76457500D01*
X147035714Y-76528928D01*
X146892857Y-76743214D01*
X146821428Y-77028928D01*
X146821428Y-77600357D01*
X146892857Y-77743214D01*
X146964285Y-77814642D01*
X147107142Y-77886071D01*
X147392857Y-77886071D01*
X147535714Y-77814642D01*
X147607142Y-77743214D01*
X147678571Y-77600357D01*
X147678571Y-77243214D01*
X147607142Y-77100357D01*
X147535714Y-77028928D01*
X147392857Y-76957500D01*
X147107142Y-76957500D01*
X146964285Y-77028928D01*
X146892857Y-77100357D01*
X146821428Y-77243214D01*
X148321428Y-77743214D02*
X148392857Y-77814642D01*
X148321428Y-77886071D01*
X148250000Y-77814642D01*
X148321428Y-77743214D01*
X148321428Y-77886071D01*
X148964285Y-76528928D02*
X149035714Y-76457500D01*
X149178571Y-76386071D01*
X149535714Y-76386071D01*
X149678571Y-76457500D01*
X149750000Y-76528928D01*
X149821428Y-76671785D01*
X149821428Y-76814642D01*
X149750000Y-77028928D01*
X148892857Y-77886071D01*
X149821428Y-77886071D01*
X150750000Y-76386071D02*
X150892857Y-76386071D01*
X151035714Y-76457500D01*
X151107142Y-76528928D01*
X151178571Y-76671785D01*
X151250000Y-76957500D01*
X151250000Y-77314642D01*
X151178571Y-77600357D01*
X151107142Y-77743214D01*
X151035714Y-77814642D01*
X150892857Y-77886071D01*
X150750000Y-77886071D01*
X150607142Y-77814642D01*
X150535714Y-77743214D01*
X150464285Y-77600357D01*
X150392857Y-77314642D01*
X150392857Y-76957500D01*
X150464285Y-76671785D01*
X150535714Y-76528928D01*
X150607142Y-76457500D01*
X150750000Y-76386071D01*
X151821428Y-76528928D02*
X151892857Y-76457500D01*
X152035714Y-76386071D01*
X152392857Y-76386071D01*
X152535714Y-76457500D01*
X152607142Y-76528928D01*
X152678571Y-76671785D01*
X152678571Y-76814642D01*
X152607142Y-77028928D01*
X151750000Y-77886071D01*
X152678571Y-77886071D01*
X153250000Y-76528928D02*
X153321428Y-76457500D01*
X153464285Y-76386071D01*
X153821428Y-76386071D01*
X153964285Y-76457500D01*
X154035714Y-76528928D01*
X154107142Y-76671785D01*
X154107142Y-76814642D01*
X154035714Y-77028928D01*
X153178571Y-77886071D01*
X154107142Y-77886071D01*
%TO.C,RV1*%
X131904761Y-47452380D02*
X131571428Y-46976190D01*
X131333333Y-47452380D02*
X131333333Y-46452380D01*
X131714285Y-46452380D01*
X131809523Y-46500000D01*
X131857142Y-46547619D01*
X131904761Y-46642857D01*
X131904761Y-46785714D01*
X131857142Y-46880952D01*
X131809523Y-46928571D01*
X131714285Y-46976190D01*
X131333333Y-46976190D01*
X132190476Y-46452380D02*
X132523809Y-47452380D01*
X132857142Y-46452380D01*
X133714285Y-47452380D02*
X133142857Y-47452380D01*
X133428571Y-47452380D02*
X133428571Y-46452380D01*
X133333333Y-46595238D01*
X133238095Y-46690476D01*
X133142857Y-46738095D01*
%TO.C,J3*%
X138916666Y-72752380D02*
X138916666Y-73466666D01*
X138869047Y-73609523D01*
X138773809Y-73704761D01*
X138630952Y-73752380D01*
X138535714Y-73752380D01*
X139297619Y-72752380D02*
X139916666Y-72752380D01*
X139583333Y-73133333D01*
X139726190Y-73133333D01*
X139821428Y-73180952D01*
X139869047Y-73228571D01*
X139916666Y-73323809D01*
X139916666Y-73561904D01*
X139869047Y-73657142D01*
X139821428Y-73704761D01*
X139726190Y-73752380D01*
X139440476Y-73752380D01*
X139345238Y-73704761D01*
X139297619Y-73657142D01*
%TO.C,SW3*%
X156216666Y-47954761D02*
X156359523Y-48002380D01*
X156597619Y-48002380D01*
X156692857Y-47954761D01*
X156740476Y-47907142D01*
X156788095Y-47811904D01*
X156788095Y-47716666D01*
X156740476Y-47621428D01*
X156692857Y-47573809D01*
X156597619Y-47526190D01*
X156407142Y-47478571D01*
X156311904Y-47430952D01*
X156264285Y-47383333D01*
X156216666Y-47288095D01*
X156216666Y-47192857D01*
X156264285Y-47097619D01*
X156311904Y-47050000D01*
X156407142Y-47002380D01*
X156645238Y-47002380D01*
X156788095Y-47050000D01*
X157121428Y-47002380D02*
X157359523Y-48002380D01*
X157550000Y-47288095D01*
X157740476Y-48002380D01*
X157978571Y-47002380D01*
X158264285Y-47002380D02*
X158883333Y-47002380D01*
X158550000Y-47383333D01*
X158692857Y-47383333D01*
X158788095Y-47430952D01*
X158835714Y-47478571D01*
X158883333Y-47573809D01*
X158883333Y-47811904D01*
X158835714Y-47907142D01*
X158788095Y-47954761D01*
X158692857Y-48002380D01*
X158407142Y-48002380D01*
X158311904Y-47954761D01*
X158264285Y-47907142D01*
%TO.C,J1*%
X109666666Y-72502380D02*
X109666666Y-73216666D01*
X109619047Y-73359523D01*
X109523809Y-73454761D01*
X109380952Y-73502380D01*
X109285714Y-73502380D01*
X110666666Y-73502380D02*
X110095238Y-73502380D01*
X110380952Y-73502380D02*
X110380952Y-72502380D01*
X110285714Y-72645238D01*
X110190476Y-72740476D01*
X110095238Y-72788095D01*
%TO.C,SW4*%
X80866666Y-56854761D02*
X81009523Y-56902380D01*
X81247619Y-56902380D01*
X81342857Y-56854761D01*
X81390476Y-56807142D01*
X81438095Y-56711904D01*
X81438095Y-56616666D01*
X81390476Y-56521428D01*
X81342857Y-56473809D01*
X81247619Y-56426190D01*
X81057142Y-56378571D01*
X80961904Y-56330952D01*
X80914285Y-56283333D01*
X80866666Y-56188095D01*
X80866666Y-56092857D01*
X80914285Y-55997619D01*
X80961904Y-55950000D01*
X81057142Y-55902380D01*
X81295238Y-55902380D01*
X81438095Y-55950000D01*
X81771428Y-55902380D02*
X82009523Y-56902380D01*
X82200000Y-56188095D01*
X82390476Y-56902380D01*
X82628571Y-55902380D01*
X83438095Y-56235714D02*
X83438095Y-56902380D01*
X83200000Y-55854761D02*
X82961904Y-56569047D01*
X83580952Y-56569047D01*
%TO.C,J2*%
X84166666Y-72502380D02*
X84166666Y-73216666D01*
X84119047Y-73359523D01*
X84023809Y-73454761D01*
X83880952Y-73502380D01*
X83785714Y-73502380D01*
X84595238Y-72597619D02*
X84642857Y-72550000D01*
X84738095Y-72502380D01*
X84976190Y-72502380D01*
X85071428Y-72550000D01*
X85119047Y-72597619D01*
X85166666Y-72692857D01*
X85166666Y-72788095D01*
X85119047Y-72930952D01*
X84547619Y-73502380D01*
X85166666Y-73502380D01*
%TO.C,D2*%
X80886904Y-62632380D02*
X80886904Y-61632380D01*
X81125000Y-61632380D01*
X81267857Y-61680000D01*
X81363095Y-61775238D01*
X81410714Y-61870476D01*
X81458333Y-62060952D01*
X81458333Y-62203809D01*
X81410714Y-62394285D01*
X81363095Y-62489523D01*
X81267857Y-62584761D01*
X81125000Y-62632380D01*
X80886904Y-62632380D01*
X81839285Y-61727619D02*
X81886904Y-61680000D01*
X81982142Y-61632380D01*
X82220238Y-61632380D01*
X82315476Y-61680000D01*
X82363095Y-61727619D01*
X82410714Y-61822857D01*
X82410714Y-61918095D01*
X82363095Y-62060952D01*
X81791666Y-62632380D01*
X82410714Y-62632380D01*
%TO.C,SW1*%
X89605133Y-56097939D02*
X89652752Y-55955082D01*
X89652752Y-55716986D01*
X89605133Y-55621748D01*
X89557514Y-55574129D01*
X89462276Y-55526510D01*
X89367038Y-55526510D01*
X89271800Y-55574129D01*
X89224181Y-55621748D01*
X89176562Y-55716986D01*
X89128943Y-55907463D01*
X89081324Y-56002701D01*
X89033705Y-56050320D01*
X88938467Y-56097939D01*
X88843229Y-56097939D01*
X88747991Y-56050320D01*
X88700372Y-56002701D01*
X88652752Y-55907463D01*
X88652752Y-55669367D01*
X88700372Y-55526510D01*
X88652752Y-55193177D02*
X89652752Y-54955082D01*
X88938467Y-54764606D01*
X89652752Y-54574129D01*
X88652752Y-54336034D01*
X89652752Y-53431272D02*
X89652752Y-54002701D01*
X89652752Y-53716986D02*
X88652752Y-53716986D01*
X88795610Y-53812225D01*
X88890848Y-53907463D01*
X88938467Y-54002701D01*
%TO.C,RV2*%
X112404761Y-47452380D02*
X112071428Y-46976190D01*
X111833333Y-47452380D02*
X111833333Y-46452380D01*
X112214285Y-46452380D01*
X112309523Y-46500000D01*
X112357142Y-46547619D01*
X112404761Y-46642857D01*
X112404761Y-46785714D01*
X112357142Y-46880952D01*
X112309523Y-46928571D01*
X112214285Y-46976190D01*
X111833333Y-46976190D01*
X112690476Y-46452380D02*
X113023809Y-47452380D01*
X113357142Y-46452380D01*
X113642857Y-46547619D02*
X113690476Y-46500000D01*
X113785714Y-46452380D01*
X114023809Y-46452380D01*
X114119047Y-46500000D01*
X114166666Y-46547619D01*
X114214285Y-46642857D01*
X114214285Y-46738095D01*
X114166666Y-46880952D01*
X113595238Y-47452380D01*
X114214285Y-47452380D01*
%TO.C,SW2*%
X90005133Y-71097939D02*
X90052752Y-70955082D01*
X90052752Y-70716986D01*
X90005133Y-70621748D01*
X89957514Y-70574129D01*
X89862276Y-70526510D01*
X89767038Y-70526510D01*
X89671800Y-70574129D01*
X89624181Y-70621748D01*
X89576562Y-70716986D01*
X89528943Y-70907463D01*
X89481324Y-71002701D01*
X89433705Y-71050320D01*
X89338467Y-71097939D01*
X89243229Y-71097939D01*
X89147991Y-71050320D01*
X89100372Y-71002701D01*
X89052752Y-70907463D01*
X89052752Y-70669367D01*
X89100372Y-70526510D01*
X89052752Y-70193177D02*
X90052752Y-69955082D01*
X89338467Y-69764606D01*
X90052752Y-69574129D01*
X89052752Y-69336034D01*
X89147991Y-69002701D02*
X89100372Y-68955082D01*
X89052752Y-68859844D01*
X89052752Y-68621748D01*
X89100372Y-68526510D01*
X89147991Y-68478891D01*
X89243229Y-68431272D01*
X89338467Y-68431272D01*
X89481324Y-68478891D01*
X90052752Y-69050320D01*
X90052752Y-68431272D01*
%TO.C,D1*%
X80861904Y-68482380D02*
X80861904Y-67482380D01*
X81100000Y-67482380D01*
X81242857Y-67530000D01*
X81338095Y-67625238D01*
X81385714Y-67720476D01*
X81433333Y-67910952D01*
X81433333Y-68053809D01*
X81385714Y-68244285D01*
X81338095Y-68339523D01*
X81242857Y-68434761D01*
X81100000Y-68482380D01*
X80861904Y-68482380D01*
X82385714Y-68482380D02*
X81814285Y-68482380D01*
X82100000Y-68482380D02*
X82100000Y-67482380D01*
X82004761Y-67625238D01*
X81909523Y-67720476D01*
X81814285Y-67768095D01*
D11*
%TO.C,RV1*%
X124750000Y-48375000D02*
X140500000Y-48375000D01*
X140500000Y-48375000D02*
X140500000Y-70625000D01*
X140500000Y-70625000D02*
X124750000Y-70625000D01*
X124750000Y-70625000D02*
X124750000Y-48375000D01*
%TO.C,J3*%
X138250000Y-80000000D02*
X137750000Y-80000000D01*
X139250000Y-86110000D02*
X143060000Y-86110000D01*
X140250000Y-85500000D02*
X140750000Y-85500000D01*
X140250000Y-80000000D02*
X140250000Y-85500000D01*
X136860000Y-74390000D02*
X136860000Y-78890000D01*
X137750000Y-85500000D02*
X138250000Y-85500000D01*
X137700000Y-74700000D02*
X138300000Y-74700000D01*
X139250000Y-86110000D02*
X135440000Y-86110000D01*
X137750000Y-80000000D02*
X137750000Y-85500000D01*
X135440000Y-86110000D02*
X135440000Y-74390000D01*
X143060000Y-86110000D02*
X143060000Y-74390000D01*
X136860000Y-78890000D02*
X139250000Y-78890000D01*
X140750000Y-85500000D02*
X140750000Y-80000000D01*
X138300000Y-74700000D02*
X138000000Y-75300000D01*
X135440000Y-74390000D02*
X136860000Y-74390000D01*
X138000000Y-75300000D02*
X137700000Y-74700000D01*
X140750000Y-80000000D02*
X140250000Y-80000000D01*
X141640000Y-78890000D02*
X139250000Y-78890000D01*
X138250000Y-85500000D02*
X138250000Y-80000000D01*
X141640000Y-74390000D02*
X141640000Y-78890000D01*
X143060000Y-74390000D02*
X141640000Y-74390000D01*
%TO.C,SW3*%
X165050000Y-48550000D02*
X150050000Y-48550000D01*
X150050000Y-48550000D02*
X150050000Y-63550000D01*
X150050000Y-63550000D02*
X165050000Y-63550000D01*
X165050000Y-63550000D02*
X165050000Y-48550000D01*
%TO.C,J1*%
X102440000Y-85860000D02*
X102440000Y-74140000D01*
X109750000Y-85250000D02*
X110250000Y-85250000D01*
X112250000Y-79750000D02*
X112250000Y-85250000D01*
X107750000Y-85250000D02*
X107750000Y-79750000D01*
X110000000Y-85860000D02*
X102440000Y-85860000D01*
X105300000Y-74450000D02*
X105000000Y-75050000D01*
X104750000Y-79750000D02*
X104750000Y-85250000D01*
X104700000Y-74450000D02*
X105300000Y-74450000D01*
X105000000Y-75050000D02*
X104700000Y-74450000D01*
X112750000Y-79750000D02*
X112250000Y-79750000D01*
X107750000Y-79750000D02*
X107250000Y-79750000D01*
X110250000Y-85250000D02*
X110250000Y-79750000D01*
X112250000Y-85250000D02*
X112750000Y-85250000D01*
X115250000Y-85250000D02*
X115250000Y-79750000D01*
X115250000Y-79750000D02*
X114750000Y-79750000D01*
X114750000Y-79750000D02*
X114750000Y-85250000D01*
X107250000Y-79750000D02*
X107250000Y-85250000D01*
X114750000Y-85250000D02*
X115250000Y-85250000D01*
X116140000Y-74140000D02*
X116140000Y-78640000D01*
X109750000Y-79750000D02*
X109750000Y-85250000D01*
X105250000Y-79750000D02*
X104750000Y-79750000D01*
X104750000Y-85250000D02*
X105250000Y-85250000D01*
X116140000Y-78640000D02*
X110000000Y-78640000D01*
X107250000Y-85250000D02*
X107750000Y-85250000D01*
X117560000Y-74140000D02*
X116140000Y-74140000D01*
X103860000Y-78640000D02*
X110000000Y-78640000D01*
X110000000Y-85860000D02*
X117560000Y-85860000D01*
X110250000Y-79750000D02*
X109750000Y-79750000D01*
X112750000Y-85250000D02*
X112750000Y-79750000D01*
X102440000Y-74140000D02*
X103860000Y-74140000D01*
X105250000Y-85250000D02*
X105250000Y-79750000D01*
X103860000Y-74140000D02*
X103860000Y-78640000D01*
X117560000Y-85860000D02*
X117560000Y-74140000D01*
%TO.C,SW4*%
X84450000Y-48950000D02*
X79950000Y-48950000D01*
X85700000Y-52950000D02*
X85700000Y-51450000D01*
X79950000Y-55450000D02*
X84450000Y-55450000D01*
X78700000Y-51450000D02*
X78700000Y-52950000D01*
%TO.C,J2*%
X83500000Y-79750000D02*
X83000000Y-79750000D01*
X83000000Y-85250000D02*
X83500000Y-85250000D01*
X86000000Y-85250000D02*
X86000000Y-79750000D01*
X79610000Y-74140000D02*
X79610000Y-78640000D01*
X78190000Y-74140000D02*
X79610000Y-74140000D01*
X90810000Y-85860000D02*
X90810000Y-74140000D01*
X89390000Y-74140000D02*
X89390000Y-78640000D01*
X84500000Y-85860000D02*
X78190000Y-85860000D01*
X88000000Y-79750000D02*
X88000000Y-85250000D01*
X86000000Y-79750000D02*
X85500000Y-79750000D01*
X88500000Y-85250000D02*
X88500000Y-79750000D01*
X89390000Y-78640000D02*
X84500000Y-78640000D01*
X88000000Y-85250000D02*
X88500000Y-85250000D01*
X90810000Y-74140000D02*
X89390000Y-74140000D01*
X81000000Y-85250000D02*
X81000000Y-79750000D01*
X81050000Y-74450000D02*
X80750000Y-75050000D01*
X80750000Y-75050000D02*
X80450000Y-74450000D01*
X79610000Y-78640000D02*
X84500000Y-78640000D01*
X78190000Y-85860000D02*
X78190000Y-74140000D01*
X84500000Y-85860000D02*
X90810000Y-85860000D01*
X80500000Y-85250000D02*
X81000000Y-85250000D01*
X83000000Y-79750000D02*
X83000000Y-85250000D01*
X85500000Y-85250000D02*
X86000000Y-85250000D01*
X83500000Y-85250000D02*
X83500000Y-79750000D01*
X80450000Y-74450000D02*
X81050000Y-74450000D01*
X88500000Y-79750000D02*
X88000000Y-79750000D01*
X85500000Y-79750000D02*
X85500000Y-85250000D01*
X81000000Y-79750000D02*
X80500000Y-79750000D01*
X80500000Y-79750000D02*
X80500000Y-85250000D01*
%TO.C,D2*%
X83285000Y-60015000D02*
X80825000Y-60015000D01*
X83285000Y-61485000D02*
X83285000Y-60015000D01*
X80825000Y-61485000D02*
X83285000Y-61485000D01*
D12*
%TO.C,SW1*%
X103050000Y-55525000D02*
X103050000Y-55150000D01*
X90525000Y-55525000D02*
X90150000Y-55525000D01*
X103050000Y-48475000D02*
X103050000Y-48900000D01*
X103050000Y-55525000D02*
X102650000Y-55525000D01*
X90175000Y-48475000D02*
X90625000Y-48475000D01*
X90150000Y-48475000D02*
X90150000Y-48900000D01*
X103050000Y-48475000D02*
X102600000Y-48475000D01*
X90150000Y-55525000D02*
X90150000Y-55175000D01*
D13*
%TO.C,G\u002A\u002A\u002A*%
X148166784Y-65550281D02*
X149017873Y-66402303D01*
X149017873Y-66402303D02*
X148135287Y-67288575D01*
X148135287Y-67288575D02*
X146852111Y-66007855D01*
X146852111Y-66007855D02*
X146852111Y-67944632D01*
X146852111Y-67944632D02*
X148621983Y-67917432D01*
X148621983Y-67917432D02*
X148052333Y-68488349D01*
X148052333Y-68488349D02*
X147482684Y-69059266D01*
X147482684Y-69059266D02*
X146852111Y-69059266D01*
X146852111Y-69059266D02*
X146852111Y-70406082D01*
X146852111Y-70406082D02*
X147018235Y-70532792D01*
X147018235Y-70532792D02*
X147184359Y-70659501D01*
X147184359Y-70659501D02*
X147659616Y-70185862D01*
X147659616Y-70185862D02*
X148134872Y-69712224D01*
X148134872Y-69712224D02*
X148975760Y-70553112D01*
X148975760Y-70553112D02*
X148110448Y-71414079D01*
X148110448Y-71414079D02*
X147877987Y-71644561D01*
X147877987Y-71644561D02*
X147667450Y-71851755D01*
X147667450Y-71851755D02*
X147487740Y-72027025D01*
X147487740Y-72027025D02*
X147347760Y-72161732D01*
X147347760Y-72161732D02*
X147256415Y-72247242D01*
X147256415Y-72247242D02*
X147222864Y-72275046D01*
X147222864Y-72275046D02*
X147185018Y-72243503D01*
X147185018Y-72243503D02*
X147091037Y-72155044D01*
X147091037Y-72155044D02*
X146950438Y-72018924D01*
X146950438Y-72018924D02*
X146772734Y-71844398D01*
X146772734Y-71844398D02*
X146567440Y-71640722D01*
X146567440Y-71640722D02*
X146443783Y-71517192D01*
X146443783Y-71517192D02*
X145686973Y-70759339D01*
X145686973Y-70759339D02*
X145686973Y-66336125D01*
X145686973Y-66336125D02*
X146501334Y-65517192D01*
X146501334Y-65517192D02*
X147315695Y-64698258D01*
X147315695Y-64698258D02*
X148166784Y-65550281D01*
X148166784Y-65550281D02*
X148166784Y-65550281D01*
G36*
X148166784Y-65550281D02*
G01*
X149017873Y-66402303D01*
X148135287Y-67288575D01*
X146852111Y-66007855D01*
X146852111Y-67944632D01*
X148621983Y-67917432D01*
X148052333Y-68488349D01*
X147482684Y-69059266D01*
X146852111Y-69059266D01*
X146852111Y-70406082D01*
X147018235Y-70532792D01*
X147184359Y-70659501D01*
X147659616Y-70185862D01*
X148134872Y-69712224D01*
X148975760Y-70553112D01*
X148110448Y-71414079D01*
X147877987Y-71644561D01*
X147667450Y-71851755D01*
X147487740Y-72027025D01*
X147347760Y-72161732D01*
X147256415Y-72247242D01*
X147222864Y-72275046D01*
X147185018Y-72243503D01*
X147091037Y-72155044D01*
X146950438Y-72018924D01*
X146772734Y-71844398D01*
X146567440Y-71640722D01*
X146443783Y-71517192D01*
X145686973Y-70759339D01*
X145686973Y-66336125D01*
X146501334Y-65517192D01*
X147315695Y-64698258D01*
X148166784Y-65550281D01*
G37*
X148166784Y-65550281D02*
X149017873Y-66402303D01*
X148135287Y-67288575D01*
X146852111Y-66007855D01*
X146852111Y-67944632D01*
X148621983Y-67917432D01*
X148052333Y-68488349D01*
X147482684Y-69059266D01*
X146852111Y-69059266D01*
X146852111Y-70406082D01*
X147018235Y-70532792D01*
X147184359Y-70659501D01*
X147659616Y-70185862D01*
X148134872Y-69712224D01*
X148975760Y-70553112D01*
X148110448Y-71414079D01*
X147877987Y-71644561D01*
X147667450Y-71851755D01*
X147487740Y-72027025D01*
X147347760Y-72161732D01*
X147256415Y-72247242D01*
X147222864Y-72275046D01*
X147185018Y-72243503D01*
X147091037Y-72155044D01*
X146950438Y-72018924D01*
X146772734Y-71844398D01*
X146567440Y-71640722D01*
X146443783Y-71517192D01*
X145686973Y-70759339D01*
X145686973Y-66336125D01*
X146501334Y-65517192D01*
X147315695Y-64698258D01*
X148166784Y-65550281D01*
X151709936Y-67055230D02*
X152434118Y-67055230D01*
X152434118Y-67055230D02*
X152707288Y-67055788D01*
X152707288Y-67055788D02*
X152899365Y-67058472D01*
X152899365Y-67058472D02*
X153022465Y-67064799D01*
X153022465Y-67064799D02*
X153088703Y-67076286D01*
X153088703Y-67076286D02*
X153110196Y-67094450D01*
X153110196Y-67094450D02*
X153099058Y-67120806D01*
X153099058Y-67120806D02*
X153085700Y-67136789D01*
X153085700Y-67136789D02*
X153048397Y-67185838D01*
X153048397Y-67185838D02*
X152962192Y-67303149D01*
X152962192Y-67303149D02*
X152832480Y-67481223D01*
X152832480Y-67481223D02*
X152664659Y-67712560D01*
X152664659Y-67712560D02*
X152464122Y-67989660D01*
X152464122Y-67989660D02*
X152236268Y-68305023D01*
X152236268Y-68305023D02*
X151986491Y-68651150D01*
X151986491Y-68651150D02*
X151720188Y-69020540D01*
X151720188Y-69020540D02*
X151442755Y-69405693D01*
X151442755Y-69405693D02*
X151159587Y-69799110D01*
X151159587Y-69799110D02*
X150876081Y-70193291D01*
X150876081Y-70193291D02*
X150597633Y-70580736D01*
X150597633Y-70580736D02*
X150329639Y-70953945D01*
X150329639Y-70953945D02*
X150077495Y-71305417D01*
X150077495Y-71305417D02*
X149846597Y-71627654D01*
X149846597Y-71627654D02*
X149642340Y-71913156D01*
X149642340Y-71913156D02*
X149470121Y-72154422D01*
X149470121Y-72154422D02*
X149335337Y-72343952D01*
X149335337Y-72343952D02*
X149243382Y-72474247D01*
X149243382Y-72474247D02*
X149199653Y-72537807D01*
X149199653Y-72537807D02*
X149198695Y-72539311D01*
X149198695Y-72539311D02*
X149202376Y-72514546D01*
X149202376Y-72514546D02*
X149234034Y-72410022D01*
X149234034Y-72410022D02*
X149290918Y-72233980D01*
X149290918Y-72233980D02*
X149370275Y-71994660D01*
X149370275Y-71994660D02*
X149469351Y-71700303D01*
X149469351Y-71700303D02*
X149585395Y-71359150D01*
X149585395Y-71359150D02*
X149715654Y-70979441D01*
X149715654Y-70979441D02*
X149839521Y-70620908D01*
X149839521Y-70620908D02*
X149981901Y-70209831D01*
X149981901Y-70209831D02*
X150114456Y-69826629D01*
X150114456Y-69826629D02*
X150234150Y-69480109D01*
X150234150Y-69480109D02*
X150337951Y-69179080D01*
X150337951Y-69179080D02*
X150422822Y-68932350D01*
X150422822Y-68932350D02*
X150485729Y-68748727D01*
X150485729Y-68748727D02*
X150523639Y-68637019D01*
X150523639Y-68637019D02*
X150533945Y-68605220D01*
X150533945Y-68605220D02*
X150490038Y-68601023D01*
X150490038Y-68601023D02*
X150369106Y-68597465D01*
X150369106Y-68597465D02*
X150187334Y-68594828D01*
X150187334Y-68594828D02*
X149960910Y-68593392D01*
X149960910Y-68593392D02*
X149841350Y-68593211D01*
X149841350Y-68593211D02*
X149148755Y-68593211D01*
X149148755Y-68593211D02*
X149669291Y-67416422D01*
X149669291Y-67416422D02*
X149833864Y-67044008D01*
X149833864Y-67044008D02*
X150011486Y-66641447D01*
X150011486Y-66641447D02*
X150191024Y-66234010D01*
X150191024Y-66234010D02*
X150361346Y-65846969D01*
X150361346Y-65846969D02*
X150511321Y-65505596D01*
X150511321Y-65505596D02*
X150582847Y-65342477D01*
X150582847Y-65342477D02*
X150975867Y-64445322D01*
X150975867Y-64445322D02*
X152666946Y-64445322D01*
X152666946Y-64445322D02*
X151709936Y-67055230D01*
X151709936Y-67055230D02*
X151709936Y-67055230D01*
G36*
X151709936Y-67055230D02*
G01*
X152434118Y-67055230D01*
X152707288Y-67055788D01*
X152899365Y-67058472D01*
X153022465Y-67064799D01*
X153088703Y-67076286D01*
X153110196Y-67094450D01*
X153099058Y-67120806D01*
X153085700Y-67136789D01*
X153048397Y-67185838D01*
X152962192Y-67303149D01*
X152832480Y-67481223D01*
X152664659Y-67712560D01*
X152464122Y-67989660D01*
X152236268Y-68305023D01*
X151986491Y-68651150D01*
X151720188Y-69020540D01*
X151442755Y-69405693D01*
X151159587Y-69799110D01*
X150876081Y-70193291D01*
X150597633Y-70580736D01*
X150329639Y-70953945D01*
X150077495Y-71305417D01*
X149846597Y-71627654D01*
X149642340Y-71913156D01*
X149470121Y-72154422D01*
X149335337Y-72343952D01*
X149243382Y-72474247D01*
X149199653Y-72537807D01*
X149198695Y-72539311D01*
X149202376Y-72514546D01*
X149234034Y-72410022D01*
X149290918Y-72233980D01*
X149370275Y-71994660D01*
X149469351Y-71700303D01*
X149585395Y-71359150D01*
X149715654Y-70979441D01*
X149839521Y-70620908D01*
X149981901Y-70209831D01*
X150114456Y-69826629D01*
X150234150Y-69480109D01*
X150337951Y-69179080D01*
X150422822Y-68932350D01*
X150485729Y-68748727D01*
X150523639Y-68637019D01*
X150533945Y-68605220D01*
X150490038Y-68601023D01*
X150369106Y-68597465D01*
X150187334Y-68594828D01*
X149960910Y-68593392D01*
X149841350Y-68593211D01*
X149148755Y-68593211D01*
X149669291Y-67416422D01*
X149833864Y-67044008D01*
X150011486Y-66641447D01*
X150191024Y-66234010D01*
X150361346Y-65846969D01*
X150511321Y-65505596D01*
X150582847Y-65342477D01*
X150975867Y-64445322D01*
X152666946Y-64445322D01*
X151709936Y-67055230D01*
G37*
X151709936Y-67055230D02*
X152434118Y-67055230D01*
X152707288Y-67055788D01*
X152899365Y-67058472D01*
X153022465Y-67064799D01*
X153088703Y-67076286D01*
X153110196Y-67094450D01*
X153099058Y-67120806D01*
X153085700Y-67136789D01*
X153048397Y-67185838D01*
X152962192Y-67303149D01*
X152832480Y-67481223D01*
X152664659Y-67712560D01*
X152464122Y-67989660D01*
X152236268Y-68305023D01*
X151986491Y-68651150D01*
X151720188Y-69020540D01*
X151442755Y-69405693D01*
X151159587Y-69799110D01*
X150876081Y-70193291D01*
X150597633Y-70580736D01*
X150329639Y-70953945D01*
X150077495Y-71305417D01*
X149846597Y-71627654D01*
X149642340Y-71913156D01*
X149470121Y-72154422D01*
X149335337Y-72343952D01*
X149243382Y-72474247D01*
X149199653Y-72537807D01*
X149198695Y-72539311D01*
X149202376Y-72514546D01*
X149234034Y-72410022D01*
X149290918Y-72233980D01*
X149370275Y-71994660D01*
X149469351Y-71700303D01*
X149585395Y-71359150D01*
X149715654Y-70979441D01*
X149839521Y-70620908D01*
X149981901Y-70209831D01*
X150114456Y-69826629D01*
X150234150Y-69480109D01*
X150337951Y-69179080D01*
X150422822Y-68932350D01*
X150485729Y-68748727D01*
X150523639Y-68637019D01*
X150533945Y-68605220D01*
X150490038Y-68601023D01*
X150369106Y-68597465D01*
X150187334Y-68594828D01*
X149960910Y-68593392D01*
X149841350Y-68593211D01*
X149148755Y-68593211D01*
X149669291Y-67416422D01*
X149833864Y-67044008D01*
X150011486Y-66641447D01*
X150191024Y-66234010D01*
X150361346Y-65846969D01*
X150511321Y-65505596D01*
X150582847Y-65342477D01*
X150975867Y-64445322D01*
X152666946Y-64445322D01*
X151709936Y-67055230D01*
X156441796Y-65343061D02*
X157105322Y-66007772D01*
X157105322Y-66007772D02*
X157105322Y-67216505D01*
X157105322Y-67216505D02*
X156698470Y-67625251D01*
X156698470Y-67625251D02*
X156291617Y-68033997D01*
X156291617Y-68033997D02*
X157151927Y-68897899D01*
X157151927Y-68897899D02*
X157151927Y-70710831D01*
X157151927Y-70710831D02*
X157395682Y-70957652D01*
X157395682Y-70957652D02*
X157639437Y-71204472D01*
X157639437Y-71204472D02*
X157103893Y-71740016D01*
X157103893Y-71740016D02*
X156568349Y-72275559D01*
X156568349Y-72275559D02*
X156045640Y-71750991D01*
X156045640Y-71750991D02*
X155522930Y-71226422D01*
X155522930Y-71226422D02*
X155982754Y-70713762D01*
X155982754Y-70713762D02*
X155984772Y-70107095D01*
X155984772Y-70107095D02*
X155986789Y-69500429D01*
X155986789Y-69500429D02*
X155474129Y-68989358D01*
X155474129Y-68989358D02*
X154961468Y-68478287D01*
X154961468Y-68478287D02*
X154961468Y-70763871D01*
X154961468Y-70763871D02*
X155195010Y-70993902D01*
X155195010Y-70993902D02*
X155428552Y-71223932D01*
X155428552Y-71223932D02*
X154904486Y-71749489D01*
X154904486Y-71749489D02*
X154724818Y-71927866D01*
X154724818Y-71927866D02*
X154567849Y-72080303D01*
X154567849Y-72080303D02*
X154445364Y-72195623D01*
X154445364Y-72195623D02*
X154369152Y-72262647D01*
X154369152Y-72262647D02*
X154350288Y-72275046D01*
X154350288Y-72275046D02*
X154309465Y-72243040D01*
X154309465Y-72243040D02*
X154216282Y-72154649D01*
X154216282Y-72154649D02*
X154082312Y-72021315D01*
X154082312Y-72021315D02*
X153919131Y-71854482D01*
X153919131Y-71854482D02*
X153810101Y-71741056D01*
X153810101Y-71741056D02*
X153300046Y-71207066D01*
X153300046Y-71207066D02*
X153548188Y-70962006D01*
X153548188Y-70962006D02*
X153796331Y-70716946D01*
X153796331Y-70716946D02*
X153796331Y-67870369D01*
X153796331Y-67870369D02*
X154868257Y-67870369D01*
X154868257Y-67870369D02*
X155462249Y-67276377D01*
X155462249Y-67276377D02*
X156056241Y-66682386D01*
X156056241Y-66682386D02*
X154868257Y-65494402D01*
X154868257Y-65494402D02*
X154868257Y-67870369D01*
X154868257Y-67870369D02*
X153796331Y-67870369D01*
X153796331Y-67870369D02*
X153796331Y-66149125D01*
X153796331Y-66149125D02*
X153529517Y-65879498D01*
X153529517Y-65879498D02*
X153262703Y-65609870D01*
X153262703Y-65609870D02*
X153726716Y-65144110D01*
X153726716Y-65144110D02*
X154190729Y-64678349D01*
X154190729Y-64678349D02*
X155778270Y-64678349D01*
X155778270Y-64678349D02*
X156441796Y-65343061D01*
X156441796Y-65343061D02*
X156441796Y-65343061D01*
G36*
X153529517Y-65879498D02*
G01*
X153262703Y-65609870D01*
X153726716Y-65144110D01*
X154190729Y-64678349D01*
X155778270Y-64678349D01*
X156441796Y-65343061D01*
X157105322Y-66007772D01*
X157105322Y-67216505D01*
X156698470Y-67625251D01*
X156291617Y-68033997D01*
X157151927Y-68897899D01*
X157151927Y-70710831D01*
X157395682Y-70957652D01*
X157639437Y-71204472D01*
X157103893Y-71740016D01*
X156568349Y-72275559D01*
X156045640Y-71750991D01*
X155522930Y-71226422D01*
X155982754Y-70713762D01*
X155984772Y-70107095D01*
X155986789Y-69500429D01*
X155474129Y-68989358D01*
X154961468Y-68478287D01*
X154961468Y-70763871D01*
X155195010Y-70993902D01*
X155428552Y-71223932D01*
X154904486Y-71749489D01*
X154724818Y-71927866D01*
X154567849Y-72080303D01*
X154445364Y-72195623D01*
X154369152Y-72262647D01*
X154350288Y-72275046D01*
X154309465Y-72243040D01*
X154216282Y-72154649D01*
X154082312Y-72021315D01*
X153919131Y-71854482D01*
X153810101Y-71741056D01*
X153300046Y-71207066D01*
X153548188Y-70962006D01*
X153796331Y-70716946D01*
X153796331Y-67870369D01*
X154868257Y-67870369D01*
X155462249Y-67276377D01*
X156056241Y-66682386D01*
X154868257Y-65494402D01*
X154868257Y-67870369D01*
X153796331Y-67870369D01*
X153796331Y-66149125D01*
X153529517Y-65879498D01*
G37*
X153529517Y-65879498D02*
X153262703Y-65609870D01*
X153726716Y-65144110D01*
X154190729Y-64678349D01*
X155778270Y-64678349D01*
X156441796Y-65343061D01*
X157105322Y-66007772D01*
X157105322Y-67216505D01*
X156698470Y-67625251D01*
X156291617Y-68033997D01*
X157151927Y-68897899D01*
X157151927Y-70710831D01*
X157395682Y-70957652D01*
X157639437Y-71204472D01*
X157103893Y-71740016D01*
X156568349Y-72275559D01*
X156045640Y-71750991D01*
X155522930Y-71226422D01*
X155982754Y-70713762D01*
X155984772Y-70107095D01*
X155986789Y-69500429D01*
X155474129Y-68989358D01*
X154961468Y-68478287D01*
X154961468Y-70763871D01*
X155195010Y-70993902D01*
X155428552Y-71223932D01*
X154904486Y-71749489D01*
X154724818Y-71927866D01*
X154567849Y-72080303D01*
X154445364Y-72195623D01*
X154369152Y-72262647D01*
X154350288Y-72275046D01*
X154309465Y-72243040D01*
X154216282Y-72154649D01*
X154082312Y-72021315D01*
X153919131Y-71854482D01*
X153810101Y-71741056D01*
X153300046Y-71207066D01*
X153548188Y-70962006D01*
X153796331Y-70716946D01*
X153796331Y-67870369D01*
X154868257Y-67870369D01*
X155462249Y-67276377D01*
X156056241Y-66682386D01*
X154868257Y-65494402D01*
X154868257Y-67870369D01*
X153796331Y-67870369D01*
X153796331Y-66149125D01*
X153529517Y-65879498D01*
X161020184Y-66331873D02*
X161020184Y-70528260D01*
X161020184Y-70528260D02*
X160145849Y-71401686D01*
X160145849Y-71401686D02*
X159271515Y-72275112D01*
X159271515Y-72275112D02*
X158491354Y-71493937D01*
X158491354Y-71493937D02*
X157711193Y-70712763D01*
X157711193Y-70712763D02*
X157711193Y-70336480D01*
X157711193Y-70336480D02*
X158876331Y-70336480D01*
X158876331Y-70336480D02*
X159025946Y-70490844D01*
X159025946Y-70490844D02*
X159175562Y-70645209D01*
X159175562Y-70645209D02*
X159492001Y-70331194D01*
X159492001Y-70331194D02*
X159808441Y-70017179D01*
X159808441Y-70017179D02*
X159808441Y-66890362D01*
X159808441Y-66890362D02*
X159342386Y-66426055D01*
X159342386Y-66426055D02*
X158876331Y-65961749D01*
X158876331Y-65961749D02*
X158876331Y-70336480D01*
X158876331Y-70336480D02*
X157711193Y-70336480D01*
X157711193Y-70336480D02*
X157711193Y-66285240D01*
X157711193Y-66285240D02*
X158526796Y-65470636D01*
X158526796Y-65470636D02*
X159342400Y-64656031D01*
X159342400Y-64656031D02*
X161020184Y-66331873D01*
X161020184Y-66331873D02*
X161020184Y-66331873D01*
G36*
X158526796Y-65470636D02*
G01*
X159342400Y-64656031D01*
X161020184Y-66331873D01*
X161020184Y-70528260D01*
X160145849Y-71401686D01*
X159271515Y-72275112D01*
X158491354Y-71493937D01*
X157711193Y-70712763D01*
X157711193Y-70336480D01*
X158876331Y-70336480D01*
X159025946Y-70490844D01*
X159175562Y-70645209D01*
X159492001Y-70331194D01*
X159808441Y-70017179D01*
X159808441Y-66890362D01*
X159342386Y-66426055D01*
X158876331Y-65961749D01*
X158876331Y-70336480D01*
X157711193Y-70336480D01*
X157711193Y-66285240D01*
X158526796Y-65470636D01*
G37*
X158526796Y-65470636D02*
X159342400Y-64656031D01*
X161020184Y-66331873D01*
X161020184Y-70528260D01*
X160145849Y-71401686D01*
X159271515Y-72275112D01*
X158491354Y-71493937D01*
X157711193Y-70712763D01*
X157711193Y-70336480D01*
X158876331Y-70336480D01*
X159025946Y-70490844D01*
X159175562Y-70645209D01*
X159492001Y-70331194D01*
X159808441Y-70017179D01*
X159808441Y-66890362D01*
X159342386Y-66426055D01*
X158876331Y-65961749D01*
X158876331Y-70336480D01*
X157711193Y-70336480D01*
X157711193Y-66285240D01*
X158526796Y-65470636D01*
X144848074Y-66287210D02*
X144848074Y-70710831D01*
X144848074Y-70710831D02*
X145091829Y-70957652D01*
X145091829Y-70957652D02*
X145335583Y-71204472D01*
X145335583Y-71204472D02*
X144800040Y-71740016D01*
X144800040Y-71740016D02*
X144264496Y-72275559D01*
X144264496Y-72275559D02*
X143730215Y-71739759D01*
X143730215Y-71739759D02*
X143195935Y-71203958D01*
X143195935Y-71203958D02*
X143439436Y-70957394D01*
X143439436Y-70957394D02*
X143682936Y-70710831D01*
X143682936Y-70710831D02*
X143682936Y-69758349D01*
X143682936Y-69758349D02*
X142657615Y-69758349D01*
X142657615Y-69758349D02*
X142657615Y-70710831D01*
X142657615Y-70710831D02*
X142901370Y-70957652D01*
X142901370Y-70957652D02*
X143145125Y-71204472D01*
X143145125Y-71204472D02*
X142609581Y-71740016D01*
X142609581Y-71740016D02*
X142074037Y-72275559D01*
X142074037Y-72275559D02*
X141539757Y-71739759D01*
X141539757Y-71739759D02*
X141005477Y-71203958D01*
X141005477Y-71203958D02*
X141248977Y-70957394D01*
X141248977Y-70957394D02*
X141492478Y-70710831D01*
X141492478Y-70710831D02*
X141492478Y-68546606D01*
X141492478Y-68546606D02*
X142657615Y-68546606D01*
X142657615Y-68546606D02*
X143682936Y-68546606D01*
X143682936Y-68546606D02*
X143682936Y-67029337D01*
X143682936Y-67029337D02*
X143172637Y-66494669D01*
X143172637Y-66494669D02*
X142662338Y-65960000D01*
X142662338Y-65960000D02*
X142659977Y-67253303D01*
X142659977Y-67253303D02*
X142657615Y-68546606D01*
X142657615Y-68546606D02*
X141492478Y-68546606D01*
X141492478Y-68546606D02*
X141492478Y-66425135D01*
X141492478Y-66425135D02*
X142366805Y-65551717D01*
X142366805Y-65551717D02*
X143241132Y-64678298D01*
X143241132Y-64678298D02*
X144848074Y-66287210D01*
X144848074Y-66287210D02*
X144848074Y-66287210D01*
G36*
X142366805Y-65551717D02*
G01*
X143241132Y-64678298D01*
X144848074Y-66287210D01*
X144848074Y-70710831D01*
X145091829Y-70957652D01*
X145335583Y-71204472D01*
X144800040Y-71740016D01*
X144264496Y-72275559D01*
X143730215Y-71739759D01*
X143195935Y-71203958D01*
X143439436Y-70957394D01*
X143682936Y-70710831D01*
X143682936Y-69758349D01*
X142657615Y-69758349D01*
X142657615Y-70710831D01*
X142901370Y-70957652D01*
X143145125Y-71204472D01*
X142609581Y-71740016D01*
X142074037Y-72275559D01*
X141539757Y-71739759D01*
X141005477Y-71203958D01*
X141248977Y-70957394D01*
X141492478Y-70710831D01*
X141492478Y-68546606D01*
X142657615Y-68546606D01*
X143682936Y-68546606D01*
X143682936Y-67029337D01*
X143172637Y-66494669D01*
X142662338Y-65960000D01*
X142659977Y-67253303D01*
X142657615Y-68546606D01*
X141492478Y-68546606D01*
X141492478Y-66425135D01*
X142366805Y-65551717D01*
G37*
X142366805Y-65551717D02*
X143241132Y-64678298D01*
X144848074Y-66287210D01*
X144848074Y-70710831D01*
X145091829Y-70957652D01*
X145335583Y-71204472D01*
X144800040Y-71740016D01*
X144264496Y-72275559D01*
X143730215Y-71739759D01*
X143195935Y-71203958D01*
X143439436Y-70957394D01*
X143682936Y-70710831D01*
X143682936Y-69758349D01*
X142657615Y-69758349D01*
X142657615Y-70710831D01*
X142901370Y-70957652D01*
X143145125Y-71204472D01*
X142609581Y-71740016D01*
X142074037Y-72275559D01*
X141539757Y-71739759D01*
X141005477Y-71203958D01*
X141248977Y-70957394D01*
X141492478Y-70710831D01*
X141492478Y-68546606D01*
X142657615Y-68546606D01*
X143682936Y-68546606D01*
X143682936Y-67029337D01*
X143172637Y-66494669D01*
X142662338Y-65960000D01*
X142659977Y-67253303D01*
X142657615Y-68546606D01*
X141492478Y-68546606D01*
X141492478Y-66425135D01*
X142366805Y-65551717D01*
D11*
%TO.C,RV2*%
X105250000Y-48375000D02*
X121000000Y-48375000D01*
X121000000Y-48375000D02*
X121000000Y-70625000D01*
X121000000Y-70625000D02*
X105250000Y-70625000D01*
X105250000Y-70625000D02*
X105250000Y-48375000D01*
D12*
%TO.C,SW2*%
X103450000Y-70525000D02*
X103450000Y-70150000D01*
X103450000Y-63475000D02*
X103000000Y-63475000D01*
X90925000Y-70525000D02*
X90550000Y-70525000D01*
X90550000Y-70525000D02*
X90550000Y-70175000D01*
X90575000Y-63475000D02*
X91025000Y-63475000D01*
X103450000Y-63475000D02*
X103450000Y-63900000D01*
X90550000Y-63475000D02*
X90550000Y-63900000D01*
X103450000Y-70525000D02*
X103050000Y-70525000D01*
D11*
%TO.C,D1*%
X83260000Y-65865000D02*
X80800000Y-65865000D01*
X80800000Y-67335000D02*
X83260000Y-67335000D01*
X83260000Y-67335000D02*
X83260000Y-65865000D01*
%TD*%
M02*
