%TF.GenerationSoftware,KiCad,Pcbnew,(6.0.1)*%
%TF.CreationDate,2022-02-14T12:00:35-05:00*%
%TF.ProjectId,interface-board,696e7465-7266-4616-9365-2d626f617264,rev?*%
%TF.SameCoordinates,Original*%
%TF.FileFunction,Copper,L1,Top*%
%TF.FilePolarity,Positive*%
%FSLAX46Y46*%
G04 Gerber Fmt 4.6, Leading zero omitted, Abs format (unit mm)*
G04 Created by KiCad (PCBNEW (6.0.1)) date 2022-02-14 12:00:35*
%MOMM*%
%LPD*%
G01*
G04 APERTURE LIST*
G04 Aperture macros list*
%AMRoundRect*
0 Rectangle with rounded corners*
0 $1 Rounding radius*
0 $2 $3 $4 $5 $6 $7 $8 $9 X,Y pos of 4 corners*
0 Add a 4 corners polygon primitive as box body*
4,1,4,$2,$3,$4,$5,$6,$7,$8,$9,$2,$3,0*
0 Add four circle primitives for the rounded corners*
1,1,$1+$1,$2,$3*
1,1,$1+$1,$4,$5*
1,1,$1+$1,$6,$7*
1,1,$1+$1,$8,$9*
0 Add four rect primitives between the rounded corners*
20,1,$1+$1,$2,$3,$4,$5,0*
20,1,$1+$1,$4,$5,$6,$7,0*
20,1,$1+$1,$6,$7,$8,$9,0*
20,1,$1+$1,$8,$9,$2,$3,0*%
G04 Aperture macros list end*
%TA.AperFunction,ComponentPad*%
%ADD10RoundRect,0.250000X-0.725000X0.600000X-0.725000X-0.600000X0.725000X-0.600000X0.725000X0.600000X0*%
%TD*%
%TA.AperFunction,ComponentPad*%
%ADD11O,1.950000X1.700000*%
%TD*%
%TA.AperFunction,ComponentPad*%
%ADD12R,2.625000X2.625000*%
%TD*%
%TA.AperFunction,ComponentPad*%
%ADD13C,2.625000*%
%TD*%
%TA.AperFunction,ComponentPad*%
%ADD14RoundRect,0.250000X0.725000X-0.600000X0.725000X0.600000X-0.725000X0.600000X-0.725000X-0.600000X0*%
%TD*%
%TA.AperFunction,ComponentPad*%
%ADD15RoundRect,0.250000X0.750000X-0.600000X0.750000X0.600000X-0.750000X0.600000X-0.750000X-0.600000X0*%
%TD*%
%TA.AperFunction,ComponentPad*%
%ADD16O,2.000000X1.700000*%
%TD*%
%TA.AperFunction,ComponentPad*%
%ADD17R,2.850000X2.850000*%
%TD*%
%TA.AperFunction,ComponentPad*%
%ADD18C,2.850000*%
%TD*%
%TA.AperFunction,ViaPad*%
%ADD19C,0.800000*%
%TD*%
%TA.AperFunction,Conductor*%
%ADD20C,0.300000*%
%TD*%
G04 APERTURE END LIST*
D10*
%TO.P,RV1,1,1*%
%TO.N,+5V*%
X43180000Y-131485000D03*
D11*
%TO.P,RV1,2,2*%
%TO.N,/POT_REGEN*%
X43180000Y-133985000D03*
%TO.P,RV1,3,3*%
%TO.N,GND*%
X43180000Y-136485000D03*
%TD*%
D10*
%TO.P,RV2,1,1*%
%TO.N,+5V*%
X43180000Y-109895000D03*
D11*
%TO.P,RV2,2,2*%
%TO.N,/POT_BRAKE*%
X43180000Y-112395000D03*
%TO.P,RV2,3,3*%
%TO.N,GND*%
X43180000Y-114895000D03*
%TD*%
D12*
%TO.P,J1,1,Pin_1*%
%TO.N,+5V*%
X70740000Y-119190000D03*
D13*
%TO.P,J1,2,Pin_2*%
%TO.N,/START_BTN*%
X74740000Y-119190000D03*
%TO.P,J1,3,Pin_3*%
%TO.N,/RTD_LED*%
X78740000Y-119190000D03*
%TO.P,J1,4,Pin_4*%
%TO.N,/IMD_LED*%
X82740000Y-119190000D03*
%TO.P,J1,5,Pin_5*%
%TO.N,/AMS_LED*%
X86740000Y-119190000D03*
%TO.P,J1,6,Pin_6*%
%TO.N,/POT_REGEN*%
X72740000Y-123190000D03*
%TO.P,J1,7,Pin_7*%
%TO.N,/POT_BRAKE*%
X76740000Y-123190000D03*
%TO.P,J1,8,Pin_8*%
%TO.N,/LCD_BTN*%
X80740000Y-123190000D03*
%TO.P,J1,9,Pin_9*%
%TO.N,/LCD_SCL*%
X84740000Y-123190000D03*
%TO.P,J1,10,Pin_10*%
%TO.N,/LCD_SDA*%
X70740000Y-127190000D03*
%TO.P,J1,11,Pin_11*%
%TO.N,/SW_COOLING*%
X74740000Y-127190000D03*
%TO.P,J1,12,Pin_12*%
%TO.N,/SW_DIRECTION*%
X78740000Y-127190000D03*
%TO.P,J1,13,Pin_13*%
%TO.N,unconnected-(J1-Pad13)*%
X82740000Y-127190000D03*
%TO.P,J1,14,Pin_14*%
%TO.N,GND*%
X86740000Y-127190000D03*
%TD*%
D14*
%TO.P,J2,1,Pin_1*%
%TO.N,+5V*%
X113085000Y-136445000D03*
D11*
%TO.P,J2,2,Pin_2*%
%TO.N,/LCD_SCL*%
X113085000Y-133945000D03*
%TO.P,J2,3,Pin_3*%
%TO.N,/LCD_SDA*%
X113085000Y-131445000D03*
%TO.P,J2,4,Pin_4*%
%TO.N,/LCD_BTN*%
X113085000Y-128945000D03*
%TO.P,J2,5,Pin_5*%
%TO.N,GND*%
X113085000Y-126445000D03*
%TD*%
D14*
%TO.P,SW3,1,1*%
%TO.N,/START_BTN*%
X113085000Y-97095000D03*
D11*
%TO.P,SW3,2,2*%
%TO.N,GND*%
X113085000Y-94595000D03*
%TO.P,SW3,3,K*%
%TO.N,/RTD_LED*%
X113085000Y-92095000D03*
%TO.P,SW3,4,A*%
%TO.N,GND*%
X113085000Y-89595000D03*
%TD*%
D15*
%TO.P,SW4,1,1*%
%TO.N,/LCD_BTN*%
X113085000Y-112375000D03*
D16*
%TO.P,SW4,2,2*%
%TO.N,GND*%
X113085000Y-109875000D03*
%TD*%
D17*
%TO.P,SW1,1,A*%
%TO.N,/SW_DIRECTION*%
X80010000Y-97410000D03*
D18*
%TO.P,SW1,2,B*%
%TO.N,GND*%
X80010000Y-92710000D03*
%TO.P,SW1,3*%
%TO.N,N/C*%
X80010000Y-88010000D03*
%TD*%
D17*
%TO.P,SW2,1,A*%
%TO.N,/SW_COOLING*%
X54610000Y-97410000D03*
D18*
%TO.P,SW2,2,B*%
%TO.N,GND*%
X54610000Y-92710000D03*
%TO.P,SW2,3*%
%TO.N,N/C*%
X54610000Y-88010000D03*
%TD*%
D19*
%TO.N,GND*%
X107696000Y-77724000D03*
X67056000Y-94488000D03*
X91440000Y-94488000D03*
X120396000Y-80772000D03*
X41148000Y-122936000D03*
X41148000Y-102616000D03*
%TD*%
D20*
%TO.N,+5V*%
X70040000Y-119190000D02*
X70740000Y-119190000D01*
X66040000Y-123890000D02*
X70740000Y-119190000D01*
X51475000Y-123190000D02*
X66040000Y-123190000D01*
X66040000Y-123190000D02*
X70040000Y-119190000D01*
X52475000Y-119190000D02*
X70740000Y-119190000D01*
X43180000Y-109895000D02*
X52475000Y-119190000D01*
X66040000Y-129540000D02*
X66040000Y-123890000D01*
X72945000Y-136445000D02*
X66040000Y-129540000D01*
X43180000Y-131485000D02*
X51475000Y-123190000D01*
X113085000Y-136445000D02*
X72945000Y-136445000D01*
%TO.N,/START_BTN*%
X96835000Y-97095000D02*
X74740000Y-119190000D01*
X113085000Y-97095000D02*
X96835000Y-97095000D01*
%TO.N,/RTD_LED*%
X113085000Y-92095000D02*
X114409520Y-93419520D01*
X114409520Y-93419520D02*
X114409520Y-97943329D01*
X90824860Y-121527989D02*
X81077989Y-121527989D01*
X81077989Y-121527989D02*
X78740000Y-119190000D01*
X114409520Y-97943329D02*
X90824860Y-121527989D01*
%TO.N,/LCD_SCL*%
X84740000Y-127540440D02*
X84740000Y-123190000D01*
X113085000Y-133945000D02*
X91144560Y-133945000D01*
X91144560Y-133945000D02*
X84740000Y-127540440D01*
%TO.N,/SW_COOLING*%
X72578469Y-115378469D02*
X72578469Y-121001091D01*
X71077989Y-124417989D02*
X73850000Y-127190000D01*
X71077989Y-122501571D02*
X71077989Y-124417989D01*
X73850000Y-127190000D02*
X74740000Y-127190000D01*
X72578469Y-121001091D02*
X71077989Y-122501571D01*
X54610000Y-97410000D02*
X72578469Y-115378469D01*
%TO.N,/SW_DIRECTION*%
X75077989Y-124607989D02*
X77660000Y-127190000D01*
X73077989Y-104342011D02*
X73077989Y-121177549D01*
X73077989Y-121177549D02*
X75077989Y-123177549D01*
X75077989Y-123177549D02*
X75077989Y-124607989D01*
X80010000Y-97410000D02*
X73077989Y-104342011D01*
X77660000Y-127190000D02*
X78740000Y-127190000D01*
%TD*%
%TA.AperFunction,Conductor*%
%TO.N,GND*%
G36*
X126434121Y-66568002D02*
G01*
X126480614Y-66621658D01*
X126492000Y-66674000D01*
X126492000Y-141606000D01*
X126471998Y-141674121D01*
X126418342Y-141720614D01*
X126366000Y-141732000D01*
X31114000Y-141732000D01*
X31045879Y-141711998D01*
X30999386Y-141658342D01*
X30988000Y-141606000D01*
X30988000Y-136753580D01*
X41723752Y-136753580D01*
X41748477Y-136871421D01*
X41751537Y-136881617D01*
X41832263Y-137086029D01*
X41836994Y-137095561D01*
X41951016Y-137283462D01*
X41957280Y-137292052D01*
X42101327Y-137458052D01*
X42108958Y-137465472D01*
X42278911Y-137604826D01*
X42287678Y-137610850D01*
X42478682Y-137719576D01*
X42488346Y-137724041D01*
X42694941Y-137799031D01*
X42705208Y-137801802D01*
X42908174Y-137838504D01*
X42921414Y-137837085D01*
X42926000Y-137822450D01*
X42926000Y-137818849D01*
X43434000Y-137818849D01*
X43438310Y-137833527D01*
X43450193Y-137835590D01*
X43529325Y-137828876D01*
X43539797Y-137827086D01*
X43752535Y-137771870D01*
X43762575Y-137768335D01*
X43962970Y-137678063D01*
X43972256Y-137672894D01*
X44154575Y-137550150D01*
X44162870Y-137543481D01*
X44321900Y-137391772D01*
X44328941Y-137383814D01*
X44460141Y-137207475D01*
X44465745Y-137198438D01*
X44565357Y-137002516D01*
X44569357Y-136992665D01*
X44634534Y-136782760D01*
X44636817Y-136772376D01*
X44638861Y-136756957D01*
X44636665Y-136742793D01*
X44623478Y-136739000D01*
X43452115Y-136739000D01*
X43436876Y-136743475D01*
X43435671Y-136744865D01*
X43434000Y-136752548D01*
X43434000Y-137818849D01*
X42926000Y-137818849D01*
X42926000Y-136757115D01*
X42921525Y-136741876D01*
X42920135Y-136740671D01*
X42912452Y-136739000D01*
X41738808Y-136739000D01*
X41725277Y-136742973D01*
X41723752Y-136753580D01*
X30988000Y-136753580D01*
X30988000Y-133985000D01*
X41699341Y-133985000D01*
X41719937Y-134220408D01*
X41721361Y-134225722D01*
X41721361Y-134225723D01*
X41777145Y-134433912D01*
X41781097Y-134448663D01*
X41783419Y-134453643D01*
X41783420Y-134453645D01*
X41874624Y-134649230D01*
X41880965Y-134662829D01*
X42016505Y-134856401D01*
X42183599Y-135023495D01*
X42332567Y-135127803D01*
X42376895Y-135183259D01*
X42384204Y-135253878D01*
X42352174Y-135317238D01*
X42330663Y-135335535D01*
X42205425Y-135419850D01*
X42197130Y-135426519D01*
X42038100Y-135578228D01*
X42031059Y-135586186D01*
X41899859Y-135762525D01*
X41894255Y-135771562D01*
X41794643Y-135967484D01*
X41790643Y-135977335D01*
X41725466Y-136187240D01*
X41723183Y-136197624D01*
X41721139Y-136213043D01*
X41723335Y-136227207D01*
X41736522Y-136231000D01*
X44621192Y-136231000D01*
X44634723Y-136227027D01*
X44636248Y-136216420D01*
X44611523Y-136098579D01*
X44608463Y-136088383D01*
X44527737Y-135883971D01*
X44523006Y-135874439D01*
X44408984Y-135686538D01*
X44402720Y-135677948D01*
X44258673Y-135511948D01*
X44251042Y-135504528D01*
X44081089Y-135365174D01*
X44072322Y-135359149D01*
X44038367Y-135339821D01*
X43989061Y-135288739D01*
X43975199Y-135219108D01*
X44001182Y-135153037D01*
X44028427Y-135127107D01*
X44176401Y-135023495D01*
X44343495Y-134856401D01*
X44346655Y-134851889D01*
X44475878Y-134667339D01*
X44475881Y-134667334D01*
X44479035Y-134662830D01*
X44481358Y-134657848D01*
X44481361Y-134657843D01*
X44576580Y-134453645D01*
X44576581Y-134453644D01*
X44578903Y-134448663D01*
X44582856Y-134433912D01*
X44638639Y-134225723D01*
X44638639Y-134225722D01*
X44640063Y-134220408D01*
X44660659Y-133985000D01*
X44640063Y-133749592D01*
X44578903Y-133521337D01*
X44560251Y-133481337D01*
X44481358Y-133312152D01*
X44481356Y-133312149D01*
X44479035Y-133307171D01*
X44343495Y-133113599D01*
X44197734Y-132967838D01*
X44163708Y-132905526D01*
X44168773Y-132834711D01*
X44211320Y-132777875D01*
X44225572Y-132769326D01*
X44225529Y-132769256D01*
X44368117Y-132681020D01*
X44374345Y-132677166D01*
X44497984Y-132553311D01*
X44589814Y-132404334D01*
X44644910Y-132238228D01*
X44655500Y-132134866D01*
X44655500Y-130981636D01*
X44675502Y-130913515D01*
X44692405Y-130892541D01*
X44989918Y-130595028D01*
X58038025Y-130595028D01*
X58075347Y-130838930D01*
X58152003Y-131073460D01*
X58265935Y-131292321D01*
X58269038Y-131296454D01*
X58269040Y-131296457D01*
X58380569Y-131445000D01*
X58414083Y-131489636D01*
X58592468Y-131660104D01*
X58596740Y-131663018D01*
X58596741Y-131663019D01*
X58625893Y-131682905D01*
X58796300Y-131799149D01*
X58908202Y-131851092D01*
X59015409Y-131900856D01*
X59015413Y-131900857D01*
X59020104Y-131903035D01*
X59257871Y-131968974D01*
X59263008Y-131969523D01*
X59455957Y-131990144D01*
X59455965Y-131990144D01*
X59459292Y-131990500D01*
X59602554Y-131990500D01*
X59605127Y-131990288D01*
X59605138Y-131990288D01*
X59780760Y-131975849D01*
X59780766Y-131975848D01*
X59785911Y-131975425D01*
X60025217Y-131915316D01*
X60251493Y-131816928D01*
X60458661Y-131682905D01*
X60480516Y-131663019D01*
X60516536Y-131630243D01*
X60641158Y-131516846D01*
X60644357Y-131512795D01*
X60644361Y-131512791D01*
X60790881Y-131327264D01*
X60790884Y-131327259D01*
X60794082Y-131323210D01*
X60796577Y-131318691D01*
X60910830Y-131111722D01*
X60910832Y-131111718D01*
X60913327Y-131107198D01*
X60925275Y-131073460D01*
X60993965Y-130879485D01*
X60993966Y-130879481D01*
X60995691Y-130874610D01*
X61014829Y-130767170D01*
X61038055Y-130636783D01*
X61038056Y-130636777D01*
X61038961Y-130631694D01*
X61039931Y-130552324D01*
X61041912Y-130390142D01*
X61041912Y-130390140D01*
X61041975Y-130384972D01*
X61004653Y-130141070D01*
X60927997Y-129906540D01*
X60814065Y-129687679D01*
X60795380Y-129662792D01*
X60669022Y-129494499D01*
X60669020Y-129494496D01*
X60665917Y-129490364D01*
X60487532Y-129319896D01*
X60459212Y-129300577D01*
X60287979Y-129183770D01*
X60287980Y-129183770D01*
X60283700Y-129180851D01*
X60171798Y-129128908D01*
X60064591Y-129079144D01*
X60064587Y-129079143D01*
X60059896Y-129076965D01*
X59822129Y-129011026D01*
X59784233Y-129006976D01*
X59624043Y-128989856D01*
X59624035Y-128989856D01*
X59620708Y-128989500D01*
X59477446Y-128989500D01*
X59474873Y-128989712D01*
X59474862Y-128989712D01*
X59299240Y-129004151D01*
X59299234Y-129004152D01*
X59294089Y-129004575D01*
X59054783Y-129064684D01*
X58828507Y-129163072D01*
X58621339Y-129297095D01*
X58617514Y-129300575D01*
X58617512Y-129300577D01*
X58596281Y-129319896D01*
X58438842Y-129463154D01*
X58435643Y-129467205D01*
X58435639Y-129467209D01*
X58289119Y-129652736D01*
X58289116Y-129652741D01*
X58285918Y-129656790D01*
X58283425Y-129661306D01*
X58283423Y-129661309D01*
X58191921Y-129827066D01*
X58166673Y-129872802D01*
X58164949Y-129877671D01*
X58164947Y-129877675D01*
X58123793Y-129993890D01*
X58084309Y-130105390D01*
X58083402Y-130110483D01*
X58083401Y-130110486D01*
X58049962Y-130298213D01*
X58041039Y-130348306D01*
X58038025Y-130595028D01*
X44989918Y-130595028D01*
X51707541Y-123877405D01*
X51769853Y-123843379D01*
X51796636Y-123840500D01*
X65263500Y-123840500D01*
X65331621Y-123860502D01*
X65378114Y-123914158D01*
X65389500Y-123966500D01*
X65389500Y-129459000D01*
X65388951Y-129470640D01*
X65387240Y-129478296D01*
X65387489Y-129486219D01*
X65389438Y-129548230D01*
X65389500Y-129552188D01*
X65389500Y-129580925D01*
X65389995Y-129584842D01*
X65390039Y-129585191D01*
X65390971Y-129597024D01*
X65392403Y-129642569D01*
X65394615Y-129650183D01*
X65394616Y-129650188D01*
X65398278Y-129662792D01*
X65402289Y-129682156D01*
X65404929Y-129703058D01*
X65407848Y-129710429D01*
X65407848Y-129710431D01*
X65421702Y-129745420D01*
X65425541Y-129756631D01*
X65438256Y-129800398D01*
X65447720Y-129816401D01*
X65448981Y-129818533D01*
X65457676Y-129836281D01*
X65465432Y-129855871D01*
X65492218Y-129892738D01*
X65498725Y-129902646D01*
X65517883Y-129935042D01*
X65517887Y-129935047D01*
X65521919Y-129941865D01*
X65536812Y-129956758D01*
X65549653Y-129971792D01*
X65562037Y-129988837D01*
X65568145Y-129993890D01*
X65597143Y-130017879D01*
X65605923Y-130025869D01*
X72427752Y-136847698D01*
X72435593Y-136856315D01*
X72439798Y-136862940D01*
X72445577Y-136868367D01*
X72445578Y-136868368D01*
X72490816Y-136910849D01*
X72493658Y-136913604D01*
X72513966Y-136933912D01*
X72517103Y-136936345D01*
X72517372Y-136936554D01*
X72526402Y-136944266D01*
X72559607Y-136975448D01*
X72578070Y-136985599D01*
X72594590Y-136996450D01*
X72611237Y-137009363D01*
X72653046Y-137027455D01*
X72663706Y-137032677D01*
X72703632Y-137054627D01*
X72724037Y-137059866D01*
X72742742Y-137066270D01*
X72762074Y-137074636D01*
X72769900Y-137075876D01*
X72769905Y-137075877D01*
X72807076Y-137081765D01*
X72818696Y-137084171D01*
X72855142Y-137093528D01*
X72862823Y-137095500D01*
X72883884Y-137095500D01*
X72903596Y-137097051D01*
X72924405Y-137100347D01*
X72932297Y-137099601D01*
X72969767Y-137096059D01*
X72981625Y-137095500D01*
X111496971Y-137095500D01*
X111565092Y-137115502D01*
X111611585Y-137169158D01*
X111619765Y-137193799D01*
X111620359Y-137199519D01*
X111675744Y-137365529D01*
X111767834Y-137514345D01*
X111891689Y-137637984D01*
X112040666Y-137729814D01*
X112047614Y-137732119D01*
X112047615Y-137732119D01*
X112200241Y-137782744D01*
X112200243Y-137782745D01*
X112206772Y-137784910D01*
X112310134Y-137795500D01*
X113859866Y-137795500D01*
X113863112Y-137795163D01*
X113863116Y-137795163D01*
X113957661Y-137785353D01*
X113957665Y-137785352D01*
X113964519Y-137784641D01*
X113971055Y-137782460D01*
X113971057Y-137782460D01*
X114123581Y-137731574D01*
X114130529Y-137729256D01*
X114279345Y-137637166D01*
X114402984Y-137513311D01*
X114494814Y-137364334D01*
X114497119Y-137357385D01*
X114547744Y-137204759D01*
X114547745Y-137204757D01*
X114549910Y-137198228D01*
X114560500Y-137094866D01*
X114560500Y-135795134D01*
X114558054Y-135771562D01*
X114550353Y-135697339D01*
X114550352Y-135697335D01*
X114549641Y-135690481D01*
X114494256Y-135524471D01*
X114402166Y-135375655D01*
X114278311Y-135252016D01*
X114129334Y-135160186D01*
X114130493Y-135158305D01*
X114085314Y-135118532D01*
X114065846Y-135050257D01*
X114086381Y-134982295D01*
X114102747Y-134962149D01*
X114248495Y-134816401D01*
X114251655Y-134811889D01*
X114380878Y-134627339D01*
X114380879Y-134627337D01*
X114384035Y-134622830D01*
X114386358Y-134617848D01*
X114386361Y-134617843D01*
X114481580Y-134413645D01*
X114481581Y-134413644D01*
X114483903Y-134408663D01*
X114497886Y-134356479D01*
X114543639Y-134185723D01*
X114543639Y-134185722D01*
X114545063Y-134180408D01*
X114565659Y-133945000D01*
X114545063Y-133709592D01*
X114483903Y-133481337D01*
X114481580Y-133476355D01*
X114386358Y-133272152D01*
X114386356Y-133272149D01*
X114384035Y-133267171D01*
X114248495Y-133073599D01*
X114081401Y-132906505D01*
X113926743Y-132798212D01*
X113882414Y-132742756D01*
X113875105Y-132672137D01*
X113907135Y-132608776D01*
X113926743Y-132591787D01*
X113981693Y-132553311D01*
X114081401Y-132483495D01*
X114248495Y-132316401D01*
X114251655Y-132311889D01*
X114380878Y-132127339D01*
X114380881Y-132127334D01*
X114384035Y-132122830D01*
X114386358Y-132117848D01*
X114386361Y-132117843D01*
X114481580Y-131913645D01*
X114481581Y-131913644D01*
X114483903Y-131908663D01*
X114545063Y-131680408D01*
X114565659Y-131445000D01*
X114545063Y-131209592D01*
X114483903Y-130981337D01*
X114452277Y-130913515D01*
X114386358Y-130772152D01*
X114386356Y-130772149D01*
X114384035Y-130767171D01*
X114248495Y-130573599D01*
X114081401Y-130406505D01*
X113926743Y-130298212D01*
X113882414Y-130242756D01*
X113875105Y-130172137D01*
X113907135Y-130108776D01*
X113926743Y-130091787D01*
X114066555Y-129993890D01*
X114081401Y-129983495D01*
X114248495Y-129816401D01*
X114251655Y-129811889D01*
X114380878Y-129627339D01*
X114380881Y-129627334D01*
X114384035Y-129622830D01*
X114386358Y-129617848D01*
X114386361Y-129617843D01*
X114481580Y-129413645D01*
X114481581Y-129413644D01*
X114483903Y-129408663D01*
X114527717Y-129245147D01*
X114543639Y-129185723D01*
X114543639Y-129185722D01*
X114545063Y-129180408D01*
X114565659Y-128945000D01*
X114545063Y-128709592D01*
X114507444Y-128569194D01*
X114485326Y-128486647D01*
X114485325Y-128486645D01*
X114483903Y-128481337D01*
X114481580Y-128476355D01*
X114386358Y-128272152D01*
X114386356Y-128272149D01*
X114384035Y-128267171D01*
X114248495Y-128073599D01*
X114081401Y-127906505D01*
X113932433Y-127802197D01*
X113888105Y-127746741D01*
X113880796Y-127676122D01*
X113912826Y-127612762D01*
X113934337Y-127594465D01*
X114059575Y-127510150D01*
X114067870Y-127503481D01*
X114226900Y-127351772D01*
X114233941Y-127343814D01*
X114365141Y-127167475D01*
X114370745Y-127158438D01*
X114470357Y-126962516D01*
X114474357Y-126952665D01*
X114539534Y-126742760D01*
X114541817Y-126732376D01*
X114543861Y-126716957D01*
X114541665Y-126702793D01*
X114528478Y-126699000D01*
X111643808Y-126699000D01*
X111630277Y-126702973D01*
X111628752Y-126713580D01*
X111653477Y-126831421D01*
X111656537Y-126841617D01*
X111737263Y-127046029D01*
X111741994Y-127055561D01*
X111856016Y-127243462D01*
X111862280Y-127252052D01*
X112006327Y-127418052D01*
X112013958Y-127425472D01*
X112183911Y-127564826D01*
X112192678Y-127570851D01*
X112226633Y-127590179D01*
X112275939Y-127641261D01*
X112289801Y-127710892D01*
X112263818Y-127776963D01*
X112236573Y-127802893D01*
X112088599Y-127906505D01*
X111921505Y-128073599D01*
X111918348Y-128078107D01*
X111918346Y-128078110D01*
X111789122Y-128262661D01*
X111785965Y-128267170D01*
X111783642Y-128272152D01*
X111783639Y-128272157D01*
X111730527Y-128386056D01*
X111686097Y-128481337D01*
X111684675Y-128486645D01*
X111684674Y-128486647D01*
X111662556Y-128569194D01*
X111624937Y-128709592D01*
X111604341Y-128945000D01*
X111624937Y-129180408D01*
X111626361Y-129185722D01*
X111626361Y-129185723D01*
X111642284Y-129245147D01*
X111686097Y-129408663D01*
X111688419Y-129413643D01*
X111688420Y-129413645D01*
X111773937Y-129597034D01*
X111785965Y-129622829D01*
X111921505Y-129816401D01*
X112088599Y-129983495D01*
X112103445Y-129993890D01*
X112243257Y-130091787D01*
X112287586Y-130147244D01*
X112294895Y-130217863D01*
X112262865Y-130281224D01*
X112243258Y-130298212D01*
X112088599Y-130406505D01*
X111921505Y-130573599D01*
X111918348Y-130578107D01*
X111918346Y-130578110D01*
X111880826Y-130631694D01*
X111785965Y-130767170D01*
X111783642Y-130772152D01*
X111783639Y-130772157D01*
X111727503Y-130892541D01*
X111686097Y-130981337D01*
X111624937Y-131209592D01*
X111604341Y-131445000D01*
X111624937Y-131680408D01*
X111686097Y-131908663D01*
X111688419Y-131913643D01*
X111688420Y-131913645D01*
X111724259Y-131990500D01*
X111785965Y-132122829D01*
X111921505Y-132316401D01*
X112088599Y-132483495D01*
X112188307Y-132553311D01*
X112243257Y-132591787D01*
X112287586Y-132647244D01*
X112294895Y-132717863D01*
X112262865Y-132781224D01*
X112243258Y-132798212D01*
X112088599Y-132906505D01*
X111921505Y-133073599D01*
X111918348Y-133078107D01*
X111918346Y-133078110D01*
X111804450Y-133240771D01*
X111748993Y-133285099D01*
X111701237Y-133294500D01*
X91466196Y-133294500D01*
X91398075Y-133274498D01*
X91377101Y-133257595D01*
X88714534Y-130595028D01*
X96438025Y-130595028D01*
X96475347Y-130838930D01*
X96552003Y-131073460D01*
X96665935Y-131292321D01*
X96669038Y-131296454D01*
X96669040Y-131296457D01*
X96780569Y-131445000D01*
X96814083Y-131489636D01*
X96992468Y-131660104D01*
X96996740Y-131663018D01*
X96996741Y-131663019D01*
X97025893Y-131682905D01*
X97196300Y-131799149D01*
X97308202Y-131851092D01*
X97415409Y-131900856D01*
X97415413Y-131900857D01*
X97420104Y-131903035D01*
X97657871Y-131968974D01*
X97663008Y-131969523D01*
X97855957Y-131990144D01*
X97855965Y-131990144D01*
X97859292Y-131990500D01*
X98002554Y-131990500D01*
X98005127Y-131990288D01*
X98005138Y-131990288D01*
X98180760Y-131975849D01*
X98180766Y-131975848D01*
X98185911Y-131975425D01*
X98425217Y-131915316D01*
X98651493Y-131816928D01*
X98858661Y-131682905D01*
X98880516Y-131663019D01*
X98916536Y-131630243D01*
X99041158Y-131516846D01*
X99044357Y-131512795D01*
X99044361Y-131512791D01*
X99190881Y-131327264D01*
X99190884Y-131327259D01*
X99194082Y-131323210D01*
X99196577Y-131318691D01*
X99310830Y-131111722D01*
X99310832Y-131111718D01*
X99313327Y-131107198D01*
X99325275Y-131073460D01*
X99393965Y-130879485D01*
X99393966Y-130879481D01*
X99395691Y-130874610D01*
X99414829Y-130767170D01*
X99438055Y-130636783D01*
X99438056Y-130636777D01*
X99438961Y-130631694D01*
X99439931Y-130552324D01*
X99441912Y-130390142D01*
X99441912Y-130390140D01*
X99441975Y-130384972D01*
X99404653Y-130141070D01*
X99327997Y-129906540D01*
X99214065Y-129687679D01*
X99195380Y-129662792D01*
X99069022Y-129494499D01*
X99069020Y-129494496D01*
X99065917Y-129490364D01*
X98887532Y-129319896D01*
X98859212Y-129300577D01*
X98687979Y-129183770D01*
X98687980Y-129183770D01*
X98683700Y-129180851D01*
X98571798Y-129128908D01*
X98464591Y-129079144D01*
X98464587Y-129079143D01*
X98459896Y-129076965D01*
X98222129Y-129011026D01*
X98184233Y-129006976D01*
X98024043Y-128989856D01*
X98024035Y-128989856D01*
X98020708Y-128989500D01*
X97877446Y-128989500D01*
X97874873Y-128989712D01*
X97874862Y-128989712D01*
X97699240Y-129004151D01*
X97699234Y-129004152D01*
X97694089Y-129004575D01*
X97454783Y-129064684D01*
X97228507Y-129163072D01*
X97021339Y-129297095D01*
X97017514Y-129300575D01*
X97017512Y-129300577D01*
X96996281Y-129319896D01*
X96838842Y-129463154D01*
X96835643Y-129467205D01*
X96835639Y-129467209D01*
X96689119Y-129652736D01*
X96689116Y-129652741D01*
X96685918Y-129656790D01*
X96683425Y-129661306D01*
X96683423Y-129661309D01*
X96591921Y-129827066D01*
X96566673Y-129872802D01*
X96564949Y-129877671D01*
X96564947Y-129877675D01*
X96523793Y-129993890D01*
X96484309Y-130105390D01*
X96483402Y-130110483D01*
X96483401Y-130110486D01*
X96449962Y-130298213D01*
X96441039Y-130348306D01*
X96438025Y-130595028D01*
X88714534Y-130595028D01*
X87253001Y-129133495D01*
X87218975Y-129071183D01*
X87224040Y-129000368D01*
X87266587Y-128943532D01*
X87310016Y-128922552D01*
X87329836Y-128917334D01*
X87338656Y-128914297D01*
X87578677Y-128811176D01*
X87586949Y-128806869D01*
X87809086Y-128669407D01*
X87816633Y-128663923D01*
X87823428Y-128658171D01*
X87831866Y-128645366D01*
X87825804Y-128635014D01*
X86469885Y-127279095D01*
X86435859Y-127216783D01*
X86437694Y-127191132D01*
X87104408Y-127191132D01*
X87104539Y-127192965D01*
X87108790Y-127199580D01*
X88185131Y-128275921D01*
X88199042Y-128283517D01*
X88203092Y-128280750D01*
X88341845Y-128065034D01*
X88346292Y-128056842D01*
X88453585Y-127818662D01*
X88456780Y-127809885D01*
X88527686Y-127558466D01*
X88529544Y-127549336D01*
X88562705Y-127288675D01*
X88563186Y-127282388D01*
X88565522Y-127193160D01*
X88565371Y-127186851D01*
X88545898Y-126924810D01*
X88544521Y-126915604D01*
X88486866Y-126660802D01*
X88484142Y-126651891D01*
X88389457Y-126408410D01*
X88385446Y-126400001D01*
X88255819Y-126173201D01*
X88255712Y-126173043D01*
X111626139Y-126173043D01*
X111628335Y-126187207D01*
X111641522Y-126191000D01*
X112812885Y-126191000D01*
X112828124Y-126186525D01*
X112829329Y-126185135D01*
X112831000Y-126177452D01*
X112831000Y-126172885D01*
X113339000Y-126172885D01*
X113343475Y-126188124D01*
X113344865Y-126189329D01*
X113352548Y-126191000D01*
X114526192Y-126191000D01*
X114539723Y-126187027D01*
X114541248Y-126176420D01*
X114516523Y-126058579D01*
X114513463Y-126048383D01*
X114432737Y-125843971D01*
X114428006Y-125834439D01*
X114313984Y-125646538D01*
X114307720Y-125637948D01*
X114163673Y-125471948D01*
X114156042Y-125464528D01*
X113986089Y-125325174D01*
X113977322Y-125319150D01*
X113786318Y-125210424D01*
X113776654Y-125205959D01*
X113570059Y-125130969D01*
X113559792Y-125128198D01*
X113356826Y-125091496D01*
X113343586Y-125092915D01*
X113339000Y-125107550D01*
X113339000Y-126172885D01*
X112831000Y-126172885D01*
X112831000Y-125111151D01*
X112826690Y-125096473D01*
X112814807Y-125094410D01*
X112735675Y-125101124D01*
X112725203Y-125102914D01*
X112512465Y-125158130D01*
X112502425Y-125161665D01*
X112302030Y-125251937D01*
X112292744Y-125257106D01*
X112110425Y-125379850D01*
X112102130Y-125386519D01*
X111943100Y-125538228D01*
X111936059Y-125546186D01*
X111804859Y-125722525D01*
X111799255Y-125731562D01*
X111699643Y-125927484D01*
X111695643Y-125937335D01*
X111630466Y-126147240D01*
X111628183Y-126157624D01*
X111626139Y-126173043D01*
X88255712Y-126173043D01*
X88250595Y-126165456D01*
X88205898Y-126108758D01*
X88193971Y-126100286D01*
X88182438Y-126106772D01*
X87112022Y-127177188D01*
X87104408Y-127191132D01*
X86437694Y-127191132D01*
X86440924Y-127145968D01*
X86469885Y-127100905D01*
X87823332Y-125747458D01*
X87829716Y-125735768D01*
X87820305Y-125723658D01*
X87670401Y-125619666D01*
X87662374Y-125614938D01*
X87428072Y-125499394D01*
X87419439Y-125495906D01*
X87170630Y-125416262D01*
X87161569Y-125414086D01*
X86903723Y-125372093D01*
X86894436Y-125371281D01*
X86633226Y-125367861D01*
X86623915Y-125368431D01*
X86365075Y-125403657D01*
X86355939Y-125405599D01*
X86105153Y-125478697D01*
X86096410Y-125481966D01*
X85859175Y-125591333D01*
X85851020Y-125595853D01*
X85632555Y-125739084D01*
X85625150Y-125744767D01*
X85600401Y-125766856D01*
X85536260Y-125797294D01*
X85465845Y-125788222D01*
X85411513Y-125742522D01*
X85390500Y-125672853D01*
X85390500Y-124966863D01*
X85410502Y-124898742D01*
X85466761Y-124851095D01*
X85579498Y-124802660D01*
X85722330Y-124714273D01*
X85804670Y-124663320D01*
X85804674Y-124663317D01*
X85808643Y-124660861D01*
X86014312Y-124486749D01*
X86191986Y-124284150D01*
X86194516Y-124280218D01*
X86335235Y-124061445D01*
X86337763Y-124057515D01*
X86448440Y-123811821D01*
X86521585Y-123552468D01*
X86555592Y-123285151D01*
X86558084Y-123190000D01*
X86554547Y-123142408D01*
X86538460Y-122925922D01*
X86538459Y-122925918D01*
X86538114Y-122921270D01*
X86500700Y-122755923D01*
X86490769Y-122712037D01*
X86478642Y-122658444D01*
X86472330Y-122642212D01*
X86382669Y-122411648D01*
X86382668Y-122411646D01*
X86380976Y-122407295D01*
X86357951Y-122367010D01*
X86341515Y-122297945D01*
X86365028Y-122230955D01*
X86421026Y-122187312D01*
X86467345Y-122178489D01*
X90743860Y-122178489D01*
X90755500Y-122179038D01*
X90763156Y-122180749D01*
X90771079Y-122180500D01*
X90833090Y-122178551D01*
X90837048Y-122178489D01*
X90865785Y-122178489D01*
X90870056Y-122177950D01*
X90881884Y-122177018D01*
X90927429Y-122175586D01*
X90935043Y-122173374D01*
X90935048Y-122173373D01*
X90947652Y-122169711D01*
X90967016Y-122165700D01*
X90987918Y-122163060D01*
X90995289Y-122160141D01*
X90995291Y-122160141D01*
X91016488Y-122151748D01*
X91030283Y-122146286D01*
X91041491Y-122142448D01*
X91085258Y-122129733D01*
X91103396Y-122119007D01*
X91121141Y-122110313D01*
X91140731Y-122102557D01*
X91177598Y-122075771D01*
X91187506Y-122069264D01*
X91219902Y-122050106D01*
X91219907Y-122050102D01*
X91226725Y-122046070D01*
X91241618Y-122031177D01*
X91256652Y-122018336D01*
X91267283Y-122010612D01*
X91273697Y-122005952D01*
X91302740Y-121970845D01*
X91310729Y-121962066D01*
X100247929Y-113024866D01*
X111584500Y-113024866D01*
X111584837Y-113028112D01*
X111584837Y-113028116D01*
X111594515Y-113121383D01*
X111595359Y-113129519D01*
X111650744Y-113295529D01*
X111742834Y-113444345D01*
X111866689Y-113567984D01*
X111872919Y-113571824D01*
X111872920Y-113571825D01*
X111895454Y-113585715D01*
X112015666Y-113659814D01*
X112022614Y-113662119D01*
X112022615Y-113662119D01*
X112175241Y-113712744D01*
X112175243Y-113712745D01*
X112181772Y-113714910D01*
X112285134Y-113725500D01*
X113884866Y-113725500D01*
X113888112Y-113725163D01*
X113888116Y-113725163D01*
X113982661Y-113715353D01*
X113982665Y-113715352D01*
X113989519Y-113714641D01*
X113996055Y-113712460D01*
X113996057Y-113712460D01*
X114148581Y-113661574D01*
X114155529Y-113659256D01*
X114304345Y-113567166D01*
X114427984Y-113443311D01*
X114432088Y-113436654D01*
X114463618Y-113385501D01*
X114519814Y-113294334D01*
X114529079Y-113266401D01*
X114572744Y-113134759D01*
X114572745Y-113134757D01*
X114574910Y-113128228D01*
X114585500Y-113024866D01*
X114585500Y-111725134D01*
X114584206Y-111712661D01*
X114575353Y-111627339D01*
X114575352Y-111627335D01*
X114574641Y-111620481D01*
X114565229Y-111592268D01*
X114521574Y-111461419D01*
X114519256Y-111454471D01*
X114427166Y-111305655D01*
X114303311Y-111182016D01*
X114297079Y-111178175D01*
X114297077Y-111178173D01*
X114156236Y-111091358D01*
X114108742Y-111038586D01*
X114097318Y-110968515D01*
X114125592Y-110903391D01*
X114135379Y-110892929D01*
X114251900Y-110781772D01*
X114258941Y-110773814D01*
X114390141Y-110597475D01*
X114395745Y-110588438D01*
X114495357Y-110392516D01*
X114499357Y-110382665D01*
X114564534Y-110172760D01*
X114566817Y-110162376D01*
X114568861Y-110146957D01*
X114566665Y-110132793D01*
X114553478Y-110129000D01*
X111618808Y-110129000D01*
X111605277Y-110132973D01*
X111603752Y-110143580D01*
X111628477Y-110261421D01*
X111631537Y-110271617D01*
X111712263Y-110476029D01*
X111716994Y-110485561D01*
X111831016Y-110673462D01*
X111837280Y-110682052D01*
X111981327Y-110848052D01*
X111988957Y-110855472D01*
X112027109Y-110886754D01*
X112067103Y-110945413D01*
X112069035Y-111016384D01*
X112032291Y-111077132D01*
X112013522Y-111091331D01*
X111865655Y-111182834D01*
X111742016Y-111306689D01*
X111650186Y-111455666D01*
X111647881Y-111462614D01*
X111647881Y-111462615D01*
X111617989Y-111552736D01*
X111595090Y-111621772D01*
X111584500Y-111725134D01*
X111584500Y-113024866D01*
X100247929Y-113024866D01*
X103669752Y-109603043D01*
X111601139Y-109603043D01*
X111603335Y-109617207D01*
X111616522Y-109621000D01*
X112812885Y-109621000D01*
X112828124Y-109616525D01*
X112829329Y-109615135D01*
X112831000Y-109607452D01*
X112831000Y-109602885D01*
X113339000Y-109602885D01*
X113343475Y-109618124D01*
X113344865Y-109619329D01*
X113352548Y-109621000D01*
X114551192Y-109621000D01*
X114564723Y-109617027D01*
X114566248Y-109606420D01*
X114541523Y-109488579D01*
X114538463Y-109478383D01*
X114457737Y-109273971D01*
X114453006Y-109264439D01*
X114338984Y-109076538D01*
X114332720Y-109067948D01*
X114188673Y-108901948D01*
X114181042Y-108894528D01*
X114011089Y-108755174D01*
X114002322Y-108749150D01*
X113811318Y-108640424D01*
X113801654Y-108635959D01*
X113595059Y-108560969D01*
X113584792Y-108558198D01*
X113367345Y-108518877D01*
X113359116Y-108517944D01*
X113354624Y-108517732D01*
X113341876Y-108521475D01*
X113340671Y-108522865D01*
X113339000Y-108530548D01*
X113339000Y-109602885D01*
X112831000Y-109602885D01*
X112831000Y-108539030D01*
X112826690Y-108524352D01*
X112814807Y-108522289D01*
X112710675Y-108531124D01*
X112700203Y-108532914D01*
X112487465Y-108588130D01*
X112477425Y-108591665D01*
X112277030Y-108681937D01*
X112267744Y-108687106D01*
X112085425Y-108809850D01*
X112077130Y-108816519D01*
X111918100Y-108968228D01*
X111911059Y-108976186D01*
X111779859Y-109152525D01*
X111774255Y-109161562D01*
X111674643Y-109357484D01*
X111670643Y-109367335D01*
X111605466Y-109577240D01*
X111603183Y-109587624D01*
X111601139Y-109603043D01*
X103669752Y-109603043D01*
X114812218Y-98460577D01*
X114820835Y-98452736D01*
X114827460Y-98448531D01*
X114875370Y-98397512D01*
X114878124Y-98394671D01*
X114898431Y-98374364D01*
X114900860Y-98371233D01*
X114900865Y-98371227D01*
X114901078Y-98370952D01*
X114908775Y-98361939D01*
X114939968Y-98328722D01*
X114950116Y-98310263D01*
X114960970Y-98293739D01*
X114969024Y-98283356D01*
X114969025Y-98283355D01*
X114973882Y-98277093D01*
X114991975Y-98235281D01*
X114997190Y-98224636D01*
X115019147Y-98184697D01*
X115024387Y-98164288D01*
X115030793Y-98145579D01*
X115036008Y-98133529D01*
X115036010Y-98133524D01*
X115039155Y-98126255D01*
X115046282Y-98081259D01*
X115048689Y-98069639D01*
X115058048Y-98033189D01*
X115058049Y-98033184D01*
X115060020Y-98025506D01*
X115060020Y-98004445D01*
X115061571Y-97984733D01*
X115063627Y-97971752D01*
X115064867Y-97963924D01*
X115060579Y-97918564D01*
X115060020Y-97906706D01*
X115060020Y-93500519D01*
X115060569Y-93488879D01*
X115062280Y-93481223D01*
X115060082Y-93411288D01*
X115060020Y-93407331D01*
X115060020Y-93378595D01*
X115059481Y-93374327D01*
X115058548Y-93362484D01*
X115057366Y-93324876D01*
X115057117Y-93316951D01*
X115054905Y-93309337D01*
X115054904Y-93309332D01*
X115051242Y-93296728D01*
X115047231Y-93277363D01*
X115045584Y-93264325D01*
X115044591Y-93256462D01*
X115041673Y-93249093D01*
X115041672Y-93249088D01*
X115027817Y-93214093D01*
X115023972Y-93202863D01*
X115013475Y-93166731D01*
X115013474Y-93166730D01*
X115011264Y-93159121D01*
X115000539Y-93140986D01*
X114991840Y-93123229D01*
X114987006Y-93111018D01*
X114987005Y-93111016D01*
X114984088Y-93103649D01*
X114963385Y-93075153D01*
X114957308Y-93066789D01*
X114950792Y-93056869D01*
X114950190Y-93055851D01*
X114927601Y-93017655D01*
X114912708Y-93002762D01*
X114899867Y-92987728D01*
X114892143Y-92977097D01*
X114887483Y-92970683D01*
X114852376Y-92941640D01*
X114843597Y-92933651D01*
X114532111Y-92622165D01*
X114498085Y-92559853D01*
X114499499Y-92500459D01*
X114543639Y-92335723D01*
X114543639Y-92335722D01*
X114545063Y-92330408D01*
X114565659Y-92095000D01*
X114545063Y-91859592D01*
X114538686Y-91835791D01*
X114485326Y-91636647D01*
X114485325Y-91636645D01*
X114483903Y-91631337D01*
X114446266Y-91550625D01*
X114386358Y-91422152D01*
X114386356Y-91422149D01*
X114384035Y-91417171D01*
X114248495Y-91223599D01*
X114081401Y-91056505D01*
X113932433Y-90952197D01*
X113888105Y-90896741D01*
X113880796Y-90826122D01*
X113912826Y-90762762D01*
X113934337Y-90744465D01*
X114059575Y-90660150D01*
X114067870Y-90653481D01*
X114226900Y-90501772D01*
X114233941Y-90493814D01*
X114365141Y-90317475D01*
X114370745Y-90308438D01*
X114470357Y-90112516D01*
X114474357Y-90102665D01*
X114539534Y-89892760D01*
X114541817Y-89882376D01*
X114543861Y-89866957D01*
X114541665Y-89852793D01*
X114528478Y-89849000D01*
X111643808Y-89849000D01*
X111630277Y-89852973D01*
X111628752Y-89863580D01*
X111653477Y-89981421D01*
X111656537Y-89991617D01*
X111737263Y-90196029D01*
X111741994Y-90205561D01*
X111856016Y-90393462D01*
X111862280Y-90402052D01*
X112006327Y-90568052D01*
X112013958Y-90575472D01*
X112183911Y-90714826D01*
X112192678Y-90720851D01*
X112226633Y-90740179D01*
X112275939Y-90791261D01*
X112289801Y-90860892D01*
X112263818Y-90926963D01*
X112236573Y-90952893D01*
X112088599Y-91056505D01*
X111921505Y-91223599D01*
X111918348Y-91228107D01*
X111918346Y-91228110D01*
X111805800Y-91388842D01*
X111785965Y-91417170D01*
X111783642Y-91422152D01*
X111783639Y-91422157D01*
X111692682Y-91617215D01*
X111686097Y-91631337D01*
X111684675Y-91636645D01*
X111684674Y-91636647D01*
X111631314Y-91835791D01*
X111624937Y-91859592D01*
X111604341Y-92095000D01*
X111624937Y-92330408D01*
X111626361Y-92335722D01*
X111626361Y-92335723D01*
X111652315Y-92432584D01*
X111686097Y-92558663D01*
X111688419Y-92563643D01*
X111688420Y-92563645D01*
X111781356Y-92762944D01*
X111785965Y-92772829D01*
X111921505Y-92966401D01*
X112088599Y-93133495D01*
X112237567Y-93237803D01*
X112281895Y-93293259D01*
X112289204Y-93363878D01*
X112257174Y-93427238D01*
X112235663Y-93445535D01*
X112110425Y-93529850D01*
X112102130Y-93536519D01*
X111943100Y-93688228D01*
X111936059Y-93696186D01*
X111804859Y-93872525D01*
X111799255Y-93881562D01*
X111699643Y-94077484D01*
X111695643Y-94087335D01*
X111630466Y-94297240D01*
X111628183Y-94307624D01*
X111626139Y-94323043D01*
X111628335Y-94337207D01*
X111641522Y-94341000D01*
X113213000Y-94341000D01*
X113281121Y-94361002D01*
X113327614Y-94414658D01*
X113339000Y-94467000D01*
X113339000Y-94723000D01*
X113318998Y-94791121D01*
X113265342Y-94837614D01*
X113213000Y-94849000D01*
X111643808Y-94849000D01*
X111630277Y-94852973D01*
X111628752Y-94863580D01*
X111653477Y-94981421D01*
X111656537Y-94991617D01*
X111737263Y-95196029D01*
X111741994Y-95205561D01*
X111856016Y-95393462D01*
X111862280Y-95402052D01*
X112006327Y-95568052D01*
X112013957Y-95575472D01*
X112052109Y-95606754D01*
X112092103Y-95665413D01*
X112094035Y-95736384D01*
X112057291Y-95797132D01*
X112038522Y-95811331D01*
X111890655Y-95902834D01*
X111767016Y-96026689D01*
X111675186Y-96175666D01*
X111620090Y-96341772D01*
X111619672Y-96345855D01*
X111586346Y-96407326D01*
X111524136Y-96441539D01*
X111496982Y-96444500D01*
X96916001Y-96444500D01*
X96904360Y-96443951D01*
X96896704Y-96442240D01*
X96828355Y-96444388D01*
X96826756Y-96444438D01*
X96822799Y-96444500D01*
X96794075Y-96444500D01*
X96789812Y-96445038D01*
X96777983Y-96445970D01*
X96732431Y-96447402D01*
X96712193Y-96453281D01*
X96692840Y-96457289D01*
X96689227Y-96457745D01*
X96679808Y-96458935D01*
X96679806Y-96458935D01*
X96671942Y-96459929D01*
X96664570Y-96462848D01*
X96664569Y-96462848D01*
X96629584Y-96476699D01*
X96618354Y-96480544D01*
X96582212Y-96491044D01*
X96574602Y-96493255D01*
X96567783Y-96497288D01*
X96567778Y-96497290D01*
X96556467Y-96503980D01*
X96538708Y-96512680D01*
X96526504Y-96517512D01*
X96519129Y-96520432D01*
X96512715Y-96525092D01*
X96482273Y-96547209D01*
X96472353Y-96553725D01*
X96433135Y-96576919D01*
X96418242Y-96591812D01*
X96403208Y-96604653D01*
X96386163Y-96617037D01*
X96381110Y-96623145D01*
X96357121Y-96652143D01*
X96349131Y-96660923D01*
X75539548Y-117470506D01*
X75477236Y-117504532D01*
X75412041Y-117501413D01*
X75164423Y-117422150D01*
X75159816Y-117421400D01*
X75159813Y-117421399D01*
X74903067Y-117379585D01*
X74903068Y-117379585D01*
X74898456Y-117378834D01*
X74767704Y-117377122D01*
X74633686Y-117375368D01*
X74633683Y-117375368D01*
X74629009Y-117375307D01*
X74361999Y-117411645D01*
X74357509Y-117412954D01*
X74357503Y-117412955D01*
X74266927Y-117439356D01*
X74103294Y-117487051D01*
X74099047Y-117489009D01*
X74099044Y-117489010D01*
X73907240Y-117577433D01*
X73837003Y-117587788D01*
X73772317Y-117558525D01*
X73733720Y-117498937D01*
X73728489Y-117463007D01*
X73728489Y-104663647D01*
X73748491Y-104595526D01*
X73765394Y-104574552D01*
X78967541Y-99372405D01*
X79029853Y-99338379D01*
X79056636Y-99335500D01*
X81330068Y-99335499D01*
X81482376Y-99335499D01*
X81485770Y-99335130D01*
X81485776Y-99335130D01*
X81535722Y-99329705D01*
X81535726Y-99329704D01*
X81543580Y-99328851D01*
X81677824Y-99278526D01*
X81685003Y-99273146D01*
X81685006Y-99273144D01*
X81785365Y-99197928D01*
X81792546Y-99192546D01*
X81797928Y-99185365D01*
X81873144Y-99085006D01*
X81873146Y-99085003D01*
X81878526Y-99077824D01*
X81928851Y-98943580D01*
X81935500Y-98882377D01*
X81935499Y-95937624D01*
X81932283Y-95908016D01*
X81929705Y-95884278D01*
X81929704Y-95884274D01*
X81928851Y-95876420D01*
X81878526Y-95742176D01*
X81873146Y-95734997D01*
X81873144Y-95734994D01*
X81797928Y-95634635D01*
X81792546Y-95627454D01*
X81785365Y-95622072D01*
X81685006Y-95546856D01*
X81685003Y-95546854D01*
X81677824Y-95541474D01*
X81588439Y-95507966D01*
X81550975Y-95493921D01*
X81550973Y-95493921D01*
X81543580Y-95491149D01*
X81535730Y-95490296D01*
X81535729Y-95490296D01*
X81485774Y-95484869D01*
X81485773Y-95484869D01*
X81482377Y-95484500D01*
X80010216Y-95484500D01*
X78537624Y-95484501D01*
X78534230Y-95484870D01*
X78534224Y-95484870D01*
X78484278Y-95490295D01*
X78484274Y-95490296D01*
X78476420Y-95491149D01*
X78342176Y-95541474D01*
X78334997Y-95546854D01*
X78334994Y-95546856D01*
X78234635Y-95622072D01*
X78227454Y-95627454D01*
X78222072Y-95634635D01*
X78146856Y-95734994D01*
X78146854Y-95734997D01*
X78141474Y-95742176D01*
X78091149Y-95876420D01*
X78084500Y-95937623D01*
X78084500Y-95941040D01*
X78084501Y-98363363D01*
X78064499Y-98431484D01*
X78047596Y-98452458D01*
X72675291Y-103824763D01*
X72666674Y-103832604D01*
X72660049Y-103836809D01*
X72654622Y-103842588D01*
X72654621Y-103842589D01*
X72612140Y-103887827D01*
X72609385Y-103890669D01*
X72589078Y-103910976D01*
X72586649Y-103914107D01*
X72586644Y-103914113D01*
X72586431Y-103914388D01*
X72578734Y-103923401D01*
X72547541Y-103956618D01*
X72543722Y-103963565D01*
X72537393Y-103975077D01*
X72526539Y-103991601D01*
X72513627Y-104008247D01*
X72495535Y-104050056D01*
X72490319Y-104060704D01*
X72468362Y-104100643D01*
X72466391Y-104108322D01*
X72466390Y-104108323D01*
X72463122Y-104121052D01*
X72456716Y-104139761D01*
X72451501Y-104151811D01*
X72451499Y-104151816D01*
X72448354Y-104159085D01*
X72447115Y-104166909D01*
X72441228Y-104204076D01*
X72438820Y-104215701D01*
X72429461Y-104252151D01*
X72429460Y-104252156D01*
X72427489Y-104259834D01*
X72427489Y-104280895D01*
X72425938Y-104300607D01*
X72422642Y-104321416D01*
X72423388Y-104329307D01*
X72426930Y-104366776D01*
X72427489Y-104378634D01*
X72427489Y-114003353D01*
X72407487Y-114071474D01*
X72353831Y-114117967D01*
X72283557Y-114128071D01*
X72218977Y-114098577D01*
X72212394Y-114092448D01*
X56572405Y-98452459D01*
X56538379Y-98390147D01*
X56535500Y-98363364D01*
X56535499Y-95941042D01*
X56535499Y-95937624D01*
X56532283Y-95908016D01*
X56529705Y-95884278D01*
X56529704Y-95884274D01*
X56528851Y-95876420D01*
X56478526Y-95742176D01*
X56473146Y-95734997D01*
X56473144Y-95734994D01*
X56397928Y-95634635D01*
X56392546Y-95627454D01*
X56385365Y-95622072D01*
X56285006Y-95546856D01*
X56285003Y-95546854D01*
X56277824Y-95541474D01*
X56188439Y-95507966D01*
X56150975Y-95493921D01*
X56150973Y-95493921D01*
X56143580Y-95491149D01*
X56135730Y-95490296D01*
X56135729Y-95490296D01*
X56085774Y-95484869D01*
X56085773Y-95484869D01*
X56082377Y-95484500D01*
X54610216Y-95484500D01*
X53137624Y-95484501D01*
X53134230Y-95484870D01*
X53134224Y-95484870D01*
X53084278Y-95490295D01*
X53084274Y-95490296D01*
X53076420Y-95491149D01*
X52942176Y-95541474D01*
X52934997Y-95546854D01*
X52934994Y-95546856D01*
X52834635Y-95622072D01*
X52827454Y-95627454D01*
X52822072Y-95634635D01*
X52746856Y-95734994D01*
X52746854Y-95734997D01*
X52741474Y-95742176D01*
X52691149Y-95876420D01*
X52684500Y-95937623D01*
X52684501Y-98882376D01*
X52691149Y-98943580D01*
X52741474Y-99077824D01*
X52746854Y-99085003D01*
X52746856Y-99085006D01*
X52822072Y-99185365D01*
X52827454Y-99192546D01*
X52834635Y-99197928D01*
X52934994Y-99273144D01*
X52934997Y-99273146D01*
X52942176Y-99278526D01*
X53031561Y-99312034D01*
X53069025Y-99326079D01*
X53069027Y-99326079D01*
X53076420Y-99328851D01*
X53084270Y-99329704D01*
X53084271Y-99329704D01*
X53134217Y-99335130D01*
X53137623Y-99335500D01*
X53289890Y-99335500D01*
X55563363Y-99335499D01*
X55631484Y-99355501D01*
X55652458Y-99372404D01*
X71891064Y-115611010D01*
X71925090Y-115673322D01*
X71927969Y-115700105D01*
X71927969Y-117251000D01*
X71907967Y-117319121D01*
X71854311Y-117365614D01*
X71801969Y-117377000D01*
X69447414Y-117377001D01*
X69380124Y-117377001D01*
X69376730Y-117377370D01*
X69376724Y-117377370D01*
X69326778Y-117382795D01*
X69326774Y-117382796D01*
X69318920Y-117383649D01*
X69184676Y-117433974D01*
X69177497Y-117439354D01*
X69177494Y-117439356D01*
X69094693Y-117501413D01*
X69069954Y-117519954D01*
X69064572Y-117527135D01*
X68989356Y-117627494D01*
X68989354Y-117627497D01*
X68983974Y-117634676D01*
X68980824Y-117643080D01*
X68940467Y-117750734D01*
X68933649Y-117768920D01*
X68927000Y-117830123D01*
X68927000Y-118413500D01*
X68906998Y-118481621D01*
X68853342Y-118528114D01*
X68801000Y-118539500D01*
X52796636Y-118539500D01*
X52728515Y-118519498D01*
X52707541Y-118502595D01*
X46699974Y-112495028D01*
X59538025Y-112495028D01*
X59575347Y-112738930D01*
X59652003Y-112973460D01*
X59765935Y-113192321D01*
X59769038Y-113196454D01*
X59769040Y-113196457D01*
X59847207Y-113300566D01*
X59914083Y-113389636D01*
X60092468Y-113560104D01*
X60096740Y-113563018D01*
X60096741Y-113563019D01*
X60125893Y-113582905D01*
X60296300Y-113699149D01*
X60405464Y-113749821D01*
X60515409Y-113800856D01*
X60515413Y-113800857D01*
X60520104Y-113803035D01*
X60757871Y-113868974D01*
X60763008Y-113869523D01*
X60955957Y-113890144D01*
X60955965Y-113890144D01*
X60959292Y-113890500D01*
X61102554Y-113890500D01*
X61105127Y-113890288D01*
X61105138Y-113890288D01*
X61280760Y-113875849D01*
X61280766Y-113875848D01*
X61285911Y-113875425D01*
X61525217Y-113815316D01*
X61751493Y-113716928D01*
X61958661Y-113582905D01*
X61971723Y-113571020D01*
X62016536Y-113530243D01*
X62141158Y-113416846D01*
X62144357Y-113412795D01*
X62144361Y-113412791D01*
X62290881Y-113227264D01*
X62290884Y-113227259D01*
X62294082Y-113223210D01*
X62296577Y-113218691D01*
X62410830Y-113011722D01*
X62410832Y-113011718D01*
X62413327Y-113007198D01*
X62425275Y-112973460D01*
X62493965Y-112779485D01*
X62493966Y-112779481D01*
X62495691Y-112774610D01*
X62520431Y-112635723D01*
X62538055Y-112536783D01*
X62538056Y-112536777D01*
X62538961Y-112531694D01*
X62541975Y-112284972D01*
X62504653Y-112041070D01*
X62427997Y-111806540D01*
X62314065Y-111587679D01*
X62269340Y-111528110D01*
X62169022Y-111394499D01*
X62169020Y-111394496D01*
X62165917Y-111390364D01*
X61987532Y-111219896D01*
X61959212Y-111200577D01*
X61799103Y-111091358D01*
X61783700Y-111080851D01*
X61644817Y-111016384D01*
X61564591Y-110979144D01*
X61564587Y-110979143D01*
X61559896Y-110976965D01*
X61322129Y-110911026D01*
X61316992Y-110910477D01*
X61124043Y-110889856D01*
X61124035Y-110889856D01*
X61120708Y-110889500D01*
X60977446Y-110889500D01*
X60974873Y-110889712D01*
X60974862Y-110889712D01*
X60799240Y-110904151D01*
X60799234Y-110904152D01*
X60794089Y-110904575D01*
X60554783Y-110964684D01*
X60328507Y-111063072D01*
X60121339Y-111197095D01*
X60117514Y-111200575D01*
X60117512Y-111200577D01*
X60096281Y-111219896D01*
X59938842Y-111363154D01*
X59935643Y-111367205D01*
X59935639Y-111367209D01*
X59789119Y-111552736D01*
X59789116Y-111552741D01*
X59785918Y-111556790D01*
X59783425Y-111561306D01*
X59783423Y-111561309D01*
X59691211Y-111728352D01*
X59666673Y-111772802D01*
X59664949Y-111777671D01*
X59664947Y-111777675D01*
X59608652Y-111936647D01*
X59584309Y-112005390D01*
X59541039Y-112248306D01*
X59540976Y-112253469D01*
X59538392Y-112465022D01*
X59538025Y-112495028D01*
X46699974Y-112495028D01*
X44692405Y-110487459D01*
X44658379Y-110425147D01*
X44655500Y-110398364D01*
X44655500Y-109245134D01*
X44655163Y-109241884D01*
X44645353Y-109147339D01*
X44645352Y-109147335D01*
X44644641Y-109140481D01*
X44589256Y-108974471D01*
X44497166Y-108825655D01*
X44373311Y-108702016D01*
X44224334Y-108610186D01*
X44157839Y-108588130D01*
X44064759Y-108557256D01*
X44064757Y-108557255D01*
X44058228Y-108555090D01*
X43954866Y-108544500D01*
X42405134Y-108544500D01*
X42401888Y-108544837D01*
X42401884Y-108544837D01*
X42307339Y-108554647D01*
X42307335Y-108554648D01*
X42300481Y-108555359D01*
X42293945Y-108557540D01*
X42293943Y-108557540D01*
X42202254Y-108588130D01*
X42134471Y-108610744D01*
X41985655Y-108702834D01*
X41862016Y-108826689D01*
X41770186Y-108975666D01*
X41767881Y-108982614D01*
X41767881Y-108982615D01*
X41736728Y-109076538D01*
X41715090Y-109141772D01*
X41704500Y-109245134D01*
X41704500Y-110544866D01*
X41704837Y-110548112D01*
X41704837Y-110548116D01*
X41709959Y-110597475D01*
X41715359Y-110649519D01*
X41770744Y-110815529D01*
X41862834Y-110964345D01*
X41986689Y-111087984D01*
X41992919Y-111091824D01*
X41992920Y-111091825D01*
X42135666Y-111179814D01*
X42134507Y-111181695D01*
X42179686Y-111221468D01*
X42199154Y-111289743D01*
X42178619Y-111357705D01*
X42162253Y-111377851D01*
X42016505Y-111523599D01*
X42013348Y-111528107D01*
X42013346Y-111528110D01*
X41884122Y-111712661D01*
X41880965Y-111717170D01*
X41878642Y-111722152D01*
X41878639Y-111722157D01*
X41783420Y-111926355D01*
X41781097Y-111931337D01*
X41719937Y-112159592D01*
X41699341Y-112395000D01*
X41719937Y-112630408D01*
X41721361Y-112635722D01*
X41721361Y-112635723D01*
X41759882Y-112779485D01*
X41781097Y-112858663D01*
X41783419Y-112863643D01*
X41783420Y-112863645D01*
X41850361Y-113007198D01*
X41880965Y-113072829D01*
X42016505Y-113266401D01*
X42183599Y-113433495D01*
X42332567Y-113537803D01*
X42376895Y-113593259D01*
X42384204Y-113663878D01*
X42352174Y-113727238D01*
X42330663Y-113745535D01*
X42205425Y-113829850D01*
X42197130Y-113836519D01*
X42038100Y-113988228D01*
X42031059Y-113996186D01*
X41899859Y-114172525D01*
X41894255Y-114181562D01*
X41794643Y-114377484D01*
X41790643Y-114387335D01*
X41725466Y-114597240D01*
X41723183Y-114607624D01*
X41721139Y-114623043D01*
X41723335Y-114637207D01*
X41736522Y-114641000D01*
X44621192Y-114641000D01*
X44634723Y-114637027D01*
X44636248Y-114626420D01*
X44611523Y-114508579D01*
X44608463Y-114498383D01*
X44527737Y-114293971D01*
X44523006Y-114284439D01*
X44408984Y-114096538D01*
X44402720Y-114087948D01*
X44258673Y-113921948D01*
X44251042Y-113914528D01*
X44081089Y-113775174D01*
X44072322Y-113769149D01*
X44038367Y-113749821D01*
X43989061Y-113698739D01*
X43975199Y-113629108D01*
X44001182Y-113563037D01*
X44028427Y-113537107D01*
X44176401Y-113433495D01*
X44343495Y-113266401D01*
X44346655Y-113261889D01*
X44475878Y-113077339D01*
X44475881Y-113077334D01*
X44479035Y-113072830D01*
X44481358Y-113067848D01*
X44481361Y-113067843D01*
X44576580Y-112863645D01*
X44576581Y-112863644D01*
X44578903Y-112858663D01*
X44600119Y-112779485D01*
X44638639Y-112635723D01*
X44638639Y-112635722D01*
X44640063Y-112630408D01*
X44640543Y-112624922D01*
X44640544Y-112624916D01*
X44645106Y-112572780D01*
X44670969Y-112506662D01*
X44728473Y-112465022D01*
X44799360Y-112461082D01*
X44859721Y-112494667D01*
X51957752Y-119592698D01*
X51965593Y-119601315D01*
X51969798Y-119607940D01*
X51975577Y-119613367D01*
X51975578Y-119613368D01*
X52020816Y-119655849D01*
X52023658Y-119658604D01*
X52043965Y-119678911D01*
X52047096Y-119681340D01*
X52047102Y-119681345D01*
X52047377Y-119681558D01*
X52056390Y-119689255D01*
X52089607Y-119720448D01*
X52096554Y-119724267D01*
X52108066Y-119730596D01*
X52124590Y-119741450D01*
X52141236Y-119754362D01*
X52183045Y-119772454D01*
X52193693Y-119777670D01*
X52233632Y-119799627D01*
X52241311Y-119801598D01*
X52241312Y-119801599D01*
X52254041Y-119804867D01*
X52272750Y-119811273D01*
X52284800Y-119816488D01*
X52284805Y-119816490D01*
X52292074Y-119819635D01*
X52337070Y-119826762D01*
X52348690Y-119829169D01*
X52385140Y-119838528D01*
X52385145Y-119838529D01*
X52392823Y-119840500D01*
X52413884Y-119840500D01*
X52433596Y-119842051D01*
X52454405Y-119845347D01*
X52462296Y-119844601D01*
X52499765Y-119841059D01*
X52511623Y-119840500D01*
X68165364Y-119840500D01*
X68233485Y-119860502D01*
X68279978Y-119914158D01*
X68290082Y-119984432D01*
X68260588Y-120049012D01*
X68254459Y-120055595D01*
X65807459Y-122502595D01*
X65745147Y-122536621D01*
X65718364Y-122539500D01*
X51555999Y-122539500D01*
X51544359Y-122538951D01*
X51536703Y-122537240D01*
X51528780Y-122537489D01*
X51466769Y-122539438D01*
X51462811Y-122539500D01*
X51434075Y-122539500D01*
X51430140Y-122539997D01*
X51429807Y-122540039D01*
X51417972Y-122540971D01*
X51372430Y-122542403D01*
X51364813Y-122544616D01*
X51352208Y-122548278D01*
X51332844Y-122552289D01*
X51330665Y-122552564D01*
X51319806Y-122553935D01*
X51319801Y-122553936D01*
X51311942Y-122554929D01*
X51269574Y-122571703D01*
X51258361Y-122575542D01*
X51222211Y-122586045D01*
X51214601Y-122588256D01*
X51196466Y-122598981D01*
X51178712Y-122607678D01*
X51175882Y-122608799D01*
X51166498Y-122612514D01*
X51166496Y-122612515D01*
X51159129Y-122615432D01*
X51130633Y-122636135D01*
X51122269Y-122642212D01*
X51112352Y-122648726D01*
X51073135Y-122671919D01*
X51058242Y-122686812D01*
X51043208Y-122699653D01*
X51026163Y-122712037D01*
X51021110Y-122718145D01*
X50997121Y-122747143D01*
X50989131Y-122755923D01*
X43647459Y-130097595D01*
X43585147Y-130131621D01*
X43558364Y-130134500D01*
X42405134Y-130134500D01*
X42401888Y-130134837D01*
X42401884Y-130134837D01*
X42307339Y-130144647D01*
X42307335Y-130144648D01*
X42300481Y-130145359D01*
X42293945Y-130147540D01*
X42293943Y-130147540D01*
X42220217Y-130172137D01*
X42134471Y-130200744D01*
X41985655Y-130292834D01*
X41862016Y-130416689D01*
X41770186Y-130565666D01*
X41767881Y-130572614D01*
X41767881Y-130572615D01*
X41749998Y-130626531D01*
X41715090Y-130731772D01*
X41704500Y-130835134D01*
X41704500Y-132134866D01*
X41704837Y-132138112D01*
X41704837Y-132138116D01*
X41714515Y-132231383D01*
X41715359Y-132239519D01*
X41770744Y-132405529D01*
X41862834Y-132554345D01*
X41986689Y-132677984D01*
X41992919Y-132681824D01*
X41992920Y-132681825D01*
X42135666Y-132769814D01*
X42134507Y-132771695D01*
X42179686Y-132811468D01*
X42199154Y-132879743D01*
X42178619Y-132947705D01*
X42162253Y-132967851D01*
X42016505Y-133113599D01*
X42013348Y-133118107D01*
X42013346Y-133118110D01*
X41884122Y-133302661D01*
X41880965Y-133307170D01*
X41878642Y-133312152D01*
X41878639Y-133312157D01*
X41799749Y-133481337D01*
X41781097Y-133521337D01*
X41719937Y-133749592D01*
X41699341Y-133985000D01*
X30988000Y-133985000D01*
X30988000Y-115163580D01*
X41723752Y-115163580D01*
X41748477Y-115281421D01*
X41751537Y-115291617D01*
X41832263Y-115496029D01*
X41836994Y-115505561D01*
X41951016Y-115693462D01*
X41957280Y-115702052D01*
X42101327Y-115868052D01*
X42108958Y-115875472D01*
X42278911Y-116014826D01*
X42287678Y-116020850D01*
X42478682Y-116129576D01*
X42488346Y-116134041D01*
X42694941Y-116209031D01*
X42705208Y-116211802D01*
X42908174Y-116248504D01*
X42921414Y-116247085D01*
X42926000Y-116232450D01*
X42926000Y-116228849D01*
X43434000Y-116228849D01*
X43438310Y-116243527D01*
X43450193Y-116245590D01*
X43529325Y-116238876D01*
X43539797Y-116237086D01*
X43752535Y-116181870D01*
X43762575Y-116178335D01*
X43962970Y-116088063D01*
X43972256Y-116082894D01*
X44154575Y-115960150D01*
X44162870Y-115953481D01*
X44321900Y-115801772D01*
X44328941Y-115793814D01*
X44460141Y-115617475D01*
X44465745Y-115608438D01*
X44565357Y-115412516D01*
X44569357Y-115402665D01*
X44634534Y-115192760D01*
X44636817Y-115182376D01*
X44638861Y-115166957D01*
X44636665Y-115152793D01*
X44623478Y-115149000D01*
X43452115Y-115149000D01*
X43436876Y-115153475D01*
X43435671Y-115154865D01*
X43434000Y-115162548D01*
X43434000Y-116228849D01*
X42926000Y-116228849D01*
X42926000Y-115167115D01*
X42921525Y-115151876D01*
X42920135Y-115150671D01*
X42912452Y-115149000D01*
X41738808Y-115149000D01*
X41725277Y-115152973D01*
X41723752Y-115163580D01*
X30988000Y-115163580D01*
X30988000Y-93604200D01*
X38538747Y-93604200D01*
X38539306Y-93608444D01*
X38539306Y-93608448D01*
X38549809Y-93688228D01*
X38576129Y-93888149D01*
X38651702Y-94164398D01*
X38653386Y-94168346D01*
X38758448Y-94414658D01*
X38764068Y-94427835D01*
X38911146Y-94673585D01*
X39090215Y-94897100D01*
X39297962Y-95094245D01*
X39530543Y-95261371D01*
X39783653Y-95395386D01*
X39807870Y-95404248D01*
X40043008Y-95490296D01*
X40052610Y-95493810D01*
X40332436Y-95554822D01*
X40371901Y-95557928D01*
X40554597Y-95572307D01*
X40554604Y-95572307D01*
X40557053Y-95572500D01*
X40711992Y-95572500D01*
X40714128Y-95572354D01*
X40714139Y-95572354D01*
X40921460Y-95558220D01*
X40921466Y-95558219D01*
X40925737Y-95557928D01*
X40929932Y-95557059D01*
X40929934Y-95557059D01*
X41065962Y-95528889D01*
X41206186Y-95499850D01*
X41476158Y-95404248D01*
X41730658Y-95272891D01*
X41734159Y-95270430D01*
X41734163Y-95270428D01*
X41961471Y-95110673D01*
X41961477Y-95110668D01*
X41964976Y-95108209D01*
X42174776Y-94913251D01*
X42185575Y-94900058D01*
X42353461Y-94694941D01*
X42356177Y-94691623D01*
X42505820Y-94447427D01*
X42512802Y-94431522D01*
X42594427Y-94245577D01*
X53439590Y-94245577D01*
X53446980Y-94255879D01*
X53492217Y-94292707D01*
X53499492Y-94297821D01*
X53726379Y-94434418D01*
X53734303Y-94438454D01*
X53978165Y-94541718D01*
X53986570Y-94544596D01*
X54242565Y-94612471D01*
X54251286Y-94614135D01*
X54514295Y-94645264D01*
X54523160Y-94645682D01*
X54787917Y-94639442D01*
X54796777Y-94638605D01*
X55058001Y-94595126D01*
X55066658Y-94593047D01*
X55319157Y-94513192D01*
X55327419Y-94509921D01*
X55566149Y-94395284D01*
X55573874Y-94390878D01*
X55773293Y-94257631D01*
X55781581Y-94247713D01*
X55780488Y-94245577D01*
X78839590Y-94245577D01*
X78846980Y-94255879D01*
X78892217Y-94292707D01*
X78899492Y-94297821D01*
X79126379Y-94434418D01*
X79134303Y-94438454D01*
X79378165Y-94541718D01*
X79386570Y-94544596D01*
X79642565Y-94612471D01*
X79651286Y-94614135D01*
X79914295Y-94645264D01*
X79923160Y-94645682D01*
X80187917Y-94639442D01*
X80196777Y-94638605D01*
X80458001Y-94595126D01*
X80466658Y-94593047D01*
X80719157Y-94513192D01*
X80727419Y-94509921D01*
X80966149Y-94395284D01*
X80973874Y-94390878D01*
X81173293Y-94257631D01*
X81181581Y-94247713D01*
X81174324Y-94233534D01*
X80022812Y-93082022D01*
X80008868Y-93074408D01*
X80007035Y-93074539D01*
X80000420Y-93078790D01*
X78846756Y-94232454D01*
X78839590Y-94245577D01*
X55780488Y-94245577D01*
X55774324Y-94233534D01*
X54622812Y-93082022D01*
X54608868Y-93074408D01*
X54607035Y-93074539D01*
X54600420Y-93078790D01*
X53446756Y-94232454D01*
X53439590Y-94245577D01*
X42594427Y-94245577D01*
X42619214Y-94189110D01*
X42619215Y-94189106D01*
X42620938Y-94185182D01*
X42699400Y-93909739D01*
X42739754Y-93626196D01*
X42740781Y-93430063D01*
X42741231Y-93344086D01*
X42741231Y-93344080D01*
X42741253Y-93339800D01*
X42737798Y-93313552D01*
X42718468Y-93166731D01*
X42703871Y-93055851D01*
X42628298Y-92779602D01*
X42574545Y-92653580D01*
X52673193Y-92653580D01*
X52683590Y-92918209D01*
X52684565Y-92927038D01*
X52732146Y-93187565D01*
X52734355Y-93196169D01*
X52818168Y-93447388D01*
X52821572Y-93455606D01*
X52939946Y-93692511D01*
X52944464Y-93700150D01*
X53063380Y-93872208D01*
X53073700Y-93880560D01*
X53087354Y-93873436D01*
X54237978Y-92722812D01*
X54244356Y-92711132D01*
X54974408Y-92711132D01*
X54974539Y-92712965D01*
X54978790Y-92719580D01*
X56133262Y-93874052D01*
X56146662Y-93881369D01*
X56156566Y-93874382D01*
X56174963Y-93852496D01*
X56180181Y-93845313D01*
X56320325Y-93620600D01*
X56324488Y-93612736D01*
X56431564Y-93370535D01*
X56434580Y-93362158D01*
X56506462Y-93107282D01*
X56508266Y-93098574D01*
X56543687Y-92834866D01*
X56544215Y-92828473D01*
X56547837Y-92713222D01*
X56547710Y-92706779D01*
X56543943Y-92653580D01*
X78073193Y-92653580D01*
X78083590Y-92918209D01*
X78084565Y-92927038D01*
X78132146Y-93187565D01*
X78134355Y-93196169D01*
X78218168Y-93447388D01*
X78221572Y-93455606D01*
X78339946Y-93692511D01*
X78344464Y-93700150D01*
X78463380Y-93872208D01*
X78473700Y-93880560D01*
X78487354Y-93873436D01*
X79637978Y-92722812D01*
X79644356Y-92711132D01*
X80374408Y-92711132D01*
X80374539Y-92712965D01*
X80378790Y-92719580D01*
X81533262Y-93874052D01*
X81546662Y-93881369D01*
X81556566Y-93874382D01*
X81574963Y-93852496D01*
X81580181Y-93845313D01*
X81720325Y-93620600D01*
X81724488Y-93612736D01*
X81831564Y-93370535D01*
X81834580Y-93362158D01*
X81906462Y-93107282D01*
X81908266Y-93098574D01*
X81943687Y-92834866D01*
X81944215Y-92828473D01*
X81947837Y-92713222D01*
X81947710Y-92706779D01*
X81928919Y-92441394D01*
X81927666Y-92432584D01*
X81871926Y-92173680D01*
X81869450Y-92165159D01*
X81777784Y-91916688D01*
X81774129Y-91908593D01*
X81648371Y-91675523D01*
X81643609Y-91668018D01*
X81555635Y-91548910D01*
X81544510Y-91540470D01*
X81531914Y-91547296D01*
X80382022Y-92697188D01*
X80374408Y-92711132D01*
X79644356Y-92711132D01*
X79645592Y-92708868D01*
X79645461Y-92707035D01*
X79641210Y-92700420D01*
X78488016Y-91547226D01*
X78475176Y-91540215D01*
X78464484Y-91548012D01*
X78409929Y-91617215D01*
X78404931Y-91624571D01*
X78271912Y-91853578D01*
X78268008Y-91861548D01*
X78168584Y-92107013D01*
X78165837Y-92115469D01*
X78101993Y-92372487D01*
X78100465Y-92381245D01*
X78073472Y-92644696D01*
X78073193Y-92653580D01*
X56543943Y-92653580D01*
X56528919Y-92441394D01*
X56527666Y-92432584D01*
X56471926Y-92173680D01*
X56469450Y-92165159D01*
X56377784Y-91916688D01*
X56374129Y-91908593D01*
X56248371Y-91675523D01*
X56243609Y-91668018D01*
X56155635Y-91548910D01*
X56144510Y-91540470D01*
X56131914Y-91547296D01*
X54982022Y-92697188D01*
X54974408Y-92711132D01*
X54244356Y-92711132D01*
X54245592Y-92708868D01*
X54245461Y-92707035D01*
X54241210Y-92700420D01*
X53088016Y-91547226D01*
X53075176Y-91540215D01*
X53064484Y-91548012D01*
X53009929Y-91617215D01*
X53004931Y-91624571D01*
X52871912Y-91853578D01*
X52868008Y-91861548D01*
X52768584Y-92107013D01*
X52765837Y-92115469D01*
X52701993Y-92372487D01*
X52700465Y-92381245D01*
X52673472Y-92644696D01*
X52673193Y-92653580D01*
X42574545Y-92653580D01*
X42517618Y-92520117D01*
X42517616Y-92520113D01*
X42515932Y-92516165D01*
X42368854Y-92270415D01*
X42189785Y-92046900D01*
X41992404Y-91859592D01*
X41985147Y-91852705D01*
X41985144Y-91852703D01*
X41982038Y-91849755D01*
X41749457Y-91682629D01*
X41496347Y-91548614D01*
X41227390Y-91450190D01*
X40947564Y-91389178D01*
X40904389Y-91385780D01*
X40725403Y-91371693D01*
X40725396Y-91371693D01*
X40722947Y-91371500D01*
X40568008Y-91371500D01*
X40565872Y-91371646D01*
X40565861Y-91371646D01*
X40358540Y-91385780D01*
X40358534Y-91385781D01*
X40354263Y-91386072D01*
X40350068Y-91386941D01*
X40350066Y-91386941D01*
X40225869Y-91412661D01*
X40073814Y-91444150D01*
X39803842Y-91539752D01*
X39549342Y-91671109D01*
X39545841Y-91673570D01*
X39545837Y-91673572D01*
X39318529Y-91833327D01*
X39318523Y-91833332D01*
X39315024Y-91835791D01*
X39105224Y-92030749D01*
X39102510Y-92034065D01*
X39102507Y-92034068D01*
X39089256Y-92050258D01*
X38923823Y-92252377D01*
X38774180Y-92496573D01*
X38772453Y-92500507D01*
X38772452Y-92500509D01*
X38674868Y-92722812D01*
X38659062Y-92758818D01*
X38580600Y-93034261D01*
X38555791Y-93208578D01*
X38543246Y-93296728D01*
X38540246Y-93317804D01*
X38538747Y-93604200D01*
X30988000Y-93604200D01*
X30988000Y-91174766D01*
X53440123Y-91174766D01*
X53447103Y-91187893D01*
X54597188Y-92337978D01*
X54611132Y-92345592D01*
X54612965Y-92345461D01*
X54619580Y-92341210D01*
X55772641Y-91188149D01*
X55779495Y-91175597D01*
X55778879Y-91174766D01*
X78840123Y-91174766D01*
X78847103Y-91187893D01*
X79997188Y-92337978D01*
X80011132Y-92345592D01*
X80012965Y-92345461D01*
X80019580Y-92341210D01*
X81172641Y-91188149D01*
X81179495Y-91175597D01*
X81171288Y-91164526D01*
X81077512Y-91092959D01*
X81070083Y-91088079D01*
X80839020Y-90958677D01*
X80830986Y-90954896D01*
X80583975Y-90859335D01*
X80575503Y-90856728D01*
X80317499Y-90796927D01*
X80308721Y-90795537D01*
X80044872Y-90772685D01*
X80036001Y-90772545D01*
X79771553Y-90787099D01*
X79762748Y-90788211D01*
X79502989Y-90839881D01*
X79494437Y-90842221D01*
X79244559Y-90929970D01*
X79236393Y-90933504D01*
X79001381Y-91055584D01*
X78993809Y-91060223D01*
X78848525Y-91164045D01*
X78840123Y-91174766D01*
X55778879Y-91174766D01*
X55771288Y-91164526D01*
X55677512Y-91092959D01*
X55670083Y-91088079D01*
X55439020Y-90958677D01*
X55430986Y-90954896D01*
X55183975Y-90859335D01*
X55175503Y-90856728D01*
X54917499Y-90796927D01*
X54908721Y-90795537D01*
X54644872Y-90772685D01*
X54636001Y-90772545D01*
X54371553Y-90787099D01*
X54362748Y-90788211D01*
X54102989Y-90839881D01*
X54094437Y-90842221D01*
X53844559Y-90929970D01*
X53836393Y-90933504D01*
X53601381Y-91055584D01*
X53593809Y-91060223D01*
X53448525Y-91164045D01*
X53440123Y-91174766D01*
X30988000Y-91174766D01*
X30988000Y-87949364D01*
X52680535Y-87949364D01*
X52680710Y-87953816D01*
X52687805Y-88134391D01*
X52691240Y-88221833D01*
X52740230Y-88490075D01*
X52826526Y-88748739D01*
X52828519Y-88752727D01*
X52944299Y-88984439D01*
X52948408Y-88992663D01*
X52950937Y-88996322D01*
X53097637Y-89208579D01*
X53103443Y-89216980D01*
X53288538Y-89417214D01*
X53291992Y-89420026D01*
X53496538Y-89586553D01*
X53496543Y-89586556D01*
X53500000Y-89589371D01*
X53733609Y-89730015D01*
X53737704Y-89731749D01*
X53737706Y-89731750D01*
X53980603Y-89834604D01*
X53980610Y-89834606D01*
X53984704Y-89836340D01*
X54046757Y-89852793D01*
X54243979Y-89905086D01*
X54243983Y-89905087D01*
X54248276Y-89906225D01*
X54252685Y-89906747D01*
X54252691Y-89906748D01*
X54430392Y-89927780D01*
X54519065Y-89938275D01*
X54791668Y-89931851D01*
X54875248Y-89917939D01*
X55056257Y-89887811D01*
X55056261Y-89887810D01*
X55060647Y-89887080D01*
X55064888Y-89885739D01*
X55064891Y-89885738D01*
X55316388Y-89806200D01*
X55316390Y-89806199D01*
X55320634Y-89804857D01*
X55324645Y-89802931D01*
X55324650Y-89802929D01*
X55562423Y-89688752D01*
X55562424Y-89688751D01*
X55566442Y-89686822D01*
X55716505Y-89586553D01*
X55789459Y-89537807D01*
X55789463Y-89537804D01*
X55793167Y-89535329D01*
X55796484Y-89532358D01*
X55796488Y-89532355D01*
X55992966Y-89356375D01*
X55992967Y-89356374D01*
X55996284Y-89353403D01*
X56171741Y-89144671D01*
X56316037Y-88913300D01*
X56426293Y-88663906D01*
X56500309Y-88401464D01*
X56536609Y-88131212D01*
X56540418Y-88010000D01*
X56536125Y-87949364D01*
X78080535Y-87949364D01*
X78080710Y-87953816D01*
X78087805Y-88134391D01*
X78091240Y-88221833D01*
X78140230Y-88490075D01*
X78226526Y-88748739D01*
X78228519Y-88752727D01*
X78344299Y-88984439D01*
X78348408Y-88992663D01*
X78350937Y-88996322D01*
X78497637Y-89208579D01*
X78503443Y-89216980D01*
X78688538Y-89417214D01*
X78691992Y-89420026D01*
X78896538Y-89586553D01*
X78896543Y-89586556D01*
X78900000Y-89589371D01*
X79133609Y-89730015D01*
X79137704Y-89731749D01*
X79137706Y-89731750D01*
X79380603Y-89834604D01*
X79380610Y-89834606D01*
X79384704Y-89836340D01*
X79446757Y-89852793D01*
X79643979Y-89905086D01*
X79643983Y-89905087D01*
X79648276Y-89906225D01*
X79652685Y-89906747D01*
X79652691Y-89906748D01*
X79830392Y-89927780D01*
X79919065Y-89938275D01*
X80191668Y-89931851D01*
X80275248Y-89917939D01*
X80456257Y-89887811D01*
X80456261Y-89887810D01*
X80460647Y-89887080D01*
X80464888Y-89885739D01*
X80464891Y-89885738D01*
X80716388Y-89806200D01*
X80716390Y-89806199D01*
X80720634Y-89804857D01*
X80724645Y-89802931D01*
X80724650Y-89802929D01*
X80962423Y-89688752D01*
X80962424Y-89688751D01*
X80966442Y-89686822D01*
X81116505Y-89586553D01*
X81189459Y-89537807D01*
X81189463Y-89537804D01*
X81193167Y-89535329D01*
X81196484Y-89532358D01*
X81196488Y-89532355D01*
X81392966Y-89356375D01*
X81392967Y-89356374D01*
X81396284Y-89353403D01*
X81421804Y-89323043D01*
X111626139Y-89323043D01*
X111628335Y-89337207D01*
X111641522Y-89341000D01*
X112812885Y-89341000D01*
X112828124Y-89336525D01*
X112829329Y-89335135D01*
X112831000Y-89327452D01*
X112831000Y-89322885D01*
X113339000Y-89322885D01*
X113343475Y-89338124D01*
X113344865Y-89339329D01*
X113352548Y-89341000D01*
X114526192Y-89341000D01*
X114539723Y-89337027D01*
X114541248Y-89326420D01*
X114516523Y-89208579D01*
X114513463Y-89198383D01*
X114432737Y-88993971D01*
X114428006Y-88984439D01*
X114313984Y-88796538D01*
X114307720Y-88787948D01*
X114163673Y-88621948D01*
X114156042Y-88614528D01*
X113986089Y-88475174D01*
X113977322Y-88469150D01*
X113786318Y-88360424D01*
X113776654Y-88355959D01*
X113570059Y-88280969D01*
X113559792Y-88278198D01*
X113356826Y-88241496D01*
X113343586Y-88242915D01*
X113339000Y-88257550D01*
X113339000Y-89322885D01*
X112831000Y-89322885D01*
X112831000Y-88261151D01*
X112826690Y-88246473D01*
X112814807Y-88244410D01*
X112735675Y-88251124D01*
X112725203Y-88252914D01*
X112512465Y-88308130D01*
X112502425Y-88311665D01*
X112302030Y-88401937D01*
X112292744Y-88407106D01*
X112110425Y-88529850D01*
X112102130Y-88536519D01*
X111943100Y-88688228D01*
X111936059Y-88696186D01*
X111804859Y-88872525D01*
X111799255Y-88881562D01*
X111699643Y-89077484D01*
X111695643Y-89087335D01*
X111630466Y-89297240D01*
X111628183Y-89307624D01*
X111626139Y-89323043D01*
X81421804Y-89323043D01*
X81571741Y-89144671D01*
X81716037Y-88913300D01*
X81826293Y-88663906D01*
X81900309Y-88401464D01*
X81936609Y-88131212D01*
X81940418Y-88010000D01*
X81921159Y-87738002D01*
X81907333Y-87673780D01*
X81864704Y-87475778D01*
X81864704Y-87475776D01*
X81863768Y-87471431D01*
X81769389Y-87215605D01*
X81639906Y-86975630D01*
X81477901Y-86756294D01*
X81286608Y-86561972D01*
X81231611Y-86519999D01*
X81073385Y-86399244D01*
X81073381Y-86399241D01*
X81069844Y-86396542D01*
X81008157Y-86361996D01*
X80835822Y-86265484D01*
X80835817Y-86265481D01*
X80831932Y-86263306D01*
X80827774Y-86261698D01*
X80827769Y-86261695D01*
X80581776Y-86166527D01*
X80581770Y-86166525D01*
X80577621Y-86164920D01*
X80573289Y-86163916D01*
X80573286Y-86163915D01*
X80464057Y-86138597D01*
X80311984Y-86103349D01*
X80040322Y-86079820D01*
X80035887Y-86080064D01*
X80035883Y-86080064D01*
X79772497Y-86094559D01*
X79772490Y-86094560D01*
X79768054Y-86094804D01*
X79500615Y-86148001D01*
X79243339Y-86238350D01*
X79001359Y-86364048D01*
X78997744Y-86366631D01*
X78997738Y-86366635D01*
X78783126Y-86519999D01*
X78783122Y-86520002D01*
X78779505Y-86522587D01*
X78582203Y-86710805D01*
X78413389Y-86924944D01*
X78383948Y-86975630D01*
X78278669Y-87156880D01*
X78278666Y-87156886D01*
X78276431Y-87160734D01*
X78174063Y-87413468D01*
X78108327Y-87678105D01*
X78080535Y-87949364D01*
X56536125Y-87949364D01*
X56521159Y-87738002D01*
X56507333Y-87673780D01*
X56464704Y-87475778D01*
X56464704Y-87475776D01*
X56463768Y-87471431D01*
X56369389Y-87215605D01*
X56239906Y-86975630D01*
X56077901Y-86756294D01*
X55886608Y-86561972D01*
X55831611Y-86519999D01*
X55673385Y-86399244D01*
X55673381Y-86399241D01*
X55669844Y-86396542D01*
X55608157Y-86361996D01*
X55435822Y-86265484D01*
X55435817Y-86265481D01*
X55431932Y-86263306D01*
X55427774Y-86261698D01*
X55427769Y-86261695D01*
X55181776Y-86166527D01*
X55181770Y-86166525D01*
X55177621Y-86164920D01*
X55173289Y-86163916D01*
X55173286Y-86163915D01*
X55064057Y-86138597D01*
X54911984Y-86103349D01*
X54640322Y-86079820D01*
X54635887Y-86080064D01*
X54635883Y-86080064D01*
X54372497Y-86094559D01*
X54372490Y-86094560D01*
X54368054Y-86094804D01*
X54100615Y-86148001D01*
X53843339Y-86238350D01*
X53601359Y-86364048D01*
X53597744Y-86366631D01*
X53597738Y-86366635D01*
X53383126Y-86519999D01*
X53383122Y-86520002D01*
X53379505Y-86522587D01*
X53182203Y-86710805D01*
X53013389Y-86924944D01*
X52983948Y-86975630D01*
X52878669Y-87156880D01*
X52878666Y-87156886D01*
X52876431Y-87160734D01*
X52774063Y-87413468D01*
X52708327Y-87678105D01*
X52680535Y-87949364D01*
X30988000Y-87949364D01*
X30988000Y-82428200D01*
X89846747Y-82428200D01*
X89847306Y-82432444D01*
X89847306Y-82432448D01*
X89863699Y-82556969D01*
X89884129Y-82712149D01*
X89959702Y-82988398D01*
X90072068Y-83251835D01*
X90219146Y-83497585D01*
X90398215Y-83721100D01*
X90605962Y-83918245D01*
X90838543Y-84085371D01*
X91091653Y-84219386D01*
X91360610Y-84317810D01*
X91640436Y-84378822D01*
X91679901Y-84381928D01*
X91862597Y-84396307D01*
X91862604Y-84396307D01*
X91865053Y-84396500D01*
X92019992Y-84396500D01*
X92022128Y-84396354D01*
X92022139Y-84396354D01*
X92229460Y-84382220D01*
X92229466Y-84382219D01*
X92233737Y-84381928D01*
X92237932Y-84381059D01*
X92237934Y-84381059D01*
X92373962Y-84352889D01*
X92514186Y-84323850D01*
X92784158Y-84228248D01*
X93038658Y-84096891D01*
X93042159Y-84094430D01*
X93042163Y-84094428D01*
X93269471Y-83934673D01*
X93269477Y-83934668D01*
X93272976Y-83932209D01*
X93482776Y-83737251D01*
X93493575Y-83724058D01*
X93661461Y-83518941D01*
X93664177Y-83515623D01*
X93813820Y-83271427D01*
X93820802Y-83255522D01*
X93927214Y-83013110D01*
X93927215Y-83013106D01*
X93928938Y-83009182D01*
X94007400Y-82733739D01*
X94047754Y-82450196D01*
X94049253Y-82163800D01*
X94045798Y-82137552D01*
X94032301Y-82035031D01*
X94011871Y-81879851D01*
X93936298Y-81603602D01*
X93823932Y-81340165D01*
X93676854Y-81094415D01*
X93655786Y-81068117D01*
X93517345Y-80895315D01*
X93497785Y-80870900D01*
X93290038Y-80673755D01*
X93057457Y-80506629D01*
X92804347Y-80372614D01*
X92535390Y-80274190D01*
X92255564Y-80213178D01*
X92212389Y-80209780D01*
X92033403Y-80195693D01*
X92033396Y-80195693D01*
X92030947Y-80195500D01*
X91876008Y-80195500D01*
X91873872Y-80195646D01*
X91873861Y-80195646D01*
X91666540Y-80209780D01*
X91666534Y-80209781D01*
X91662263Y-80210072D01*
X91658068Y-80210941D01*
X91658066Y-80210941D01*
X91522039Y-80239111D01*
X91381814Y-80268150D01*
X91111842Y-80363752D01*
X90857342Y-80495109D01*
X90853841Y-80497570D01*
X90853837Y-80497572D01*
X90626529Y-80657327D01*
X90626523Y-80657332D01*
X90623024Y-80659791D01*
X90544181Y-80733057D01*
X90430267Y-80838912D01*
X90413224Y-80854749D01*
X90410510Y-80858065D01*
X90410507Y-80858068D01*
X90336954Y-80947932D01*
X90231823Y-81076377D01*
X90082180Y-81320573D01*
X90080453Y-81324507D01*
X90080452Y-81324509D01*
X90073580Y-81340165D01*
X89967062Y-81582818D01*
X89888600Y-81858261D01*
X89848246Y-82141804D01*
X89846747Y-82428200D01*
X30988000Y-82428200D01*
X30988000Y-81914000D01*
X31008002Y-81845879D01*
X31061658Y-81799386D01*
X31114000Y-81788000D01*
X72644000Y-81788000D01*
X98337800Y-66674000D01*
X98522427Y-66565396D01*
X98586312Y-66548000D01*
X126366000Y-66548000D01*
X126434121Y-66568002D01*
G37*
%TD.AperFunction*%
%TD*%
%TA.AperFunction,NonConductor*%
G36*
X74384040Y-124251631D02*
G01*
X74422400Y-124311373D01*
X74427489Y-124346822D01*
X74427489Y-124526989D01*
X74426940Y-124538629D01*
X74425229Y-124546285D01*
X74425478Y-124554208D01*
X74427427Y-124616219D01*
X74427489Y-124620177D01*
X74427489Y-124648914D01*
X74427984Y-124652831D01*
X74428028Y-124653180D01*
X74428960Y-124665013D01*
X74430392Y-124710558D01*
X74432604Y-124718172D01*
X74432605Y-124718177D01*
X74436267Y-124730781D01*
X74440278Y-124750145D01*
X74442918Y-124771047D01*
X74445837Y-124778418D01*
X74445837Y-124778420D01*
X74459691Y-124813409D01*
X74463530Y-124824620D01*
X74476245Y-124868387D01*
X74486970Y-124886522D01*
X74495665Y-124904270D01*
X74503421Y-124923860D01*
X74530207Y-124960727D01*
X74536714Y-124970635D01*
X74555872Y-125003031D01*
X74555876Y-125003036D01*
X74559908Y-125009854D01*
X74574801Y-125024747D01*
X74587642Y-125039781D01*
X74600026Y-125056826D01*
X74633914Y-125084860D01*
X74635132Y-125085868D01*
X74643912Y-125093858D01*
X74710823Y-125160769D01*
X74744849Y-125223081D01*
X74739784Y-125293896D01*
X74697237Y-125350732D01*
X74630255Y-125375323D01*
X74629009Y-125375307D01*
X74361999Y-125411645D01*
X74357509Y-125412954D01*
X74357503Y-125412955D01*
X74247334Y-125445067D01*
X74103294Y-125487051D01*
X74099047Y-125489009D01*
X74099044Y-125489010D01*
X74061394Y-125506367D01*
X73858575Y-125599868D01*
X73808421Y-125632751D01*
X73637134Y-125745051D01*
X73637129Y-125745055D01*
X73633221Y-125747617D01*
X73629729Y-125750734D01*
X73560530Y-125812496D01*
X73496389Y-125842934D01*
X73425974Y-125833862D01*
X73387534Y-125807588D01*
X72794043Y-125214097D01*
X72760017Y-125151785D01*
X72765082Y-125080970D01*
X72807629Y-125024134D01*
X72869421Y-124999751D01*
X72908952Y-124995422D01*
X73066666Y-124978150D01*
X73066672Y-124978149D01*
X73071319Y-124977640D01*
X73117343Y-124965523D01*
X73327387Y-124910223D01*
X73327389Y-124910222D01*
X73331910Y-124909032D01*
X73362550Y-124895868D01*
X73575204Y-124804505D01*
X73575206Y-124804504D01*
X73579498Y-124802660D01*
X73722330Y-124714273D01*
X73804670Y-124663320D01*
X73804674Y-124663317D01*
X73808643Y-124660861D01*
X74014312Y-124486749D01*
X74191986Y-124284150D01*
X74195519Y-124278658D01*
X74196014Y-124278229D01*
X74197331Y-124276482D01*
X74197706Y-124276765D01*
X74249193Y-124232187D01*
X74319471Y-124222112D01*
X74384040Y-124251631D01*
G37*
%TD.AperFunction*%
%TA.AperFunction,NonConductor*%
G36*
X111565092Y-97765502D02*
G01*
X111611585Y-97819158D01*
X111619765Y-97843799D01*
X111620359Y-97849519D01*
X111675744Y-98015529D01*
X111767834Y-98164345D01*
X111891689Y-98287984D01*
X111897919Y-98291824D01*
X111897920Y-98291825D01*
X111931658Y-98312621D01*
X112040666Y-98379814D01*
X112047614Y-98382119D01*
X112047615Y-98382119D01*
X112200241Y-98432744D01*
X112200243Y-98432745D01*
X112206772Y-98434910D01*
X112310134Y-98445500D01*
X112683213Y-98445500D01*
X112751334Y-98465502D01*
X112797827Y-98519158D01*
X112807931Y-98589432D01*
X112778437Y-98654012D01*
X112772308Y-98660595D01*
X90592319Y-120840584D01*
X90530007Y-120874610D01*
X90503224Y-120877489D01*
X87896598Y-120877489D01*
X87828477Y-120857487D01*
X87781984Y-120803831D01*
X87771880Y-120733557D01*
X87801374Y-120668977D01*
X87815186Y-120655322D01*
X87916924Y-120569194D01*
X88014312Y-120486749D01*
X88191986Y-120284150D01*
X88337763Y-120057515D01*
X88448440Y-119811821D01*
X88521585Y-119552468D01*
X88555592Y-119285151D01*
X88558084Y-119190000D01*
X88554547Y-119142408D01*
X88538460Y-118925922D01*
X88538459Y-118925918D01*
X88538114Y-118921270D01*
X88478642Y-118658444D01*
X88459336Y-118608799D01*
X88382669Y-118411648D01*
X88382668Y-118411646D01*
X88380976Y-118407295D01*
X88247260Y-118173340D01*
X88080432Y-117961720D01*
X87884157Y-117777083D01*
X87690992Y-117643080D01*
X87666585Y-117626148D01*
X87666580Y-117626145D01*
X87662747Y-117623486D01*
X87620052Y-117602431D01*
X87425254Y-117506367D01*
X87425251Y-117506366D01*
X87421066Y-117504302D01*
X87164423Y-117422150D01*
X87159816Y-117421400D01*
X87159813Y-117421399D01*
X86903067Y-117379585D01*
X86903068Y-117379585D01*
X86898456Y-117378834D01*
X86767704Y-117377122D01*
X86633686Y-117375368D01*
X86633683Y-117375368D01*
X86629009Y-117375307D01*
X86361999Y-117411645D01*
X86357509Y-117412954D01*
X86357503Y-117412955D01*
X86266927Y-117439356D01*
X86103294Y-117487051D01*
X86099047Y-117489009D01*
X86099044Y-117489010D01*
X86061394Y-117506367D01*
X85858575Y-117599868D01*
X85808421Y-117632751D01*
X85637134Y-117745051D01*
X85637129Y-117745055D01*
X85633221Y-117747617D01*
X85432180Y-117927053D01*
X85259870Y-118134233D01*
X85120075Y-118364607D01*
X85118266Y-118368921D01*
X85118264Y-118368925D01*
X85081085Y-118457588D01*
X85015868Y-118613113D01*
X84949537Y-118874293D01*
X84922539Y-119142408D01*
X84935468Y-119411569D01*
X84988039Y-119675862D01*
X85079098Y-119929481D01*
X85081314Y-119933605D01*
X85145604Y-120053254D01*
X85206644Y-120166856D01*
X85209439Y-120170599D01*
X85209441Y-120170602D01*
X85365083Y-120379032D01*
X85365088Y-120379038D01*
X85367875Y-120382770D01*
X85371184Y-120386050D01*
X85371189Y-120386056D01*
X85475811Y-120489769D01*
X85559249Y-120572482D01*
X85563011Y-120575240D01*
X85563014Y-120575243D01*
X85664802Y-120649877D01*
X85707910Y-120706288D01*
X85713677Y-120777050D01*
X85680271Y-120839697D01*
X85618300Y-120874338D01*
X85590297Y-120877489D01*
X83896598Y-120877489D01*
X83828477Y-120857487D01*
X83781984Y-120803831D01*
X83771880Y-120733557D01*
X83801374Y-120668977D01*
X83815186Y-120655322D01*
X83916924Y-120569194D01*
X84014312Y-120486749D01*
X84191986Y-120284150D01*
X84337763Y-120057515D01*
X84448440Y-119811821D01*
X84521585Y-119552468D01*
X84555592Y-119285151D01*
X84558084Y-119190000D01*
X84554547Y-119142408D01*
X84538460Y-118925922D01*
X84538459Y-118925918D01*
X84538114Y-118921270D01*
X84478642Y-118658444D01*
X84459336Y-118608799D01*
X84382669Y-118411648D01*
X84382668Y-118411646D01*
X84380976Y-118407295D01*
X84247260Y-118173340D01*
X84080432Y-117961720D01*
X83884157Y-117777083D01*
X83690992Y-117643080D01*
X83666585Y-117626148D01*
X83666580Y-117626145D01*
X83662747Y-117623486D01*
X83620052Y-117602431D01*
X83425254Y-117506367D01*
X83425251Y-117506366D01*
X83421066Y-117504302D01*
X83164423Y-117422150D01*
X83159816Y-117421400D01*
X83159813Y-117421399D01*
X82903067Y-117379585D01*
X82903068Y-117379585D01*
X82898456Y-117378834D01*
X82767704Y-117377122D01*
X82633686Y-117375368D01*
X82633683Y-117375368D01*
X82629009Y-117375307D01*
X82361999Y-117411645D01*
X82357509Y-117412954D01*
X82357503Y-117412955D01*
X82266927Y-117439356D01*
X82103294Y-117487051D01*
X82099047Y-117489009D01*
X82099044Y-117489010D01*
X82061394Y-117506367D01*
X81858575Y-117599868D01*
X81808421Y-117632751D01*
X81637134Y-117745051D01*
X81637129Y-117745055D01*
X81633221Y-117747617D01*
X81432180Y-117927053D01*
X81259870Y-118134233D01*
X81120075Y-118364607D01*
X81118266Y-118368921D01*
X81118264Y-118368925D01*
X81081085Y-118457588D01*
X81015868Y-118613113D01*
X80949537Y-118874293D01*
X80922539Y-119142408D01*
X80935468Y-119411569D01*
X80988039Y-119675862D01*
X81079098Y-119929481D01*
X81081314Y-119933605D01*
X81145604Y-120053254D01*
X81206644Y-120166856D01*
X81209439Y-120170599D01*
X81209441Y-120170602D01*
X81365083Y-120379032D01*
X81365088Y-120379038D01*
X81367875Y-120382770D01*
X81371184Y-120386050D01*
X81371189Y-120386056D01*
X81475811Y-120489769D01*
X81559249Y-120572482D01*
X81563011Y-120575240D01*
X81563014Y-120575243D01*
X81664802Y-120649877D01*
X81707910Y-120706288D01*
X81713677Y-120777050D01*
X81680271Y-120839697D01*
X81618300Y-120874338D01*
X81590297Y-120877489D01*
X81399625Y-120877489D01*
X81331504Y-120857487D01*
X81310530Y-120840584D01*
X80458197Y-119988251D01*
X80424171Y-119925939D01*
X80429236Y-119855124D01*
X80432403Y-119847421D01*
X80448440Y-119811821D01*
X80521585Y-119552468D01*
X80555592Y-119285151D01*
X80558084Y-119190000D01*
X80554547Y-119142408D01*
X80538460Y-118925922D01*
X80538459Y-118925918D01*
X80538114Y-118921270D01*
X80478642Y-118658444D01*
X80459336Y-118608799D01*
X80382669Y-118411648D01*
X80382668Y-118411646D01*
X80380976Y-118407295D01*
X80247260Y-118173340D01*
X80080432Y-117961720D01*
X79884157Y-117777083D01*
X79690992Y-117643080D01*
X79666585Y-117626148D01*
X79666580Y-117626145D01*
X79662747Y-117623486D01*
X79620052Y-117602431D01*
X79425254Y-117506367D01*
X79425251Y-117506366D01*
X79421066Y-117504302D01*
X79164423Y-117422150D01*
X79159816Y-117421400D01*
X79159813Y-117421399D01*
X78903067Y-117379585D01*
X78903068Y-117379585D01*
X78898456Y-117378834D01*
X78767704Y-117377122D01*
X78633686Y-117375368D01*
X78633683Y-117375368D01*
X78629009Y-117375307D01*
X78361999Y-117411645D01*
X78357509Y-117412954D01*
X78357503Y-117412955D01*
X78266927Y-117439356D01*
X78103294Y-117487051D01*
X78099047Y-117489009D01*
X78099044Y-117489010D01*
X78061394Y-117506367D01*
X77858575Y-117599868D01*
X77808421Y-117632751D01*
X77637134Y-117745051D01*
X77637129Y-117745055D01*
X77633221Y-117747617D01*
X77432180Y-117927053D01*
X77259870Y-118134233D01*
X77120075Y-118364607D01*
X77118266Y-118368921D01*
X77118264Y-118368925D01*
X77081085Y-118457588D01*
X77015868Y-118613113D01*
X76949537Y-118874293D01*
X76922539Y-119142408D01*
X76935468Y-119411569D01*
X76988039Y-119675862D01*
X77079098Y-119929481D01*
X77081314Y-119933605D01*
X77145604Y-120053254D01*
X77206644Y-120166856D01*
X77209439Y-120170599D01*
X77209441Y-120170602D01*
X77365083Y-120379032D01*
X77365088Y-120379038D01*
X77367875Y-120382770D01*
X77371184Y-120386050D01*
X77371189Y-120386056D01*
X77475811Y-120489769D01*
X77559249Y-120572482D01*
X77563011Y-120575240D01*
X77563014Y-120575243D01*
X77741737Y-120706288D01*
X77776562Y-120731823D01*
X77780693Y-120733997D01*
X77780694Y-120733997D01*
X78010906Y-120855117D01*
X78010912Y-120855119D01*
X78015041Y-120857292D01*
X78019448Y-120858831D01*
X78019455Y-120858834D01*
X78231620Y-120932925D01*
X78269445Y-120946134D01*
X78274038Y-120947006D01*
X78529598Y-120995526D01*
X78529601Y-120995526D01*
X78534187Y-120996397D01*
X78662102Y-121001423D01*
X78798782Y-121006793D01*
X78798787Y-121006793D01*
X78803450Y-121006976D01*
X78908001Y-120995526D01*
X79066666Y-120978150D01*
X79066672Y-120978149D01*
X79071319Y-120977640D01*
X79196844Y-120944592D01*
X79327387Y-120910223D01*
X79327389Y-120910222D01*
X79331910Y-120909032D01*
X79336207Y-120907186D01*
X79336213Y-120907184D01*
X79398371Y-120880478D01*
X79468856Y-120871965D01*
X79537205Y-120907150D01*
X79984914Y-121354859D01*
X80018940Y-121417171D01*
X80013875Y-121487986D01*
X79971328Y-121544822D01*
X79948572Y-121558379D01*
X79858575Y-121599868D01*
X79808421Y-121632751D01*
X79637134Y-121745051D01*
X79637129Y-121745055D01*
X79633221Y-121747617D01*
X79432180Y-121927053D01*
X79315182Y-122067728D01*
X79272533Y-122119008D01*
X79259870Y-122134233D01*
X79120075Y-122364607D01*
X79118266Y-122368921D01*
X79118264Y-122368925D01*
X79026291Y-122588256D01*
X79015868Y-122613113D01*
X78949537Y-122874293D01*
X78922539Y-123142408D01*
X78935468Y-123411569D01*
X78988039Y-123675862D01*
X79079098Y-123929481D01*
X79081314Y-123933605D01*
X79145604Y-124053254D01*
X79206644Y-124166856D01*
X79209439Y-124170599D01*
X79209441Y-124170602D01*
X79365083Y-124379032D01*
X79365088Y-124379038D01*
X79367875Y-124382770D01*
X79371184Y-124386050D01*
X79371189Y-124386056D01*
X79540815Y-124554208D01*
X79559249Y-124572482D01*
X79563011Y-124575240D01*
X79563014Y-124575243D01*
X79736752Y-124702633D01*
X79776562Y-124731823D01*
X79780693Y-124733997D01*
X79780694Y-124733997D01*
X80010906Y-124855117D01*
X80010912Y-124855119D01*
X80015041Y-124857292D01*
X80019448Y-124858831D01*
X80019455Y-124858834D01*
X80224020Y-124930271D01*
X80269445Y-124946134D01*
X80274038Y-124947006D01*
X80529598Y-124995526D01*
X80529601Y-124995526D01*
X80534187Y-124996397D01*
X80662102Y-125001423D01*
X80798782Y-125006793D01*
X80798787Y-125006793D01*
X80803450Y-125006976D01*
X80908001Y-124995526D01*
X81066666Y-124978150D01*
X81066672Y-124978149D01*
X81071319Y-124977640D01*
X81117343Y-124965523D01*
X81327387Y-124910223D01*
X81327389Y-124910222D01*
X81331910Y-124909032D01*
X81362550Y-124895868D01*
X81575204Y-124804505D01*
X81575206Y-124804504D01*
X81579498Y-124802660D01*
X81722330Y-124714273D01*
X81804670Y-124663320D01*
X81804674Y-124663317D01*
X81808643Y-124660861D01*
X82014312Y-124486749D01*
X82191986Y-124284150D01*
X82194516Y-124280218D01*
X82335235Y-124061445D01*
X82337763Y-124057515D01*
X82448440Y-123811821D01*
X82521585Y-123552468D01*
X82555592Y-123285151D01*
X82558084Y-123190000D01*
X82554547Y-123142408D01*
X82538460Y-122925922D01*
X82538459Y-122925918D01*
X82538114Y-122921270D01*
X82500700Y-122755923D01*
X82490769Y-122712037D01*
X82478642Y-122658444D01*
X82472330Y-122642212D01*
X82382669Y-122411648D01*
X82382668Y-122411646D01*
X82380976Y-122407295D01*
X82357951Y-122367010D01*
X82341515Y-122297945D01*
X82365028Y-122230955D01*
X82421026Y-122187312D01*
X82467345Y-122178489D01*
X83009682Y-122178489D01*
X83077803Y-122198491D01*
X83124296Y-122252147D01*
X83134400Y-122322421D01*
X83122067Y-122361324D01*
X83120075Y-122364607D01*
X83118266Y-122368921D01*
X83118265Y-122368923D01*
X83039043Y-122557846D01*
X83015868Y-122613113D01*
X82949537Y-122874293D01*
X82922539Y-123142408D01*
X82935468Y-123411569D01*
X82988039Y-123675862D01*
X83079098Y-123929481D01*
X83081314Y-123933605D01*
X83145604Y-124053254D01*
X83206644Y-124166856D01*
X83209439Y-124170599D01*
X83209441Y-124170602D01*
X83365083Y-124379032D01*
X83365088Y-124379038D01*
X83367875Y-124382770D01*
X83371184Y-124386050D01*
X83371189Y-124386056D01*
X83540815Y-124554208D01*
X83559249Y-124572482D01*
X83563011Y-124575240D01*
X83563014Y-124575243D01*
X83736752Y-124702633D01*
X83776562Y-124731823D01*
X83780693Y-124733997D01*
X83780694Y-124733997D01*
X84010908Y-124855118D01*
X84010913Y-124855120D01*
X84014572Y-124857045D01*
X84014573Y-124857046D01*
X84015041Y-124857292D01*
X84014988Y-124857392D01*
X84068233Y-124901850D01*
X84089500Y-124971899D01*
X84089500Y-125679648D01*
X84069498Y-125747769D01*
X84015842Y-125794262D01*
X83945568Y-125804366D01*
X83885077Y-125777948D01*
X83884157Y-125777083D01*
X83880320Y-125774421D01*
X83880316Y-125774418D01*
X83666585Y-125626148D01*
X83666580Y-125626145D01*
X83662747Y-125623486D01*
X83655001Y-125619666D01*
X83425254Y-125506367D01*
X83425251Y-125506366D01*
X83421066Y-125504302D01*
X83405734Y-125499394D01*
X83296812Y-125464528D01*
X83164423Y-125422150D01*
X83159816Y-125421400D01*
X83159813Y-125421399D01*
X82903067Y-125379585D01*
X82903068Y-125379585D01*
X82898456Y-125378834D01*
X82767704Y-125377122D01*
X82633686Y-125375368D01*
X82633683Y-125375368D01*
X82629009Y-125375307D01*
X82361999Y-125411645D01*
X82357509Y-125412954D01*
X82357503Y-125412955D01*
X82247334Y-125445067D01*
X82103294Y-125487051D01*
X82099047Y-125489009D01*
X82099044Y-125489010D01*
X82061394Y-125506367D01*
X81858575Y-125599868D01*
X81808421Y-125632751D01*
X81637134Y-125745051D01*
X81637129Y-125745055D01*
X81633221Y-125747617D01*
X81587727Y-125788222D01*
X81436196Y-125923469D01*
X81432180Y-125927053D01*
X81259870Y-126134233D01*
X81120075Y-126364607D01*
X81015868Y-126613113D01*
X80949537Y-126874293D01*
X80922539Y-127142408D01*
X80922763Y-127147074D01*
X80922763Y-127147079D01*
X80926897Y-127233133D01*
X80935468Y-127411569D01*
X80988039Y-127675862D01*
X81079098Y-127929481D01*
X81081314Y-127933605D01*
X81193760Y-128142877D01*
X81206644Y-128166856D01*
X81209439Y-128170599D01*
X81209441Y-128170602D01*
X81365083Y-128379032D01*
X81365088Y-128379038D01*
X81367875Y-128382770D01*
X81371184Y-128386050D01*
X81371189Y-128386056D01*
X81475811Y-128489769D01*
X81559249Y-128572482D01*
X81563011Y-128575240D01*
X81563014Y-128575243D01*
X81772795Y-128729061D01*
X81776562Y-128731823D01*
X81780693Y-128733997D01*
X81780694Y-128733997D01*
X82010906Y-128855117D01*
X82010912Y-128855119D01*
X82015041Y-128857292D01*
X82019448Y-128858831D01*
X82019455Y-128858834D01*
X82261994Y-128943532D01*
X82269445Y-128946134D01*
X82274038Y-128947006D01*
X82529598Y-128995526D01*
X82529601Y-128995526D01*
X82534187Y-128996397D01*
X82662102Y-129001423D01*
X82798782Y-129006793D01*
X82798787Y-129006793D01*
X82803450Y-129006976D01*
X82908001Y-128995526D01*
X83066666Y-128978150D01*
X83066672Y-128978149D01*
X83071319Y-128977640D01*
X83190987Y-128946134D01*
X83327387Y-128910223D01*
X83327389Y-128910222D01*
X83331910Y-128909032D01*
X83336207Y-128907186D01*
X83575204Y-128804505D01*
X83575206Y-128804504D01*
X83579498Y-128802660D01*
X83721039Y-128715072D01*
X83804670Y-128663320D01*
X83804674Y-128663317D01*
X83808643Y-128660861D01*
X84014312Y-128486749D01*
X84191986Y-128284150D01*
X84205808Y-128262661D01*
X84252966Y-128189348D01*
X84306640Y-128142877D01*
X84376918Y-128132802D01*
X84441487Y-128162321D01*
X84448031Y-128168417D01*
X90627312Y-134347698D01*
X90635153Y-134356315D01*
X90639358Y-134362940D01*
X90645137Y-134368367D01*
X90645138Y-134368368D01*
X90690376Y-134410849D01*
X90693218Y-134413604D01*
X90713526Y-134433912D01*
X90716663Y-134436345D01*
X90716932Y-134436554D01*
X90725962Y-134444266D01*
X90735950Y-134453645D01*
X90759167Y-134475448D01*
X90777630Y-134485599D01*
X90794150Y-134496450D01*
X90810797Y-134509363D01*
X90852606Y-134527455D01*
X90863266Y-134532677D01*
X90903192Y-134554627D01*
X90923597Y-134559866D01*
X90942302Y-134566270D01*
X90961634Y-134574636D01*
X90969460Y-134575876D01*
X90969465Y-134575877D01*
X91006636Y-134581765D01*
X91018256Y-134584171D01*
X91054702Y-134593528D01*
X91062383Y-134595500D01*
X91083444Y-134595500D01*
X91103156Y-134597051D01*
X91123965Y-134600347D01*
X91131857Y-134599601D01*
X91169327Y-134596059D01*
X91181185Y-134595500D01*
X111701238Y-134595500D01*
X111769359Y-134615502D01*
X111804451Y-134649230D01*
X111921505Y-134816401D01*
X112067266Y-134962162D01*
X112101292Y-135024474D01*
X112096227Y-135095289D01*
X112053680Y-135152125D01*
X112039428Y-135160674D01*
X112039471Y-135160744D01*
X111890655Y-135252834D01*
X111767016Y-135376689D01*
X111675186Y-135525666D01*
X111672881Y-135532614D01*
X111672881Y-135532615D01*
X111657752Y-135578228D01*
X111620090Y-135691772D01*
X111619672Y-135695855D01*
X111586346Y-135757326D01*
X111524136Y-135791539D01*
X111496982Y-135794500D01*
X73266636Y-135794500D01*
X73198515Y-135774498D01*
X73177541Y-135757595D01*
X66727405Y-129307459D01*
X66693379Y-129245147D01*
X66690500Y-129218364D01*
X66690500Y-124211636D01*
X66710502Y-124143515D01*
X66727405Y-124122541D01*
X69810040Y-121039905D01*
X69872352Y-121005879D01*
X69899135Y-121003000D01*
X70111962Y-121003000D01*
X71352426Y-121002999D01*
X71420546Y-121023001D01*
X71467039Y-121076657D01*
X71477143Y-121146931D01*
X71447650Y-121211511D01*
X71441520Y-121218094D01*
X70675291Y-121984323D01*
X70666674Y-121992164D01*
X70660049Y-121996369D01*
X70654622Y-122002148D01*
X70654621Y-122002149D01*
X70612140Y-122047387D01*
X70609385Y-122050229D01*
X70589078Y-122070536D01*
X70586649Y-122073667D01*
X70586644Y-122073673D01*
X70586431Y-122073948D01*
X70578734Y-122082961D01*
X70547541Y-122116178D01*
X70543722Y-122123125D01*
X70537393Y-122134637D01*
X70526539Y-122151161D01*
X70513627Y-122167807D01*
X70505187Y-122187312D01*
X70495535Y-122209616D01*
X70490319Y-122220264D01*
X70468362Y-122260203D01*
X70466391Y-122267882D01*
X70466390Y-122267883D01*
X70463122Y-122280612D01*
X70456716Y-122299321D01*
X70451501Y-122311371D01*
X70451499Y-122311376D01*
X70448354Y-122318645D01*
X70447115Y-122326469D01*
X70441228Y-122363636D01*
X70438820Y-122375261D01*
X70429461Y-122411711D01*
X70429460Y-122411716D01*
X70427489Y-122419394D01*
X70427489Y-122440455D01*
X70425938Y-122460167D01*
X70422642Y-122480976D01*
X70423388Y-122488867D01*
X70426930Y-122526336D01*
X70427489Y-122538194D01*
X70427489Y-124336989D01*
X70426940Y-124348629D01*
X70425229Y-124356285D01*
X70425478Y-124364208D01*
X70427427Y-124426219D01*
X70427489Y-124430177D01*
X70427489Y-124458914D01*
X70427984Y-124462831D01*
X70428028Y-124463180D01*
X70428960Y-124475013D01*
X70430392Y-124520558D01*
X70432604Y-124528172D01*
X70432605Y-124528177D01*
X70436267Y-124540781D01*
X70440278Y-124560145D01*
X70442918Y-124581047D01*
X70445837Y-124588418D01*
X70445837Y-124588420D01*
X70459691Y-124623409D01*
X70463530Y-124634620D01*
X70476245Y-124678387D01*
X70486970Y-124696522D01*
X70495665Y-124714270D01*
X70503421Y-124733860D01*
X70530207Y-124770727D01*
X70536714Y-124780635D01*
X70555872Y-124813031D01*
X70555876Y-124813036D01*
X70559908Y-124819854D01*
X70574801Y-124834747D01*
X70587642Y-124849781D01*
X70600026Y-124866826D01*
X70623835Y-124886522D01*
X70635132Y-124895868D01*
X70643912Y-124903858D01*
X70902671Y-125162617D01*
X70936697Y-125224929D01*
X70931632Y-125295744D01*
X70889085Y-125352580D01*
X70822565Y-125377391D01*
X70811927Y-125377701D01*
X70633686Y-125375368D01*
X70633683Y-125375368D01*
X70629009Y-125375307D01*
X70361999Y-125411645D01*
X70357509Y-125412954D01*
X70357503Y-125412955D01*
X70247334Y-125445067D01*
X70103294Y-125487051D01*
X70099047Y-125489009D01*
X70099044Y-125489010D01*
X70061394Y-125506367D01*
X69858575Y-125599868D01*
X69808421Y-125632751D01*
X69637134Y-125745051D01*
X69637129Y-125745055D01*
X69633221Y-125747617D01*
X69587727Y-125788222D01*
X69436196Y-125923469D01*
X69432180Y-125927053D01*
X69259870Y-126134233D01*
X69120075Y-126364607D01*
X69015868Y-126613113D01*
X68949537Y-126874293D01*
X68922539Y-127142408D01*
X68922763Y-127147074D01*
X68922763Y-127147079D01*
X68926897Y-127233133D01*
X68935468Y-127411569D01*
X68988039Y-127675862D01*
X69079098Y-127929481D01*
X69081314Y-127933605D01*
X69193760Y-128142877D01*
X69206644Y-128166856D01*
X69209439Y-128170599D01*
X69209441Y-128170602D01*
X69365083Y-128379032D01*
X69365088Y-128379038D01*
X69367875Y-128382770D01*
X69371184Y-128386050D01*
X69371189Y-128386056D01*
X69475811Y-128489769D01*
X69559249Y-128572482D01*
X69563011Y-128575240D01*
X69563014Y-128575243D01*
X69772795Y-128729061D01*
X69776562Y-128731823D01*
X69780693Y-128733997D01*
X69780694Y-128733997D01*
X70010906Y-128855117D01*
X70010912Y-128855119D01*
X70015041Y-128857292D01*
X70019448Y-128858831D01*
X70019455Y-128858834D01*
X70261994Y-128943532D01*
X70269445Y-128946134D01*
X70274038Y-128947006D01*
X70529598Y-128995526D01*
X70529601Y-128995526D01*
X70534187Y-128996397D01*
X70662102Y-129001423D01*
X70798782Y-129006793D01*
X70798787Y-129006793D01*
X70803450Y-129006976D01*
X70908001Y-128995526D01*
X71066666Y-128978150D01*
X71066672Y-128978149D01*
X71071319Y-128977640D01*
X71190987Y-128946134D01*
X71327387Y-128910223D01*
X71327389Y-128910222D01*
X71331910Y-128909032D01*
X71336207Y-128907186D01*
X71575204Y-128804505D01*
X71575206Y-128804504D01*
X71579498Y-128802660D01*
X71721039Y-128715072D01*
X71804670Y-128663320D01*
X71804674Y-128663317D01*
X71808643Y-128660861D01*
X72014312Y-128486749D01*
X72191986Y-128284150D01*
X72194516Y-128280218D01*
X72329924Y-128069702D01*
X72337763Y-128057515D01*
X72448440Y-127811821D01*
X72521585Y-127552468D01*
X72543005Y-127384094D01*
X72555194Y-127288281D01*
X72555194Y-127288277D01*
X72555592Y-127285151D01*
X72558084Y-127190000D01*
X72555118Y-127150083D01*
X72553365Y-127126492D01*
X72568265Y-127057076D01*
X72618327Y-127006735D01*
X72687659Y-126991452D01*
X72754248Y-127016078D01*
X72768114Y-127028060D01*
X72890137Y-127150083D01*
X72924163Y-127212395D01*
X72926897Y-127233130D01*
X72935468Y-127411569D01*
X72988039Y-127675862D01*
X73079098Y-127929481D01*
X73081314Y-127933605D01*
X73193760Y-128142877D01*
X73206644Y-128166856D01*
X73209439Y-128170599D01*
X73209441Y-128170602D01*
X73365083Y-128379032D01*
X73365088Y-128379038D01*
X73367875Y-128382770D01*
X73371184Y-128386050D01*
X73371189Y-128386056D01*
X73475811Y-128489769D01*
X73559249Y-128572482D01*
X73563011Y-128575240D01*
X73563014Y-128575243D01*
X73772795Y-128729061D01*
X73776562Y-128731823D01*
X73780693Y-128733997D01*
X73780694Y-128733997D01*
X74010906Y-128855117D01*
X74010912Y-128855119D01*
X74015041Y-128857292D01*
X74019448Y-128858831D01*
X74019455Y-128858834D01*
X74261994Y-128943532D01*
X74269445Y-128946134D01*
X74274038Y-128947006D01*
X74529598Y-128995526D01*
X74529601Y-128995526D01*
X74534187Y-128996397D01*
X74662102Y-129001423D01*
X74798782Y-129006793D01*
X74798787Y-129006793D01*
X74803450Y-129006976D01*
X74908001Y-128995526D01*
X75066666Y-128978150D01*
X75066672Y-128978149D01*
X75071319Y-128977640D01*
X75190987Y-128946134D01*
X75327387Y-128910223D01*
X75327389Y-128910222D01*
X75331910Y-128909032D01*
X75336207Y-128907186D01*
X75575204Y-128804505D01*
X75575206Y-128804504D01*
X75579498Y-128802660D01*
X75721039Y-128715072D01*
X75804670Y-128663320D01*
X75804674Y-128663317D01*
X75808643Y-128660861D01*
X76014312Y-128486749D01*
X76191986Y-128284150D01*
X76194516Y-128280218D01*
X76329924Y-128069702D01*
X76337763Y-128057515D01*
X76448440Y-127811821D01*
X76521585Y-127552468D01*
X76554727Y-127291952D01*
X76583165Y-127226902D01*
X76642259Y-127187552D01*
X76713246Y-127186398D01*
X76768814Y-127218760D01*
X76901946Y-127351892D01*
X76936430Y-127416406D01*
X76965953Y-127564826D01*
X76988039Y-127675862D01*
X77079098Y-127929481D01*
X77081314Y-127933605D01*
X77193760Y-128142877D01*
X77206644Y-128166856D01*
X77209439Y-128170599D01*
X77209441Y-128170602D01*
X77365083Y-128379032D01*
X77365088Y-128379038D01*
X77367875Y-128382770D01*
X77371184Y-128386050D01*
X77371189Y-128386056D01*
X77475811Y-128489769D01*
X77559249Y-128572482D01*
X77563011Y-128575240D01*
X77563014Y-128575243D01*
X77772795Y-128729061D01*
X77776562Y-128731823D01*
X77780693Y-128733997D01*
X77780694Y-128733997D01*
X78010906Y-128855117D01*
X78010912Y-128855119D01*
X78015041Y-128857292D01*
X78019448Y-128858831D01*
X78019455Y-128858834D01*
X78261994Y-128943532D01*
X78269445Y-128946134D01*
X78274038Y-128947006D01*
X78529598Y-128995526D01*
X78529601Y-128995526D01*
X78534187Y-128996397D01*
X78662102Y-129001423D01*
X78798782Y-129006793D01*
X78798787Y-129006793D01*
X78803450Y-129006976D01*
X78908001Y-128995526D01*
X79066666Y-128978150D01*
X79066672Y-128978149D01*
X79071319Y-128977640D01*
X79190987Y-128946134D01*
X79327387Y-128910223D01*
X79327389Y-128910222D01*
X79331910Y-128909032D01*
X79336207Y-128907186D01*
X79575204Y-128804505D01*
X79575206Y-128804504D01*
X79579498Y-128802660D01*
X79721039Y-128715072D01*
X79804670Y-128663320D01*
X79804674Y-128663317D01*
X79808643Y-128660861D01*
X80014312Y-128486749D01*
X80191986Y-128284150D01*
X80194516Y-128280218D01*
X80329924Y-128069702D01*
X80337763Y-128057515D01*
X80448440Y-127811821D01*
X80521585Y-127552468D01*
X80543005Y-127384094D01*
X80555194Y-127288281D01*
X80555194Y-127288277D01*
X80555592Y-127285151D01*
X80558084Y-127190000D01*
X80554547Y-127142408D01*
X80538460Y-126925922D01*
X80538459Y-126925918D01*
X80538114Y-126921270D01*
X80478642Y-126658444D01*
X80380976Y-126407295D01*
X80247260Y-126173340D01*
X80080432Y-125961720D01*
X79884157Y-125777083D01*
X79758658Y-125690021D01*
X79666585Y-125626148D01*
X79666580Y-125626145D01*
X79662747Y-125623486D01*
X79655001Y-125619666D01*
X79425254Y-125506367D01*
X79425251Y-125506366D01*
X79421066Y-125504302D01*
X79405734Y-125499394D01*
X79296812Y-125464528D01*
X79164423Y-125422150D01*
X79159816Y-125421400D01*
X79159813Y-125421399D01*
X78903067Y-125379585D01*
X78903068Y-125379585D01*
X78898456Y-125378834D01*
X78767704Y-125377122D01*
X78633686Y-125375368D01*
X78633683Y-125375368D01*
X78629009Y-125375307D01*
X78361999Y-125411645D01*
X78357509Y-125412954D01*
X78357503Y-125412955D01*
X78247334Y-125445067D01*
X78103294Y-125487051D01*
X78099047Y-125489009D01*
X78099044Y-125489010D01*
X78061394Y-125506367D01*
X77858575Y-125599868D01*
X77808421Y-125632751D01*
X77637134Y-125745051D01*
X77637129Y-125745055D01*
X77633221Y-125747617D01*
X77460134Y-125902103D01*
X77395995Y-125932540D01*
X77325581Y-125923469D01*
X77287140Y-125897194D01*
X76607933Y-125217987D01*
X76573907Y-125155675D01*
X76578972Y-125084860D01*
X76621519Y-125028024D01*
X76688039Y-125003213D01*
X76701972Y-125002989D01*
X76731639Y-125004155D01*
X76798782Y-125006793D01*
X76798787Y-125006793D01*
X76803450Y-125006976D01*
X76908001Y-124995526D01*
X77066666Y-124978150D01*
X77066672Y-124978149D01*
X77071319Y-124977640D01*
X77117343Y-124965523D01*
X77327387Y-124910223D01*
X77327389Y-124910222D01*
X77331910Y-124909032D01*
X77362550Y-124895868D01*
X77575204Y-124804505D01*
X77575206Y-124804504D01*
X77579498Y-124802660D01*
X77722330Y-124714273D01*
X77804670Y-124663320D01*
X77804674Y-124663317D01*
X77808643Y-124660861D01*
X78014312Y-124486749D01*
X78191986Y-124284150D01*
X78194516Y-124280218D01*
X78335235Y-124061445D01*
X78337763Y-124057515D01*
X78448440Y-123811821D01*
X78521585Y-123552468D01*
X78555592Y-123285151D01*
X78558084Y-123190000D01*
X78554547Y-123142408D01*
X78538460Y-122925922D01*
X78538459Y-122925918D01*
X78538114Y-122921270D01*
X78500700Y-122755923D01*
X78490769Y-122712037D01*
X78478642Y-122658444D01*
X78472330Y-122642212D01*
X78382669Y-122411648D01*
X78382668Y-122411646D01*
X78380976Y-122407295D01*
X78247260Y-122173340D01*
X78080432Y-121961720D01*
X77884157Y-121777083D01*
X77758658Y-121690021D01*
X77666585Y-121626148D01*
X77666580Y-121626145D01*
X77662747Y-121623486D01*
X77620052Y-121602431D01*
X77425254Y-121506367D01*
X77425251Y-121506366D01*
X77421066Y-121504302D01*
X77357437Y-121483934D01*
X77319294Y-121471724D01*
X77164423Y-121422150D01*
X77159816Y-121421400D01*
X77159813Y-121421399D01*
X76903067Y-121379585D01*
X76903068Y-121379585D01*
X76898456Y-121378834D01*
X76767704Y-121377122D01*
X76633686Y-121375368D01*
X76633683Y-121375368D01*
X76629009Y-121375307D01*
X76361999Y-121411645D01*
X76357509Y-121412954D01*
X76357503Y-121412955D01*
X76247334Y-121445067D01*
X76103294Y-121487051D01*
X76099047Y-121489009D01*
X76099044Y-121489010D01*
X76061394Y-121506367D01*
X75858575Y-121599868D01*
X75808421Y-121632751D01*
X75637134Y-121745051D01*
X75637129Y-121745055D01*
X75633221Y-121747617D01*
X75432180Y-121927053D01*
X75315182Y-122067728D01*
X75272533Y-122119008D01*
X75259870Y-122134233D01*
X75257447Y-122138226D01*
X75257443Y-122138232D01*
X75227880Y-122186950D01*
X75175441Y-122234811D01*
X75105451Y-122246723D01*
X75040131Y-122218905D01*
X75031066Y-122210680D01*
X73886438Y-121066052D01*
X73852412Y-121003740D01*
X73857477Y-120932925D01*
X73900024Y-120876089D01*
X73966544Y-120851278D01*
X74017074Y-120858002D01*
X74157910Y-120907184D01*
X74269445Y-120946134D01*
X74274038Y-120947006D01*
X74529598Y-120995526D01*
X74529601Y-120995526D01*
X74534187Y-120996397D01*
X74662102Y-121001423D01*
X74798782Y-121006793D01*
X74798787Y-121006793D01*
X74803450Y-121006976D01*
X74908001Y-120995526D01*
X75066666Y-120978150D01*
X75066672Y-120978149D01*
X75071319Y-120977640D01*
X75196844Y-120944592D01*
X75327387Y-120910223D01*
X75327389Y-120910222D01*
X75331910Y-120909032D01*
X75336207Y-120907186D01*
X75575204Y-120804505D01*
X75575206Y-120804504D01*
X75579498Y-120802660D01*
X75735234Y-120706288D01*
X75804670Y-120663320D01*
X75804674Y-120663317D01*
X75808643Y-120660861D01*
X76014312Y-120486749D01*
X76191986Y-120284150D01*
X76337763Y-120057515D01*
X76448440Y-119811821D01*
X76521585Y-119552468D01*
X76555592Y-119285151D01*
X76558084Y-119190000D01*
X76554547Y-119142408D01*
X76538460Y-118925922D01*
X76538459Y-118925918D01*
X76538114Y-118921270D01*
X76478642Y-118658444D01*
X76428043Y-118528327D01*
X76421996Y-118457588D01*
X76456381Y-118393565D01*
X82354918Y-112495028D01*
X94938025Y-112495028D01*
X94975347Y-112738930D01*
X95052003Y-112973460D01*
X95165935Y-113192321D01*
X95169038Y-113196454D01*
X95169040Y-113196457D01*
X95247207Y-113300566D01*
X95314083Y-113389636D01*
X95492468Y-113560104D01*
X95496740Y-113563018D01*
X95496741Y-113563019D01*
X95525893Y-113582905D01*
X95696300Y-113699149D01*
X95805464Y-113749821D01*
X95915409Y-113800856D01*
X95915413Y-113800857D01*
X95920104Y-113803035D01*
X96157871Y-113868974D01*
X96163008Y-113869523D01*
X96355957Y-113890144D01*
X96355965Y-113890144D01*
X96359292Y-113890500D01*
X96502554Y-113890500D01*
X96505127Y-113890288D01*
X96505138Y-113890288D01*
X96680760Y-113875849D01*
X96680766Y-113875848D01*
X96685911Y-113875425D01*
X96925217Y-113815316D01*
X97151493Y-113716928D01*
X97358661Y-113582905D01*
X97371723Y-113571020D01*
X97416536Y-113530243D01*
X97541158Y-113416846D01*
X97544357Y-113412795D01*
X97544361Y-113412791D01*
X97690881Y-113227264D01*
X97690884Y-113227259D01*
X97694082Y-113223210D01*
X97696577Y-113218691D01*
X97810830Y-113011722D01*
X97810832Y-113011718D01*
X97813327Y-113007198D01*
X97825275Y-112973460D01*
X97893965Y-112779485D01*
X97893966Y-112779481D01*
X97895691Y-112774610D01*
X97920431Y-112635723D01*
X97938055Y-112536783D01*
X97938056Y-112536777D01*
X97938961Y-112531694D01*
X97941975Y-112284972D01*
X97904653Y-112041070D01*
X97827997Y-111806540D01*
X97714065Y-111587679D01*
X97669340Y-111528110D01*
X97569022Y-111394499D01*
X97569020Y-111394496D01*
X97565917Y-111390364D01*
X97387532Y-111219896D01*
X97359212Y-111200577D01*
X97199103Y-111091358D01*
X97183700Y-111080851D01*
X97044817Y-111016384D01*
X96964591Y-110979144D01*
X96964587Y-110979143D01*
X96959896Y-110976965D01*
X96722129Y-110911026D01*
X96716992Y-110910477D01*
X96524043Y-110889856D01*
X96524035Y-110889856D01*
X96520708Y-110889500D01*
X96377446Y-110889500D01*
X96374873Y-110889712D01*
X96374862Y-110889712D01*
X96199240Y-110904151D01*
X96199234Y-110904152D01*
X96194089Y-110904575D01*
X95954783Y-110964684D01*
X95728507Y-111063072D01*
X95521339Y-111197095D01*
X95517514Y-111200575D01*
X95517512Y-111200577D01*
X95496281Y-111219896D01*
X95338842Y-111363154D01*
X95335643Y-111367205D01*
X95335639Y-111367209D01*
X95189119Y-111552736D01*
X95189116Y-111552741D01*
X95185918Y-111556790D01*
X95183425Y-111561306D01*
X95183423Y-111561309D01*
X95091211Y-111728352D01*
X95066673Y-111772802D01*
X95064949Y-111777671D01*
X95064947Y-111777675D01*
X95008652Y-111936647D01*
X94984309Y-112005390D01*
X94941039Y-112248306D01*
X94940976Y-112253469D01*
X94938392Y-112465022D01*
X94938025Y-112495028D01*
X82354918Y-112495028D01*
X97067541Y-97782405D01*
X97129853Y-97748379D01*
X97156636Y-97745500D01*
X111496971Y-97745500D01*
X111565092Y-97765502D01*
G37*
%TD.AperFunction*%
M02*
