M48
; DRILL file {KiCad (6.0.1)} date Mon Feb 14 12:00:38 2022
; FORMAT={-:-/ absolute / metric / decimal}
; #@! TF.CreationDate,2022-02-14T12:00:38-05:00
; #@! TF.GenerationSoftware,Kicad,Pcbnew,(6.0.1)
; #@! TF.FileFunction,Plated,1,2,PTH
FMAT,2
METRIC
; #@! TA.AperFunction,Plated,PTH,ViaDrill
T1C0.400
; #@! TA.AperFunction,Plated,PTH,ComponentDrill
T2C0.950
; #@! TA.AperFunction,Plated,PTH,ComponentDrill
T3C1.000
; #@! TA.AperFunction,Plated,PTH,ComponentDrill
T4C1.750
; #@! TA.AperFunction,Plated,PTH,ComponentDrill
T5C1.850
%
G90
G05
T1
X41.148Y-102.616
X41.148Y-122.936
X67.056Y-94.488
X91.44Y-94.488
X107.696Y-77.724
X120.396Y-80.772
T2
X43.18Y-109.895
X43.18Y-112.395
X43.18Y-114.895
X43.18Y-131.485
X43.18Y-133.985
X43.18Y-136.485
X113.085Y-89.595
X113.085Y-92.095
X113.085Y-94.595
X113.085Y-97.095
X113.085Y-126.445
X113.085Y-128.945
X113.085Y-131.445
X113.085Y-133.945
X113.085Y-136.445
T3
X113.085Y-109.875
X113.085Y-112.375
T4
X70.74Y-119.19
X70.74Y-127.19
X72.74Y-123.19
X74.74Y-119.19
X74.74Y-127.19
X76.74Y-123.19
X78.74Y-119.19
X78.74Y-127.19
X80.74Y-123.19
X82.74Y-119.19
X82.74Y-127.19
X84.74Y-123.19
X86.74Y-119.19
X86.74Y-127.19
T5
X54.61Y-88.01
X54.61Y-92.71
X54.61Y-97.41
X80.01Y-88.01
X80.01Y-92.71
X80.01Y-97.41
T0
M30
