M48
; DRILL file {KiCad (6.0.1-0)} date Thursday, April 07, 2022 at 08:57:13 AM
; FORMAT={-:-/ absolute / metric / decimal}
; #@! TF.CreationDate,2022-04-07T08:57:13-04:00
; #@! TF.GenerationSoftware,Kicad,Pcbnew,(6.0.1-0)
; #@! TF.FileFunction,MixedPlating,1,2
FMAT,2
METRIC
; #@! TA.AperFunction,Plated,PTH,ViaDrill
T1C0.400
; #@! TA.AperFunction,Plated,PTH,ComponentDrill
T2C0.900
; #@! TA.AperFunction,Plated,PTH,ComponentDrill
T3C0.950
; #@! TA.AperFunction,Plated,PTH,ComponentDrill
T4C1.000
; #@! TA.AperFunction,Plated,PTH,ComponentDrill
T5C1.100
; #@! TA.AperFunction,Plated,PTH,ComponentDrill
T6C1.300
; #@! TA.AperFunction,Plated,PTH,ComponentDrill
T7C1.850
; #@! TA.AperFunction,Plated,PTH,ComponentDrill
T8C3.000
%
G90
G05
T1
X107.25Y-67.75
X110.0Y-72.25
X115.25Y-72.25
X119.0Y-67.75
X122.75Y-67.75
X126.75Y-68.0
T2
X153.85Y-51.5
X156.2Y-56.0
X158.8Y-56.0
X161.1Y-51.5
T3
X80.75Y-76.55
X83.25Y-76.55
X85.75Y-76.55
X88.25Y-76.55
X105.0Y-76.55
X107.5Y-76.55
X110.0Y-76.55
X112.5Y-76.55
X115.0Y-76.55
T4
X138.0Y-76.8
X140.5Y-76.8
T5
X78.95Y-49.95
X78.95Y-54.45
X85.45Y-49.95
X85.45Y-54.45
T6
X151.2Y-49.6
X151.2Y-62.35
X163.9Y-49.65
X163.9Y-62.35
T7
X91.9Y-52.0
X92.3Y-67.0
X96.6Y-52.0
X97.0Y-67.0
X101.3Y-52.0
X101.7Y-67.0
T8
X107.375Y-59.5
X118.625Y-59.5
X126.875Y-59.5
X138.125Y-59.5
T0
M30
