M48
; DRILL file {KiCad (6.0.1)} date Mon Feb 14 12:01:48 2022
; FORMAT={-:-/ absolute / metric / decimal}
; #@! TF.CreationDate,2022-02-14T12:01:48-05:00
; #@! TF.GenerationSoftware,Kicad,Pcbnew,(6.0.1)
; #@! TF.FileFunction,Plated,1,2,PTH
FMAT,2
METRIC
; #@! TA.AperFunction,Plated,PTH,ViaDrill
T1C0.400
; #@! TA.AperFunction,Plated,PTH,ComponentDrill
T2C1.000
%
G90
G05
T1
X147.269Y-68.834
X148.031Y-98.908
X148.031Y-99.873
X148.031Y-100.889
X148.031Y-101.905
X148.234Y-68.834
X148.692Y-87.224
X149.2Y-68.834
X149.204Y-88.457
X149.86Y-85.09
X150.165Y-68.834
X150.52Y-104.14
X150.571Y-85.903
X150.622Y-72.187
X150.876Y-91.44
X151.815Y-96.052
X152.809Y-97.18
X153.264Y-101.448
X153.67Y-88.519
X153.67Y-94.361
X153.721Y-91.44
X153.975Y-68.58
X154.33Y-101.448
X155.296Y-85.649
X155.346Y-64.77
X155.397Y-101.448
X155.702Y-77.267
X155.854Y-82.144
X156.403Y-78.073
X156.591Y-91.44
X156.82Y-104.14
X157.104Y-78.943
X157.937Y-82.144
X158.953Y-91.491
X159.207Y-63.144
X159.207Y-66.802
X159.207Y-67.716
X159.207Y-68.682
X159.461Y-59.842
T2
X144.78Y-59.685
X144.78Y-62.225
X144.78Y-64.765
X144.78Y-67.305
X144.78Y-69.845
X144.78Y-72.385
X144.78Y-74.925
X144.78Y-77.465
X144.78Y-80.005
X144.78Y-82.545
X144.78Y-85.085
X144.78Y-87.625
X144.78Y-90.165
X144.78Y-92.705
X144.78Y-95.245
X144.78Y-97.785
X144.78Y-100.325
X144.78Y-102.865
X144.78Y-105.405
X144.78Y-107.945
X162.56Y-59.69
X162.56Y-62.23
X162.56Y-64.77
X162.56Y-67.31
X162.56Y-69.85
X162.56Y-72.39
X162.56Y-74.93
X162.56Y-77.47
X162.56Y-80.01
X162.56Y-82.55
X162.56Y-85.09
X162.56Y-87.63
X162.56Y-90.17
X162.56Y-92.71
X162.56Y-95.25
X162.56Y-97.79
X162.56Y-100.33
X162.56Y-102.87
X162.56Y-105.41
X162.56Y-107.95
T0
M30
