%TF.GenerationSoftware,KiCad,Pcbnew,(6.0.1)*%
%TF.CreationDate,2022-02-14T12:04:50-05:00*%
%TF.ProjectId,pacman_side_2,7061636d-616e-45f7-9369-64655f322e6b,rev?*%
%TF.SameCoordinates,Original*%
%TF.FileFunction,Soldermask,Top*%
%TF.FilePolarity,Negative*%
%FSLAX46Y46*%
G04 Gerber Fmt 4.6, Leading zero omitted, Abs format (unit mm)*
G04 Created by KiCad (PCBNEW (6.0.1)) date 2022-02-14 12:04:50*
%MOMM*%
%LPD*%
G01*
G04 APERTURE LIST*
G04 Aperture macros list*
%AMRoundRect*
0 Rectangle with rounded corners*
0 $1 Rounding radius*
0 $2 $3 $4 $5 $6 $7 $8 $9 X,Y pos of 4 corners*
0 Add a 4 corners polygon primitive as box body*
4,1,4,$2,$3,$4,$5,$6,$7,$8,$9,$2,$3,0*
0 Add four circle primitives for the rounded corners*
1,1,$1+$1,$2,$3*
1,1,$1+$1,$4,$5*
1,1,$1+$1,$6,$7*
1,1,$1+$1,$8,$9*
0 Add four rect primitives between the rounded corners*
20,1,$1+$1,$2,$3,$4,$5,0*
20,1,$1+$1,$4,$5,$6,$7,0*
20,1,$1+$1,$6,$7,$8,$9,0*
20,1,$1+$1,$8,$9,$2,$3,0*%
G04 Aperture macros list end*
%ADD10RoundRect,0.237500X-0.250000X-0.237500X0.250000X-0.237500X0.250000X0.237500X-0.250000X0.237500X0*%
%ADD11RoundRect,0.250000X-0.625000X0.350000X-0.625000X-0.350000X0.625000X-0.350000X0.625000X0.350000X0*%
%ADD12O,1.750000X1.200000*%
%ADD13R,2.000000X2.000000*%
%ADD14C,2.000000*%
%ADD15C,2.500000*%
%ADD16C,2.780000*%
%ADD17RoundRect,0.250000X0.725000X-0.600000X0.725000X0.600000X-0.725000X0.600000X-0.725000X-0.600000X0*%
%ADD18O,1.950000X1.700000*%
%ADD19O,3.500000X3.500000*%
%ADD20O,2.000000X2.000000*%
%ADD21C,1.600000*%
%ADD22RoundRect,0.250000X1.150000X-0.980000X1.150000X0.980000X-1.150000X0.980000X-1.150000X-0.980000X0*%
%ADD23RoundRect,0.250000X-0.750000X0.600000X-0.750000X-0.600000X0.750000X-0.600000X0.750000X0.600000X0*%
%ADD24O,2.000000X1.700000*%
%ADD25C,2.700000*%
%ADD26C,3.000000*%
%ADD27RoundRect,0.250000X0.980000X1.150000X-0.980000X1.150000X-0.980000X-1.150000X0.980000X-1.150000X0*%
%ADD28R,2.625000X2.625000*%
%ADD29C,2.625000*%
%ADD30C,1.000000*%
%ADD31C,2.400000*%
%ADD32O,2.400000X2.400000*%
G04 APERTURE END LIST*
D10*
%TO.C,R2*%
X101297100Y-97434400D03*
X103122100Y-97434400D03*
%TD*%
D11*
%TO.C,J9*%
X107061000Y-84773000D03*
D12*
X107061000Y-86773000D03*
X107061000Y-88773000D03*
X107061000Y-90773000D03*
%TD*%
D13*
%TO.C,K3*%
X97972500Y-75268500D03*
D14*
X97972500Y-72728500D03*
X97972500Y-65108500D03*
X92892500Y-65108500D03*
X92892500Y-72728500D03*
X92892500Y-75268500D03*
%TD*%
D15*
%TO.C,K1*%
X147000000Y-77621000D03*
X130500000Y-70121000D03*
X150500000Y-70121000D03*
X130500000Y-77621000D03*
X154000000Y-77621000D03*
%TD*%
D16*
%TO.C,F3*%
X106765000Y-77521000D03*
X103365000Y-77521000D03*
X103365000Y-67601000D03*
X106765000Y-67601000D03*
%TD*%
D17*
%TO.C,J2*%
X95040000Y-90811000D03*
D18*
X95040000Y-88311000D03*
X95040000Y-85811000D03*
X95040000Y-83311000D03*
%TD*%
D19*
%TO.C,R3*%
X162750000Y-74168000D03*
D13*
X179410000Y-76708000D03*
D20*
X179410000Y-71628000D03*
%TD*%
D21*
%TO.C,J3*%
X179315000Y-123811000D03*
D22*
X176065000Y-122311000D03*
%TD*%
D23*
%TO.C,J6*%
X117340000Y-70811000D03*
D24*
X117340000Y-73311000D03*
%TD*%
D25*
%TO.C,F2*%
X153513000Y-96779000D03*
D26*
X153513000Y-85529000D03*
X153513000Y-108029000D03*
%TD*%
D25*
%TO.C,F1*%
X139035000Y-96525000D03*
D26*
X139035000Y-85275000D03*
X139035000Y-107775000D03*
%TD*%
D21*
%TO.C,J4*%
X151711000Y-117405000D03*
D27*
X150211000Y-120655000D03*
%TD*%
D21*
%TO.C,J5*%
X138503000Y-117659000D03*
D27*
X137003000Y-120909000D03*
%TD*%
D13*
%TO.C,K2*%
X112157500Y-82353500D03*
D14*
X112157500Y-84893500D03*
X112157500Y-92513500D03*
X117237500Y-92513500D03*
X117237500Y-84893500D03*
X117237500Y-82353500D03*
%TD*%
%TO.C,J1*%
X97649000Y-121930000D03*
X125049000Y-121930000D03*
X126549000Y-103830000D03*
X96149000Y-103830000D03*
D28*
X107349000Y-115130000D03*
D29*
X111349000Y-115130000D03*
X115349000Y-115130000D03*
X109349000Y-111130000D03*
X113349000Y-111130000D03*
X107349000Y-107130000D03*
X111349000Y-107130000D03*
X115349000Y-107130000D03*
%TD*%
D30*
%TO.C,D1*%
X161275000Y-97399000D03*
X165055000Y-93619000D03*
%TD*%
D31*
%TO.C,R1*%
X171958000Y-114808000D03*
D32*
X171958000Y-89408000D03*
%TD*%
M02*
