%TF.GenerationSoftware,KiCad,Pcbnew,(6.0.1)*%
%TF.CreationDate,2022-02-14T12:01:51-05:00*%
%TF.ProjectId,demo,64656d6f-2e6b-4696-9361-645f70636258,rev?*%
%TF.SameCoordinates,Original*%
%TF.FileFunction,Soldermask,Bot*%
%TF.FilePolarity,Negative*%
%FSLAX46Y46*%
G04 Gerber Fmt 4.6, Leading zero omitted, Abs format (unit mm)*
G04 Created by KiCad (PCBNEW (6.0.1)) date 2022-02-14 12:01:51*
%MOMM*%
%LPD*%
G01*
G04 APERTURE LIST*
G04 Aperture macros list*
%AMRoundRect*
0 Rectangle with rounded corners*
0 $1 Rounding radius*
0 $2 $3 $4 $5 $6 $7 $8 $9 X,Y pos of 4 corners*
0 Add a 4 corners polygon primitive as box body*
4,1,4,$2,$3,$4,$5,$6,$7,$8,$9,$2,$3,0*
0 Add four circle primitives for the rounded corners*
1,1,$1+$1,$2,$3*
1,1,$1+$1,$4,$5*
1,1,$1+$1,$6,$7*
1,1,$1+$1,$8,$9*
0 Add four rect primitives between the rounded corners*
20,1,$1+$1,$2,$3,$4,$5,0*
20,1,$1+$1,$4,$5,$6,$7,0*
20,1,$1+$1,$6,$7,$8,$9,0*
20,1,$1+$1,$8,$9,$2,$3,0*%
G04 Aperture macros list end*
%ADD10RoundRect,0.237500X-0.300000X-0.237500X0.300000X-0.237500X0.300000X0.237500X-0.300000X0.237500X0*%
%ADD11RoundRect,0.237500X0.300000X0.237500X-0.300000X0.237500X-0.300000X-0.237500X0.300000X-0.237500X0*%
%ADD12RoundRect,0.237500X0.237500X-0.300000X0.237500X0.300000X-0.237500X0.300000X-0.237500X-0.300000X0*%
%ADD13RoundRect,0.237500X0.250000X0.237500X-0.250000X0.237500X-0.250000X-0.237500X0.250000X-0.237500X0*%
%ADD14R,0.400000X3.200000*%
%ADD15R,1.700000X1.700000*%
%ADD16O,1.700000X1.700000*%
%ADD17RoundRect,0.237500X-0.237500X0.300000X-0.237500X-0.300000X0.237500X-0.300000X0.237500X0.300000X0*%
G04 APERTURE END LIST*
D10*
%TO.C,C12*%
X156363500Y-64770000D03*
X158088500Y-64770000D03*
%TD*%
D11*
%TO.C,C11*%
X159739500Y-94996000D03*
X158014500Y-94996000D03*
%TD*%
D12*
%TO.C,C9*%
X147574000Y-89254500D03*
X147574000Y-87529500D03*
%TD*%
D10*
%TO.C,C10*%
X154229900Y-84124800D03*
X155954900Y-84124800D03*
%TD*%
D13*
%TO.C,R10*%
X152550500Y-72644000D03*
X150725500Y-72644000D03*
%TD*%
D14*
%TO.C,Y1*%
X152534800Y-82600800D03*
X151334800Y-82600800D03*
X150134800Y-82600800D03*
%TD*%
D15*
%TO.C,J2*%
X162560000Y-59690000D03*
D16*
X162560000Y-62230000D03*
X162560000Y-64770000D03*
X162560000Y-67310000D03*
X162560000Y-69850000D03*
X162560000Y-72390000D03*
X162560000Y-74930000D03*
X162560000Y-77470000D03*
X162560000Y-80010000D03*
X162560000Y-82550000D03*
X162560000Y-85090000D03*
X162560000Y-87630000D03*
X162560000Y-90170000D03*
X162560000Y-92710000D03*
X162560000Y-95250000D03*
X162560000Y-97790000D03*
X162560000Y-100330000D03*
X162560000Y-102870000D03*
X162560000Y-105410000D03*
X162560000Y-107950000D03*
%TD*%
D12*
%TO.C,C5*%
X148691600Y-85800100D03*
X148691600Y-84075100D03*
%TD*%
D15*
%TO.C,J3*%
X144780000Y-107945000D03*
D16*
X144780000Y-105405000D03*
X144780000Y-102865000D03*
X144780000Y-100325000D03*
X144780000Y-97785000D03*
X144780000Y-95245000D03*
X144780000Y-92705000D03*
X144780000Y-90165000D03*
X144780000Y-87625000D03*
X144780000Y-85085000D03*
X144780000Y-82545000D03*
X144780000Y-80005000D03*
X144780000Y-77465000D03*
X144780000Y-74925000D03*
X144780000Y-72385000D03*
X144780000Y-69845000D03*
X144780000Y-67305000D03*
X144780000Y-64765000D03*
X144780000Y-62225000D03*
X144780000Y-59685000D03*
%TD*%
D17*
%TO.C,C3*%
X149707600Y-106783800D03*
X149707600Y-108508800D03*
%TD*%
D11*
%TO.C,C8*%
X154278500Y-64770000D03*
X152553500Y-64770000D03*
%TD*%
%TO.C,C4*%
X149860000Y-96647000D03*
X148135000Y-96647000D03*
%TD*%
D10*
%TO.C,C7*%
X151691000Y-98298000D03*
X153416000Y-98298000D03*
%TD*%
D17*
%TO.C,C2*%
X147929600Y-106782700D03*
X147929600Y-108507700D03*
%TD*%
M02*
