%TF.GenerationSoftware,KiCad,Pcbnew,(6.0.1)*%
%TF.CreationDate,2022-02-14T12:01:51-05:00*%
%TF.ProjectId,demo,64656d6f-2e6b-4696-9361-645f70636258,rev?*%
%TF.SameCoordinates,Original*%
%TF.FileFunction,Soldermask,Top*%
%TF.FilePolarity,Negative*%
%FSLAX46Y46*%
G04 Gerber Fmt 4.6, Leading zero omitted, Abs format (unit mm)*
G04 Created by KiCad (PCBNEW (6.0.1)) date 2022-02-14 12:01:51*
%MOMM*%
%LPD*%
G01*
G04 APERTURE LIST*
G04 Aperture macros list*
%AMRoundRect*
0 Rectangle with rounded corners*
0 $1 Rounding radius*
0 $2 $3 $4 $5 $6 $7 $8 $9 X,Y pos of 4 corners*
0 Add a 4 corners polygon primitive as box body*
4,1,4,$2,$3,$4,$5,$6,$7,$8,$9,$2,$3,0*
0 Add four circle primitives for the rounded corners*
1,1,$1+$1,$2,$3*
1,1,$1+$1,$4,$5*
1,1,$1+$1,$6,$7*
1,1,$1+$1,$8,$9*
0 Add four rect primitives between the rounded corners*
20,1,$1+$1,$2,$3,$4,$5,0*
20,1,$1+$1,$4,$5,$6,$7,0*
20,1,$1+$1,$6,$7,$8,$9,0*
20,1,$1+$1,$8,$9,$2,$3,0*%
%AMRotRect*
0 Rectangle, with rotation*
0 The origin of the aperture is its center*
0 $1 length*
0 $2 width*
0 $3 Rotation angle, in degrees counterclockwise*
0 Add horizontal line*
21,1,$1,$2,0,0,$3*%
%AMFreePoly0*
4,1,22,0.500000,-0.750000,0.000000,-0.750000,0.000000,-0.745033,-0.079941,-0.743568,-0.215256,-0.701293,-0.333266,-0.622738,-0.424486,-0.514219,-0.481581,-0.384460,-0.499164,-0.250000,-0.500000,-0.250000,-0.500000,0.250000,-0.499164,0.250000,-0.499963,0.256109,-0.478152,0.396186,-0.417904,0.524511,-0.324060,0.630769,-0.204165,0.706417,-0.067858,0.745374,0.000000,0.744959,0.000000,0.750000,
0.500000,0.750000,0.500000,-0.750000,0.500000,-0.750000,$1*%
%AMFreePoly1*
4,1,20,0.000000,0.744959,0.073905,0.744508,0.209726,0.703889,0.328688,0.626782,0.421226,0.519385,0.479903,0.390333,0.500000,0.250000,0.500000,-0.250000,0.499851,-0.262216,0.476331,-0.402017,0.414519,-0.529596,0.319384,-0.634700,0.198574,-0.708877,0.061801,-0.746166,0.000000,-0.745033,0.000000,-0.750000,-0.500000,-0.750000,-0.500000,0.750000,0.000000,0.750000,0.000000,0.744959,
0.000000,0.744959,$1*%
G04 Aperture macros list end*
%ADD10RoundRect,0.237500X0.287500X0.237500X-0.287500X0.237500X-0.287500X-0.237500X0.287500X-0.237500X0*%
%ADD11RoundRect,0.237500X0.250000X0.237500X-0.250000X0.237500X-0.250000X-0.237500X0.250000X-0.237500X0*%
%ADD12RoundRect,0.041300X0.943700X0.253700X-0.943700X0.253700X-0.943700X-0.253700X0.943700X-0.253700X0*%
%ADD13FreePoly0,0.000000*%
%ADD14FreePoly1,0.000000*%
%ADD15RoundRect,0.062500X-0.309359X0.220971X0.220971X-0.309359X0.309359X-0.220971X-0.220971X0.309359X0*%
%ADD16RoundRect,0.062500X-0.309359X-0.220971X-0.220971X-0.309359X0.309359X0.220971X0.220971X0.309359X0*%
%ADD17RotRect,5.600000X5.600000X315.000000*%
%ADD18R,2.000000X1.500000*%
%ADD19R,2.000000X3.800000*%
%ADD20R,0.740000X2.400000*%
%ADD21RoundRect,0.150000X0.150000X-0.587500X0.150000X0.587500X-0.150000X0.587500X-0.150000X-0.587500X0*%
%ADD22R,1.700000X1.700000*%
%ADD23O,1.700000X1.700000*%
G04 APERTURE END LIST*
D10*
%TO.C,D2*%
X156232800Y-99669600D03*
X154482800Y-99669600D03*
%TD*%
D11*
%TO.C,R1*%
X152804500Y-99669600D03*
X150979500Y-99669600D03*
%TD*%
%TO.C,R2*%
X152296500Y-67310000D03*
X150471500Y-67310000D03*
%TD*%
D12*
%TO.C,U4*%
X157722000Y-62865000D03*
X157722000Y-61595000D03*
X157722000Y-60325000D03*
X157722000Y-59055000D03*
X152772000Y-59055000D03*
X152772000Y-60325000D03*
X152772000Y-61595000D03*
X152772000Y-62865000D03*
%TD*%
D13*
%TO.C,JP1*%
X153172400Y-82042000D03*
D14*
X154472400Y-82042000D03*
%TD*%
D15*
%TO.C,U1*%
X153183864Y-87064777D03*
X152830311Y-87418330D03*
X152476757Y-87771884D03*
X152123204Y-88125437D03*
X151769651Y-88478990D03*
X151416097Y-88832544D03*
X151062544Y-89186097D03*
X150708990Y-89539651D03*
X150355437Y-89893204D03*
X150001884Y-90246757D03*
X149648330Y-90600311D03*
X149294777Y-90953864D03*
D16*
X149294777Y-91926136D03*
X149648330Y-92279689D03*
X150001884Y-92633243D03*
X150355437Y-92986796D03*
X150708990Y-93340349D03*
X151062544Y-93693903D03*
X151416097Y-94047456D03*
X151769651Y-94401010D03*
X152123204Y-94754563D03*
X152476757Y-95108116D03*
X152830311Y-95461670D03*
X153183864Y-95815223D03*
D15*
X154156136Y-95815223D03*
X154509689Y-95461670D03*
X154863243Y-95108116D03*
X155216796Y-94754563D03*
X155570349Y-94401010D03*
X155923903Y-94047456D03*
X156277456Y-93693903D03*
X156631010Y-93340349D03*
X156984563Y-92986796D03*
X157338116Y-92633243D03*
X157691670Y-92279689D03*
X158045223Y-91926136D03*
D16*
X158045223Y-90953864D03*
X157691670Y-90600311D03*
X157338116Y-90246757D03*
X156984563Y-89893204D03*
X156631010Y-89539651D03*
X156277456Y-89186097D03*
X155923903Y-88832544D03*
X155570349Y-88478990D03*
X155216796Y-88125437D03*
X154863243Y-87771884D03*
X154509689Y-87418330D03*
X154156136Y-87064777D03*
D17*
X153670000Y-91440000D03*
%TD*%
D11*
%TO.C,R6*%
X149756500Y-63144400D03*
X147931500Y-63144400D03*
%TD*%
D18*
%TO.C,U2*%
X150520000Y-101840000D03*
X150520000Y-104140000D03*
D19*
X156820000Y-104140000D03*
D18*
X150520000Y-106440000D03*
%TD*%
D20*
%TO.C,J6*%
X156972000Y-71710000D03*
X156972000Y-75610000D03*
X155702000Y-71710000D03*
X155702000Y-75610000D03*
X154432000Y-71710000D03*
X154432000Y-75610000D03*
X153162000Y-71710000D03*
X153162000Y-75610000D03*
X151892000Y-71710000D03*
X151892000Y-75610000D03*
X150622000Y-71710000D03*
X150622000Y-75610000D03*
X149352000Y-71710000D03*
X149352000Y-75610000D03*
%TD*%
D21*
%TO.C,D9*%
X147944800Y-61135500D03*
X149844800Y-61135500D03*
X148894800Y-59260500D03*
%TD*%
D10*
%TO.C,D1*%
X157085000Y-67310000D03*
X155335000Y-67310000D03*
%TD*%
D22*
%TO.C,J2*%
X162560000Y-59690000D03*
D23*
X162560000Y-62230000D03*
X162560000Y-64770000D03*
X162560000Y-67310000D03*
X162560000Y-69850000D03*
X162560000Y-72390000D03*
X162560000Y-74930000D03*
X162560000Y-77470000D03*
X162560000Y-80010000D03*
X162560000Y-82550000D03*
X162560000Y-85090000D03*
X162560000Y-87630000D03*
X162560000Y-90170000D03*
X162560000Y-92710000D03*
X162560000Y-95250000D03*
X162560000Y-97790000D03*
X162560000Y-100330000D03*
X162560000Y-102870000D03*
X162560000Y-105410000D03*
X162560000Y-107950000D03*
%TD*%
D22*
%TO.C,J3*%
X144780000Y-107945000D03*
D23*
X144780000Y-105405000D03*
X144780000Y-102865000D03*
X144780000Y-100325000D03*
X144780000Y-97785000D03*
X144780000Y-95245000D03*
X144780000Y-92705000D03*
X144780000Y-90165000D03*
X144780000Y-87625000D03*
X144780000Y-85085000D03*
X144780000Y-82545000D03*
X144780000Y-80005000D03*
X144780000Y-77465000D03*
X144780000Y-74925000D03*
X144780000Y-72385000D03*
X144780000Y-69845000D03*
X144780000Y-67305000D03*
X144780000Y-64765000D03*
X144780000Y-62225000D03*
X144780000Y-59685000D03*
%TD*%
M02*
