%TF.GenerationSoftware,KiCad,Pcbnew,(6.0.1)*%
%TF.CreationDate,2022-02-14T12:04:18-05:00*%
%TF.ProjectId,pacman,7061636d-616e-42e6-9b69-6361645f7063,rev?*%
%TF.SameCoordinates,Original*%
%TF.FileFunction,Legend,Bot*%
%TF.FilePolarity,Positive*%
%FSLAX46Y46*%
G04 Gerber Fmt 4.6, Leading zero omitted, Abs format (unit mm)*
G04 Created by KiCad (PCBNEW (6.0.1)) date 2022-02-14 12:04:18*
%MOMM*%
%LPD*%
G01*
G04 APERTURE LIST*
%ADD10C,0.150000*%
%ADD11C,0.300000*%
%ADD12C,0.050000*%
%ADD13C,0.120000*%
%ADD14C,0.127000*%
%ADD15C,0.500000*%
%ADD16C,0.180000*%
%ADD17C,0.100000*%
%ADD18C,2.000000*%
G04 APERTURE END LIST*
D10*
X161544000Y-73152000D02*
X161544000Y-49784000D01*
X164592000Y-77978000D02*
X164592000Y-114300000D01*
X164592000Y-77978000D02*
X161544000Y-73152000D01*
D11*
X163709578Y-73584238D02*
X163558055Y-73533730D01*
X163406532Y-73382208D01*
X163305517Y-73180177D01*
X163305517Y-72978147D01*
X163356024Y-72826624D01*
X163507547Y-72574086D01*
X163659070Y-72422563D01*
X163911608Y-72271040D01*
X164063131Y-72220532D01*
X164265162Y-72220532D01*
X164467192Y-72321547D01*
X164568208Y-72422563D01*
X164669223Y-72624593D01*
X164669223Y-72725608D01*
X164315669Y-73079162D01*
X164113639Y-72877131D01*
X165729883Y-73584238D02*
X165224807Y-73079162D01*
X164164147Y-74139822D01*
X164871253Y-74846929D02*
X166285467Y-74139822D01*
X165578360Y-75554036D01*
X160716471Y-76788147D02*
X161322563Y-77394238D01*
X162080177Y-76030532D02*
X161019517Y-77091192D01*
X162635761Y-76687131D02*
X162837791Y-76788147D01*
X163090330Y-77040685D01*
X163140837Y-77192208D01*
X163140837Y-77293223D01*
X163090330Y-77444746D01*
X162989314Y-77545761D01*
X162837791Y-77596269D01*
X162736776Y-77596269D01*
X162585253Y-77545761D01*
X162332715Y-77394238D01*
X162181192Y-77343730D01*
X162080177Y-77343730D01*
X161928654Y-77394238D01*
X161827639Y-77495253D01*
X161777131Y-77646776D01*
X161777131Y-77747791D01*
X161827639Y-77899314D01*
X162080177Y-78151852D01*
X162282208Y-78252868D01*
X162534746Y-78606421D02*
X163948959Y-77899314D01*
X163241852Y-79313528D01*
D10*
X164059343Y-66478188D02*
X164522588Y-66143622D01*
X164290966Y-66310905D02*
X163705475Y-65500225D01*
X163866324Y-65560276D01*
X163999293Y-65581722D01*
X164104381Y-65564565D01*
X163287268Y-67035798D02*
X163750513Y-66701232D01*
X163518890Y-66868515D02*
X162933400Y-66057835D01*
X163094249Y-66117886D01*
X163227217Y-66139332D01*
X163332305Y-66122175D01*
X162884073Y-67209515D02*
X162873349Y-67275999D01*
X162939834Y-67286722D01*
X162950557Y-67220238D01*
X162884073Y-67209515D01*
X162939834Y-67286722D01*
X162062670Y-66804175D02*
X161996186Y-66793452D01*
X161891098Y-66810609D01*
X161698079Y-66950012D01*
X161648752Y-67044376D01*
X161638029Y-67110861D01*
X161655186Y-67215949D01*
X161710947Y-67293156D01*
X161833192Y-67381087D01*
X162631003Y-67509766D01*
X162129154Y-67872213D01*
X161273437Y-67256697D02*
X160732985Y-67647024D01*
X161665909Y-68206779D01*
X160971041Y-68708628D02*
X160816626Y-68820150D01*
X160711538Y-68837307D01*
X160645054Y-68826584D01*
X160484205Y-68766533D01*
X160334079Y-68639999D01*
X160111035Y-68331169D01*
X160093878Y-68226081D01*
X160104601Y-68159596D01*
X160153928Y-68065232D01*
X160308343Y-67953710D01*
X160413431Y-67936552D01*
X160479915Y-67947276D01*
X160574280Y-67996603D01*
X160713683Y-68189622D01*
X160730840Y-68294710D01*
X160720117Y-68361194D01*
X160670790Y-68455559D01*
X160516374Y-68567081D01*
X160411286Y-68584238D01*
X160344802Y-68573515D01*
X160250437Y-68524188D01*
X159499808Y-68948829D02*
X159890136Y-69489282D01*
X159469783Y-68500596D02*
X160081010Y-68940250D01*
X159579161Y-69302697D01*
X158847834Y-70242055D02*
X158457507Y-69701603D01*
X158513268Y-69778810D02*
X158446783Y-69768087D01*
X158341695Y-69785244D01*
X158225884Y-69868886D01*
X158176557Y-69963250D01*
X158193714Y-70068338D01*
X158500400Y-70492980D01*
X158193714Y-70068338D02*
X158099349Y-70019011D01*
X157994261Y-70036169D01*
X157878450Y-70119810D01*
X157829123Y-70214175D01*
X157846280Y-70319263D01*
X158152966Y-70743905D01*
X157766928Y-71022710D02*
X157376601Y-70482257D01*
X157432362Y-70559464D02*
X157365878Y-70548741D01*
X157260790Y-70565898D01*
X157144978Y-70649540D01*
X157095651Y-70743905D01*
X157112809Y-70848993D01*
X157419494Y-71273634D01*
X157112809Y-70848993D02*
X157018444Y-70799666D01*
X156913356Y-70816823D01*
X156797544Y-70900464D01*
X156748217Y-70994829D01*
X156765375Y-71099917D01*
X157072060Y-71524559D01*
X157187255Y-73508660D02*
X156271129Y-72240177D01*
X166331255Y-66904660D02*
X165415129Y-65636177D01*
X156614472Y-72715576D02*
X165758472Y-66111576D01*
X156614472Y-72715576D02*
X165758472Y-66111576D01*
X156614472Y-72715576D02*
X157871049Y-72531418D01*
X156614472Y-72715576D02*
X157184361Y-71580620D01*
X165758472Y-66111576D02*
X164501895Y-66295734D01*
X165758472Y-66111576D02*
X165188583Y-67246532D01*
%TO.C,D3*%
X174537380Y-61611904D02*
X173537380Y-61611904D01*
X173537380Y-61850000D01*
X173585000Y-61992857D01*
X173680238Y-62088095D01*
X173775476Y-62135714D01*
X173965952Y-62183333D01*
X174108809Y-62183333D01*
X174299285Y-62135714D01*
X174394523Y-62088095D01*
X174489761Y-61992857D01*
X174537380Y-61850000D01*
X174537380Y-61611904D01*
X173537380Y-62516666D02*
X173537380Y-63135714D01*
X173918333Y-62802380D01*
X173918333Y-62945238D01*
X173965952Y-63040476D01*
X174013571Y-63088095D01*
X174108809Y-63135714D01*
X174346904Y-63135714D01*
X174442142Y-63088095D01*
X174489761Y-63040476D01*
X174537380Y-62945238D01*
X174537380Y-62659523D01*
X174489761Y-62564285D01*
X174442142Y-62516666D01*
%TO.C,D4*%
X179940595Y-71472880D02*
X179940595Y-70472880D01*
X179702500Y-70472880D01*
X179559642Y-70520500D01*
X179464404Y-70615738D01*
X179416785Y-70710976D01*
X179369166Y-70901452D01*
X179369166Y-71044309D01*
X179416785Y-71234785D01*
X179464404Y-71330023D01*
X179559642Y-71425261D01*
X179702500Y-71472880D01*
X179940595Y-71472880D01*
X178512023Y-70806214D02*
X178512023Y-71472880D01*
X178750119Y-70425261D02*
X178988214Y-71139547D01*
X178369166Y-71139547D01*
D12*
%TO.C,J1*%
X162772913Y-113532928D02*
X162772913Y-114533456D01*
X162839615Y-114733562D01*
X162973019Y-114866966D01*
X163173124Y-114933668D01*
X163306528Y-114933668D01*
X161372173Y-114933668D02*
X162172596Y-114933668D01*
X161772384Y-114933668D02*
X161772384Y-113532928D01*
X161905788Y-113733033D01*
X162039192Y-113866437D01*
X162172596Y-113933139D01*
X175553134Y-84984853D02*
X175619847Y-85051567D01*
X175819989Y-85118281D01*
X175953416Y-85118281D01*
X176153558Y-85051567D01*
X176286985Y-84918139D01*
X176353699Y-84784712D01*
X176420413Y-84517856D01*
X176420413Y-84317715D01*
X176353699Y-84050860D01*
X176286985Y-83917432D01*
X176153558Y-83784005D01*
X175953416Y-83717291D01*
X175819989Y-83717291D01*
X175619847Y-83784005D01*
X175553134Y-83850718D01*
X174752568Y-85118281D02*
X174885995Y-85051567D01*
X174952709Y-84984853D01*
X175019423Y-84851425D01*
X175019423Y-84451143D01*
X174952709Y-84317715D01*
X174885995Y-84251001D01*
X174752568Y-84184287D01*
X174552426Y-84184287D01*
X174418999Y-84251001D01*
X174352285Y-84317715D01*
X174285571Y-84451143D01*
X174285571Y-84851425D01*
X174352285Y-84984853D01*
X174418999Y-85051567D01*
X174552426Y-85118281D01*
X174752568Y-85118281D01*
X173685147Y-84184287D02*
X173685147Y-85118281D01*
X173685147Y-84317715D02*
X173618433Y-84251001D01*
X173485005Y-84184287D01*
X173284864Y-84184287D01*
X173151436Y-84251001D01*
X173084723Y-84384429D01*
X173084723Y-85118281D01*
X172417585Y-84184287D02*
X172417585Y-85118281D01*
X172417585Y-84317715D02*
X172350871Y-84251001D01*
X172217443Y-84184287D01*
X172017302Y-84184287D01*
X171883874Y-84251001D01*
X171817160Y-84384429D01*
X171817160Y-85118281D01*
X171483591Y-85251708D02*
X170416170Y-85251708D01*
X169815746Y-83717291D02*
X169682318Y-83717291D01*
X169548891Y-83784005D01*
X169482177Y-83850718D01*
X169415463Y-83984146D01*
X169348749Y-84251001D01*
X169348749Y-84584570D01*
X169415463Y-84851425D01*
X169482177Y-84984853D01*
X169548891Y-85051567D01*
X169682318Y-85118281D01*
X169815746Y-85118281D01*
X169949174Y-85051567D01*
X170015887Y-84984853D01*
X170082601Y-84851425D01*
X170149315Y-84584570D01*
X170149315Y-84251001D01*
X170082601Y-83984146D01*
X170015887Y-83850718D01*
X169949174Y-83784005D01*
X169815746Y-83717291D01*
X168014473Y-85118281D02*
X168815039Y-85118281D01*
X168414756Y-85118281D02*
X168414756Y-83717291D01*
X168548184Y-83917432D01*
X168681611Y-84050860D01*
X168815039Y-84117574D01*
X167547476Y-85118281D02*
X166813625Y-84184287D01*
X167547476Y-84184287D02*
X166813625Y-85118281D01*
X166013059Y-83717291D02*
X165879631Y-83717291D01*
X165746204Y-83784005D01*
X165679490Y-83850718D01*
X165612776Y-83984146D01*
X165546062Y-84251001D01*
X165546062Y-84584570D01*
X165612776Y-84851425D01*
X165679490Y-84984853D01*
X165746204Y-85051567D01*
X165879631Y-85118281D01*
X166013059Y-85118281D01*
X166146486Y-85051567D01*
X166213200Y-84984853D01*
X166279914Y-84851425D01*
X166346628Y-84584570D01*
X166346628Y-84251001D01*
X166279914Y-83984146D01*
X166213200Y-83850718D01*
X166146486Y-83784005D01*
X166013059Y-83717291D01*
X164745496Y-84317715D02*
X164878924Y-84251001D01*
X164945638Y-84184287D01*
X165012352Y-84050860D01*
X165012352Y-83984146D01*
X164945638Y-83850718D01*
X164878924Y-83784005D01*
X164745496Y-83717291D01*
X164478641Y-83717291D01*
X164345214Y-83784005D01*
X164278500Y-83850718D01*
X164211786Y-83984146D01*
X164211786Y-84050860D01*
X164278500Y-84184287D01*
X164345214Y-84251001D01*
X164478641Y-84317715D01*
X164745496Y-84317715D01*
X164878924Y-84384429D01*
X164945638Y-84451143D01*
X165012352Y-84584570D01*
X165012352Y-84851425D01*
X164945638Y-84984853D01*
X164878924Y-85051567D01*
X164745496Y-85118281D01*
X164478641Y-85118281D01*
X164345214Y-85051567D01*
X164278500Y-84984853D01*
X164211786Y-84851425D01*
X164211786Y-84584570D01*
X164278500Y-84451143D01*
X164345214Y-84384429D01*
X164478641Y-84317715D01*
D10*
%TO.C,R1*%
X144538380Y-99401333D02*
X144062190Y-99068000D01*
X144538380Y-98829904D02*
X143538380Y-98829904D01*
X143538380Y-99210857D01*
X143586000Y-99306095D01*
X143633619Y-99353714D01*
X143728857Y-99401333D01*
X143871714Y-99401333D01*
X143966952Y-99353714D01*
X144014571Y-99306095D01*
X144062190Y-99210857D01*
X144062190Y-98829904D01*
X144538380Y-100353714D02*
X144538380Y-99782285D01*
X144538380Y-100068000D02*
X143538380Y-100068000D01*
X143681238Y-99972761D01*
X143776476Y-99877523D01*
X143824095Y-99782285D01*
%TO.C,D1*%
X138660095Y-78624380D02*
X138660095Y-77624380D01*
X138422000Y-77624380D01*
X138279142Y-77672000D01*
X138183904Y-77767238D01*
X138136285Y-77862476D01*
X138088666Y-78052952D01*
X138088666Y-78195809D01*
X138136285Y-78386285D01*
X138183904Y-78481523D01*
X138279142Y-78576761D01*
X138422000Y-78624380D01*
X138660095Y-78624380D01*
X137136285Y-78624380D02*
X137707714Y-78624380D01*
X137422000Y-78624380D02*
X137422000Y-77624380D01*
X137517238Y-77767238D01*
X137612476Y-77862476D01*
X137707714Y-77910095D01*
D13*
%TO.C,D3*%
X171085000Y-64900000D02*
X171085000Y-60600000D01*
X173085000Y-60600000D02*
X173085000Y-64900000D01*
X173085000Y-64900000D02*
X171085000Y-64900000D01*
%TO.C,D4*%
X181752500Y-72020500D02*
X181752500Y-74020500D01*
X177452500Y-72020500D02*
X181752500Y-72020500D01*
X181752500Y-74020500D02*
X177452500Y-74020500D01*
D14*
%TO.C,J1*%
X194580000Y-108733000D02*
X194580000Y-89133000D01*
X199280000Y-114983000D02*
X166480000Y-114983000D01*
X192580000Y-87133000D02*
X173180000Y-87133000D01*
X166480000Y-82883000D02*
X199280000Y-82883000D01*
X162480000Y-110983000D02*
X162480000Y-86883000D01*
X203280000Y-86883000D02*
X203280000Y-110983000D01*
X173180000Y-110733000D02*
X192580000Y-110733000D01*
X171180000Y-89133000D02*
X171180000Y-108733000D01*
X173180000Y-87133000D02*
G75*
G03*
X171180000Y-89133000I-1J-1999999D01*
G01*
X166480000Y-82883000D02*
G75*
G03*
X162480000Y-86883000I0J-4000000D01*
G01*
X203280000Y-86883000D02*
G75*
G03*
X199280000Y-82883000I-4000000J0D01*
G01*
X194580000Y-89133000D02*
G75*
G03*
X192580000Y-87133000I-1999999J1D01*
G01*
X192580000Y-110733000D02*
G75*
G03*
X194580000Y-108733000I1J1999999D01*
G01*
X199280000Y-114983000D02*
G75*
G03*
X203280000Y-110983000I0J4000000D01*
G01*
X171180000Y-108733000D02*
G75*
G03*
X173180000Y-110733000I1999999J-1D01*
G01*
X162480000Y-110983000D02*
G75*
G03*
X166480000Y-114983000I4000000J0D01*
G01*
D15*
X161765000Y-102933000D02*
G75*
G03*
X161765000Y-102933000I-250000J0D01*
G01*
D13*
%TO.C,R1*%
X138346000Y-93498000D02*
X143086000Y-93498000D01*
X143086000Y-105638000D02*
X138346000Y-105638000D01*
X140716000Y-110828000D02*
X140716000Y-105638000D01*
X143086000Y-93498000D02*
X143086000Y-105638000D01*
X138346000Y-105638000D02*
X138346000Y-93498000D01*
X140716000Y-88308000D02*
X140716000Y-93498000D01*
D16*
%TO.C,D1*%
X135922000Y-73172000D02*
X135922000Y-75672000D01*
X139922000Y-73172000D02*
X135922000Y-73172000D01*
X135922000Y-75672000D02*
X139922000Y-75672000D01*
X140462000Y-76962000D02*
X140462000Y-71882000D01*
D17*
X137672000Y-74422000D02*
X138172000Y-74922000D01*
D16*
X135382000Y-71882000D02*
X135382000Y-76962000D01*
X140462000Y-71882000D02*
X135382000Y-71882000D01*
D17*
X138172000Y-74922000D02*
X138172000Y-73922000D01*
X137672000Y-74922000D02*
X137672000Y-73922000D01*
X138172000Y-73922000D02*
X137672000Y-74422000D01*
D16*
X139922000Y-75672000D02*
X139922000Y-73172000D01*
X135382000Y-76962000D02*
X140462000Y-76962000D01*
%TD*%
D18*
%TO.C,J1*%
X196580000Y-109733000D03*
X167680000Y-91633000D03*
X198080000Y-91633000D03*
X169180000Y-109733000D03*
%TD*%
M02*
