%TF.GenerationSoftware,KiCad,Pcbnew,(6.0.1)*%
%TF.CreationDate,2022-02-14T12:04:18-05:00*%
%TF.ProjectId,pacman,7061636d-616e-42e6-9b69-6361645f7063,rev?*%
%TF.SameCoordinates,Original*%
%TF.FileFunction,Legend,Top*%
%TF.FilePolarity,Positive*%
%FSLAX46Y46*%
G04 Gerber Fmt 4.6, Leading zero omitted, Abs format (unit mm)*
G04 Created by KiCad (PCBNEW (6.0.1)) date 2022-02-14 12:04:18*
%MOMM*%
%LPD*%
G01*
G04 APERTURE LIST*
%ADD10C,0.150000*%
%ADD11C,0.100000*%
%ADD12C,0.300000*%
%ADD13C,0.120000*%
G04 APERTURE END LIST*
D10*
X161544000Y-73152000D02*
X161544000Y-49784000D01*
X164592000Y-77978000D02*
X164592000Y-114300000D01*
X164592000Y-77978000D02*
X161544000Y-73152000D01*
D11*
X201164189Y-76099871D02*
X201164189Y-76153746D01*
X201110314Y-76261496D01*
X201056439Y-76315370D01*
X200948690Y-76369245D01*
X200840940Y-76369245D01*
X200760128Y-76342308D01*
X200625441Y-76261496D01*
X200544629Y-76180683D01*
X200463816Y-76045996D01*
X200436879Y-75965184D01*
X200436879Y-75857435D01*
X200490754Y-75749685D01*
X200544629Y-75695810D01*
X200652378Y-75641935D01*
X200706253Y-75641935D01*
X201271938Y-75776622D02*
X201541312Y-75507248D01*
X201379688Y-75992122D02*
X201002564Y-75237874D01*
X201756812Y-75614998D01*
X201945374Y-75426436D02*
X201379688Y-74860751D01*
X202268622Y-75103187D01*
X201702937Y-74537502D01*
X202322497Y-74618314D02*
X202753496Y-74187316D01*
X202753496Y-74618314D02*
X202322497Y-74187316D01*
X201327719Y-78711091D02*
X201004470Y-79034340D01*
X201166094Y-78872715D02*
X200600409Y-78307030D01*
X200627346Y-78441717D01*
X200627346Y-78549467D01*
X200600409Y-78630279D01*
X201031407Y-77983781D02*
X201031407Y-77929906D01*
X201058345Y-77849094D01*
X201193032Y-77714407D01*
X201273844Y-77687470D01*
X201327719Y-77687470D01*
X201408531Y-77714407D01*
X201462406Y-77768282D01*
X201516280Y-77876032D01*
X201516280Y-78522529D01*
X201866467Y-78172343D01*
X201462406Y-77445033D02*
X202216653Y-77822157D01*
X201839529Y-77067910D01*
X190072877Y-78466683D02*
X190342251Y-78197309D01*
X190180627Y-78682183D02*
X189803503Y-77927935D01*
X190557751Y-78305059D01*
X190746312Y-78116497D02*
X190180627Y-77550812D01*
X191338935Y-77523874D02*
X190881000Y-77443062D01*
X191015687Y-77847123D02*
X190450001Y-77281438D01*
X190665500Y-77065938D01*
X190746312Y-77039001D01*
X190800187Y-77039001D01*
X190881000Y-77065938D01*
X190961812Y-77146751D01*
X190988749Y-77227563D01*
X190988749Y-77281438D01*
X190961812Y-77362250D01*
X190746312Y-77577749D01*
X191365873Y-77065938D02*
X191796871Y-76634940D01*
D12*
X172506857Y-112534000D02*
X172364000Y-112462571D01*
X172149714Y-112462571D01*
X171935428Y-112534000D01*
X171792571Y-112676857D01*
X171721142Y-112819714D01*
X171649714Y-113105428D01*
X171649714Y-113319714D01*
X171721142Y-113605428D01*
X171792571Y-113748285D01*
X171935428Y-113891142D01*
X172149714Y-113962571D01*
X172292571Y-113962571D01*
X172506857Y-113891142D01*
X172578285Y-113819714D01*
X172578285Y-113319714D01*
X172292571Y-113319714D01*
X173221142Y-113819714D02*
X173292571Y-113891142D01*
X173221142Y-113962571D01*
X173149714Y-113891142D01*
X173221142Y-113819714D01*
X173221142Y-113962571D01*
X173864000Y-113891142D02*
X174078285Y-113962571D01*
X174435428Y-113962571D01*
X174578285Y-113891142D01*
X174649714Y-113819714D01*
X174721142Y-113676857D01*
X174721142Y-113534000D01*
X174649714Y-113391142D01*
X174578285Y-113319714D01*
X174435428Y-113248285D01*
X174149714Y-113176857D01*
X174006857Y-113105428D01*
X173935428Y-113034000D01*
X173864000Y-112891142D01*
X173864000Y-112748285D01*
X173935428Y-112605428D01*
X174006857Y-112534000D01*
X174149714Y-112462571D01*
X174506857Y-112462571D01*
X174721142Y-112534000D01*
X175364000Y-112962571D02*
X175364000Y-114462571D01*
X175364000Y-113034000D02*
X175506857Y-112962571D01*
X175792571Y-112962571D01*
X175935428Y-113034000D01*
X176006857Y-113105428D01*
X176078285Y-113248285D01*
X176078285Y-113676857D01*
X176006857Y-113819714D01*
X175935428Y-113891142D01*
X175792571Y-113962571D01*
X175506857Y-113962571D01*
X175364000Y-113891142D01*
X177292571Y-113891142D02*
X177149714Y-113962571D01*
X176864000Y-113962571D01*
X176721142Y-113891142D01*
X176649714Y-113748285D01*
X176649714Y-113176857D01*
X176721142Y-113034000D01*
X176864000Y-112962571D01*
X177149714Y-112962571D01*
X177292571Y-113034000D01*
X177364000Y-113176857D01*
X177364000Y-113319714D01*
X176649714Y-113462571D01*
X178649714Y-113962571D02*
X178649714Y-113176857D01*
X178578285Y-113034000D01*
X178435428Y-112962571D01*
X178149714Y-112962571D01*
X178006857Y-113034000D01*
X178649714Y-113891142D02*
X178506857Y-113962571D01*
X178149714Y-113962571D01*
X178006857Y-113891142D01*
X177935428Y-113748285D01*
X177935428Y-113605428D01*
X178006857Y-113462571D01*
X178149714Y-113391142D01*
X178506857Y-113391142D01*
X178649714Y-113319714D01*
X179364000Y-113962571D02*
X179364000Y-112962571D01*
X179364000Y-113248285D02*
X179435428Y-113105428D01*
X179506857Y-113034000D01*
X179649714Y-112962571D01*
X179792571Y-112962571D01*
X180292571Y-113962571D02*
X180292571Y-112962571D01*
X180292571Y-112462571D02*
X180221142Y-112534000D01*
X180292571Y-112605428D01*
X180364000Y-112534000D01*
X180292571Y-112462571D01*
X180292571Y-112605428D01*
X181006857Y-112962571D02*
X181006857Y-113962571D01*
X181006857Y-113105428D02*
X181078285Y-113034000D01*
X181221142Y-112962571D01*
X181435428Y-112962571D01*
X181578285Y-113034000D01*
X181649714Y-113176857D01*
X181649714Y-113962571D01*
X183006857Y-112962571D02*
X183006857Y-114176857D01*
X182935428Y-114319714D01*
X182864000Y-114391142D01*
X182721142Y-114462571D01*
X182506857Y-114462571D01*
X182364000Y-114391142D01*
X183006857Y-113891142D02*
X182864000Y-113962571D01*
X182578285Y-113962571D01*
X182435428Y-113891142D01*
X182364000Y-113819714D01*
X182292571Y-113676857D01*
X182292571Y-113248285D01*
X182364000Y-113105428D01*
X182435428Y-113034000D01*
X182578285Y-112962571D01*
X182864000Y-112962571D01*
X183006857Y-113034000D01*
X184792571Y-112605428D02*
X184864000Y-112534000D01*
X185006857Y-112462571D01*
X185364000Y-112462571D01*
X185506857Y-112534000D01*
X185578285Y-112605428D01*
X185649714Y-112748285D01*
X185649714Y-112891142D01*
X185578285Y-113105428D01*
X184721142Y-113962571D01*
X185649714Y-113962571D01*
X186221142Y-112605428D02*
X186292571Y-112534000D01*
X186435428Y-112462571D01*
X186792571Y-112462571D01*
X186935428Y-112534000D01*
X187006857Y-112605428D01*
X187078285Y-112748285D01*
X187078285Y-112891142D01*
X187006857Y-113105428D01*
X186149714Y-113962571D01*
X187078285Y-113962571D01*
X187721142Y-113819714D02*
X187792571Y-113891142D01*
X187721142Y-113962571D01*
X187649714Y-113891142D01*
X187721142Y-113819714D01*
X187721142Y-113962571D01*
X188721142Y-112462571D02*
X188864000Y-112462571D01*
X189006857Y-112534000D01*
X189078285Y-112605428D01*
X189149714Y-112748285D01*
X189221142Y-113034000D01*
X189221142Y-113391142D01*
X189149714Y-113676857D01*
X189078285Y-113819714D01*
X189006857Y-113891142D01*
X188864000Y-113962571D01*
X188721142Y-113962571D01*
X188578285Y-113891142D01*
X188506857Y-113819714D01*
X188435428Y-113676857D01*
X188364000Y-113391142D01*
X188364000Y-113034000D01*
X188435428Y-112748285D01*
X188506857Y-112605428D01*
X188578285Y-112534000D01*
X188721142Y-112462571D01*
X189721142Y-112462571D02*
X190649714Y-112462571D01*
X190149714Y-113034000D01*
X190364000Y-113034000D01*
X190506857Y-113105428D01*
X190578285Y-113176857D01*
X190649714Y-113319714D01*
X190649714Y-113676857D01*
X190578285Y-113819714D01*
X190506857Y-113891142D01*
X190364000Y-113962571D01*
X189935428Y-113962571D01*
X189792571Y-113891142D01*
X189721142Y-113819714D01*
X191221142Y-112605428D02*
X191292571Y-112534000D01*
X191435428Y-112462571D01*
X191792571Y-112462571D01*
X191935428Y-112534000D01*
X192006857Y-112605428D01*
X192078285Y-112748285D01*
X192078285Y-112891142D01*
X192006857Y-113105428D01*
X191149714Y-113962571D01*
X192078285Y-113962571D01*
X114554476Y-114160952D02*
X114554476Y-111660952D01*
X115744952Y-114160952D02*
X115744952Y-111660952D01*
X117173523Y-114160952D01*
X117173523Y-111660952D01*
X118006857Y-111660952D02*
X119435428Y-111660952D01*
X118721142Y-114160952D02*
X118721142Y-111660952D01*
X120268761Y-113208571D02*
X122173523Y-113208571D01*
D11*
X189945877Y-76307683D02*
X190215251Y-76038309D01*
X190053627Y-76523183D02*
X189676503Y-75768935D01*
X190430751Y-76146059D01*
X190619312Y-75957497D02*
X190053627Y-75391812D01*
X191211935Y-75364874D02*
X190754000Y-75284062D01*
X190888687Y-75688123D02*
X190323001Y-75122438D01*
X190538500Y-74906938D01*
X190619312Y-74880001D01*
X190673187Y-74880001D01*
X190754000Y-74906938D01*
X190834812Y-74987751D01*
X190861749Y-75068563D01*
X190861749Y-75122438D01*
X190834812Y-75203250D01*
X190619312Y-75418749D01*
X191238873Y-74906938D02*
X191669871Y-74475940D01*
X191669871Y-74906938D02*
X191238873Y-74475940D01*
D12*
X164667761Y-74796421D02*
X164718269Y-74947944D01*
X164869791Y-75099467D01*
X165071822Y-75200482D01*
X165273852Y-75200482D01*
X165425375Y-75149975D01*
X165677913Y-74998452D01*
X165829436Y-74846929D01*
X165980959Y-74594391D01*
X166031467Y-74442868D01*
X166031467Y-74240837D01*
X165930452Y-74038807D01*
X165829436Y-73937791D01*
X165627406Y-73836776D01*
X165526391Y-73836776D01*
X165172837Y-74190330D01*
X165374868Y-74392360D01*
X164667761Y-72776116D02*
X165172837Y-73281192D01*
X164112177Y-74341852D01*
X163405070Y-73634746D02*
X164112177Y-72220532D01*
X162697963Y-72927639D01*
X125956761Y-99389428D02*
X126313904Y-99508476D01*
X126432952Y-99627523D01*
X126552000Y-99865619D01*
X126552000Y-100222761D01*
X126432952Y-100460857D01*
X126313904Y-100579904D01*
X126075809Y-100698952D01*
X125123428Y-100698952D01*
X125123428Y-98198952D01*
X125956761Y-98198952D01*
X126194857Y-98318000D01*
X126313904Y-98437047D01*
X126432952Y-98675142D01*
X126432952Y-98913238D01*
X126313904Y-99151333D01*
X126194857Y-99270380D01*
X125956761Y-99389428D01*
X125123428Y-99389428D01*
X127504380Y-99984666D02*
X128694857Y-99984666D01*
X127266285Y-100698952D02*
X128099619Y-98198952D01*
X128932952Y-100698952D01*
X129409142Y-98198952D02*
X130837714Y-98198952D01*
X130123428Y-100698952D02*
X130123428Y-98198952D01*
X131313904Y-98198952D02*
X132742476Y-98198952D01*
X132028190Y-100698952D02*
X132028190Y-98198952D01*
X133575809Y-99746571D02*
X135480571Y-99746571D01*
X134528190Y-100698952D02*
X134528190Y-98794190D01*
D11*
X189913158Y-73427155D02*
X189832346Y-73454093D01*
X189751534Y-73534905D01*
X189697659Y-73642654D01*
X189697659Y-73750404D01*
X189724597Y-73831216D01*
X189805409Y-73965903D01*
X189886221Y-74046715D01*
X190020908Y-74127528D01*
X190101720Y-74154465D01*
X190209470Y-74154465D01*
X190317219Y-74100590D01*
X190371094Y-74046715D01*
X190424969Y-73938966D01*
X190424969Y-73885091D01*
X190236407Y-73696529D01*
X190128658Y-73804279D01*
X190721280Y-73696529D02*
X190155595Y-73130844D01*
X191044529Y-73373280D01*
X190478844Y-72807595D01*
X191313903Y-73103906D02*
X190748218Y-72538221D01*
X190882905Y-72403534D01*
X190990654Y-72349659D01*
X191098404Y-72349659D01*
X191179216Y-72376597D01*
X191313903Y-72457409D01*
X191394715Y-72538221D01*
X191475528Y-72672908D01*
X191502465Y-72753720D01*
X191502465Y-72861470D01*
X191448590Y-72969219D01*
X191313903Y-73103906D01*
D12*
X148450952Y-113791523D02*
X145950952Y-113791523D01*
X148450952Y-112601047D02*
X145950952Y-112601047D01*
X148450952Y-111172476D01*
X145950952Y-111172476D01*
X145950952Y-110339142D02*
X145950952Y-108910571D01*
X148450952Y-109624857D02*
X145950952Y-109624857D01*
X147498571Y-108077238D02*
X147498571Y-106172476D01*
X148450952Y-107124857D02*
X146546190Y-107124857D01*
X175926952Y-51038142D02*
X175260285Y-51038142D01*
X175260285Y-52085761D02*
X175260285Y-50085761D01*
X176212666Y-50085761D01*
X176879333Y-51514333D02*
X177831714Y-51514333D01*
X176688857Y-52085761D02*
X177355523Y-50085761D01*
X178022190Y-52085761D01*
X178688857Y-52085761D02*
X178688857Y-50085761D01*
X179831714Y-52085761D01*
X179831714Y-50085761D01*
X172656571Y-55350142D02*
X173799428Y-55350142D01*
X173228000Y-55921571D02*
X173228000Y-54778714D01*
X172656571Y-60180142D02*
X173799428Y-60180142D01*
X200489428Y-96552571D02*
X201989428Y-96552571D01*
X201989428Y-97124000D01*
X201918000Y-97266857D01*
X201846571Y-97338285D01*
X201703714Y-97409714D01*
X201489428Y-97409714D01*
X201346571Y-97338285D01*
X201275142Y-97266857D01*
X201203714Y-97124000D01*
X201203714Y-96552571D01*
X200489428Y-98695428D02*
X201275142Y-98695428D01*
X201418000Y-98624000D01*
X201489428Y-98481142D01*
X201489428Y-98195428D01*
X201418000Y-98052571D01*
X200560857Y-98695428D02*
X200489428Y-98552571D01*
X200489428Y-98195428D01*
X200560857Y-98052571D01*
X200703714Y-97981142D01*
X200846571Y-97981142D01*
X200989428Y-98052571D01*
X201060857Y-98195428D01*
X201060857Y-98552571D01*
X201132285Y-98695428D01*
X200560857Y-100052571D02*
X200489428Y-99909714D01*
X200489428Y-99624000D01*
X200560857Y-99481142D01*
X200632285Y-99409714D01*
X200775142Y-99338285D01*
X201203714Y-99338285D01*
X201346571Y-99409714D01*
X201418000Y-99481142D01*
X201489428Y-99624000D01*
X201489428Y-99909714D01*
X201418000Y-100052571D01*
X200489428Y-100695428D02*
X201989428Y-100695428D01*
X201060857Y-100838285D02*
X200489428Y-101266857D01*
X201489428Y-101266857D02*
X200918000Y-100695428D01*
X200560857Y-102981142D02*
X200489428Y-103195428D01*
X200489428Y-103552571D01*
X200560857Y-103695428D01*
X200632285Y-103766857D01*
X200775142Y-103838285D01*
X200918000Y-103838285D01*
X201060857Y-103766857D01*
X201132285Y-103695428D01*
X201203714Y-103552571D01*
X201275142Y-103266857D01*
X201346571Y-103124000D01*
X201418000Y-103052571D01*
X201560857Y-102981142D01*
X201703714Y-102981142D01*
X201846571Y-103052571D01*
X201918000Y-103124000D01*
X201989428Y-103266857D01*
X201989428Y-103624000D01*
X201918000Y-103838285D01*
X200489428Y-104481142D02*
X201489428Y-104481142D01*
X201989428Y-104481142D02*
X201918000Y-104409714D01*
X201846571Y-104481142D01*
X201918000Y-104552571D01*
X201989428Y-104481142D01*
X201846571Y-104481142D01*
X200489428Y-105838285D02*
X201989428Y-105838285D01*
X200560857Y-105838285D02*
X200489428Y-105695428D01*
X200489428Y-105409714D01*
X200560857Y-105266857D01*
X200632285Y-105195428D01*
X200775142Y-105124000D01*
X201203714Y-105124000D01*
X201346571Y-105195428D01*
X201418000Y-105266857D01*
X201489428Y-105409714D01*
X201489428Y-105695428D01*
X201418000Y-105838285D01*
X200560857Y-107124000D02*
X200489428Y-106981142D01*
X200489428Y-106695428D01*
X200560857Y-106552571D01*
X200703714Y-106481142D01*
X201275142Y-106481142D01*
X201418000Y-106552571D01*
X201489428Y-106695428D01*
X201489428Y-106981142D01*
X201418000Y-107124000D01*
X201275142Y-107195428D01*
X201132285Y-107195428D01*
X200989428Y-106481142D01*
X200489428Y-109766857D02*
X200489428Y-108909714D01*
X200489428Y-109338285D02*
X201989428Y-109338285D01*
X201775142Y-109195428D01*
X201632285Y-109052571D01*
X201560857Y-108909714D01*
D11*
X190040158Y-71522155D02*
X189959346Y-71549093D01*
X189878534Y-71629905D01*
X189824659Y-71737654D01*
X189824659Y-71845404D01*
X189851597Y-71926216D01*
X189932409Y-72060903D01*
X190013221Y-72141715D01*
X190147908Y-72222528D01*
X190228720Y-72249465D01*
X190336470Y-72249465D01*
X190444219Y-72195590D01*
X190498094Y-72141715D01*
X190551969Y-72033966D01*
X190551969Y-71980091D01*
X190363407Y-71791529D01*
X190255658Y-71899279D01*
X190848280Y-71791529D02*
X190282595Y-71225844D01*
X191171529Y-71468280D01*
X190605844Y-70902595D01*
X191440903Y-71198906D02*
X190875218Y-70633221D01*
X191009905Y-70498534D01*
X191117654Y-70444659D01*
X191225404Y-70444659D01*
X191306216Y-70471597D01*
X191440903Y-70552409D01*
X191521715Y-70633221D01*
X191602528Y-70767908D01*
X191629465Y-70848720D01*
X191629465Y-70956470D01*
X191575590Y-71064219D01*
X191440903Y-71198906D01*
X200581158Y-70125155D02*
X200500346Y-70152093D01*
X200419534Y-70232905D01*
X200365659Y-70340654D01*
X200365659Y-70448404D01*
X200392597Y-70529216D01*
X200473409Y-70663903D01*
X200554221Y-70744715D01*
X200688908Y-70825528D01*
X200769720Y-70852465D01*
X200877470Y-70852465D01*
X200985219Y-70798590D01*
X201039094Y-70744715D01*
X201092969Y-70636966D01*
X201092969Y-70583091D01*
X200904407Y-70394529D01*
X200796658Y-70502279D01*
X201389280Y-70394529D02*
X200823595Y-69828844D01*
X201712529Y-70071280D01*
X201146844Y-69505595D01*
X201981903Y-69801906D02*
X201416218Y-69236221D01*
X201550905Y-69101534D01*
X201658654Y-69047659D01*
X201766404Y-69047659D01*
X201847216Y-69074597D01*
X201981903Y-69155409D01*
X202062715Y-69236221D01*
X202143528Y-69370908D01*
X202170465Y-69451720D01*
X202170465Y-69559470D01*
X202116590Y-69667219D01*
X201981903Y-69801906D01*
X201164189Y-73432871D02*
X201164189Y-73486746D01*
X201110314Y-73594496D01*
X201056439Y-73648370D01*
X200948690Y-73702245D01*
X200840940Y-73702245D01*
X200760128Y-73675308D01*
X200625441Y-73594496D01*
X200544629Y-73513683D01*
X200463816Y-73378996D01*
X200436879Y-73298184D01*
X200436879Y-73190435D01*
X200490754Y-73082685D01*
X200544629Y-73028810D01*
X200652378Y-72974935D01*
X200706253Y-72974935D01*
X201271938Y-73109622D02*
X201541312Y-72840248D01*
X201379688Y-73325122D02*
X201002564Y-72570874D01*
X201756812Y-72947998D01*
X201945374Y-72759436D02*
X201379688Y-72193751D01*
X202268622Y-72436187D01*
X201702937Y-71870502D01*
X202322497Y-71951314D02*
X202753496Y-71520316D01*
D12*
X161624147Y-75626471D02*
X162230238Y-76232563D01*
X160866532Y-76990177D02*
X161927192Y-75929517D01*
X161523131Y-77545761D02*
X161624147Y-77747791D01*
X161876685Y-78000330D01*
X162028208Y-78050837D01*
X162129223Y-78050837D01*
X162280746Y-78000330D01*
X162381761Y-77899314D01*
X162432269Y-77747791D01*
X162432269Y-77646776D01*
X162381761Y-77495253D01*
X162230238Y-77242715D01*
X162179730Y-77091192D01*
X162179730Y-76990177D01*
X162230238Y-76838654D01*
X162331253Y-76737639D01*
X162482776Y-76687131D01*
X162583791Y-76687131D01*
X162735314Y-76737639D01*
X162987852Y-76990177D01*
X163088868Y-77192208D01*
X163442421Y-77444746D02*
X162735314Y-78858959D01*
X164149528Y-78151852D01*
D10*
%TO.C,F2*%
X128698666Y-54746171D02*
X128365333Y-54746171D01*
X128365333Y-55269980D02*
X128365333Y-54269980D01*
X128841523Y-54269980D01*
X129174857Y-54365219D02*
X129222476Y-54317600D01*
X129317714Y-54269980D01*
X129555809Y-54269980D01*
X129651047Y-54317600D01*
X129698666Y-54365219D01*
X129746285Y-54460457D01*
X129746285Y-54555695D01*
X129698666Y-54698552D01*
X129127238Y-55269980D01*
X129746285Y-55269980D01*
%TO.C,R2*%
X192009733Y-91696780D02*
X191676400Y-91220590D01*
X191438304Y-91696780D02*
X191438304Y-90696780D01*
X191819257Y-90696780D01*
X191914495Y-90744400D01*
X191962114Y-90792019D01*
X192009733Y-90887257D01*
X192009733Y-91030114D01*
X191962114Y-91125352D01*
X191914495Y-91172971D01*
X191819257Y-91220590D01*
X191438304Y-91220590D01*
X192390685Y-90792019D02*
X192438304Y-90744400D01*
X192533542Y-90696780D01*
X192771638Y-90696780D01*
X192866876Y-90744400D01*
X192914495Y-90792019D01*
X192962114Y-90887257D01*
X192962114Y-90982495D01*
X192914495Y-91125352D01*
X192343066Y-91696780D01*
X192962114Y-91696780D01*
%TO.C,J9*%
X185340666Y-68413380D02*
X185340666Y-69127666D01*
X185293047Y-69270523D01*
X185197809Y-69365761D01*
X185054952Y-69413380D01*
X184959714Y-69413380D01*
X185864476Y-69413380D02*
X186054952Y-69413380D01*
X186150190Y-69365761D01*
X186197809Y-69318142D01*
X186293047Y-69175285D01*
X186340666Y-68984809D01*
X186340666Y-68603857D01*
X186293047Y-68508619D01*
X186245428Y-68461000D01*
X186150190Y-68413380D01*
X185959714Y-68413380D01*
X185864476Y-68461000D01*
X185816857Y-68508619D01*
X185769238Y-68603857D01*
X185769238Y-68841952D01*
X185816857Y-68937190D01*
X185864476Y-68984809D01*
X185959714Y-69032428D01*
X186150190Y-69032428D01*
X186245428Y-68984809D01*
X186293047Y-68937190D01*
X186340666Y-68841952D01*
%TO.C,K3*%
X195511404Y-66029880D02*
X195511404Y-65029880D01*
X196082833Y-66029880D02*
X195654261Y-65458452D01*
X196082833Y-65029880D02*
X195511404Y-65601309D01*
X196416166Y-65029880D02*
X197035214Y-65029880D01*
X196701880Y-65410833D01*
X196844738Y-65410833D01*
X196939976Y-65458452D01*
X196987595Y-65506071D01*
X197035214Y-65601309D01*
X197035214Y-65839404D01*
X196987595Y-65934642D01*
X196939976Y-65982261D01*
X196844738Y-66029880D01*
X196559023Y-66029880D01*
X196463785Y-65982261D01*
X196416166Y-65934642D01*
%TO.C,K1*%
X171394380Y-59786095D02*
X170394380Y-59786095D01*
X171394380Y-59214666D02*
X170822952Y-59643238D01*
X170394380Y-59214666D02*
X170965809Y-59786095D01*
X171394380Y-58262285D02*
X171394380Y-58833714D01*
X171394380Y-58548000D02*
X170394380Y-58548000D01*
X170537238Y-58643238D01*
X170632476Y-58738476D01*
X170680095Y-58833714D01*
%TO.C,F3*%
X182046571Y-64341333D02*
X182046571Y-64674666D01*
X182570380Y-64674666D02*
X181570380Y-64674666D01*
X181570380Y-64198476D01*
X181570380Y-63912761D02*
X181570380Y-63293714D01*
X181951333Y-63627047D01*
X181951333Y-63484190D01*
X181998952Y-63388952D01*
X182046571Y-63341333D01*
X182141809Y-63293714D01*
X182379904Y-63293714D01*
X182475142Y-63341333D01*
X182522761Y-63388952D01*
X182570380Y-63484190D01*
X182570380Y-63769904D01*
X182522761Y-63865142D01*
X182475142Y-63912761D01*
%TO.C,J2*%
X194103666Y-66762380D02*
X194103666Y-67476666D01*
X194056047Y-67619523D01*
X193960809Y-67714761D01*
X193817952Y-67762380D01*
X193722714Y-67762380D01*
X194532238Y-66857619D02*
X194579857Y-66810000D01*
X194675095Y-66762380D01*
X194913190Y-66762380D01*
X195008428Y-66810000D01*
X195056047Y-66857619D01*
X195103666Y-66952857D01*
X195103666Y-67048095D01*
X195056047Y-67190952D01*
X194484619Y-67762380D01*
X195103666Y-67762380D01*
%TO.C,J3*%
X150004380Y-111331333D02*
X150718666Y-111331333D01*
X150861523Y-111378952D01*
X150956761Y-111474190D01*
X151004380Y-111617047D01*
X151004380Y-111712285D01*
X150004380Y-110950380D02*
X150004380Y-110331333D01*
X150385333Y-110664666D01*
X150385333Y-110521809D01*
X150432952Y-110426571D01*
X150480571Y-110378952D01*
X150575809Y-110331333D01*
X150813904Y-110331333D01*
X150909142Y-110378952D01*
X150956761Y-110426571D01*
X151004380Y-110521809D01*
X151004380Y-110807523D01*
X150956761Y-110902761D01*
X150909142Y-110950380D01*
%TO.C,Q2*%
X167544761Y-79287619D02*
X167449523Y-79240000D01*
X167354285Y-79144761D01*
X167211428Y-79001904D01*
X167116190Y-78954285D01*
X167020952Y-78954285D01*
X167068571Y-79192380D02*
X166973333Y-79144761D01*
X166878095Y-79049523D01*
X166830476Y-78859047D01*
X166830476Y-78525714D01*
X166878095Y-78335238D01*
X166973333Y-78240000D01*
X167068571Y-78192380D01*
X167259047Y-78192380D01*
X167354285Y-78240000D01*
X167449523Y-78335238D01*
X167497142Y-78525714D01*
X167497142Y-78859047D01*
X167449523Y-79049523D01*
X167354285Y-79144761D01*
X167259047Y-79192380D01*
X167068571Y-79192380D01*
X167878095Y-78287619D02*
X167925714Y-78240000D01*
X168020952Y-78192380D01*
X168259047Y-78192380D01*
X168354285Y-78240000D01*
X168401904Y-78287619D01*
X168449523Y-78382857D01*
X168449523Y-78478095D01*
X168401904Y-78620952D01*
X167830476Y-79192380D01*
X168449523Y-79192380D01*
%TO.C,J6*%
X181056380Y-57971333D02*
X181770666Y-57971333D01*
X181913523Y-58018952D01*
X182008761Y-58114190D01*
X182056380Y-58257047D01*
X182056380Y-58352285D01*
X181056380Y-57066571D02*
X181056380Y-57257047D01*
X181104000Y-57352285D01*
X181151619Y-57399904D01*
X181294476Y-57495142D01*
X181484952Y-57542761D01*
X181865904Y-57542761D01*
X181961142Y-57495142D01*
X182008761Y-57447523D01*
X182056380Y-57352285D01*
X182056380Y-57161809D01*
X182008761Y-57066571D01*
X181961142Y-57018952D01*
X181865904Y-56971333D01*
X181627809Y-56971333D01*
X181532571Y-57018952D01*
X181484952Y-57066571D01*
X181437333Y-57161809D01*
X181437333Y-57352285D01*
X181484952Y-57447523D01*
X181532571Y-57495142D01*
X181627809Y-57542761D01*
%TO.C,F1*%
X123364666Y-53649571D02*
X123031333Y-53649571D01*
X123031333Y-54173380D02*
X123031333Y-53173380D01*
X123507523Y-53173380D01*
X124412285Y-54173380D02*
X123840857Y-54173380D01*
X124126571Y-54173380D02*
X124126571Y-53173380D01*
X124031333Y-53316238D01*
X123936095Y-53411476D01*
X123840857Y-53459095D01*
%TO.C,R5*%
X168743333Y-83002380D02*
X168410000Y-82526190D01*
X168171904Y-83002380D02*
X168171904Y-82002380D01*
X168552857Y-82002380D01*
X168648095Y-82050000D01*
X168695714Y-82097619D01*
X168743333Y-82192857D01*
X168743333Y-82335714D01*
X168695714Y-82430952D01*
X168648095Y-82478571D01*
X168552857Y-82526190D01*
X168171904Y-82526190D01*
X169648095Y-82002380D02*
X169171904Y-82002380D01*
X169124285Y-82478571D01*
X169171904Y-82430952D01*
X169267142Y-82383333D01*
X169505238Y-82383333D01*
X169600476Y-82430952D01*
X169648095Y-82478571D01*
X169695714Y-82573809D01*
X169695714Y-82811904D01*
X169648095Y-82907142D01*
X169600476Y-82954761D01*
X169505238Y-83002380D01*
X169267142Y-83002380D01*
X169171904Y-82954761D01*
X169124285Y-82907142D01*
%TO.C,R3*%
X151725333Y-77240380D02*
X151392000Y-76764190D01*
X151153904Y-77240380D02*
X151153904Y-76240380D01*
X151534857Y-76240380D01*
X151630095Y-76288000D01*
X151677714Y-76335619D01*
X151725333Y-76430857D01*
X151725333Y-76573714D01*
X151677714Y-76668952D01*
X151630095Y-76716571D01*
X151534857Y-76764190D01*
X151153904Y-76764190D01*
X152058666Y-76240380D02*
X152677714Y-76240380D01*
X152344380Y-76621333D01*
X152487238Y-76621333D01*
X152582476Y-76668952D01*
X152630095Y-76716571D01*
X152677714Y-76811809D01*
X152677714Y-77049904D01*
X152630095Y-77145142D01*
X152582476Y-77192761D01*
X152487238Y-77240380D01*
X152201523Y-77240380D01*
X152106285Y-77192761D01*
X152058666Y-77145142D01*
%TO.C,J4*%
X128825666Y-85742380D02*
X128825666Y-86456666D01*
X128778047Y-86599523D01*
X128682809Y-86694761D01*
X128539952Y-86742380D01*
X128444714Y-86742380D01*
X129730428Y-86075714D02*
X129730428Y-86742380D01*
X129492333Y-85694761D02*
X129254238Y-86409047D01*
X129873285Y-86409047D01*
%TO.C,D5*%
X185885380Y-84431095D02*
X184885380Y-84431095D01*
X184885380Y-84193000D01*
X184933000Y-84050142D01*
X185028238Y-83954904D01*
X185123476Y-83907285D01*
X185313952Y-83859666D01*
X185456809Y-83859666D01*
X185647285Y-83907285D01*
X185742523Y-83954904D01*
X185837761Y-84050142D01*
X185885380Y-84193000D01*
X185885380Y-84431095D01*
X184885380Y-82954904D02*
X184885380Y-83431095D01*
X185361571Y-83478714D01*
X185313952Y-83431095D01*
X185266333Y-83335857D01*
X185266333Y-83097761D01*
X185313952Y-83002523D01*
X185361571Y-82954904D01*
X185456809Y-82907285D01*
X185694904Y-82907285D01*
X185790142Y-82954904D01*
X185837761Y-83002523D01*
X185885380Y-83097761D01*
X185885380Y-83335857D01*
X185837761Y-83431095D01*
X185790142Y-83478714D01*
%TO.C,J5*%
X111142380Y-107140333D02*
X111856666Y-107140333D01*
X111999523Y-107187952D01*
X112094761Y-107283190D01*
X112142380Y-107426047D01*
X112142380Y-107521285D01*
X111142380Y-106187952D02*
X111142380Y-106664142D01*
X111618571Y-106711761D01*
X111570952Y-106664142D01*
X111523333Y-106568904D01*
X111523333Y-106330809D01*
X111570952Y-106235571D01*
X111618571Y-106187952D01*
X111713809Y-106140333D01*
X111951904Y-106140333D01*
X112047142Y-106187952D01*
X112094761Y-106235571D01*
X112142380Y-106330809D01*
X112142380Y-106568904D01*
X112094761Y-106664142D01*
X112047142Y-106711761D01*
%TO.C,R6*%
X169251333Y-84780380D02*
X168918000Y-84304190D01*
X168679904Y-84780380D02*
X168679904Y-83780380D01*
X169060857Y-83780380D01*
X169156095Y-83828000D01*
X169203714Y-83875619D01*
X169251333Y-83970857D01*
X169251333Y-84113714D01*
X169203714Y-84208952D01*
X169156095Y-84256571D01*
X169060857Y-84304190D01*
X168679904Y-84304190D01*
X170108476Y-83780380D02*
X169918000Y-83780380D01*
X169822761Y-83828000D01*
X169775142Y-83875619D01*
X169679904Y-84018476D01*
X169632285Y-84208952D01*
X169632285Y-84589904D01*
X169679904Y-84685142D01*
X169727523Y-84732761D01*
X169822761Y-84780380D01*
X170013238Y-84780380D01*
X170108476Y-84732761D01*
X170156095Y-84685142D01*
X170203714Y-84589904D01*
X170203714Y-84351809D01*
X170156095Y-84256571D01*
X170108476Y-84208952D01*
X170013238Y-84161333D01*
X169822761Y-84161333D01*
X169727523Y-84208952D01*
X169679904Y-84256571D01*
X169632285Y-84351809D01*
%TO.C,K2*%
X178371904Y-82494380D02*
X178371904Y-81494380D01*
X178943333Y-82494380D02*
X178514761Y-81922952D01*
X178943333Y-81494380D02*
X178371904Y-82065809D01*
X179324285Y-81589619D02*
X179371904Y-81542000D01*
X179467142Y-81494380D01*
X179705238Y-81494380D01*
X179800476Y-81542000D01*
X179848095Y-81589619D01*
X179895714Y-81684857D01*
X179895714Y-81780095D01*
X179848095Y-81922952D01*
X179276666Y-82494380D01*
X179895714Y-82494380D01*
D13*
%TO.C,F2*%
X131032000Y-58627600D02*
X133832000Y-58627600D01*
X124232000Y-81127600D02*
X127032000Y-81127600D01*
X124232000Y-58627600D02*
X127032000Y-58627600D01*
X131032000Y-81127600D02*
X133832000Y-81127600D01*
X133832000Y-58627600D02*
X133832000Y-81127600D01*
X124232000Y-58627600D02*
X124232000Y-81127600D01*
%TO.C,R2*%
X192431124Y-90336900D02*
X191921676Y-90336900D01*
X192431124Y-89291900D02*
X191921676Y-89291900D01*
%TO.C,J9*%
X184072000Y-80465000D02*
X185322000Y-80465000D01*
X186982000Y-70045000D02*
X186982000Y-70655000D01*
X184372000Y-77605000D02*
X184982000Y-77605000D01*
X188482000Y-75205000D02*
X187982000Y-75205000D01*
X184372000Y-78405000D02*
X184172000Y-78405000D01*
X188482000Y-77205000D02*
X187982000Y-77205000D01*
X185682000Y-70045000D02*
X185682000Y-70655000D01*
X185682000Y-80165000D02*
X185682000Y-79555000D01*
X184272000Y-78405000D02*
X184272000Y-78705000D01*
X188482000Y-73105000D02*
X187982000Y-73105000D01*
X184172000Y-78405000D02*
X184172000Y-78705000D01*
X184372000Y-80165000D02*
X189092000Y-80165000D01*
X188482000Y-77105000D02*
X187982000Y-77105000D01*
X188482000Y-75105000D02*
X187982000Y-75105000D01*
X188482000Y-79555000D02*
X188482000Y-70655000D01*
X184172000Y-78705000D02*
X184372000Y-78705000D01*
X187982000Y-73205000D02*
X187982000Y-73005000D01*
X184982000Y-70655000D02*
X184982000Y-72605000D01*
X188482000Y-70655000D02*
X184982000Y-70655000D01*
X184372000Y-70045000D02*
X184372000Y-80165000D01*
X184982000Y-79555000D02*
X188482000Y-79555000D01*
X189092000Y-80165000D02*
X189092000Y-70045000D01*
X187982000Y-75005000D02*
X188482000Y-75005000D01*
X186982000Y-80165000D02*
X186982000Y-79555000D01*
X189092000Y-70045000D02*
X184372000Y-70045000D01*
X184982000Y-72605000D02*
X184372000Y-72605000D01*
X188482000Y-73205000D02*
X187982000Y-73205000D01*
X187982000Y-73005000D02*
X188482000Y-73005000D01*
X187982000Y-77205000D02*
X187982000Y-77005000D01*
X184982000Y-77605000D02*
X184982000Y-79555000D01*
X184072000Y-79215000D02*
X184072000Y-80465000D01*
X187982000Y-75205000D02*
X187982000Y-75005000D01*
X187982000Y-77005000D02*
X188482000Y-77005000D01*
%TO.C,K3*%
X195422500Y-59567500D02*
X197327500Y-59567500D01*
X197987500Y-59694500D02*
X197987500Y-59059500D01*
X192349500Y-51977500D02*
X200149500Y-51977500D01*
X197327500Y-58551500D02*
X195422500Y-58551500D01*
X200149500Y-64677500D02*
X192349500Y-64677500D01*
X194787500Y-59059500D02*
X195422500Y-59059500D01*
X197327500Y-59567500D02*
X197327500Y-58551500D01*
X195803500Y-59567500D02*
X196438500Y-58551500D01*
X200349500Y-62777500D02*
X200349500Y-64877500D01*
X194787500Y-59694500D02*
X194787500Y-59059500D01*
X192349500Y-64677500D02*
X192349500Y-51977500D01*
X197987500Y-59059500D02*
X197327500Y-59059500D01*
X200149500Y-51977500D02*
X200149500Y-64677500D01*
X195422500Y-59567500D02*
X195422500Y-58551500D01*
X200349500Y-64877500D02*
X198149500Y-64877500D01*
D10*
%TO.C,K1*%
X170180000Y-68700000D02*
X140970000Y-68700000D01*
X140970000Y-68700000D02*
X140970000Y-56000000D01*
X170180000Y-56000000D02*
X170180000Y-68700000D01*
X140970000Y-56000000D02*
X170180000Y-56000000D01*
D13*
%TO.C,F3*%
X188690000Y-57582000D02*
X188690000Y-60782000D01*
X183220000Y-51082000D02*
X183220000Y-67282000D01*
X184690000Y-60782000D02*
X184690000Y-57582000D01*
X190160000Y-67282000D02*
X190160000Y-51082000D01*
X186690000Y-59932000D02*
X186690000Y-58432000D01*
X183220000Y-67282000D02*
X190160000Y-67282000D01*
X190160000Y-51082000D02*
X183220000Y-51082000D01*
%TO.C,J2*%
X193448000Y-80153000D02*
X193448000Y-81403000D01*
X193448000Y-81403000D02*
X194698000Y-81403000D01*
X193748000Y-71803000D02*
X193748000Y-77803000D01*
X193748000Y-77803000D02*
X194498000Y-77803000D01*
X194498000Y-77803000D02*
X194498000Y-71803000D01*
X195998000Y-80353000D02*
X198948000Y-80353000D01*
X198948000Y-80353000D02*
X198948000Y-74803000D01*
X193748000Y-70303000D02*
X194498000Y-70303000D01*
X194498000Y-79303000D02*
X193748000Y-79303000D01*
X194498000Y-70303000D02*
X194498000Y-68503000D01*
X194498000Y-71803000D02*
X193748000Y-71803000D01*
X193748000Y-79303000D02*
X193748000Y-81103000D01*
X195998000Y-69253000D02*
X198948000Y-69253000D01*
X193738000Y-81113000D02*
X199708000Y-81113000D01*
X198948000Y-69253000D02*
X198948000Y-74803000D01*
X199708000Y-68493000D02*
X193738000Y-68493000D01*
X195998000Y-81103000D02*
X195998000Y-80353000D01*
X193748000Y-68503000D02*
X193748000Y-70303000D01*
X193738000Y-68493000D02*
X193738000Y-81113000D01*
X194498000Y-68503000D02*
X193748000Y-68503000D01*
X193748000Y-81103000D02*
X194498000Y-81103000D01*
X194498000Y-81103000D02*
X194498000Y-79303000D01*
X199708000Y-81113000D02*
X199708000Y-68493000D01*
X195998000Y-68503000D02*
X195998000Y-69253000D01*
%TO.C,J3*%
X159862000Y-110998000D02*
X159862000Y-107788000D01*
X159862000Y-107788000D02*
X151642000Y-107788000D01*
X151642000Y-109208000D02*
X152592000Y-109208000D01*
X151642000Y-107788000D02*
X151642000Y-109208000D01*
X152592000Y-109208000D02*
X152592000Y-110998000D01*
X151642000Y-114208000D02*
X151642000Y-112788000D01*
X159862000Y-110998000D02*
X159862000Y-114208000D01*
X152592000Y-112788000D02*
X152592000Y-110998000D01*
X151642000Y-112788000D02*
X152592000Y-112788000D01*
X159862000Y-114208000D02*
X151642000Y-114208000D01*
X152202000Y-110998000D02*
G75*
G03*
X152202000Y-110998000I-250000J0D01*
G01*
%TO.C,Q2*%
X170990500Y-80427000D02*
X172665500Y-80427000D01*
X170990500Y-80427000D02*
X170340500Y-80427000D01*
X170990500Y-77307000D02*
X171640500Y-77307000D01*
X170990500Y-77307000D02*
X170340500Y-77307000D01*
%TO.C,J6*%
X179754000Y-53838000D02*
X179754000Y-55638000D01*
X180504000Y-55638000D02*
X180504000Y-53838000D01*
X180514000Y-61448000D02*
X180514000Y-53828000D01*
X179754000Y-55638000D02*
X180504000Y-55638000D01*
X175304000Y-54588000D02*
X175304000Y-57638000D01*
X180804000Y-54788000D02*
X180804000Y-53538000D01*
X180504000Y-57138000D02*
X179754000Y-57138000D01*
X174544000Y-61448000D02*
X180514000Y-61448000D01*
X179754000Y-61438000D02*
X180504000Y-61438000D01*
X179754000Y-58138000D02*
X180504000Y-58138000D01*
X180504000Y-58138000D02*
X180504000Y-57138000D01*
X175304000Y-60688000D02*
X175304000Y-57638000D01*
X180504000Y-53838000D02*
X179754000Y-53838000D01*
X179754000Y-57138000D02*
X179754000Y-58138000D01*
X178254000Y-61438000D02*
X178254000Y-60688000D01*
X180504000Y-61438000D02*
X180504000Y-59638000D01*
X174544000Y-53828000D02*
X174544000Y-61448000D01*
X180514000Y-53828000D02*
X174544000Y-53828000D01*
X180504000Y-59638000D02*
X179754000Y-59638000D01*
X179754000Y-59638000D02*
X179754000Y-61438000D01*
X180804000Y-53538000D02*
X179554000Y-53538000D01*
X178254000Y-53838000D02*
X178254000Y-54588000D01*
X178254000Y-60688000D02*
X175304000Y-60688000D01*
X178254000Y-54588000D02*
X175304000Y-54588000D01*
%TO.C,F1*%
X118890800Y-74874800D02*
X121690800Y-74874800D01*
X118890800Y-52374800D02*
X121690800Y-52374800D01*
X121690800Y-52374800D02*
X121690800Y-74874800D01*
X112090800Y-52374800D02*
X114890800Y-52374800D01*
X112090800Y-52374800D02*
X112090800Y-74874800D01*
X112090800Y-74874800D02*
X114890800Y-74874800D01*
%TO.C,R5*%
X172418742Y-81900500D02*
X172893258Y-81900500D01*
X172418742Y-82945500D02*
X172893258Y-82945500D01*
%TO.C,R3*%
X150114000Y-93678000D02*
X150114000Y-96218000D01*
X155194000Y-93678000D02*
X155194000Y-96203000D01*
X147534000Y-77788000D02*
X157774000Y-77788000D01*
X147534000Y-93678000D02*
X157774000Y-93678000D01*
X157774000Y-77788000D02*
X157774000Y-93678000D01*
X147534000Y-77788000D02*
X147534000Y-93678000D01*
%TO.C,J4*%
X129159000Y-95600000D02*
X132369000Y-95600000D01*
X127369000Y-88330000D02*
X129159000Y-88330000D01*
X129159000Y-95600000D02*
X125949000Y-95600000D01*
X132369000Y-87380000D02*
X130949000Y-87380000D01*
X127369000Y-87380000D02*
X127369000Y-88330000D01*
X130949000Y-87380000D02*
X130949000Y-88330000D01*
X130949000Y-88330000D02*
X129159000Y-88330000D01*
X132369000Y-95600000D02*
X132369000Y-87380000D01*
X125949000Y-87380000D02*
X127369000Y-87380000D01*
X125949000Y-95600000D02*
X125949000Y-87380000D01*
X129409000Y-87690000D02*
G75*
G03*
X129409000Y-87690000I-250000J0D01*
G01*
%TO.C,D5*%
X186273000Y-83693000D02*
X186273000Y-85368000D01*
X189393000Y-83693000D02*
X189393000Y-83043000D01*
X186273000Y-83693000D02*
X186273000Y-83043000D01*
X189393000Y-83693000D02*
X189393000Y-84343000D01*
%TO.C,J5*%
X112780000Y-108597000D02*
X113730000Y-108597000D01*
X112780000Y-105017000D02*
X113730000Y-105017000D01*
X112780000Y-103597000D02*
X112780000Y-105017000D01*
X121000000Y-110017000D02*
X112780000Y-110017000D01*
X112780000Y-110017000D02*
X112780000Y-108597000D01*
X121000000Y-106807000D02*
X121000000Y-103597000D01*
X121000000Y-106807000D02*
X121000000Y-110017000D01*
X113730000Y-108597000D02*
X113730000Y-106807000D01*
X113730000Y-105017000D02*
X113730000Y-106807000D01*
X121000000Y-103597000D02*
X112780000Y-103597000D01*
X113340000Y-106807000D02*
G75*
G03*
X113340000Y-106807000I-250000J0D01*
G01*
%TO.C,R6*%
X172418742Y-83932500D02*
X172893258Y-83932500D01*
X172418742Y-84977500D02*
X172893258Y-84977500D01*
%TO.C,K2*%
X183210000Y-81383000D02*
X181010000Y-81383000D01*
X180848000Y-76200000D02*
X180848000Y-75565000D01*
X177648000Y-76200000D02*
X177648000Y-75565000D01*
X183010000Y-81183000D02*
X175210000Y-81183000D01*
X180188000Y-75057000D02*
X178283000Y-75057000D01*
X175210000Y-68483000D02*
X183010000Y-68483000D01*
X178283000Y-76073000D02*
X180188000Y-76073000D01*
X175210000Y-81183000D02*
X175210000Y-68483000D01*
X183210000Y-79283000D02*
X183210000Y-81383000D01*
X178664000Y-76073000D02*
X179299000Y-75057000D01*
X180188000Y-76073000D02*
X180188000Y-75057000D01*
X180848000Y-75565000D02*
X180188000Y-75565000D01*
X178283000Y-76073000D02*
X178283000Y-75057000D01*
X183010000Y-68483000D02*
X183010000Y-81183000D01*
X177648000Y-75565000D02*
X178283000Y-75565000D01*
%TD*%
M02*
