M48
; DRILL file {KiCad (6.0.1)} date Mon Feb 14 11:56:18 2022
; FORMAT={-:-/ absolute / metric / decimal}
; #@! TF.CreationDate,2022-02-14T11:56:18-05:00
; #@! TF.GenerationSoftware,Kicad,Pcbnew,(6.0.1)
; #@! TF.FileFunction,Plated,1,2,PTH
FMAT,2
METRIC
; #@! TA.AperFunction,Plated,PTH,ViaDrill
T1C0.400
; #@! TA.AperFunction,Plated,PTH,ComponentDrill
T2C1.000
; #@! TA.AperFunction,Plated,PTH,ComponentDrill
T3C1.750
%
G90
G05
T1
X69.469Y-110.49
X71.628Y-120.904
X74.93Y-96.139
X74.93Y-113.411
X77.407Y-107.527
X77.407Y-111.591
X78.486Y-104.648
X78.994Y-96.139
X79.248Y-101.854
X79.513Y-109.485
X80.772Y-118.11
X81.471Y-107.527
X81.471Y-111.591
X82.55Y-118.11
X83.058Y-96.139
X83.312Y-120.65
X83.666Y-105.309
X83.693Y-113.538
X85.979Y-106.553
X87.122Y-96.139
X87.122Y-116.84
X87.122Y-120.65
X88.138Y-104.14
X88.9Y-106.426
X89.154Y-103.124
X90.17Y-106.426
X91.186Y-104.14
X91.44Y-106.426
X91.44Y-119.126
X91.948Y-112.522
X92.456Y-104.14
X93.472Y-112.522
X94.996Y-112.522
X96.012Y-114.808
X96.012Y-120.65
X98.171Y-117.221
X101.6Y-113.538
X103.124Y-113.538
X104.648Y-113.538
X106.172Y-113.538
X107.696Y-113.538
T2
X152.084Y-95.255
X152.084Y-97.795
X152.084Y-100.335
X152.084Y-102.875
X152.084Y-105.415
X152.084Y-107.955
X152.084Y-110.495
X152.084Y-113.035
X152.084Y-115.575
X152.084Y-118.115
X154.624Y-95.255
X154.624Y-97.795
X154.624Y-100.335
X154.624Y-102.875
X154.624Y-105.415
X154.624Y-107.955
X154.624Y-110.495
X154.624Y-113.035
X154.624Y-115.575
X154.624Y-118.115
T3
X73.915Y-124.016
X73.915Y-132.016
X74.362Y-81.408
X74.362Y-89.408
X75.915Y-128.016
X76.362Y-85.408
X77.915Y-124.016
X77.915Y-132.016
X78.362Y-81.408
X78.362Y-89.408
X79.915Y-128.016
X80.362Y-85.408
X81.915Y-124.016
X81.915Y-132.016
X82.362Y-81.408
X82.362Y-89.408
X83.915Y-128.016
X84.362Y-85.408
X85.915Y-124.016
X85.915Y-132.016
X86.362Y-81.408
X86.362Y-89.408
X87.915Y-128.016
X88.362Y-85.408
X89.915Y-124.016
X89.915Y-132.016
X90.362Y-81.408
X90.362Y-89.408
X92.362Y-85.408
X94.362Y-81.408
X94.362Y-89.408
X96.362Y-85.408
X98.362Y-81.408
X98.362Y-89.408
X100.362Y-85.408
X102.362Y-81.408
X102.362Y-89.408
X132.97Y-124.353
X132.97Y-132.353
X134.97Y-128.353
X136.97Y-124.353
X136.97Y-132.353
X138.97Y-128.353
X140.948Y-81.59
X140.948Y-89.59
X140.97Y-124.353
X140.97Y-132.353
X142.948Y-85.59
X142.97Y-128.353
X144.948Y-81.59
X144.948Y-89.59
X144.97Y-124.353
X144.97Y-132.353
X146.948Y-85.59
X146.97Y-128.353
X148.948Y-81.59
X148.948Y-89.59
X148.97Y-124.353
X148.97Y-132.353
T0
M30
