%TF.GenerationSoftware,KiCad,Pcbnew,(6.0.1)*%
%TF.CreationDate,2022-02-14T11:56:50-05:00*%
%TF.ProjectId,driver-control-board,64726976-6572-42d6-936f-6e74726f6c2d,rev?*%
%TF.SameCoordinates,Original*%
%TF.FileFunction,Legend,Bot*%
%TF.FilePolarity,Positive*%
%FSLAX46Y46*%
G04 Gerber Fmt 4.6, Leading zero omitted, Abs format (unit mm)*
G04 Created by KiCad (PCBNEW (6.0.1)) date 2022-02-14 11:56:50*
%MOMM*%
%LPD*%
G01*
G04 APERTURE LIST*
%ADD10C,0.150000*%
%ADD11C,0.120000*%
G04 APERTURE END LIST*
D10*
%TO.C,C5*%
X74842666Y-101703142D02*
X74890285Y-101750761D01*
X75033142Y-101798380D01*
X75128380Y-101798380D01*
X75271238Y-101750761D01*
X75366476Y-101655523D01*
X75414095Y-101560285D01*
X75461714Y-101369809D01*
X75461714Y-101226952D01*
X75414095Y-101036476D01*
X75366476Y-100941238D01*
X75271238Y-100846000D01*
X75128380Y-100798380D01*
X75033142Y-100798380D01*
X74890285Y-100846000D01*
X74842666Y-100893619D01*
X73937904Y-100798380D02*
X74414095Y-100798380D01*
X74461714Y-101274571D01*
X74414095Y-101226952D01*
X74318857Y-101179333D01*
X74080761Y-101179333D01*
X73985523Y-101226952D01*
X73937904Y-101274571D01*
X73890285Y-101369809D01*
X73890285Y-101607904D01*
X73937904Y-101703142D01*
X73985523Y-101750761D01*
X74080761Y-101798380D01*
X74318857Y-101798380D01*
X74414095Y-101750761D01*
X74461714Y-101703142D01*
%TO.C,C7*%
X74588666Y-103735142D02*
X74636285Y-103782761D01*
X74779142Y-103830380D01*
X74874380Y-103830380D01*
X75017238Y-103782761D01*
X75112476Y-103687523D01*
X75160095Y-103592285D01*
X75207714Y-103401809D01*
X75207714Y-103258952D01*
X75160095Y-103068476D01*
X75112476Y-102973238D01*
X75017238Y-102878000D01*
X74874380Y-102830380D01*
X74779142Y-102830380D01*
X74636285Y-102878000D01*
X74588666Y-102925619D01*
X74255333Y-102830380D02*
X73588666Y-102830380D01*
X74017238Y-103830380D01*
%TO.C,C9*%
X71032666Y-112117142D02*
X71080285Y-112164761D01*
X71223142Y-112212380D01*
X71318380Y-112212380D01*
X71461238Y-112164761D01*
X71556476Y-112069523D01*
X71604095Y-111974285D01*
X71651714Y-111783809D01*
X71651714Y-111640952D01*
X71604095Y-111450476D01*
X71556476Y-111355238D01*
X71461238Y-111260000D01*
X71318380Y-111212380D01*
X71223142Y-111212380D01*
X71080285Y-111260000D01*
X71032666Y-111307619D01*
X70556476Y-112212380D02*
X70366000Y-112212380D01*
X70270761Y-112164761D01*
X70223142Y-112117142D01*
X70127904Y-111974285D01*
X70080285Y-111783809D01*
X70080285Y-111402857D01*
X70127904Y-111307619D01*
X70175523Y-111260000D01*
X70270761Y-111212380D01*
X70461238Y-111212380D01*
X70556476Y-111260000D01*
X70604095Y-111307619D01*
X70651714Y-111402857D01*
X70651714Y-111640952D01*
X70604095Y-111736190D01*
X70556476Y-111783809D01*
X70461238Y-111831428D01*
X70270761Y-111831428D01*
X70175523Y-111783809D01*
X70127904Y-111736190D01*
X70080285Y-111640952D01*
%TO.C,C11*%
X83827857Y-114243142D02*
X83875476Y-114290761D01*
X84018333Y-114338380D01*
X84113571Y-114338380D01*
X84256428Y-114290761D01*
X84351666Y-114195523D01*
X84399285Y-114100285D01*
X84446904Y-113909809D01*
X84446904Y-113766952D01*
X84399285Y-113576476D01*
X84351666Y-113481238D01*
X84256428Y-113386000D01*
X84113571Y-113338380D01*
X84018333Y-113338380D01*
X83875476Y-113386000D01*
X83827857Y-113433619D01*
X82875476Y-114338380D02*
X83446904Y-114338380D01*
X83161190Y-114338380D02*
X83161190Y-113338380D01*
X83256428Y-113481238D01*
X83351666Y-113576476D01*
X83446904Y-113624095D01*
X81923095Y-114338380D02*
X82494523Y-114338380D01*
X82208809Y-114338380D02*
X82208809Y-113338380D01*
X82304047Y-113481238D01*
X82399285Y-113576476D01*
X82494523Y-113624095D01*
D11*
%TO.C,C5*%
X77388767Y-101090000D02*
X77096233Y-101090000D01*
X77388767Y-102110000D02*
X77096233Y-102110000D01*
%TO.C,C7*%
X77362267Y-103888000D02*
X77069733Y-103888000D01*
X77362267Y-102868000D02*
X77069733Y-102868000D01*
%TO.C,C9*%
X73552267Y-114048000D02*
X73259733Y-114048000D01*
X73552267Y-113028000D02*
X73259733Y-113028000D01*
%TO.C,C11*%
X83331267Y-115826000D02*
X83038733Y-115826000D01*
X83331267Y-114806000D02*
X83038733Y-114806000D01*
%TD*%
M02*
