%TF.GenerationSoftware,KiCad,Pcbnew,(6.0.1)*%
%TF.CreationDate,2022-02-14T11:56:50-05:00*%
%TF.ProjectId,driver-control-board,64726976-6572-42d6-936f-6e74726f6c2d,rev?*%
%TF.SameCoordinates,Original*%
%TF.FileFunction,Soldermask,Bot*%
%TF.FilePolarity,Negative*%
%FSLAX46Y46*%
G04 Gerber Fmt 4.6, Leading zero omitted, Abs format (unit mm)*
G04 Created by KiCad (PCBNEW (6.0.1)) date 2022-02-14 11:56:50*
%MOMM*%
%LPD*%
G01*
G04 APERTURE LIST*
G04 Aperture macros list*
%AMRoundRect*
0 Rectangle with rounded corners*
0 $1 Rounding radius*
0 $2 $3 $4 $5 $6 $7 $8 $9 X,Y pos of 4 corners*
0 Add a 4 corners polygon primitive as box body*
4,1,4,$2,$3,$4,$5,$6,$7,$8,$9,$2,$3,0*
0 Add four circle primitives for the rounded corners*
1,1,$1+$1,$2,$3*
1,1,$1+$1,$4,$5*
1,1,$1+$1,$6,$7*
1,1,$1+$1,$8,$9*
0 Add four rect primitives between the rounded corners*
20,1,$1+$1,$2,$3,$4,$5,0*
20,1,$1+$1,$4,$5,$6,$7,0*
20,1,$1+$1,$6,$7,$8,$9,0*
20,1,$1+$1,$8,$9,$2,$3,0*%
G04 Aperture macros list end*
%ADD10C,2.850000*%
%ADD11R,2.625000X2.625000*%
%ADD12C,2.625000*%
%ADD13R,1.700000X1.700000*%
%ADD14O,1.700000X1.700000*%
%ADD15RoundRect,0.237500X0.300000X0.237500X-0.300000X0.237500X-0.300000X-0.237500X0.300000X-0.237500X0*%
G04 APERTURE END LIST*
D10*
%TO.C,J4*%
X108862000Y-84908000D03*
X67862000Y-84908000D03*
D11*
X102362000Y-89408000D03*
D12*
X98362000Y-89408000D03*
X94362000Y-89408000D03*
X90362000Y-89408000D03*
X86362000Y-89408000D03*
X82362000Y-89408000D03*
X78362000Y-89408000D03*
X74362000Y-89408000D03*
X100362000Y-85408000D03*
X96362000Y-85408000D03*
X92362000Y-85408000D03*
X88362000Y-85408000D03*
X84362000Y-85408000D03*
X80362000Y-85408000D03*
X76362000Y-85408000D03*
X102362000Y-81408000D03*
X98362000Y-81408000D03*
X94362000Y-81408000D03*
X90362000Y-81408000D03*
X86362000Y-81408000D03*
X82362000Y-81408000D03*
X78362000Y-81408000D03*
X74362000Y-81408000D03*
%TD*%
D10*
%TO.C,J3*%
X155448000Y-85090000D03*
X134448000Y-85090000D03*
D11*
X148948000Y-89590000D03*
D12*
X144948000Y-89590000D03*
X140948000Y-89590000D03*
X146948000Y-85590000D03*
X142948000Y-85590000D03*
X148948000Y-81590000D03*
X144948000Y-81590000D03*
X140948000Y-81590000D03*
%TD*%
D10*
%TO.C,J6*%
X155470000Y-128853500D03*
X126470000Y-128853500D03*
D11*
X132970000Y-124353500D03*
D12*
X136970000Y-124353500D03*
X140970000Y-124353500D03*
X144970000Y-124353500D03*
X148970000Y-124353500D03*
X134970000Y-128353500D03*
X138970000Y-128353500D03*
X142970000Y-128353500D03*
X146970000Y-128353500D03*
X132970000Y-132353500D03*
X136970000Y-132353500D03*
X140970000Y-132353500D03*
X144970000Y-132353500D03*
X148970000Y-132353500D03*
%TD*%
D10*
%TO.C,J2*%
X67415000Y-128516000D03*
X96415000Y-128516000D03*
D11*
X73915000Y-124016000D03*
D12*
X77915000Y-124016000D03*
X81915000Y-124016000D03*
X85915000Y-124016000D03*
X89915000Y-124016000D03*
X75915000Y-128016000D03*
X79915000Y-128016000D03*
X83915000Y-128016000D03*
X87915000Y-128016000D03*
X73915000Y-132016000D03*
X77915000Y-132016000D03*
X81915000Y-132016000D03*
X85915000Y-132016000D03*
X89915000Y-132016000D03*
%TD*%
D13*
%TO.C,J5*%
X152084000Y-95255000D03*
D14*
X154624000Y-95255000D03*
X152084000Y-97795000D03*
X154624000Y-97795000D03*
X152084000Y-100335000D03*
X154624000Y-100335000D03*
X152084000Y-102875000D03*
X154624000Y-102875000D03*
X152084000Y-105415000D03*
X154624000Y-105415000D03*
X152084000Y-107955000D03*
X154624000Y-107955000D03*
X152084000Y-110495000D03*
X154624000Y-110495000D03*
X152084000Y-113035000D03*
X154624000Y-113035000D03*
X152084000Y-115575000D03*
X154624000Y-115575000D03*
X152084000Y-118115000D03*
X154624000Y-118115000D03*
%TD*%
D15*
%TO.C,C5*%
X78105000Y-101600000D03*
X76380000Y-101600000D03*
%TD*%
%TO.C,C7*%
X78078500Y-103378000D03*
X76353500Y-103378000D03*
%TD*%
%TO.C,C9*%
X74268500Y-113538000D03*
X72543500Y-113538000D03*
%TD*%
%TO.C,C11*%
X84047500Y-115316000D03*
X82322500Y-115316000D03*
%TD*%
M02*
