%TF.GenerationSoftware,KiCad,Pcbnew,(6.0.1)*%
%TF.CreationDate,2022-02-14T11:56:50-05:00*%
%TF.ProjectId,driver-control-board,64726976-6572-42d6-936f-6e74726f6c2d,rev?*%
%TF.SameCoordinates,Original*%
%TF.FileFunction,Paste,Top*%
%TF.FilePolarity,Positive*%
%FSLAX46Y46*%
G04 Gerber Fmt 4.6, Leading zero omitted, Abs format (unit mm)*
G04 Created by KiCad (PCBNEW (6.0.1)) date 2022-02-14 11:56:50*
%MOMM*%
%LPD*%
G01*
G04 APERTURE LIST*
G04 Aperture macros list*
%AMRoundRect*
0 Rectangle with rounded corners*
0 $1 Rounding radius*
0 $2 $3 $4 $5 $6 $7 $8 $9 X,Y pos of 4 corners*
0 Add a 4 corners polygon primitive as box body*
4,1,4,$2,$3,$4,$5,$6,$7,$8,$9,$2,$3,0*
0 Add four circle primitives for the rounded corners*
1,1,$1+$1,$2,$3*
1,1,$1+$1,$4,$5*
1,1,$1+$1,$6,$7*
1,1,$1+$1,$8,$9*
0 Add four rect primitives between the rounded corners*
20,1,$1+$1,$2,$3,$4,$5,0*
20,1,$1+$1,$4,$5,$6,$7,0*
20,1,$1+$1,$6,$7,$8,$9,0*
20,1,$1+$1,$8,$9,$2,$3,0*%
G04 Aperture macros list end*
%ADD10RoundRect,0.237500X0.300000X0.237500X-0.300000X0.237500X-0.300000X-0.237500X0.300000X-0.237500X0*%
%ADD11RoundRect,0.237500X-0.237500X0.250000X-0.237500X-0.250000X0.237500X-0.250000X0.237500X0.250000X0*%
%ADD12RoundRect,0.237500X-0.250000X-0.237500X0.250000X-0.237500X0.250000X0.237500X-0.250000X0.237500X0*%
%ADD13RoundRect,0.237500X-0.300000X-0.237500X0.300000X-0.237500X0.300000X0.237500X-0.300000X0.237500X0*%
%ADD14RoundRect,0.250000X-0.315000X0.315000X-0.315000X-0.315000X0.315000X-0.315000X0.315000X0.315000X0*%
%ADD15RoundRect,0.062500X-0.062500X0.375000X-0.062500X-0.375000X0.062500X-0.375000X0.062500X0.375000X0*%
%ADD16RoundRect,0.062500X-0.375000X0.062500X-0.375000X-0.062500X0.375000X-0.062500X0.375000X0.062500X0*%
%ADD17RoundRect,0.041300X-0.943700X-0.253700X0.943700X-0.253700X0.943700X0.253700X-0.943700X0.253700X0*%
%ADD18RoundRect,0.237500X-0.237500X0.300000X-0.237500X-0.300000X0.237500X-0.300000X0.237500X0.300000X0*%
%ADD19R,0.900000X0.900000*%
%ADD20RoundRect,0.150000X0.150000X-0.587500X0.150000X0.587500X-0.150000X0.587500X-0.150000X-0.587500X0*%
%ADD21RoundRect,0.237500X0.250000X0.237500X-0.250000X0.237500X-0.250000X-0.237500X0.250000X-0.237500X0*%
%ADD22R,2.000000X1.500000*%
%ADD23R,2.000000X3.800000*%
%ADD24RoundRect,0.237500X-0.287500X-0.237500X0.287500X-0.237500X0.287500X0.237500X-0.287500X0.237500X0*%
%ADD25RoundRect,0.150000X0.587500X0.150000X-0.587500X0.150000X-0.587500X-0.150000X0.587500X-0.150000X0*%
%ADD26R,2.400000X0.740000*%
%ADD27R,3.200000X0.400000*%
%ADD28RoundRect,0.237500X0.237500X-0.250000X0.237500X0.250000X-0.237500X0.250000X-0.237500X-0.250000X0*%
G04 APERTURE END LIST*
D10*
%TO.C,C12*%
X90651500Y-120777000D03*
X88926500Y-120777000D03*
%TD*%
D11*
%TO.C,R6*%
X97155000Y-116308500D03*
X97155000Y-118133500D03*
%TD*%
D12*
%TO.C,R1*%
X90273500Y-97282000D03*
X92098500Y-97282000D03*
%TD*%
D13*
%TO.C,C8*%
X92482500Y-120777000D03*
X94207500Y-120777000D03*
%TD*%
D14*
%TO.C,U1*%
X78739200Y-110258700D03*
X77339200Y-108858700D03*
X81539200Y-107458700D03*
X77339200Y-107458700D03*
X80139200Y-111658700D03*
X81539200Y-108858700D03*
X77339200Y-110258700D03*
X77339200Y-111658700D03*
X78739200Y-107458700D03*
X80139200Y-107458700D03*
X80139200Y-108858700D03*
X78739200Y-111658700D03*
X81539200Y-111658700D03*
X80139200Y-110258700D03*
X78739200Y-108858700D03*
X81539200Y-110258700D03*
D15*
X82189200Y-106121200D03*
X81689200Y-106121200D03*
X81189200Y-106121200D03*
X80689200Y-106121200D03*
X80189200Y-106121200D03*
X79689200Y-106121200D03*
X79189200Y-106121200D03*
X78689200Y-106121200D03*
X78189200Y-106121200D03*
X77689200Y-106121200D03*
X77189200Y-106121200D03*
X76689200Y-106121200D03*
D16*
X76001700Y-106808700D03*
X76001700Y-107308700D03*
X76001700Y-107808700D03*
X76001700Y-108308700D03*
X76001700Y-108808700D03*
X76001700Y-109308700D03*
X76001700Y-109808700D03*
X76001700Y-110308700D03*
X76001700Y-110808700D03*
X76001700Y-111308700D03*
X76001700Y-111808700D03*
X76001700Y-112308700D03*
D15*
X76689200Y-112996200D03*
X77189200Y-112996200D03*
X77689200Y-112996200D03*
X78189200Y-112996200D03*
X78689200Y-112996200D03*
X79189200Y-112996200D03*
X79689200Y-112996200D03*
X80189200Y-112996200D03*
X80689200Y-112996200D03*
X81189200Y-112996200D03*
X81689200Y-112996200D03*
X82189200Y-112996200D03*
D16*
X82876700Y-112308700D03*
X82876700Y-111808700D03*
X82876700Y-111308700D03*
X82876700Y-110808700D03*
X82876700Y-110308700D03*
X82876700Y-109808700D03*
X82876700Y-109308700D03*
X82876700Y-108808700D03*
X82876700Y-108308700D03*
X82876700Y-107808700D03*
X82876700Y-107308700D03*
X82876700Y-106808700D03*
%TD*%
D17*
%TO.C,U4*%
X89039000Y-115036600D03*
X89039000Y-116306600D03*
X89039000Y-117576600D03*
X89039000Y-118846600D03*
X93989000Y-118846600D03*
X93989000Y-117576600D03*
X93989000Y-116306600D03*
X93989000Y-115036600D03*
%TD*%
D18*
%TO.C,C1*%
X120904000Y-104039500D03*
X120904000Y-105764500D03*
%TD*%
D19*
%TO.C,RN1*%
X75533000Y-116610000D03*
X74193000Y-116610000D03*
X72873000Y-116610000D03*
X71533000Y-116610000D03*
X71533000Y-119610000D03*
X72873000Y-119610000D03*
X74193000Y-119610000D03*
X75533000Y-119610000D03*
%TD*%
D20*
%TO.C,Q1*%
X90286800Y-94815900D03*
X92186800Y-94815900D03*
X91236800Y-92940900D03*
%TD*%
D18*
%TO.C,C6*%
X120904000Y-107595500D03*
X120904000Y-109320500D03*
%TD*%
D21*
%TO.C,R2*%
X115720500Y-110490000D03*
X113895500Y-110490000D03*
%TD*%
D10*
%TO.C,C4*%
X74268500Y-111760000D03*
X72543500Y-111760000D03*
%TD*%
D22*
%TO.C,U3*%
X118720000Y-108175500D03*
D23*
X112420000Y-105875500D03*
D22*
X118720000Y-105875500D03*
X118720000Y-103575500D03*
%TD*%
D24*
%TO.C,D1*%
X113933000Y-112268000D03*
X115683000Y-112268000D03*
%TD*%
D20*
%TO.C,D6*%
X86222800Y-94815900D03*
X88122800Y-94815900D03*
X87172800Y-92940900D03*
%TD*%
%TO.C,D4*%
X78094800Y-94815900D03*
X79994800Y-94815900D03*
X79044800Y-92940900D03*
%TD*%
D25*
%TO.C,D9*%
X101521500Y-118298000D03*
X101521500Y-116398000D03*
X99646500Y-117348000D03*
%TD*%
D18*
%TO.C,C10*%
X84836000Y-105309500D03*
X84836000Y-107034500D03*
%TD*%
D26*
%TO.C,J7*%
X99486000Y-110744000D03*
X95586000Y-110744000D03*
X99486000Y-109474000D03*
X95586000Y-109474000D03*
X99486000Y-108204000D03*
X95586000Y-108204000D03*
X99486000Y-106934000D03*
X95586000Y-106934000D03*
X99486000Y-105664000D03*
X95586000Y-105664000D03*
X99486000Y-104394000D03*
X95586000Y-104394000D03*
X99486000Y-103124000D03*
X95586000Y-103124000D03*
%TD*%
D20*
%TO.C,D2*%
X67122000Y-113205500D03*
X69022000Y-113205500D03*
X68072000Y-111330500D03*
%TD*%
%TO.C,D5*%
X82158800Y-94815900D03*
X84058800Y-94815900D03*
X83108800Y-92940900D03*
%TD*%
D27*
%TO.C,Y1*%
X83312000Y-103714400D03*
X83312000Y-102514400D03*
X83312000Y-101314400D03*
%TD*%
D20*
%TO.C,D3*%
X74030800Y-94815900D03*
X75930800Y-94815900D03*
X74980800Y-92940900D03*
%TD*%
D28*
%TO.C,R10*%
X103378000Y-106576500D03*
X103378000Y-104751500D03*
%TD*%
M02*
