%TF.GenerationSoftware,KiCad,Pcbnew,(6.0.1)*%
%TF.CreationDate,2022-02-14T12:02:22-05:00*%
%TF.ProjectId,Emrax_Breakout,456d7261-785f-4427-9265-616b6f75742e,rev?*%
%TF.SameCoordinates,Original*%
%TF.FileFunction,Legend,Top*%
%TF.FilePolarity,Positive*%
%FSLAX46Y46*%
G04 Gerber Fmt 4.6, Leading zero omitted, Abs format (unit mm)*
G04 Created by KiCad (PCBNEW (6.0.1)) date 2022-02-14 12:02:22*
%MOMM*%
%LPD*%
G01*
G04 APERTURE LIST*
%ADD10C,0.300000*%
%ADD11C,0.150000*%
%ADD12C,0.050000*%
%ADD13C,0.120000*%
%ADD14C,0.127000*%
%ADD15C,0.500000*%
%ADD16C,0.010000*%
%ADD17C,2.850000*%
G04 APERTURE END LIST*
D10*
X138626800Y-57684557D02*
X139126800Y-57684557D01*
X139341085Y-58470271D02*
X138626800Y-58470271D01*
X138626800Y-56970271D01*
X139341085Y-56970271D01*
X139983942Y-57898842D02*
X141126800Y-57898842D01*
X138626800Y-60099557D02*
X139126800Y-60099557D01*
X139341085Y-60885271D02*
X138626800Y-60885271D01*
X138626800Y-59385271D01*
X139341085Y-59385271D01*
X139983942Y-60313842D02*
X141126800Y-60313842D01*
X140555371Y-60885271D02*
X140555371Y-59742414D01*
X139412514Y-63157414D02*
X139341085Y-63228842D01*
X139126800Y-63300271D01*
X138983942Y-63300271D01*
X138769657Y-63228842D01*
X138626800Y-63085985D01*
X138555371Y-62943128D01*
X138483942Y-62657414D01*
X138483942Y-62443128D01*
X138555371Y-62157414D01*
X138626800Y-62014557D01*
X138769657Y-61871700D01*
X138983942Y-61800271D01*
X139126800Y-61800271D01*
X139341085Y-61871700D01*
X139412514Y-61943128D01*
X140055371Y-62728842D02*
X141198228Y-62728842D01*
X139412514Y-65572414D02*
X139341085Y-65643842D01*
X139126800Y-65715271D01*
X138983942Y-65715271D01*
X138769657Y-65643842D01*
X138626800Y-65500985D01*
X138555371Y-65358128D01*
X138483942Y-65072414D01*
X138483942Y-64858128D01*
X138555371Y-64572414D01*
X138626800Y-64429557D01*
X138769657Y-64286700D01*
X138983942Y-64215271D01*
X139126800Y-64215271D01*
X139341085Y-64286700D01*
X139412514Y-64358128D01*
X140055371Y-65143842D02*
X141198228Y-65143842D01*
X140626800Y-65715271D02*
X140626800Y-64572414D01*
X138519657Y-68058842D02*
X138733942Y-68130271D01*
X139091085Y-68130271D01*
X139233942Y-68058842D01*
X139305371Y-67987414D01*
X139376800Y-67844557D01*
X139376800Y-67701700D01*
X139305371Y-67558842D01*
X139233942Y-67487414D01*
X139091085Y-67415985D01*
X138805371Y-67344557D01*
X138662514Y-67273128D01*
X138591085Y-67201700D01*
X138519657Y-67058842D01*
X138519657Y-66915985D01*
X138591085Y-66773128D01*
X138662514Y-66701700D01*
X138805371Y-66630271D01*
X139162514Y-66630271D01*
X139376800Y-66701700D01*
X140019657Y-67558842D02*
X141162514Y-67558842D01*
X138519657Y-70473842D02*
X138733942Y-70545271D01*
X139091085Y-70545271D01*
X139233942Y-70473842D01*
X139305371Y-70402414D01*
X139376800Y-70259557D01*
X139376800Y-70116700D01*
X139305371Y-69973842D01*
X139233942Y-69902414D01*
X139091085Y-69830985D01*
X138805371Y-69759557D01*
X138662514Y-69688128D01*
X138591085Y-69616700D01*
X138519657Y-69473842D01*
X138519657Y-69330985D01*
X138591085Y-69188128D01*
X138662514Y-69116700D01*
X138805371Y-69045271D01*
X139162514Y-69045271D01*
X139376800Y-69116700D01*
X140019657Y-69973842D02*
X141162514Y-69973842D01*
X140591085Y-70545271D02*
X140591085Y-69402414D01*
D11*
X143692857Y-50277380D02*
X143359523Y-49801190D01*
X143121428Y-50277380D02*
X143121428Y-49277380D01*
X143502380Y-49277380D01*
X143597619Y-49325000D01*
X143645238Y-49372619D01*
X143692857Y-49467857D01*
X143692857Y-49610714D01*
X143645238Y-49705952D01*
X143597619Y-49753571D01*
X143502380Y-49801190D01*
X143121428Y-49801190D01*
X144502380Y-50229761D02*
X144407142Y-50277380D01*
X144216666Y-50277380D01*
X144121428Y-50229761D01*
X144073809Y-50134523D01*
X144073809Y-49753571D01*
X144121428Y-49658333D01*
X144216666Y-49610714D01*
X144407142Y-49610714D01*
X144502380Y-49658333D01*
X144550000Y-49753571D01*
X144550000Y-49848809D01*
X144073809Y-49944047D01*
X144930952Y-50229761D02*
X145026190Y-50277380D01*
X145216666Y-50277380D01*
X145311904Y-50229761D01*
X145359523Y-50134523D01*
X145359523Y-50086904D01*
X145311904Y-49991666D01*
X145216666Y-49944047D01*
X145073809Y-49944047D01*
X144978571Y-49896428D01*
X144930952Y-49801190D01*
X144930952Y-49753571D01*
X144978571Y-49658333D01*
X145073809Y-49610714D01*
X145216666Y-49610714D01*
X145311904Y-49658333D01*
X145930952Y-50277380D02*
X145835714Y-50229761D01*
X145788095Y-50182142D01*
X145740476Y-50086904D01*
X145740476Y-49801190D01*
X145788095Y-49705952D01*
X145835714Y-49658333D01*
X145930952Y-49610714D01*
X146073809Y-49610714D01*
X146169047Y-49658333D01*
X146216666Y-49705952D01*
X146264285Y-49801190D01*
X146264285Y-50086904D01*
X146216666Y-50182142D01*
X146169047Y-50229761D01*
X146073809Y-50277380D01*
X145930952Y-50277380D01*
X146835714Y-50277380D02*
X146740476Y-50229761D01*
X146692857Y-50134523D01*
X146692857Y-49277380D01*
X147121428Y-49610714D02*
X147359523Y-50277380D01*
X147597619Y-49610714D01*
X148359523Y-50229761D02*
X148264285Y-50277380D01*
X148073809Y-50277380D01*
X147978571Y-50229761D01*
X147930952Y-50134523D01*
X147930952Y-49753571D01*
X147978571Y-49658333D01*
X148073809Y-49610714D01*
X148264285Y-49610714D01*
X148359523Y-49658333D01*
X148407142Y-49753571D01*
X148407142Y-49848809D01*
X147930952Y-49944047D01*
X148835714Y-50277380D02*
X148835714Y-49610714D01*
X148835714Y-49801190D02*
X148883333Y-49705952D01*
X148930952Y-49658333D01*
X149026190Y-49610714D01*
X149121428Y-49610714D01*
X142811904Y-50935000D02*
X142716666Y-50887380D01*
X142573809Y-50887380D01*
X142430952Y-50935000D01*
X142335714Y-51030238D01*
X142288095Y-51125476D01*
X142240476Y-51315952D01*
X142240476Y-51458809D01*
X142288095Y-51649285D01*
X142335714Y-51744523D01*
X142430952Y-51839761D01*
X142573809Y-51887380D01*
X142669047Y-51887380D01*
X142811904Y-51839761D01*
X142859523Y-51792142D01*
X142859523Y-51458809D01*
X142669047Y-51458809D01*
X143288095Y-51792142D02*
X143335714Y-51839761D01*
X143288095Y-51887380D01*
X143240476Y-51839761D01*
X143288095Y-51792142D01*
X143288095Y-51887380D01*
X143716666Y-51839761D02*
X143859523Y-51887380D01*
X144097619Y-51887380D01*
X144192857Y-51839761D01*
X144240476Y-51792142D01*
X144288095Y-51696904D01*
X144288095Y-51601666D01*
X144240476Y-51506428D01*
X144192857Y-51458809D01*
X144097619Y-51411190D01*
X143907142Y-51363571D01*
X143811904Y-51315952D01*
X143764285Y-51268333D01*
X143716666Y-51173095D01*
X143716666Y-51077857D01*
X143764285Y-50982619D01*
X143811904Y-50935000D01*
X143907142Y-50887380D01*
X144145238Y-50887380D01*
X144288095Y-50935000D01*
X144716666Y-51220714D02*
X144716666Y-52220714D01*
X144716666Y-51268333D02*
X144811904Y-51220714D01*
X145002380Y-51220714D01*
X145097619Y-51268333D01*
X145145238Y-51315952D01*
X145192857Y-51411190D01*
X145192857Y-51696904D01*
X145145238Y-51792142D01*
X145097619Y-51839761D01*
X145002380Y-51887380D01*
X144811904Y-51887380D01*
X144716666Y-51839761D01*
X146002380Y-51839761D02*
X145907142Y-51887380D01*
X145716666Y-51887380D01*
X145621428Y-51839761D01*
X145573809Y-51744523D01*
X145573809Y-51363571D01*
X145621428Y-51268333D01*
X145716666Y-51220714D01*
X145907142Y-51220714D01*
X146002380Y-51268333D01*
X146050000Y-51363571D01*
X146050000Y-51458809D01*
X145573809Y-51554047D01*
X146907142Y-51887380D02*
X146907142Y-51363571D01*
X146859523Y-51268333D01*
X146764285Y-51220714D01*
X146573809Y-51220714D01*
X146478571Y-51268333D01*
X146907142Y-51839761D02*
X146811904Y-51887380D01*
X146573809Y-51887380D01*
X146478571Y-51839761D01*
X146430952Y-51744523D01*
X146430952Y-51649285D01*
X146478571Y-51554047D01*
X146573809Y-51506428D01*
X146811904Y-51506428D01*
X146907142Y-51458809D01*
X147383333Y-51887380D02*
X147383333Y-51220714D01*
X147383333Y-51411190D02*
X147430952Y-51315952D01*
X147478571Y-51268333D01*
X147573809Y-51220714D01*
X147669047Y-51220714D01*
X148002380Y-51887380D02*
X148002380Y-51220714D01*
X148002380Y-50887380D02*
X147954761Y-50935000D01*
X148002380Y-50982619D01*
X148050000Y-50935000D01*
X148002380Y-50887380D01*
X148002380Y-50982619D01*
X148478571Y-51220714D02*
X148478571Y-51887380D01*
X148478571Y-51315952D02*
X148526190Y-51268333D01*
X148621428Y-51220714D01*
X148764285Y-51220714D01*
X148859523Y-51268333D01*
X148907142Y-51363571D01*
X148907142Y-51887380D01*
X149811904Y-51220714D02*
X149811904Y-52030238D01*
X149764285Y-52125476D01*
X149716666Y-52173095D01*
X149621428Y-52220714D01*
X149478571Y-52220714D01*
X149383333Y-52173095D01*
X149811904Y-51839761D02*
X149716666Y-51887380D01*
X149526190Y-51887380D01*
X149430952Y-51839761D01*
X149383333Y-51792142D01*
X149335714Y-51696904D01*
X149335714Y-51411190D01*
X149383333Y-51315952D01*
X149430952Y-51268333D01*
X149526190Y-51220714D01*
X149716666Y-51220714D01*
X149811904Y-51268333D01*
X143621428Y-52592619D02*
X143669047Y-52545000D01*
X143764285Y-52497380D01*
X144002380Y-52497380D01*
X144097619Y-52545000D01*
X144145238Y-52592619D01*
X144192857Y-52687857D01*
X144192857Y-52783095D01*
X144145238Y-52925952D01*
X143573809Y-53497380D01*
X144192857Y-53497380D01*
X144811904Y-52497380D02*
X144907142Y-52497380D01*
X145002380Y-52545000D01*
X145050000Y-52592619D01*
X145097619Y-52687857D01*
X145145238Y-52878333D01*
X145145238Y-53116428D01*
X145097619Y-53306904D01*
X145050000Y-53402142D01*
X145002380Y-53449761D01*
X144907142Y-53497380D01*
X144811904Y-53497380D01*
X144716666Y-53449761D01*
X144669047Y-53402142D01*
X144621428Y-53306904D01*
X144573809Y-53116428D01*
X144573809Y-52878333D01*
X144621428Y-52687857D01*
X144669047Y-52592619D01*
X144716666Y-52545000D01*
X144811904Y-52497380D01*
X145573809Y-53402142D02*
X145621428Y-53449761D01*
X145573809Y-53497380D01*
X145526190Y-53449761D01*
X145573809Y-53402142D01*
X145573809Y-53497380D01*
X146240476Y-52497380D02*
X146335714Y-52497380D01*
X146430952Y-52545000D01*
X146478571Y-52592619D01*
X146526190Y-52687857D01*
X146573809Y-52878333D01*
X146573809Y-53116428D01*
X146526190Y-53306904D01*
X146478571Y-53402142D01*
X146430952Y-53449761D01*
X146335714Y-53497380D01*
X146240476Y-53497380D01*
X146145238Y-53449761D01*
X146097619Y-53402142D01*
X146050000Y-53306904D01*
X146002380Y-53116428D01*
X146002380Y-52878333D01*
X146050000Y-52687857D01*
X146097619Y-52592619D01*
X146145238Y-52545000D01*
X146240476Y-52497380D01*
X147430952Y-52830714D02*
X147430952Y-53497380D01*
X147192857Y-52449761D02*
X146954761Y-53164047D01*
X147573809Y-53164047D01*
X148430952Y-52497380D02*
X147954761Y-52497380D01*
X147907142Y-52973571D01*
X147954761Y-52925952D01*
X148050000Y-52878333D01*
X148288095Y-52878333D01*
X148383333Y-52925952D01*
X148430952Y-52973571D01*
X148478571Y-53068809D01*
X148478571Y-53306904D01*
X148430952Y-53402142D01*
X148383333Y-53449761D01*
X148288095Y-53497380D01*
X148050000Y-53497380D01*
X147954761Y-53449761D01*
X147907142Y-53402142D01*
%TO.C,J3*%
X138668780Y-82653733D02*
X139383066Y-82653733D01*
X139525923Y-82701352D01*
X139621161Y-82796590D01*
X139668780Y-82939447D01*
X139668780Y-83034685D01*
X138668780Y-82272780D02*
X138668780Y-81653733D01*
X139049733Y-81987066D01*
X139049733Y-81844209D01*
X139097352Y-81748971D01*
X139144971Y-81701352D01*
X139240209Y-81653733D01*
X139478304Y-81653733D01*
X139573542Y-81701352D01*
X139621161Y-81748971D01*
X139668780Y-81844209D01*
X139668780Y-82129923D01*
X139621161Y-82225161D01*
X139573542Y-82272780D01*
%TO.C,R1*%
X139414780Y-74968666D02*
X138938590Y-75302000D01*
X139414780Y-75540095D02*
X138414780Y-75540095D01*
X138414780Y-75159142D01*
X138462400Y-75063904D01*
X138510019Y-75016285D01*
X138605257Y-74968666D01*
X138748114Y-74968666D01*
X138843352Y-75016285D01*
X138890971Y-75063904D01*
X138938590Y-75159142D01*
X138938590Y-75540095D01*
X139414780Y-74016285D02*
X139414780Y-74587714D01*
X139414780Y-74302000D02*
X138414780Y-74302000D01*
X138557638Y-74397238D01*
X138652876Y-74492476D01*
X138700495Y-74587714D01*
%TO.C,J2*%
X138821180Y-55170933D02*
X139535466Y-55170933D01*
X139678323Y-55218552D01*
X139773561Y-55313790D01*
X139821180Y-55456647D01*
X139821180Y-55551885D01*
X138916419Y-54742361D02*
X138868800Y-54694742D01*
X138821180Y-54599504D01*
X138821180Y-54361409D01*
X138868800Y-54266171D01*
X138916419Y-54218552D01*
X139011657Y-54170933D01*
X139106895Y-54170933D01*
X139249752Y-54218552D01*
X139821180Y-54789980D01*
X139821180Y-54170933D01*
D12*
%TO.C,J1*%
X138384609Y-59291036D02*
X139385188Y-59291036D01*
X139585304Y-59357741D01*
X139718714Y-59491152D01*
X139785419Y-59691268D01*
X139785419Y-59824678D01*
X139785419Y-57890226D02*
X139785419Y-58690689D01*
X139785419Y-58290458D02*
X138384609Y-58290458D01*
X138584725Y-58423868D01*
X138718135Y-58557279D01*
X138784841Y-58690689D01*
X98342535Y-66698510D02*
X98409313Y-66765288D01*
X98476091Y-66965622D01*
X98476091Y-67099179D01*
X98409313Y-67299513D01*
X98275757Y-67433069D01*
X98142201Y-67499847D01*
X97875089Y-67566625D01*
X97674754Y-67566625D01*
X97407642Y-67499847D01*
X97274086Y-67433069D01*
X97140530Y-67299513D01*
X97073751Y-67099179D01*
X97073751Y-66965622D01*
X97140530Y-66765288D01*
X97207308Y-66698510D01*
X98476091Y-65897173D02*
X98409313Y-66030729D01*
X98342535Y-66097507D01*
X98208979Y-66164285D01*
X97808310Y-66164285D01*
X97674754Y-66097507D01*
X97607976Y-66030729D01*
X97541198Y-65897173D01*
X97541198Y-65696839D01*
X97607976Y-65563282D01*
X97674754Y-65496504D01*
X97808310Y-65429726D01*
X98208979Y-65429726D01*
X98342535Y-65496504D01*
X98409313Y-65563282D01*
X98476091Y-65696839D01*
X98476091Y-65897173D01*
X97541198Y-64828723D02*
X98476091Y-64828723D01*
X97674754Y-64828723D02*
X97607976Y-64761945D01*
X97541198Y-64628389D01*
X97541198Y-64428055D01*
X97607976Y-64294499D01*
X97741532Y-64227720D01*
X98476091Y-64227720D01*
X97541198Y-63559940D02*
X98476091Y-63559940D01*
X97674754Y-63559940D02*
X97607976Y-63493161D01*
X97541198Y-63359605D01*
X97541198Y-63159271D01*
X97607976Y-63025715D01*
X97741532Y-62958937D01*
X98476091Y-62958937D01*
X98609648Y-62625046D02*
X98609648Y-61556597D01*
X97073751Y-60955594D02*
X97073751Y-60822038D01*
X97140530Y-60688481D01*
X97207308Y-60621703D01*
X97340864Y-60554925D01*
X97607976Y-60488147D01*
X97941867Y-60488147D01*
X98208979Y-60554925D01*
X98342535Y-60621703D01*
X98409313Y-60688481D01*
X98476091Y-60822038D01*
X98476091Y-60955594D01*
X98409313Y-61089150D01*
X98342535Y-61155928D01*
X98208979Y-61222706D01*
X97941867Y-61289484D01*
X97607976Y-61289484D01*
X97340864Y-61222706D01*
X97207308Y-61155928D01*
X97140530Y-61089150D01*
X97073751Y-60955594D01*
X98476091Y-59152585D02*
X98476091Y-59953922D01*
X98476091Y-59553254D02*
X97073751Y-59553254D01*
X97274086Y-59686810D01*
X97407642Y-59820366D01*
X97474420Y-59953922D01*
X98476091Y-58685139D02*
X97541198Y-57950580D01*
X97541198Y-58685139D02*
X98476091Y-57950580D01*
X97073751Y-57149242D02*
X97073751Y-57015686D01*
X97140530Y-56882130D01*
X97207308Y-56815352D01*
X97340864Y-56748574D01*
X97607976Y-56681796D01*
X97941867Y-56681796D01*
X98208979Y-56748574D01*
X98342535Y-56815352D01*
X98409313Y-56882130D01*
X98476091Y-57015686D01*
X98476091Y-57149242D01*
X98409313Y-57282799D01*
X98342535Y-57349577D01*
X98208979Y-57416355D01*
X97941867Y-57483133D01*
X97607976Y-57483133D01*
X97340864Y-57416355D01*
X97207308Y-57349577D01*
X97140530Y-57282799D01*
X97073751Y-57149242D01*
X97674754Y-55880459D02*
X97607976Y-56014015D01*
X97541198Y-56080793D01*
X97407642Y-56147571D01*
X97340864Y-56147571D01*
X97207308Y-56080793D01*
X97140530Y-56014015D01*
X97073751Y-55880459D01*
X97073751Y-55613346D01*
X97140530Y-55479790D01*
X97207308Y-55413012D01*
X97340864Y-55346234D01*
X97407642Y-55346234D01*
X97541198Y-55413012D01*
X97607976Y-55479790D01*
X97674754Y-55613346D01*
X97674754Y-55880459D01*
X97741532Y-56014015D01*
X97808310Y-56080793D01*
X97941867Y-56147571D01*
X98208979Y-56147571D01*
X98342535Y-56080793D01*
X98409313Y-56014015D01*
X98476091Y-55880459D01*
X98476091Y-55613346D01*
X98409313Y-55479790D01*
X98342535Y-55413012D01*
X98208979Y-55346234D01*
X97941867Y-55346234D01*
X97808310Y-55413012D01*
X97741532Y-55479790D01*
X97674754Y-55613346D01*
D13*
%TO.C,J3*%
X151599600Y-77640000D02*
X146099600Y-77640000D01*
X152209600Y-75330000D02*
X140489600Y-75330000D01*
X152209600Y-79140000D02*
X152209600Y-75330000D01*
X146099600Y-80640000D02*
X151599600Y-80640000D01*
X151599600Y-78140000D02*
X151599600Y-77640000D01*
X151599600Y-80640000D02*
X151599600Y-80140000D01*
X152209600Y-82950000D02*
X140489600Y-82950000D01*
X142399600Y-80090000D02*
X142999600Y-80390000D01*
X142999600Y-80390000D02*
X142399600Y-80690000D01*
X142399600Y-80690000D02*
X142399600Y-80090000D01*
X140489600Y-82950000D02*
X140489600Y-81530000D01*
X140489600Y-81530000D02*
X144989600Y-81530000D01*
X140489600Y-76750000D02*
X144989600Y-76750000D01*
X146099600Y-78140000D02*
X151599600Y-78140000D01*
X146099600Y-77640000D02*
X146099600Y-78140000D01*
X146099600Y-80140000D02*
X146099600Y-80640000D01*
X151599600Y-80140000D02*
X146099600Y-80140000D01*
X152209600Y-79140000D02*
X152209600Y-82950000D01*
X140489600Y-75330000D02*
X140489600Y-76750000D01*
%TO.C,R1*%
X138338300Y-77952324D02*
X138338300Y-77442876D01*
X139383300Y-77952324D02*
X139383300Y-77442876D01*
%TO.C,J2*%
X146099600Y-62980000D02*
X151599600Y-62980000D01*
X151599600Y-57480000D02*
X146099600Y-57480000D01*
X151599600Y-70480000D02*
X151599600Y-69980000D01*
X146099600Y-57480000D02*
X146099600Y-57980000D01*
X146099600Y-59980000D02*
X146099600Y-60480000D01*
X152209600Y-55170000D02*
X140489600Y-55170000D01*
X146099600Y-60480000D02*
X151599600Y-60480000D01*
X146099600Y-67480000D02*
X146099600Y-67980000D01*
X142399600Y-69930000D02*
X142999600Y-70230000D01*
X152209600Y-63980000D02*
X152209600Y-72790000D01*
X142399600Y-70530000D02*
X142399600Y-69930000D01*
X151599600Y-65480000D02*
X151599600Y-64980000D01*
X151599600Y-62980000D02*
X151599600Y-62480000D01*
X151599600Y-60480000D02*
X151599600Y-59980000D01*
X151599600Y-57980000D02*
X151599600Y-57480000D01*
X146099600Y-70480000D02*
X151599600Y-70480000D01*
X146099600Y-62480000D02*
X146099600Y-62980000D01*
X152209600Y-72790000D02*
X140489600Y-72790000D01*
X151599600Y-62480000D02*
X146099600Y-62480000D01*
X151599600Y-59980000D02*
X146099600Y-59980000D01*
X151599600Y-67480000D02*
X146099600Y-67480000D01*
X140489600Y-71370000D02*
X144989600Y-71370000D01*
X140489600Y-72790000D02*
X140489600Y-71370000D01*
X146099600Y-64980000D02*
X146099600Y-65480000D01*
X151599600Y-69980000D02*
X146099600Y-69980000D01*
X146099600Y-65480000D02*
X151599600Y-65480000D01*
X142999600Y-70230000D02*
X142399600Y-70530000D01*
X152209600Y-63980000D02*
X152209600Y-55170000D01*
X151599600Y-64980000D02*
X146099600Y-64980000D01*
X146099600Y-67980000D02*
X151599600Y-67980000D01*
X140489600Y-55170000D02*
X140489600Y-56590000D01*
X140489600Y-56590000D02*
X144989600Y-56590000D01*
X146099600Y-69980000D02*
X146099600Y-70480000D01*
X146099600Y-57980000D02*
X151599600Y-57980000D01*
X151599600Y-67980000D02*
X151599600Y-67480000D01*
D14*
%TO.C,J1*%
X137558000Y-89424000D02*
X122008000Y-89424000D01*
X137558000Y-48624000D02*
X137558000Y-89424000D01*
X119708000Y-89424000D02*
X119708000Y-80724000D01*
X122008000Y-48624000D02*
X137558000Y-48624000D01*
X119708000Y-80724000D02*
X119708000Y-48624000D01*
X122008000Y-89424000D02*
X122008000Y-48624000D01*
X119708000Y-48624000D02*
X122008000Y-48624000D01*
X122008000Y-89424000D02*
X119708000Y-89424000D01*
D15*
X138758000Y-65024000D02*
G75*
G03*
X138758000Y-65024000I-250000J0D01*
G01*
D16*
%TO.C,G\u002A\u002A\u002A*%
X146009221Y-85112138D02*
X145769968Y-85764615D01*
X145769968Y-85764615D02*
X146132059Y-85764615D01*
X146132059Y-85764615D02*
X146268644Y-85764894D01*
X146268644Y-85764894D02*
X146364683Y-85766236D01*
X146364683Y-85766236D02*
X146426233Y-85769399D01*
X146426233Y-85769399D02*
X146459352Y-85775143D01*
X146459352Y-85775143D02*
X146470098Y-85784225D01*
X146470098Y-85784225D02*
X146464529Y-85797403D01*
X146464529Y-85797403D02*
X146457850Y-85805394D01*
X146457850Y-85805394D02*
X146439199Y-85829919D01*
X146439199Y-85829919D02*
X146396096Y-85888574D01*
X146396096Y-85888574D02*
X146331240Y-85977611D01*
X146331240Y-85977611D02*
X146247330Y-86093280D01*
X146247330Y-86093280D02*
X146147061Y-86231830D01*
X146147061Y-86231830D02*
X146033134Y-86389511D01*
X146033134Y-86389511D02*
X145908246Y-86562575D01*
X145908246Y-86562575D02*
X145775094Y-86747270D01*
X145775094Y-86747270D02*
X145636378Y-86939846D01*
X145636378Y-86939846D02*
X145494794Y-87136555D01*
X145494794Y-87136555D02*
X145353041Y-87333645D01*
X145353041Y-87333645D02*
X145213817Y-87527368D01*
X145213817Y-87527368D02*
X145079820Y-87713972D01*
X145079820Y-87713972D02*
X144953748Y-87889708D01*
X144953748Y-87889708D02*
X144838299Y-88050827D01*
X144838299Y-88050827D02*
X144736170Y-88193578D01*
X144736170Y-88193578D02*
X144650061Y-88314211D01*
X144650061Y-88314211D02*
X144582669Y-88408976D01*
X144582669Y-88408976D02*
X144536691Y-88474123D01*
X144536691Y-88474123D02*
X144514827Y-88505903D01*
X144514827Y-88505903D02*
X144514348Y-88506655D01*
X144514348Y-88506655D02*
X144516188Y-88494273D01*
X144516188Y-88494273D02*
X144532017Y-88442011D01*
X144532017Y-88442011D02*
X144560459Y-88353990D01*
X144560459Y-88353990D02*
X144600138Y-88234330D01*
X144600138Y-88234330D02*
X144649676Y-88087151D01*
X144649676Y-88087151D02*
X144707698Y-87916575D01*
X144707698Y-87916575D02*
X144772827Y-87726720D01*
X144772827Y-87726720D02*
X144834761Y-87547454D01*
X144834761Y-87547454D02*
X144905951Y-87341915D01*
X144905951Y-87341915D02*
X144972228Y-87150314D01*
X144972228Y-87150314D02*
X145032075Y-86977054D01*
X145032075Y-86977054D02*
X145083976Y-86826540D01*
X145083976Y-86826540D02*
X145126411Y-86703175D01*
X145126411Y-86703175D02*
X145157865Y-86611363D01*
X145157865Y-86611363D02*
X145176820Y-86555509D01*
X145176820Y-86555509D02*
X145181973Y-86539610D01*
X145181973Y-86539610D02*
X145160019Y-86537511D01*
X145160019Y-86537511D02*
X145099553Y-86535732D01*
X145099553Y-86535732D02*
X145008667Y-86534414D01*
X145008667Y-86534414D02*
X144895455Y-86533696D01*
X144895455Y-86533696D02*
X144835675Y-86533605D01*
X144835675Y-86533605D02*
X144489378Y-86533605D01*
X144489378Y-86533605D02*
X144749646Y-85945211D01*
X144749646Y-85945211D02*
X144831932Y-85759004D01*
X144831932Y-85759004D02*
X144920743Y-85557723D01*
X144920743Y-85557723D02*
X145010512Y-85354005D01*
X145010512Y-85354005D02*
X145095673Y-85160484D01*
X145095673Y-85160484D02*
X145170661Y-84989798D01*
X145170661Y-84989798D02*
X145206424Y-84908238D01*
X145206424Y-84908238D02*
X145402934Y-84459661D01*
X145402934Y-84459661D02*
X146248473Y-84459661D01*
X146248473Y-84459661D02*
X146009221Y-85112138D01*
X146009221Y-85112138D02*
X146009221Y-85112138D01*
G36*
X146009221Y-85112138D02*
G01*
X145769968Y-85764615D01*
X146132059Y-85764615D01*
X146268644Y-85764894D01*
X146364683Y-85766236D01*
X146426233Y-85769399D01*
X146459352Y-85775143D01*
X146470098Y-85784225D01*
X146464529Y-85797403D01*
X146457850Y-85805394D01*
X146439199Y-85829919D01*
X146396096Y-85888574D01*
X146331240Y-85977611D01*
X146247330Y-86093280D01*
X146147061Y-86231830D01*
X146033134Y-86389511D01*
X145908246Y-86562575D01*
X145775094Y-86747270D01*
X145636378Y-86939846D01*
X145494794Y-87136555D01*
X145353041Y-87333645D01*
X145213817Y-87527368D01*
X145079820Y-87713972D01*
X144953748Y-87889708D01*
X144838299Y-88050827D01*
X144736170Y-88193578D01*
X144650061Y-88314211D01*
X144582669Y-88408976D01*
X144536691Y-88474123D01*
X144514827Y-88505903D01*
X144514348Y-88506655D01*
X144516188Y-88494273D01*
X144532017Y-88442011D01*
X144560459Y-88353990D01*
X144600138Y-88234330D01*
X144649676Y-88087151D01*
X144707698Y-87916575D01*
X144772827Y-87726720D01*
X144834761Y-87547454D01*
X144905951Y-87341915D01*
X144972228Y-87150314D01*
X145032075Y-86977054D01*
X145083976Y-86826540D01*
X145126411Y-86703175D01*
X145157865Y-86611363D01*
X145176820Y-86555509D01*
X145181973Y-86539610D01*
X145160019Y-86537511D01*
X145099553Y-86535732D01*
X145008667Y-86534414D01*
X144895455Y-86533696D01*
X144835675Y-86533605D01*
X144489378Y-86533605D01*
X144749646Y-85945211D01*
X144831932Y-85759004D01*
X144920743Y-85557723D01*
X145010512Y-85354005D01*
X145095673Y-85160484D01*
X145170661Y-84989798D01*
X145206424Y-84908238D01*
X145402934Y-84459661D01*
X146248473Y-84459661D01*
X146009221Y-85112138D01*
G37*
X146009221Y-85112138D02*
X145769968Y-85764615D01*
X146132059Y-85764615D01*
X146268644Y-85764894D01*
X146364683Y-85766236D01*
X146426233Y-85769399D01*
X146459352Y-85775143D01*
X146470098Y-85784225D01*
X146464529Y-85797403D01*
X146457850Y-85805394D01*
X146439199Y-85829919D01*
X146396096Y-85888574D01*
X146331240Y-85977611D01*
X146247330Y-86093280D01*
X146147061Y-86231830D01*
X146033134Y-86389511D01*
X145908246Y-86562575D01*
X145775094Y-86747270D01*
X145636378Y-86939846D01*
X145494794Y-87136555D01*
X145353041Y-87333645D01*
X145213817Y-87527368D01*
X145079820Y-87713972D01*
X144953748Y-87889708D01*
X144838299Y-88050827D01*
X144736170Y-88193578D01*
X144650061Y-88314211D01*
X144582669Y-88408976D01*
X144536691Y-88474123D01*
X144514827Y-88505903D01*
X144514348Y-88506655D01*
X144516188Y-88494273D01*
X144532017Y-88442011D01*
X144560459Y-88353990D01*
X144600138Y-88234330D01*
X144649676Y-88087151D01*
X144707698Y-87916575D01*
X144772827Y-87726720D01*
X144834761Y-87547454D01*
X144905951Y-87341915D01*
X144972228Y-87150314D01*
X145032075Y-86977054D01*
X145083976Y-86826540D01*
X145126411Y-86703175D01*
X145157865Y-86611363D01*
X145176820Y-86555509D01*
X145181973Y-86539610D01*
X145160019Y-86537511D01*
X145099553Y-86535732D01*
X145008667Y-86534414D01*
X144895455Y-86533696D01*
X144835675Y-86533605D01*
X144489378Y-86533605D01*
X144749646Y-85945211D01*
X144831932Y-85759004D01*
X144920743Y-85557723D01*
X145010512Y-85354005D01*
X145095673Y-85160484D01*
X145170661Y-84989798D01*
X145206424Y-84908238D01*
X145402934Y-84459661D01*
X146248473Y-84459661D01*
X146009221Y-85112138D01*
X143998392Y-85012140D02*
X144423937Y-85438151D01*
X144423937Y-85438151D02*
X144203290Y-85659719D01*
X144203290Y-85659719D02*
X143982644Y-85881287D01*
X143982644Y-85881287D02*
X143341056Y-85240927D01*
X143341056Y-85240927D02*
X143341056Y-86209316D01*
X143341056Y-86209316D02*
X144225992Y-86195716D01*
X144225992Y-86195716D02*
X143941167Y-86481174D01*
X143941167Y-86481174D02*
X143656342Y-86766633D01*
X143656342Y-86766633D02*
X143341056Y-86766633D01*
X143341056Y-86766633D02*
X143341056Y-87440041D01*
X143341056Y-87440041D02*
X143424118Y-87503396D01*
X143424118Y-87503396D02*
X143507180Y-87566750D01*
X143507180Y-87566750D02*
X143982436Y-87093112D01*
X143982436Y-87093112D02*
X144402880Y-87513556D01*
X144402880Y-87513556D02*
X143970224Y-87944039D01*
X143970224Y-87944039D02*
X143853994Y-88059280D01*
X143853994Y-88059280D02*
X143748725Y-88162877D01*
X143748725Y-88162877D02*
X143658870Y-88250512D01*
X143658870Y-88250512D02*
X143588880Y-88317866D01*
X143588880Y-88317866D02*
X143543208Y-88360621D01*
X143543208Y-88360621D02*
X143526432Y-88374523D01*
X143526432Y-88374523D02*
X143507509Y-88358751D01*
X143507509Y-88358751D02*
X143460519Y-88314522D01*
X143460519Y-88314522D02*
X143390219Y-88246462D01*
X143390219Y-88246462D02*
X143301367Y-88159199D01*
X143301367Y-88159199D02*
X143198720Y-88057361D01*
X143198720Y-88057361D02*
X143136892Y-87995596D01*
X143136892Y-87995596D02*
X142758487Y-87616669D01*
X142758487Y-87616669D02*
X142758487Y-85405062D01*
X142758487Y-85405062D02*
X143165667Y-84995596D01*
X143165667Y-84995596D02*
X143572848Y-84586129D01*
X143572848Y-84586129D02*
X143998392Y-85012140D01*
X143998392Y-85012140D02*
X143998392Y-85012140D01*
G36*
X143998392Y-85012140D02*
G01*
X144423937Y-85438151D01*
X144203290Y-85659719D01*
X143982644Y-85881287D01*
X143341056Y-85240927D01*
X143341056Y-86209316D01*
X144225992Y-86195716D01*
X143941167Y-86481174D01*
X143656342Y-86766633D01*
X143341056Y-86766633D01*
X143341056Y-87440041D01*
X143424118Y-87503396D01*
X143507180Y-87566750D01*
X143982436Y-87093112D01*
X144402880Y-87513556D01*
X143970224Y-87944039D01*
X143853994Y-88059280D01*
X143748725Y-88162877D01*
X143658870Y-88250512D01*
X143588880Y-88317866D01*
X143543208Y-88360621D01*
X143526432Y-88374523D01*
X143507509Y-88358751D01*
X143460519Y-88314522D01*
X143390219Y-88246462D01*
X143301367Y-88159199D01*
X143198720Y-88057361D01*
X143136892Y-87995596D01*
X142758487Y-87616669D01*
X142758487Y-85405062D01*
X143165667Y-84995596D01*
X143572848Y-84586129D01*
X143998392Y-85012140D01*
G37*
X143998392Y-85012140D02*
X144423937Y-85438151D01*
X144203290Y-85659719D01*
X143982644Y-85881287D01*
X143341056Y-85240927D01*
X143341056Y-86209316D01*
X144225992Y-86195716D01*
X143941167Y-86481174D01*
X143656342Y-86766633D01*
X143341056Y-86766633D01*
X143341056Y-87440041D01*
X143424118Y-87503396D01*
X143507180Y-87566750D01*
X143982436Y-87093112D01*
X144402880Y-87513556D01*
X143970224Y-87944039D01*
X143853994Y-88059280D01*
X143748725Y-88162877D01*
X143658870Y-88250512D01*
X143588880Y-88317866D01*
X143543208Y-88360621D01*
X143526432Y-88374523D01*
X143507509Y-88358751D01*
X143460519Y-88314522D01*
X143390219Y-88246462D01*
X143301367Y-88159199D01*
X143198720Y-88057361D01*
X143136892Y-87995596D01*
X142758487Y-87616669D01*
X142758487Y-85405062D01*
X143165667Y-84995596D01*
X143572848Y-84586129D01*
X143998392Y-85012140D01*
X141937302Y-84978377D02*
X142339037Y-85380605D01*
X142339037Y-85380605D02*
X142339037Y-87592415D01*
X142339037Y-87592415D02*
X142460915Y-87715826D01*
X142460915Y-87715826D02*
X142582792Y-87839236D01*
X142582792Y-87839236D02*
X142315020Y-88107008D01*
X142315020Y-88107008D02*
X142047248Y-88374779D01*
X142047248Y-88374779D02*
X141512968Y-87838979D01*
X141512968Y-87838979D02*
X141756468Y-87592415D01*
X141756468Y-87592415D02*
X141756468Y-87116174D01*
X141756468Y-87116174D02*
X141243808Y-87116174D01*
X141243808Y-87116174D02*
X141243808Y-87592415D01*
X141243808Y-87592415D02*
X141365685Y-87715826D01*
X141365685Y-87715826D02*
X141487563Y-87839236D01*
X141487563Y-87839236D02*
X141219791Y-88107008D01*
X141219791Y-88107008D02*
X140952019Y-88374779D01*
X140952019Y-88374779D02*
X140417739Y-87838979D01*
X140417739Y-87838979D02*
X140661239Y-87592415D01*
X140661239Y-87592415D02*
X140661239Y-86510303D01*
X140661239Y-86510303D02*
X141243808Y-86510303D01*
X141243808Y-86510303D02*
X141756468Y-86510303D01*
X141756468Y-86510303D02*
X141756468Y-85751668D01*
X141756468Y-85751668D02*
X141501319Y-85484334D01*
X141501319Y-85484334D02*
X141246169Y-85217000D01*
X141246169Y-85217000D02*
X141244989Y-85863651D01*
X141244989Y-85863651D02*
X141243808Y-86510303D01*
X141243808Y-86510303D02*
X140661239Y-86510303D01*
X140661239Y-86510303D02*
X140661239Y-85449567D01*
X140661239Y-85449567D02*
X141098403Y-85012858D01*
X141098403Y-85012858D02*
X141535566Y-84576149D01*
X141535566Y-84576149D02*
X141937302Y-84978377D01*
X141937302Y-84978377D02*
X141937302Y-84978377D01*
G36*
X141098403Y-85012858D02*
G01*
X141535566Y-84576149D01*
X141937302Y-84978377D01*
X142339037Y-85380605D01*
X142339037Y-87592415D01*
X142460915Y-87715826D01*
X142582792Y-87839236D01*
X142315020Y-88107008D01*
X142047248Y-88374779D01*
X141512968Y-87838979D01*
X141756468Y-87592415D01*
X141756468Y-87116174D01*
X141243808Y-87116174D01*
X141243808Y-87592415D01*
X141365685Y-87715826D01*
X141487563Y-87839236D01*
X141219791Y-88107008D01*
X140952019Y-88374779D01*
X140417739Y-87838979D01*
X140661239Y-87592415D01*
X140661239Y-86510303D01*
X141243808Y-86510303D01*
X141756468Y-86510303D01*
X141756468Y-85751668D01*
X141501319Y-85484334D01*
X141246169Y-85217000D01*
X141244989Y-85863651D01*
X141243808Y-86510303D01*
X140661239Y-86510303D01*
X140661239Y-85449567D01*
X141098403Y-85012858D01*
G37*
X141098403Y-85012858D02*
X141535566Y-84576149D01*
X141937302Y-84978377D01*
X142339037Y-85380605D01*
X142339037Y-87592415D01*
X142460915Y-87715826D01*
X142582792Y-87839236D01*
X142315020Y-88107008D01*
X142047248Y-88374779D01*
X141512968Y-87838979D01*
X141756468Y-87592415D01*
X141756468Y-87116174D01*
X141243808Y-87116174D01*
X141243808Y-87592415D01*
X141365685Y-87715826D01*
X141487563Y-87839236D01*
X141219791Y-88107008D01*
X140952019Y-88374779D01*
X140417739Y-87838979D01*
X140661239Y-87592415D01*
X140661239Y-86510303D01*
X141243808Y-86510303D01*
X141756468Y-86510303D01*
X141756468Y-85751668D01*
X141501319Y-85484334D01*
X141246169Y-85217000D01*
X141244989Y-85863651D01*
X141243808Y-86510303D01*
X140661239Y-86510303D01*
X140661239Y-85449567D01*
X141098403Y-85012858D01*
X148467661Y-85240886D02*
X148467661Y-85845252D01*
X148467661Y-85845252D02*
X148060809Y-86253998D01*
X148060809Y-86253998D02*
X148275886Y-86469974D01*
X148275886Y-86469974D02*
X148490964Y-86685949D01*
X148490964Y-86685949D02*
X148490964Y-87592415D01*
X148490964Y-87592415D02*
X148612841Y-87715826D01*
X148612841Y-87715826D02*
X148734719Y-87839236D01*
X148734719Y-87839236D02*
X148466947Y-88107008D01*
X148466947Y-88107008D02*
X148199175Y-88374779D01*
X148199175Y-88374779D02*
X147676465Y-87850211D01*
X147676465Y-87850211D02*
X147906377Y-87593881D01*
X147906377Y-87593881D02*
X147907386Y-87290547D01*
X147907386Y-87290547D02*
X147908395Y-86987214D01*
X147908395Y-86987214D02*
X147652065Y-86731679D01*
X147652065Y-86731679D02*
X147395734Y-86476143D01*
X147395734Y-86476143D02*
X147395734Y-87618935D01*
X147395734Y-87618935D02*
X147512505Y-87733951D01*
X147512505Y-87733951D02*
X147629276Y-87848966D01*
X147629276Y-87848966D02*
X147367243Y-88111744D01*
X147367243Y-88111744D02*
X147277409Y-88200933D01*
X147277409Y-88200933D02*
X147198925Y-88277151D01*
X147198925Y-88277151D02*
X147137682Y-88334811D01*
X147137682Y-88334811D02*
X147099576Y-88368323D01*
X147099576Y-88368323D02*
X147090144Y-88374523D01*
X147090144Y-88374523D02*
X147069733Y-88358520D01*
X147069733Y-88358520D02*
X147023141Y-88314324D01*
X147023141Y-88314324D02*
X146956156Y-88247657D01*
X146956156Y-88247657D02*
X146874566Y-88164241D01*
X146874566Y-88164241D02*
X146820051Y-88107528D01*
X146820051Y-88107528D02*
X146565023Y-87840533D01*
X146565023Y-87840533D02*
X146689094Y-87718003D01*
X146689094Y-87718003D02*
X146813166Y-87595473D01*
X146813166Y-87595473D02*
X146813166Y-86172184D01*
X146813166Y-86172184D02*
X147349129Y-86172184D01*
X147349129Y-86172184D02*
X147646125Y-85875188D01*
X147646125Y-85875188D02*
X147943121Y-85578193D01*
X147943121Y-85578193D02*
X147349129Y-84984201D01*
X147349129Y-84984201D02*
X147349129Y-86172184D01*
X147349129Y-86172184D02*
X146813166Y-86172184D01*
X146813166Y-86172184D02*
X146813166Y-85311562D01*
X146813166Y-85311562D02*
X146679759Y-85176749D01*
X146679759Y-85176749D02*
X146546352Y-85041935D01*
X146546352Y-85041935D02*
X146778358Y-84809055D01*
X146778358Y-84809055D02*
X147010365Y-84576174D01*
X147010365Y-84576174D02*
X147804135Y-84576174D01*
X147804135Y-84576174D02*
X148467661Y-85240886D01*
X148467661Y-85240886D02*
X148467661Y-85240886D01*
G36*
X146679759Y-85176749D02*
G01*
X146546352Y-85041935D01*
X146778358Y-84809055D01*
X147010365Y-84576174D01*
X147804135Y-84576174D01*
X148467661Y-85240886D01*
X148467661Y-85845252D01*
X148060809Y-86253998D01*
X148275886Y-86469974D01*
X148490964Y-86685949D01*
X148490964Y-87592415D01*
X148612841Y-87715826D01*
X148734719Y-87839236D01*
X148466947Y-88107008D01*
X148199175Y-88374779D01*
X147676465Y-87850211D01*
X147906377Y-87593881D01*
X147907386Y-87290547D01*
X147908395Y-86987214D01*
X147652065Y-86731679D01*
X147395734Y-86476143D01*
X147395734Y-87618935D01*
X147512505Y-87733951D01*
X147629276Y-87848966D01*
X147367243Y-88111744D01*
X147277409Y-88200933D01*
X147198925Y-88277151D01*
X147137682Y-88334811D01*
X147099576Y-88368323D01*
X147090144Y-88374523D01*
X147069733Y-88358520D01*
X147023141Y-88314324D01*
X146956156Y-88247657D01*
X146874566Y-88164241D01*
X146820051Y-88107528D01*
X146565023Y-87840533D01*
X146689094Y-87718003D01*
X146813166Y-87595473D01*
X146813166Y-86172184D01*
X147349129Y-86172184D01*
X147646125Y-85875188D01*
X147943121Y-85578193D01*
X147349129Y-84984201D01*
X147349129Y-86172184D01*
X146813166Y-86172184D01*
X146813166Y-85311562D01*
X146679759Y-85176749D01*
G37*
X146679759Y-85176749D02*
X146546352Y-85041935D01*
X146778358Y-84809055D01*
X147010365Y-84576174D01*
X147804135Y-84576174D01*
X148467661Y-85240886D01*
X148467661Y-85845252D01*
X148060809Y-86253998D01*
X148275886Y-86469974D01*
X148490964Y-86685949D01*
X148490964Y-87592415D01*
X148612841Y-87715826D01*
X148734719Y-87839236D01*
X148466947Y-88107008D01*
X148199175Y-88374779D01*
X147676465Y-87850211D01*
X147906377Y-87593881D01*
X147907386Y-87290547D01*
X147908395Y-86987214D01*
X147652065Y-86731679D01*
X147395734Y-86476143D01*
X147395734Y-87618935D01*
X147512505Y-87733951D01*
X147629276Y-87848966D01*
X147367243Y-88111744D01*
X147277409Y-88200933D01*
X147198925Y-88277151D01*
X147137682Y-88334811D01*
X147099576Y-88368323D01*
X147090144Y-88374523D01*
X147069733Y-88358520D01*
X147023141Y-88314324D01*
X146956156Y-88247657D01*
X146874566Y-88164241D01*
X146820051Y-88107528D01*
X146565023Y-87840533D01*
X146689094Y-87718003D01*
X146813166Y-87595473D01*
X146813166Y-86172184D01*
X147349129Y-86172184D01*
X147646125Y-85875188D01*
X147943121Y-85578193D01*
X147349129Y-84984201D01*
X147349129Y-86172184D01*
X146813166Y-86172184D01*
X146813166Y-85311562D01*
X146679759Y-85176749D01*
X150005646Y-84983976D02*
X150425092Y-85402936D01*
X150425092Y-85402936D02*
X150425092Y-87501130D01*
X150425092Y-87501130D02*
X149550758Y-88374556D01*
X149550758Y-88374556D02*
X149160677Y-87983968D01*
X149160677Y-87983968D02*
X148770597Y-87593381D01*
X148770597Y-87593381D02*
X148770597Y-87405240D01*
X148770597Y-87405240D02*
X149353166Y-87405240D01*
X149353166Y-87405240D02*
X149427973Y-87482422D01*
X149427973Y-87482422D02*
X149502781Y-87559604D01*
X149502781Y-87559604D02*
X149661001Y-87402597D01*
X149661001Y-87402597D02*
X149819221Y-87245589D01*
X149819221Y-87245589D02*
X149819221Y-85682181D01*
X149819221Y-85682181D02*
X149586193Y-85450027D01*
X149586193Y-85450027D02*
X149353166Y-85217874D01*
X149353166Y-85217874D02*
X149353166Y-87405240D01*
X149353166Y-87405240D02*
X148770597Y-87405240D01*
X148770597Y-87405240D02*
X148770597Y-85379620D01*
X148770597Y-85379620D02*
X149178398Y-84972318D01*
X149178398Y-84972318D02*
X149586200Y-84565015D01*
X149586200Y-84565015D02*
X150005646Y-84983976D01*
X150005646Y-84983976D02*
X150005646Y-84983976D01*
G36*
X149178398Y-84972318D02*
G01*
X149586200Y-84565015D01*
X150005646Y-84983976D01*
X150425092Y-85402936D01*
X150425092Y-87501130D01*
X149550758Y-88374556D01*
X149160677Y-87983968D01*
X148770597Y-87593381D01*
X148770597Y-87405240D01*
X149353166Y-87405240D01*
X149427973Y-87482422D01*
X149502781Y-87559604D01*
X149661001Y-87402597D01*
X149819221Y-87245589D01*
X149819221Y-85682181D01*
X149586193Y-85450027D01*
X149353166Y-85217874D01*
X149353166Y-87405240D01*
X148770597Y-87405240D01*
X148770597Y-85379620D01*
X149178398Y-84972318D01*
G37*
X149178398Y-84972318D02*
X149586200Y-84565015D01*
X150005646Y-84983976D01*
X150425092Y-85402936D01*
X150425092Y-87501130D01*
X149550758Y-88374556D01*
X149160677Y-87983968D01*
X148770597Y-87593381D01*
X148770597Y-87405240D01*
X149353166Y-87405240D01*
X149427973Y-87482422D01*
X149502781Y-87559604D01*
X149661001Y-87402597D01*
X149819221Y-87245589D01*
X149819221Y-85682181D01*
X149586193Y-85450027D01*
X149353166Y-85217874D01*
X149353166Y-87405240D01*
X148770597Y-87405240D01*
X148770597Y-85379620D01*
X149178398Y-84972318D01*
%TD*%
D17*
%TO.C,J1*%
X131008000Y-58524000D03*
X131008000Y-79524000D03*
%TD*%
M02*
